<svg xmlns="http://www.w3.org/2000/svg" viewBox="0 0 62.65 48.64"><title>client</title><path d="M19.54,26.16c0-.61.89-10.2.89-10.2l6.46-4.23" style="fill:none;stroke:#534470;stroke-linejoin:round;stroke-width:1.5px"/><line x1="30.43" y1="21.06" x2="28.89" y2="26.16" style="fill:none;stroke:#534470;stroke-linecap:round;stroke-linejoin:round;stroke-width:1.5px"/><path d="M43.11,26.16c0-.61-.9-10.2-.9-10.2l-6.46-4.23" style="fill:none;stroke:#534470;stroke-linejoin:round;stroke-width:1.5px"/><polyline points="35.75 11.73 28.84 18.12 30.43 21.06 31.32 21.06 32.22 21.06 33.81 18.12 26.89 11.73" style="fill:none;stroke:#534470;stroke-linecap:round;stroke-linejoin:round;stroke-width:1.5px"/><line x1="32.22" y1="21.06" x2="33.76" y2="26.16" style="fill:none;stroke:#534470;stroke-linecap:round;stroke-linejoin:round;stroke-width:1.5px"/><line x1="35.75" y1="22.36" x2="39.21" y2="22.36" style="fill:none;stroke:#f6b81d;stroke-linecap:round;stroke-linejoin:round;stroke-width:1.5px"/><path d="M35.47,5.1c0-2.82-1.85-5.1-4.15-5.1s-4.15,2.28-4.15,5.1,1.86,5.09,4.15,5.09S35.47,7.91,35.47,5.1Z" style="fill:#f4b71a"/><line x1="42.11" y1="16.05" x2="46.45" y2="14.23" style="fill:none;stroke:#534470;stroke-linejoin:round;stroke-width:1.5px"/><line x1="49.43" y1="16.33" x2="46.45" y2="14.23" style="fill:none;stroke:#534470;stroke-linecap:round;stroke-linejoin:round;stroke-width:1.5px"/><path d="M57.78,26.19c0-.41-1-10.14-1-10.14l-4.34-1.82" style="fill:none;stroke:#534470;stroke-linejoin:round;stroke-width:1.5px"/><polyline points="52.41 14.22 49.43 16.33 49.43 22.36" style="fill:none;stroke:#534470;stroke-linecap:round;stroke-linejoin:round;stroke-width:1.5px"/><ellipse cx="49.43" cy="8.24" rx="3.16" ry="3.88" style="fill:#f4b71a"/><line x1="20.54" y1="16.05" x2="16.19" y2="14.23" style="fill:none;stroke:#534470;stroke-linejoin:round;stroke-width:1.5px"/><line x1="13.22" y1="16.33" x2="16.19" y2="14.23" style="fill:none;stroke:#534470;stroke-linecap:round;stroke-linejoin:round;stroke-width:1.5px"/><path d="M4.86,26.19c0-.41,1-10.14,1-10.14l4.34-1.82" style="fill:none;stroke:#534470;stroke-linejoin:round;stroke-width:1.5px"/><polyline points="10.24 14.22 13.22 16.33 13.22 22.36" style="fill:none;stroke:#534470;stroke-linecap:round;stroke-linejoin:round;stroke-width:1.5px"/><ellipse cx="13.22" cy="8.24" rx="3.16" ry="3.88" style="fill:#f4b71a"/><path d="M56.74,26.16H5.91A5.16,5.16,0,0,0,.75,31.32V47.89H11.32v-2.4a5.82,5.82,0,0,1,5.82-5.82H45.5a5.82,5.82,0,0,1,5.83,5.82v2.4H61.9V31.32A5.16,5.16,0,0,0,56.74,26.16Z" style="fill:none;stroke:#534470;stroke-miterlimit:10;stroke-width:1.5px"/><line x1="16.83" y1="35.47" x2="45.82" y2="35.47" style="fill:none;stroke:#534470;stroke-linecap:round;stroke-miterlimit:10;stroke-width:1.5px"/></svg>