<svg xmlns="http://www.w3.org/2000/svg" xmlns:xlink="http://www.w3.org/1999/xlink" viewBox="0 0 501.32 383.15"><defs><linearGradient id="a" x1="141.25" y1="311.56" x2="201.35" y2="311.56" gradientUnits="userSpaceOnUse"><stop offset="0" stop-color="#eb6c85"/><stop offset="0.22" stop-color="#ed7281"/><stop offset="0.49" stop-color="#f18176"/><stop offset="0.79" stop-color="#f99b63"/><stop offset="1" stop-color="#ffb154"/></linearGradient><linearGradient id="b" x1="119.07" y1="219.33" x2="177.11" y2="219.33" gradientUnits="userSpaceOnUse"><stop offset="0" stop-color="#009db0"/><stop offset="0.28" stop-color="#01c0ca"/><stop offset="0.56" stop-color="#01dade"/><stop offset="0.81" stop-color="#02e9ea"/><stop offset="1" stop-color="#02efee"/></linearGradient><linearGradient id="c" x1="187.88" y1="284.01" x2="230.74" y2="284.01" xlink:href="#b"/><linearGradient id="d" x1="411.08" y1="250.44" x2="454.72" y2="250.44" xlink:href="#b"/><linearGradient id="e" x1="378.17" y1="309.2" x2="427.82" y2="309.2" xlink:href="#b"/><linearGradient id="f" x1="372.46" y1="263.91" x2="383.75" y2="263.91" xlink:href="#b"/><linearGradient id="g" x1="440.07" y1="318.58" x2="501.32" y2="318.58" xlink:href="#b"/><linearGradient id="h" x1="454.5" y1="279.08" x2="456.12" y2="279.08" xlink:href="#b"/><linearGradient id="i" x1="449.9" y1="281.69" x2="452.35" y2="281.69" xlink:href="#b"/><linearGradient id="j" x1="396.26" y1="361.24" x2="468.87" y2="361.24" gradientUnits="userSpaceOnUse"><stop offset="0" stop-color="#fb2040"/><stop offset="0.25" stop-color="#f53d5a"/><stop offset="0.54" stop-color="#ef5772"/><stop offset="0.8" stop-color="#ec6680"/><stop offset="1" stop-color="#eb6c85"/></linearGradient><linearGradient id="k" x1="390.26" y1="95.55" x2="434.49" y2="95.55" gradientUnits="userSpaceOnUse"><stop offset="0" stop-color="#3934c4"/><stop offset="0.27" stop-color="#3f39c9"/><stop offset="0.62" stop-color="#4e47d7"/><stop offset="1" stop-color="#685eee"/></linearGradient><linearGradient id="l" x1="306.81" y1="245.36" x2="387.15" y2="294.03" xlink:href="#a"/><linearGradient id="m" x1="315.03" y1="231.8" x2="395.36" y2="280.46" xlink:href="#a"/><linearGradient id="n" x1="282.72" y1="330.03" x2="308.88" y2="330.03" xlink:href="#k"/><linearGradient id="o" x1="323.6" y1="377.29" x2="349.88" y2="377.29" gradientTransform="translate(-115.3 150.71) rotate(-21.27)" xlink:href="#k"/><linearGradient id="p" x1="363.4" y1="147.46" x2="473.88" y2="147.46" xlink:href="#k"/><linearGradient id="q" x1="-2239.8" y1="307.92" x2="-2558.91" y2="20.1" gradientTransform="matrix(-1, 0, 0, 1, -2106.18, 4.74)" gradientUnits="userSpaceOnUse"><stop offset="0" stop-color="#b9c4ea"/><stop offset="0.2" stop-color="#ced6f0"/><stop offset="0.51" stop-color="#e8edf8"/><stop offset="0.78" stop-color="#f7fafd"/><stop offset="1" stop-color="#fdffff"/></linearGradient><linearGradient id="r" x1="-2472.09" y1="195.45" x2="-2261.02" y2="195.45" gradientTransform="matrix(-1, 0, 0, 1, -2105.8, 0)" xlink:href="#k"/><linearGradient id="s" x1="195.78" y1="205.4" x2="327.21" y2="205.4" xlink:href="#k"/><linearGradient id="t" x1="212.74" y1="112.6" x2="348.96" y2="112.6" gradientTransform="matrix(0.98, -0.2, 0.2, 0.98, -9.43, 52.47)" xlink:href="#a"/><linearGradient id="u" x1="227.07" y1="93.55" x2="292.19" y2="93.55" gradientTransform="translate(537.02 130.31) rotate(168.27)" xlink:href="#q"/><linearGradient id="v" x1="291.95" y1="119.23" x2="339.78" y2="119.23" gradientTransform="matrix(0.98, -0.2, 0.2, 0.98, -9.43, 52.47)" xlink:href="#k"/><linearGradient id="w" x1="291.95" y1="129.59" x2="336.29" y2="129.59" gradientTransform="matrix(0.98, -0.2, 0.2, 0.98, -9.43, 52.47)" xlink:href="#q"/><linearGradient id="x" x1="304.65" y1="108.26" x2="314.75" y2="108.26" gradientTransform="matrix(0.98, -0.2, 0.2, 0.98, -9.43, 52.47)" xlink:href="#q"/><linearGradient id="y" x1="225.37" y1="104.21" x2="261.42" y2="104.21" gradientTransform="matrix(0.98, -0.2, 0.2, 0.98, -9.43, 52.47)" xlink:href="#q"/><linearGradient id="z" x1="267.7" y1="111.4" x2="288.3" y2="111.4" gradientTransform="matrix(0.98, -0.2, 0.2, 0.98, -9.43, 52.47)" xlink:href="#q"/><linearGradient id="aa" x1="224.1" y1="107.77" x2="235.61" y2="107.77" gradientTransform="matrix(0.98, -0.2, 0.2, 0.98, -9.43, 52.47)" xlink:href="#q"/><linearGradient id="ab" x1="246.35" y1="115.42" x2="287.04" y2="115.42" gradientTransform="matrix(0.98, -0.2, 0.2, 0.98, -9.43, 52.47)" xlink:href="#q"/><linearGradient id="ac" x1="222.8" y1="116.61" x2="258.84" y2="116.61" gradientTransform="matrix(0.98, -0.2, 0.2, 0.98, -9.43, 52.47)" xlink:href="#q"/><linearGradient id="ad" x1="265.13" y1="123.8" x2="285.73" y2="123.8" gradientTransform="matrix(0.98, -0.2, 0.2, 0.98, -9.43, 52.47)" xlink:href="#q"/><linearGradient id="ae" x1="221.59" y1="119.87" x2="233.1" y2="119.87" gradientTransform="matrix(0.98, -0.2, 0.2, 0.98, -9.43, 52.47)" xlink:href="#q"/><linearGradient id="af" x1="243.84" y1="127.52" x2="284.52" y2="127.52" gradientTransform="matrix(0.98, -0.2, 0.2, 0.98, -9.43, 52.47)" xlink:href="#q"/><linearGradient id="ag" x1="144.68" y1="299.55" x2="280.9" y2="299.55" gradientTransform="matrix(0.98, -0.2, 0.2, 0.98, -9.43, 52.47)" xlink:href="#j"/><linearGradient id="ah" x1="159.01" y1="280.5" x2="224.13" y2="280.5" gradientTransform="translate(479.6 524.07) rotate(168.27)" xlink:href="#q"/><linearGradient id="ai" x1="223.89" y1="306.18" x2="271.72" y2="306.18" gradientTransform="matrix(0.98, -0.2, 0.2, 0.98, -9.43, 52.47)" xlink:href="#k"/><linearGradient id="aj" x1="223.89" y1="316.54" x2="268.23" y2="316.54" gradientTransform="matrix(0.98, -0.2, 0.2, 0.98, -9.43, 52.47)" xlink:href="#q"/><linearGradient id="ak" x1="236.59" y1="295.21" x2="246.69" y2="295.21" gradientTransform="matrix(0.98, -0.2, 0.2, 0.98, -9.43, 52.47)" xlink:href="#q"/><linearGradient id="al" x1="157.31" y1="291.17" x2="193.36" y2="291.17" gradientTransform="matrix(0.98, -0.2, 0.2, 0.98, -9.43, 52.47)" xlink:href="#q"/><linearGradient id="am" x1="199.64" y1="298.35" x2="220.24" y2="298.35" gradientTransform="matrix(0.98, -0.2, 0.2, 0.98, -9.43, 52.47)" xlink:href="#q"/><linearGradient id="an" x1="156.05" y1="294.73" x2="167.55" y2="294.73" gradientTransform="matrix(0.98, -0.2, 0.2, 0.98, -9.43, 52.47)" xlink:href="#q"/><linearGradient id="ao" x1="178.29" y1="302.37" x2="218.98" y2="302.37" gradientTransform="matrix(0.98, -0.2, 0.2, 0.98, -9.43, 52.47)" xlink:href="#q"/><linearGradient id="ap" x1="154.74" y1="303.57" x2="190.78" y2="303.57" gradientTransform="matrix(0.98, -0.2, 0.2, 0.98, -9.43, 52.47)" xlink:href="#q"/><linearGradient id="aq" x1="197.07" y1="310.75" x2="217.67" y2="310.75" gradientTransform="matrix(0.98, -0.2, 0.2, 0.98, -9.43, 52.47)" xlink:href="#q"/><linearGradient id="ar" x1="153.54" y1="306.82" x2="165.04" y2="306.82" gradientTransform="matrix(0.98, -0.2, 0.2, 0.98, -9.43, 52.47)" xlink:href="#q"/><linearGradient id="as" x1="175.78" y1="314.47" x2="216.47" y2="314.47" gradientTransform="matrix(0.98, -0.2, 0.2, 0.98, -9.43, 52.47)" xlink:href="#q"/><linearGradient id="at" x1="416.99" y1="130.01" x2="477.99" y2="130.01" xlink:href="#k"/><linearGradient id="au" x1="76.87" y1="128.77" x2="101.55" y2="128.77" gradientTransform="translate(82.69 -14.4) rotate(22.24)" xlink:href="#j"/><linearGradient id="av" x1="50.46" y1="160.15" x2="102.91" y2="160.15" gradientTransform="translate(82.69 -14.4) rotate(22.24)" xlink:href="#j"/><linearGradient id="aw" x1="60.31" y1="96.85" x2="80.69" y2="96.85" gradientTransform="translate(-17.1 79.85) rotate(-27.47)" xlink:href="#j"/><linearGradient id="ax" x1="62.71" y1="117.37" x2="80.14" y2="117.37" gradientTransform="translate(82.69 -14.4) rotate(22.24)" xlink:href="#j"/><linearGradient id="ay" x1="59.13" y1="50.65" x2="77.65" y2="50.65" gradientTransform="translate(82.69 -14.4) rotate(22.24)" xlink:href="#a"/><linearGradient id="az" x1="110.1" y1="194.12" x2="246.33" y2="194.12" gradientTransform="matrix(0.98, -0.2, 0.2, 0.98, -9.43, 52.47)" xlink:href="#k"/><linearGradient id="ba" x1="124.43" y1="175.06" x2="189.56" y2="175.06" gradientTransform="translate(369.09 331.61) rotate(168.27)" xlink:href="#q"/><linearGradient id="bb" x1="189.31" y1="200.74" x2="237.14" y2="200.74" gradientTransform="matrix(0.98, -0.2, 0.2, 0.98, -9.43, 52.47)" xlink:href="#b"/><linearGradient id="bc" x1="189.31" y1="211.11" x2="233.65" y2="211.11" gradientTransform="matrix(0.98, -0.2, 0.2, 0.98, -9.43, 52.47)" xlink:href="#q"/><linearGradient id="bd" x1="202.02" y1="189.78" x2="212.11" y2="189.78" gradientTransform="matrix(0.98, -0.2, 0.2, 0.98, -9.43, 52.47)" xlink:href="#q"/><linearGradient id="be" x1="122.73" y1="185.73" x2="158.78" y2="185.73" gradientTransform="matrix(0.98, -0.2, 0.2, 0.98, -9.43, 52.47)" xlink:href="#q"/><linearGradient id="bf" x1="165.07" y1="192.92" x2="185.67" y2="192.92" gradientTransform="matrix(0.98, -0.2, 0.2, 0.98, -9.43, 52.47)" xlink:href="#q"/><linearGradient id="bg" x1="121.47" y1="189.29" x2="132.98" y2="189.29" gradientTransform="matrix(0.98, -0.2, 0.2, 0.98, -9.43, 52.47)" xlink:href="#q"/><linearGradient id="bh" x1="143.71" y1="196.94" x2="184.4" y2="196.94" gradientTransform="matrix(0.98, -0.2, 0.2, 0.98, -9.43, 52.47)" xlink:href="#q"/><linearGradient id="bi" x1="120.16" y1="198.13" x2="156.21" y2="198.13" gradientTransform="matrix(0.98, -0.2, 0.2, 0.98, -9.43, 52.47)" xlink:href="#q"/><linearGradient id="bj" x1="162.49" y1="205.32" x2="183.09" y2="205.32" gradientTransform="matrix(0.98, -0.2, 0.2, 0.98, -9.43, 52.47)" xlink:href="#q"/><linearGradient id="bk" x1="118.96" y1="201.39" x2="130.47" y2="201.39" gradientTransform="matrix(0.98, -0.2, 0.2, 0.98, -9.43, 52.47)" xlink:href="#q"/><linearGradient id="bl" x1="141.2" y1="209.03" x2="181.89" y2="209.03" gradientTransform="matrix(0.98, -0.2, 0.2, 0.98, -9.43, 52.47)" xlink:href="#q"/><linearGradient id="bm" x1="324.19" y1="39.7" x2="333.58" y2="39.7" xlink:href="#a"/><linearGradient id="bn" x1="287.63" y1="39.69" x2="297.02" y2="39.69" xlink:href="#k"/><linearGradient id="bo" x1="181.4" y1="41.52" x2="187.33" y2="41.52" xlink:href="#k"/><linearGradient id="bp" x1="190.73" y1="39.99" x2="196.67" y2="39.99" xlink:href="#k"/><linearGradient id="bq" x1="200.23" y1="38.24" x2="206.17" y2="38.24" xlink:href="#k"/></defs><title>graphic design</title><polygon points="163.23 382.37 161.6 382.33 163.93 320.14 165.56 320.17 163.23 382.37" style="fill:#312da4"/><path d="M171.3,321c-6.93,0-29.53-.27-29.53-3.73s22.6-3.74,29.53-3.74,29.53.27,29.53,3.74S178.23,321,171.3,321Zm-27.49-3.73c2.4,1,12.28,2.1,27.49,2.1s25.09-1.14,27.49-2.1c-2.4-1-12.28-2.1-27.49-2.1S146.21,316.28,143.81,317.24Z" style="fill:#312da4"/><path d="M143.41,290.93a30.05,30.05,0,1,0,55.78,0Z" style="fill:url(#a)"/><path d="M199.19,290.93c0,2.44-12.49,4.42-27.89,4.42s-27.89-2-27.89-4.42,12.49-4.42,27.89-4.42S199.19,288.49,199.19,290.93Z" style="fill:#fda798"/><path d="M196.45,290.93c0,1.8-11.26,3.27-25.15,3.27s-25.15-1.47-25.15-3.27,11.26-3.27,25.15-3.27S196.45,289.13,196.45,290.93Z" style="fill:#7a5f5a"/><path d="M196.46,301.07c-.07-2.25-3.57-2.26-3.5,0,.16,5.34-.54,10.67-4.39,14.69-1.57,1.62.91,4.1,2.47,2.47C195.54,313.56,196.65,307.35,196.46,301.07Z" style="fill:#fff;opacity:0.42"/><path d="M171.3,321c-6.93,0-29.53-.27-29.53-3.73h1.63a.4.4,0,0,0-.09-.28c1,1,11.27,2.38,28,2.38s27-1.38,28-2.38a.4.4,0,0,0-.09.28h1.63C200.83,320.7,178.23,321,171.3,321Z" style="fill:#312da4"/><polygon points="137.56 382.34 135.93 382.22 142.17 317.67 143.8 317.78 137.56 382.34" style="fill:#312da4"/><polygon points="203.6 382.34 198.38 317.99 200.01 317.87 205.23 382.22 203.6 382.34" style="fill:#312da4"/><polygon points="175.61 382.35 174.58 320.17 176.22 320.14 177.25 382.31 175.61 382.35" style="fill:#312da4"/><path d="M196.44,290.94c0,1.32-6,2.46-14.75,3l-1.56.07c-.74,0-1.47.07-2.23.09-.49,0-1,0-1.52.06-1.14,0-2.3,0-3.5,0-.52,0-1,0-1.56,0h0c-2.33,0-4.58-.05-6.72-.12L163,294c-9.8-.45-16.83-1.64-16.83-3.07s5.87-2.44,14.36-3l1.68-.09c2.53-.14,5.27-.21,8.12-.23h1.58c1.73,0,3.42,0,5,.08.52,0,1,0,1.52.06.85,0,1.69.07,2.51.12.52,0,1,.06,1.55.07C190.79,288.55,196.44,289.65,196.44,290.94Z" style="fill:#ff6b77"/><path d="M188.54,262.53c-2.78,5.38,2.49,10.61,7.52,12.17a23.42,23.42,0,0,0,10,.8q-2.15-2.78-4.11-5.7c-1.36-2-2.89-3.85-4.28-5.82-.95-1.34-2-3.06-1.62-4.78.22-1,1-2.44,2.2-2.52,2.61-.17,3.92,4.9,4.55,6.74a24.77,24.77,0,0,0,7.76,11,21.7,21.7,0,0,0,5.17-2.51,21.12,21.12,0,0,0,9.15-14.11c.17-1.11.33-2.59.42-4.3a26.85,26.85,0,0,1-8.58,2.74c-1.54.2-4.36.47-5.62-.65-1.48-1.32.58-2.93,1.89-3.12a20.3,20.3,0,0,1,4.73.28,15.46,15.46,0,0,0,7.3-1.15.47.47,0,0,1,.35,0c.12-5.85-.61-13.75-3.82-20.62a69.82,69.82,0,0,1-9.87,8.65c-1.52,1.18-3.28,2.74-5.23,3.1-.77.14-2.39.14-2.7-.83-.58-1.84,4-4,5.17-4.57,3.9-2,10.45-3.76,11.1-8.89a.37.37,0,0,1,.08-.19,24.13,24.13,0,0,0-7.45-7.89,25.88,25.88,0,0,0-5.54-2.78c-.24,1.84-.38,6.53-2.41,6.41-1.53-.09-2.25-2.78-2.06-4a5.58,5.58,0,0,1,2-3.2,21,21,0,0,0-9.7.06,23.89,23.89,0,0,0-3.16,5.89,22.84,22.84,0,0,0-.88,7.2c0,1,.12,3.35-1,4a1.7,1.7,0,0,1-2-.54c-1.61-2.08.13-6.58.79-8.7a47.36,47.36,0,0,1,2.34-6.52,38,38,0,0,0-13.13,9.93,28.09,28.09,0,0,0,1.3,4c.77,1.77,1.8,3.41,2.68,5.12a.35.35,0,0,1,.18.21,3,3,0,0,1,.1.32h0a.41.41,0,0,1,0,.19c.24,1.21-.09,2.71-1.7,2.14s-2.81-3.06-3.61-4.39a22.38,22.38,0,0,1-1.95-4c-4.24,5.71-7.07,11.82-7.91,16.11-.73,3.72-.37,8,1.8,11a9.88,9.88,0,0,0,4.08-2.84c.77-1,1.2-2.29,2.19-3.14s2.78-.59,2.8,1c0,2-2,4-3.22,5.32a15,15,0,0,1-2.88,2.38C176.49,264.53,183.14,263.73,188.54,262.53Zm26.17-17.41a2.9,2.9,0,0,1,2.2-2.33c.93-.17,1.3.72,1.29,1.51a4.87,4.87,0,0,1-.12,1,.42.42,0,0,1,.06.34,2.86,2.86,0,0,1-1,1.65l-.21.23a.41.41,0,0,1-.62-.06.93.93,0,0,1-.23,0A2.16,2.16,0,0,1,214.71,245.12Zm-31.57,1.07a2.57,2.57,0,0,1,2.57-.24l0,0a.36.36,0,0,1,.26.27,2.6,2.6,0,0,1-.65,2.61,1.46,1.46,0,0,1-2.17-.18A1.76,1.76,0,0,1,183.14,246.19Z" style="fill:#009db0"/><path d="M129,232.85a36.25,36.25,0,0,1-8.45,2.07c0,.05,0,.11,0,.16a23,23,0,0,0,1.09,2.67,17.13,17.13,0,0,0,10.23-2,16.32,16.32,0,0,1,8.81-2,.43.43,0,0,1,.36.64c-1.24,2.7-5.33,3.39-7.92,3.84a76,76,0,0,1-10.77,1,26.34,26.34,0,0,0,7.86,8.77c.43.31.88.58,1.33.85,4.23.22,8.49-1.63,12.12-3.63,1.06-.59,3.94-2.38,4.3-.16.41,2.57-2.39,3.83-4.41,4.23-1.84.37-3.75.48-5.61.78l-2.82.51c9.35,3.48,24.54,3.35,24.44-11.54,0-.08,14.16,8.34,13.9-7.92-.62.3-1.24.59-1.89.86-1.58.66-4.68,2.12-6.33.92-2.05-1.49.32-4.38,1.71-5.3,1.95-1.3,3.89-2.06,5.58-3.76a38.3,38.3,0,0,0,4.38-5.45,22.76,22.76,0,0,0-.48-8.14c-1.57-6-6.44-10-11.56-13l-.24-.14a20.59,20.59,0,0,1,1.05,5.41c.22,3.14.64,6.35-.08,9.46-.48,2.09-2.71,7.7-5.56,7.2-3.39-.59.8-5.91,1.53-7.05a15.9,15.9,0,0,0,1.1-16.1A77.49,77.49,0,0,0,141,188.71a33.7,33.7,0,0,1,5.3,10c.73,2.34,2.5,9.34-1.25,10.35-3.55.95-2.62-6.84-2.74-8.33-.42-5.22-3-9.42-6.64-13-3.33-.55-6.67-1-10-1.47a.44.44,0,0,0-.52.3c-.77,3.33-1.54,6.66-2.25,10a19.9,19.9,0,0,0,.66,1.88c.42,1,1.45,1.89,1.72,2.95.18.7-.15,1.76-1,1.61s-1.65-1.71-2-2.44l-.11-.24c-.85,4.2-1.59,8.43-2.12,12.69l-.18,1.43a15.39,15.39,0,0,0,7.26,4.89c2.65.83,5.64.65,7.89,2.5a.43.43,0,0,1,0,.59c-2.07,2.42-6.06.59-8.38-.49a24.17,24.17,0,0,1-7-5.17c-.62,5.76-.87,11.78.74,17.31a35.15,35.15,0,0,0,8.48-2.07C129.28,231.84,129.5,232.66,129,232.85Zm4.4-29.06a2.6,2.6,0,0,1-2.38-.56,2,2,0,0,1,1.71-3.38,1.62,1.62,0,0,1,1.44,1.35.33.33,0,0,1,.2.27C134.5,202.37,134.38,203.44,133.39,203.79Zm18.75,35.78a1.19,1.19,0,0,1,1.89-.24,2.27,2.27,0,0,1,.57,1.52.37.37,0,0,1,.08.63,1.59,1.59,0,0,1-2-.11A1.44,1.44,0,0,1,152.14,239.57Zm0-33.43c1.23-.71,2.72-.32,2.92,1.18a5.38,5.38,0,0,1-.66,3.07.36.36,0,0,1,0,.18c-.14.88-.62,2.36-1.8,1.78-1-.49-1.47-1.95-1.63-2.94A3.07,3.07,0,0,1,152.1,206.14Zm-11.93,16.57a1.42,1.42,0,0,1,2.15.21.47.47,0,0,1,.65.36,2.09,2.09,0,0,1-1.14,2.28,1.82,1.82,0,0,1-2.07-.36A1.92,1.92,0,0,1,140.17,222.71Z" style="fill:url(#b)"/><path d="M200.07,295.4a22,22,0,0,0-1.78,5.25l-.11,0a16.87,16.87,0,0,1-1.71-.83,10.45,10.45,0,0,1,1.82-6.37,9.88,9.88,0,0,0,1.77-5.46.28.28,0,0,0-.4-.27c-1.85.65-2.5,3.21-2.93,4.82a45.26,45.26,0,0,0-1.16,6.76,17.31,17.31,0,0,1-5.43-5.41c-.18-.29-.34-.59-.5-.89.06-2.68,1.49-5.28,3-7.48.44-.64,1.77-2.37.31-2.71-1.68-.39-2.65,1.32-3,2.57s-.5,2.35-.79,3.51c-.15.59-.31,1.18-.47,1.76-1.85-6.09-1-15.69,8.82-14.87,0,0-4.84-9.38,5.92-8.39-.23.37-.45.76-.66,1.15-.51,1-1.64,2.85-.92,4,.89,1.37,2.92,0,3.6-.82a20.35,20.35,0,0,1,2.75-3.34,25.56,25.56,0,0,1,3.82-2.49,15.46,15.46,0,0,1,5.37.72c3.9,1.29,6.28,4.57,8.06,8l.07.16a14.61,14.61,0,0,0-3.52-.94,22.88,22.88,0,0,0-6.28-.43c-1.41.2-5.23,1.33-5,3.16.23,2.17,4-.21,4.75-.61a11,11,0,0,1,10.72.11,48.11,48.11,0,0,1,3.75,14.13,22.76,22.76,0,0,0-6.38-3.86c-1.51-.58-6.07-2.06-6.92.26s4.4,2,5.38,2.16a13.77,13.77,0,0,1,8.29,4.85c.2,2.14.35,4.27.49,6.39a.27.27,0,0,1-.22.31c-2.24.32-4.49.63-6.73.92a13.14,13.14,0,0,1-1.22-.52c-.66-.32-1.18-1-1.87-1.23-.45-.15-1.17,0-1.12.57s1.06,1.13,1.53,1.39l.15.09c-2.83.32-5.66.58-8.51.7l-.95,0a9.69,9.69,0,0,1-2.89-4.84c-.42-1.72-.16-3.6-1.27-5.11a.29.29,0,0,0-.4,0c-1.7,1.19-.68,3.8-.08,5.32a15.45,15.45,0,0,0,3.09,4.71,31.55,31.55,0,0,1-11.43-1.34,21.48,21.48,0,0,1,1.78-5.26C200.75,295.28,200.22,295.09,200.07,295.4Zm19.46-1.31a1.57,1.57,0,0,0,.25,1.53,1.29,1.29,0,0,0,2.32-.91,1.06,1.06,0,0,0-.82-1,.24.24,0,0,0-.17-.13C220.51,293.46,219.8,293.48,219.53,294.09Zm-22.8-13.66a.75.75,0,0,0,.26-1.19,1.58,1.58,0,0,0-1-.43.25.25,0,0,0-.41-.09,1.08,1.08,0,0,0,1.14,1.71Zm22.14,1.71a1.14,1.14,0,0,0-.64-1.9,3.64,3.64,0,0,0-2.06.26.27.27,0,0,0-.13,0c-.59,0-1.58.27-1.26,1a2.74,2.74,0,0,0,1.87,1.18A2.1,2.1,0,0,0,218.87,282.14Zm-11.55,6.71a.88.88,0,0,0,0-1.37.3.3,0,0,0-.21-.43,1.41,1.41,0,0,0-1.57.61,1.11,1.11,0,0,0,.14,1.32A1.32,1.32,0,0,0,207.32,288.85Z" style="fill:url(#c)"/><path d="M118.31,266a11.83,11.83,0,0,0,1,.77,14.84,14.84,0,0,0,5,.54c2-.14,3.9-.77,5.86-1.09,1.48-.23,5.85,0,4.81,2.83-.62,1.72-3.39,2.06-5.28,2.22a26.81,26.81,0,0,1,2.85,1.26,18.7,18.7,0,0,1,5.74,5.06,11.87,11.87,0,0,0,4.59,1.06c1.39,0,2.17-.7,3.38-1.16,1-.38,2.4-.29,1.88,1.25s-2.84,1.72-4.19,1.77a22.18,22.18,0,0,1-3.15-.12,7.73,7.73,0,0,0,4.14,2.13c4.51.64,8-3.14,7.78-7.76,4.63,3.58,10.59,2.31,14.39-1.64a7.76,7.76,0,0,0,2.38-6.36c-2.5,2.68-7,6.3-8.92,3.18-1-1.51,1-2.71,2-3.27,2.11-1.21,4.41-1.77,6.36-3.15a60.43,60.43,0,0,0-2.39-8.15,34.93,34.93,0,0,0-3.91-7.59,52,52,0,0,1-1.64,11.66c-.33,1.19-1.27,4-2.85,2.54-2.31-2.17,0-6.07.9-8.15a18.52,18.52,0,0,0,.89-9.32,20.47,20.47,0,0,0-3-2.54,28.11,28.11,0,0,0-10.55-4.32c.42,1.09.79,2.19,1.15,3.23.85,2.47,2.08,5.79,1.57,8.43-.28,1.44-2.15,2.91-3.15,1.13-.64-1.13-.13-2.72-.24-3.93-.29-3.24-1.95-6.48-3.42-9.32a.61.61,0,0,1-.05-.18c-.55-.06-1.1-.12-1.65-.16a49.35,49.35,0,0,0-9.24.12,6.43,6.43,0,0,1,3,5.41c-.13,1.9-1.42,4.3-3.48,3.75-2.91-.78-3.4-5.45-2.94-8.6a26.35,26.35,0,0,0-5.84,1.94,12.09,12.09,0,0,0-5.62,5.7c2.38,3,5.42,5,8.52,7.1.76.5,3.22,2.17,1.81,3.21s-3.81-1.4-4.79-2.18c-2.44-2-4.09-4.69-5.95-7.23a18.28,18.28,0,0,0-1.25,5.42,30.7,30.7,0,0,0,.17,7.56c3.35-.13,6.79-3,9.92-.4a.46.46,0,0,1,0,.69c-1.67,1.39-4.51,1.05-6.53,1.21l-3,.21A10.26,10.26,0,0,0,118.31,266Zm30.46-5.45a3.68,3.68,0,0,1,.77-3,1.15,1.15,0,0,1,1.16-.41c.59.17.89.83,1.09,1.39a.47.47,0,0,1,0,.2,4.11,4.11,0,0,1,.37,2.27c-.1.81-.53,1.88-1.42,1.91S148.93,261.5,148.77,260.57Zm-11.37-7.78a2.43,2.43,0,0,1-.82-3,1.39,1.39,0,0,1,2.19-.51.38.38,0,0,1,.25.1,2.36,2.36,0,0,1,.66,2.82A1.5,1.5,0,0,1,137.4,252.79Zm6.86,17.09a.4.4,0,0,1,0,.62,2.28,2.28,0,0,1-.3,2.36,1.63,1.63,0,0,1-2.55-.51A1.91,1.91,0,0,1,144.26,269.88Z" style="fill:#009db0"/><path d="M164.58,294.07,163,294c-.56-1.61-1.15-3.21-1.87-4.78-.19-.42-.39-.83-.6-1.25a58.26,58.26,0,0,0-16.39-20.26c-.78-.63.33-1.72,1.11-1.11a59.54,59.54,0,0,1,16.7,20.7c.09.19.18.39.26.58A48.65,48.65,0,0,1,164.58,294.07Z" style="fill:#009db0"/><path d="M172.88,294.17c-.52,0-1,0-1.56,0-.29-2.18-.63-4.36-1-6.53-.65-3.76-1.41-7.5-2.23-11.22-1.76-7.85-3.83-15.63-5.92-23.41-2-7.6-4.24-15.17-8.93-21.62-.6-.8.76-1.58,1.34-.78,4.51,6.18,6.76,13.4,8.75,20.71,2.36,8.68,4.67,17.38,6.58,26.16.74,3.37,1.42,6.76,2,10.16C172.27,289.83,172.6,292,172.88,294.17Z" style="fill:#009db0"/><path d="M191.47,258.43a89.05,89.05,0,0,0-5.07,12.81c-.21.63-.39,1.26-.57,1.88h0A120.91,120.91,0,0,0,182.53,288c-.33,2-.6,3.95-.84,5.92l-1.56.07c.25-2,.52-4.05.85-6.06a123.15,123.15,0,0,1,2.82-13.32c.22-.81.45-1.63.7-2.43a94.37,94.37,0,0,1,5.63-14.53C190.56,256.73,191.91,257.52,191.47,258.43Z" style="fill:#009db0"/><path d="M205.92,282.35c-4-2.67-8-5.4-12.1-8-2.27-1.46-4.51-2.56-7.23-1.56a7.63,7.63,0,0,0-.76.36,8.66,8.66,0,0,0-2,1.48,12.76,12.76,0,0,0-2,2.57,27.37,27.37,0,0,0-3.3,10.63c-.29,2.07-.45,4.19-.57,6.27-.49,0-1,0-1.52.06.13-2.09.28-4.26.57-6.39.67-5.29,2.07-10.39,5.46-13.87a10.81,10.81,0,0,1,2.09-1.7,9,9,0,0,1,1.9-.93,7.4,7.4,0,0,1,5.18.08c2.34.91,4.54,2.73,6.63,4.12l8.46,5.63C207.48,281.59,206.73,282.89,205.92,282.35Z" style="fill:#009db0"/><path d="M446,247.87A15.24,15.24,0,0,0,454.7,245a74.39,74.39,0,0,1-1.29,16c-3.42,5.5-12.9,15.63-12.25,15.58a30.7,30.7,0,0,0,7.6-1.78,56.7,56.7,0,0,1-5.79,9.48c-4.6,6.13-11.15,11-13.64,18.52a.51.51,0,0,1-.29.33.54.54,0,0,1-.9.39c-12.37-11.74-14.58-29.58-16.39-45.67-.09-.77-.17-1.51-.25-2.28a49.94,49.94,0,0,0,11.41,8.9c.6.32-7.75-13-11.83-19.18a36.13,36.13,0,0,1,2.12-11.42c2.9-7.76,7.86-15,12.68-21.69.19-.28.42-.55.61-.82a37.12,37.12,0,0,0,5.33,9.64c.39.52-.88-9.76-1.66-14.46,1.2-1.5,2.41-3,3.67-4.45,1.65-1.94,3.69-5.24,6.65-4.8s9.42,12.17,10.25,15.54c.36,1.44.68,2.91,1,4.38.14.63.26,1.28.37,1.91A176,176,0,0,1,454.28,237c-.2.32-.41.63-.64.94C451.24,241.23,445.41,247.87,446,247.87Z" style="fill:url(#d)"/><path d="M434.73,241.94c6.11-.92,10.77-4.77,15.25-8.75.67-.59-.16-1.72-.83-1.12-4.2,3.72-8.58,7.45-14.27,8.42,1.3-9.09,2.81-18.14,4.59-27.15.18-.89-1.2-1.1-1.38-.22q-3.54,17.91-5.78,36a59.73,59.73,0,0,1-8.08-16.24c-.28-.86-1.57-.33-1.3.52a61.14,61.14,0,0,0,8.67,17.15.61.61,0,0,0,.5.27c-.32,2.64-.61,5.28-.89,7.93a37.94,37.94,0,0,1-6-10.49c-.31-.85-1.61-.33-1.3.52a39,39,0,0,0,6.82,11.63.69.69,0,0,0,.29.2q-1.35,13-2,26.16a.82.82,0,0,0-.08.3q-.27,4.8-.33,9.58-.1,3.13-.17,6.25a.6.6,0,0,0,.2.48c.36,19.68,3.28,39.16,7.42,58.43l1.36-.32c-4.68-21.78-7.79-43.82-7.38-66.13.08-2.36.18-4.71.29-7.07a.67.67,0,0,0,.62-.07,23.35,23.35,0,0,0,6.4-6.55c.48-.74-.61-1.62-1.1-.87a22.28,22.28,0,0,1-5.85,6.08q1.17-22.57,4.32-45Z" style="fill:#009db0"/><path d="M386.21,282.4a15.09,15.09,0,0,1-8.22.7,52.73,52.73,0,0,0,5.74,11.58c4.5,3,15.51,7.51,14.94,7.68a31.16,31.16,0,0,1-7,1.17,45.28,45.28,0,0,0,7.68,5.21c5.69,3.1,12.69,4.63,17,9.43a.41.41,0,0,0,.34.16.5.5,0,0,0,.87,0c7.11-12.89,3.8-27,.67-39.71-.15-.6-.29-1.19-.46-1.79a44.67,44.67,0,0,1-7.1,10.43c-.42.44,2.8-12.33,4.48-18.3a26,26,0,0,0-5.13-7.88c-4.71-4.88-11-8.7-17.08-12.13l-.75-.41a29.11,29.11,0,0,1-1.73,9c-.18.52-2.09-7.62-2.79-11.41-1.46-.73-2.92-1.46-4.41-2.13-2-.92-4.66-2.73-7.05-1.43s-4.47,12.25-4.2,15.05c.11,1.2.27,2.41.45,3.61.06.52.15,1,.24,1.56A127.22,127.22,0,0,0,376,277c.26.17.53.34.82.5C379.84,279.13,386.72,282.2,386.21,282.4Z" style="fill:#009db0"/><path d="M427.82,364.75c-2.08-15.84-5.26-31.43-10.67-46.35a.41.41,0,0,0,0-.42c-.64-1.55-1.29-3.09-2-4.64q-1.44-3.57-3.07-7.09a.62.62,0,0,0-.15-.2q-4.39-9.62-9.33-19a.67.67,0,0,0,.18-.25,30.79,30.79,0,0,0,2.42-11c0-.74-1.24-.7-1.26,0a29.55,29.55,0,0,1-2.05,9.85q-1.5-2.84-3.06-5.66a.59.59,0,0,0,.35-.37A47.44,47.44,0,0,0,401.63,264c0-.73-1.27-.69-1.25,0a46.28,46.28,0,0,1-2.15,14.86Q391,266,382.84,253.69c-.4-.61-1.51,0-1.11.62,4.14,6.18,8,12.49,11.8,18.89-5.12,1.14-9.92-.22-14.58-1.64a.59.59,0,0,0-.38,1.12c5,1.51,10.05,2.88,15.51,1.56l0,0q9.17,15.78,16.74,32.37a19.07,19.07,0,0,1-6.74-2.64c-.64-.41-1.31.61-.68,1a20.11,20.11,0,0,0,7.34,2.82.68.68,0,0,0,.55-.15q1.17,2.6,2.3,5.21c6.83,16.63,10.59,34.21,12.94,52.11Z" style="fill:url(#e)"/><path d="M383.33,265.47a31.93,31.93,0,0,1-10.87-4.25c.06.52.15,1,.24,1.56a33.73,33.73,0,0,0,10.24,3.81C383.72,266.73,384.1,265.62,383.33,265.47Z" style="fill:url(#f)"/><path d="M501.32,276c-.08,5-11.72,7.47-15.41,8.84-8.18,3-16.17,6.08-22.22,12.66-7.13,7.76-13.28,16.72-19.43,25.27a1.42,1.42,0,0,1-1.45.62,22.83,22.83,0,0,1-1.7-3.67c-2.12-5.23-5.36-14.79-4.56-20.24a33.12,33.12,0,0,1,3.71-10.87,9.79,9.79,0,0,0,2.33,4.6c.29.3.93-6.87,1.35-10.13q.8-1,1.65-1.92a36.86,36.86,0,0,1,4.31-4c.32-.26.65-.52,1-.77a45.9,45.9,0,0,1,3.92-2.6c.35-.21.72-.42,1.09-.62a42,42,0,0,1,3.92-1.94,26.22,26.22,0,0,0,2.16,7.17c.22.48.77-5.67.85-8.39,1.26-.47,2.56-.87,3.87-1.24a20.32,20.32,0,0,0,1.6,4.63c.18.35,1.91-3.81,2.53-5.64a50.82,50.82,0,0,1,12.47-1c.36,0,.71,0,1.06.06,1.12.08,2.22.21,3.31.37,4,.63,13.46,3.17,13.64,8.59A.76.76,0,0,1,501.32,276Z" style="fill:#009db0"/><path d="M456.54,289.18c-9.89,9.75-13,27.68-13.6,32.77a23.33,23.33,0,0,0-2,6.62c-1.18,8.05-.83,16.54-.63,24.65.06,2.66.18,5.33.32,8L442,361c-.09-1.68-.17-3.36-.23-5-.25-7.26-.24-14.53.1-21.79a32,32,0,0,1,2-11,1.54,1.54,0,0,0,.44-.41c6.15-8.55,12.3-17.51,19.43-25.27,6.05-6.58,14-9.63,22.21-12.66,3.7-1.37,15.34-3.81,15.42-8.84C485.81,277.76,467.92,277.94,456.54,289.18Z" style="fill:url(#g)"/><path d="M456.11,284.39a32.36,32.36,0,0,1-.21-11.23c-.37.2-.74.41-1.09.62a32.85,32.85,0,0,0,.31,10.83C455.24,285.26,456.23,285,456.11,284.39Z" style="fill:url(#h)"/><path d="M452.33,286.39a42.44,42.44,0,0,1-1.44-10c-.34.25-.67.51-1,.77a43,43,0,0,0,1.43,9.48C451.5,287.26,452.5,287,452.33,286.39Z" style="fill:url(#i)"/><path d="M468.87,353.63a36.22,36.22,0,0,1-15,29.4H411.27a36.33,36.33,0,0,1-14.14-37.32,34.87,34.87,0,0,1,2-6.26H466a35.69,35.69,0,0,1,2,6.26A36.27,36.27,0,0,1,468.87,353.63Z" style="fill:url(#j)"/><path d="M468.87,353.63a36.22,36.22,0,0,1-15,29.4H411.27c55.64,2.76,54.73-43.58,54.73-43.58a35.69,35.69,0,0,1,2,6.26A36.27,36.27,0,0,1,468.87,353.63Z" style="fill:#cf3b59"/><path d="M412.39,339.45H399.13a34.87,34.87,0,0,0-2,6.26A36.28,36.28,0,0,0,411.27,383h5.89C410,377.85,406.71,354.21,412.39,339.45Z" style="fill:#ff5675"/><path d="M361.46,46.67c-.21,0-4.28,2-7.56.73a21.61,21.61,0,0,1-8.48-6.91,18.65,18.65,0,0,1-3.51-7.43c-.5-2.26.56-2.89,1-2.91.54-2.27,3.88-3.46,4.86-.82.2.51.37,1,.56,1.56a2.76,2.76,0,0,1,4.12,1.57c.46,1.7.15,4.21,1.12,5.7s4.06,1.31,6.87,2.32C363.85,40.9,364.87,47.09,361.46,46.67Z" style="fill:#fda798"/><path d="M338.94,96.74c-1.43,3.52-1.29,6.87,1,8.72a5.44,5.44,0,0,0,1.53.87,6.51,6.51,0,0,0,1.42.33,27.1,27.1,0,0,0,2.79.3c.32,0,.68.08,1,.07s.85.07,1.32.09a0,0,0,0,0,0,0c11.16.56,33.08-.19,46.57-3.57.79-.21,1.56-.4,2.27-.63C415,97.53,399.61,85,401.51,80.83c0,0-32.46,1.57-46.39,3.38a14.5,14.5,0,0,0-1.6.29A21.47,21.47,0,0,0,338.94,96.74Z" style="fill:#fda798"/><path d="M354.17,45.6s-4.15,6-8.76,14c-5.27,9-11.1,20.56-12,28.43a16.29,16.29,0,0,0-.11,2.75c0,.14,0,.29,0,.43a14.41,14.41,0,0,0,.55,2.88,12.33,12.33,0,0,0,.77,2,.18.18,0,0,0,.06.1s0,0,0,0c1.45,3,3.8,8.78,6.57,10.18l.19.1a8.48,8.48,0,0,0,4.7.46,17.29,17.29,0,0,0,8.15-4.26,16.31,16.31,0,0,0,2.39-2.53c.64-.84.91-3.17,1.1-6.8.53-9,.72-26.08,5.47-48.75C355.52,43.76,354.17,45.6,354.17,45.6Z" style="fill:#fda798"/><path d="M333.84,94.07a12.33,12.33,0,0,0,.77,2,.18.18,0,0,0,.06.1s0,0,0,0c1.45,3,3.8,8.78,6.57,10.18.9.14,1.91.29,3,.39.33,0,.68.08,1,.08a5.25,5.25,0,0,0,.88.09h.31c16,1.29,44.64-.33,44.64-.33l2.09-3.25,4.3-6.72s-24.87,7.5-42.53,6.09a6.19,6.19,0,0,1-.63,0h0a37.79,37.79,0,0,1-16.78-6.12C336.24,95.75,335,94.9,333.84,94.07Z" style="fill:#fd876d"/><path d="M395.53,79.21a81.74,81.74,0,0,0-5.09,20.61,37.48,37.48,0,0,0,0,6.86,22.22,22.22,0,0,0,1.24,5.7l0,.1,0,0s39.69-17.19,41.94-21.09-.62-5.93-.67-6S409,76.16,395.53,79.21Z" style="fill:url(#k)"/><path d="M390.44,99.82a37.48,37.48,0,0,0,0,6.86,22.22,22.22,0,0,0,1.24,5.7l0,.11h0c9.72-12.6,27.06-23.42,27.6-23.76C412.84,90.45,395.46,97.7,390.44,99.82Z" style="fill:#312da4"/><path d="M425.21,202.88s-10,27.59-17.71,44.29C396.05,271.89,345,380.79,345,380.79L338,378.45,373.5,225.16s17.32-20.1,23.7-34.92C411,196.53,424.16,202.51,425.21,202.88Z" style="fill:url(#l)"/><path d="M383.48,166.25s14.53,10.94,28.39,21.34c-9.4,13.11-22.85,23.46-33,36l-64.18,48.71-8.15,52.25-7.31,4.63s-12.59-55-2.77-72.26C302.12,247,370.92,179,383.48,166.25Z" style="fill:url(#m)"/><path d="M306.53,324.6l8.15-52.25,65.26-49.83s-8.39-11.3-8.28-17a28.72,28.72,0,0,0,.24,15l-64.46,46.27S307.37,321,302.6,328Z" style="fill:#d6695d"/><path d="M343,380.24l2.54-.42s48.28-101.62,63.33-136c5.38-12.29,16.38-41,16.38-41l-18.3-8.48s-5.12,26.8-13.21,53.69C387.34,269.19,361.41,345.39,343,380.24Z" style="fill:#d6695d"/><path d="M306.42,324.09l2.46,6.09L282.72,336s7.1-8.19,15.4-10c.09.85,6.51.85,8.1-1.67Z" style="fill:url(#n)"/><rect x="282.6" y="333.06" width="26.79" height="1.84" transform="translate(-65.16 71.84) rotate(-12.48)" style="fill:#312da4"/><path d="M347.28,374.57l1,6.5-26.79-.25s8.77-6.39,17.27-6.32c-.11.85,6.15,2.3,8.26.19Z" style="fill:url(#o)"/><rect x="333.98" y="368.46" width="1.84" height="26.8" transform="translate(-50.05 713.21) rotate(-89.47)" style="fill:#312da4"/><path d="M423.57,63.67c.21.84.4,1.62.52,2.35a39.83,39.83,0,0,1,.61,5.82,43.66,43.66,0,0,1-.06,5.28,48.56,48.56,0,0,1-1.38,8.95c13.74,9.2,31.34,3.48,31.34,3.48a80.34,80.34,0,0,1-1.09-9.47,109.4,109.4,0,0,1,.24-12,.64.64,0,0,1,0-.24v-.18Z" style="fill:#fda798"/><path d="M424.09,66a23.1,23.1,0,0,1,.61,5.81c.1,1.88-.32,7.36-.43,9l.34.19a16.71,16.71,0,0,0,7.08,2c12.51.71,19.52-4.74,21.75-6.85,0-3.75.21-7,.31-8.08a.9.9,0,0,1,0-.24.7.7,0,0,1,0-.17l-30.19-4C423.78,64.51,424,65.3,424.09,66Z" style="fill:#fd876d"/><path d="M455.88,88.91s13.31,14.49,18,22.49c0,0-44,77.93-51.63,102,0,0-53.11-22.22-58.85-38.53,0,0,19.82-48.26,31-65.92,10.74-17,18.28-25.49,28.7-27.46C423.1,81.5,432.47,94.88,455.88,88.91Z" style="fill:url(#p)"/><path d="M455.74,147.46s-31.75,55-33.49,65.95c0,0-9.42-4.2-17.6-8.13,0,0,28.74-37,35-55.82,9.64-28.85,34.1-33.34,34.1-33.34S455.51,138.17,455.74,147.46Z" style="fill:#312da4"/><path d="M460.91,106.64,438,158.76s-20.06-34.24-23.88-39C434.49,104.89,453.53,104.28,460.91,106.64Z" style="fill:#312da4"/><path d="M360.1,37c.61,1.57,1.48,4.84,1.19,6.42-.13.76-2.24-.18-2.83-.12A1.41,1.41,0,0,1,356.25,42a13.58,13.58,0,0,0,.3-3.24c-.09-1.26-.79-1.67-1.71-2.43-1.2-1-.08-3.17,1.43-2.47S359.47,35.36,360.1,37Z" style="fill:#fda798"/><path d="M355.31,23.44c2.15.95,2.67,5.4-.15,6.36-.55.19-1.11.35-1.67.53.52,1.89-.26,4.64-2.39,5.13-1.78.39-4.22-.3-5.89.79a4.21,4.21,0,0,0-1.37,2,12,12,0,0,1,.68-12.8,18.16,18.16,0,0,1,8.11-3.66C355,21.41,355.38,22.84,355.31,23.44Z" style="fill:#fda798"/><rect x="166.14" y="21.22" width="192.01" height="342.24" transform="translate(0.39 -0.52) rotate(0.11)" style="fill:url(#q)"/><path d="M351.85,8.32,240.84,9l0,14.41,56.22.12,40.07.22a24.44,24.44,0,0,1,24.4,24.5L361,327a24.44,24.44,0,0,1-24.49,24.4l-96.3.2-.06,30.27,111,1a24.45,24.45,0,0,0,24.5-24.39l.61-325.69A24.45,24.45,0,0,0,351.85,8.32Z" style="fill:#312da4"/><path d="M343.52,8.22c-.55,0-1.12-.05-1.69-.05l-170.7,0A15.84,15.84,0,0,0,155.28,24l-.06,342.91a15.84,15.84,0,0,0,15.83,15.84l170.71,0c.56,0,1.12,0,1.67-.06a24.45,24.45,0,0,0,22.8-24.4l0-325.67A24.46,24.46,0,0,0,343.52,8.22Zm8,327.2a15.85,15.85,0,0,1-15.85,15.85l-149.89,0a15.84,15.84,0,0,1-15.83-15.84l.05-296a15.85,15.85,0,0,1,15.84-15.84l149.9,0a15.84,15.84,0,0,1,15.84,15.84Z" style="fill:url(#r)"/><path d="M280.75,374.36l-40.69-.08a7.39,7.39,0,0,1-7.37-7.41h0a7.38,7.38,0,0,1,7.4-7.37l40.7.08a7.39,7.39,0,0,1,7.37,7.41h0A7.39,7.39,0,0,1,280.75,374.36Z" style="fill:#312da4"/><g style="opacity:0.64"><path d="M321.08,134.07H313.2a1,1,0,0,1,0-2h7.87a1,1,0,0,1,0,2Zm-15.75,0h-7.88a1,1,0,0,1,0-2h7.88a1,1,0,0,1,0,2Zm-15.75,0H281.7a1,1,0,0,1,0-2h7.88a1,1,0,0,1,0,2Zm-15.76,0h-7.88a1,1,0,0,1,0-2h7.87a1,1,0,0,1,0,2Zm-15.75,0h-7.88a1,1,0,0,1,0-2h7.88a1,1,0,0,1,0,2Zm-15.76,0h-7.87a1,1,0,0,1,0-2h7.88a1,1,0,0,1,0,2Zm-15.75,0h-7.88a1,1,0,0,1,0-2h7.88a1,1,0,0,1,0,2Zm-15.75,0h-7.88a1,1,0,0,1-1-1,1,1,0,0,1,1-1h7.94a1,1,0,0,1,1,1A1,1,0,0,1,210.81,134ZM327,130a.82.82,0,0,1-.22,0,1,1,0,0,1-.76-1.19,4,4,0,0,0,.1-.91v-6.74a1,1,0,0,1,1-1h0a1,1,0,0,1,1,1v6.74a6,6,0,0,1-.15,1.34A1,1,0,0,1,327,130ZM197.73,129a1,1,0,0,1-1-1,2.71,2.71,0,0,1,0-.29v-7.63a1,1,0,0,1,1-1h0a1,1,0,0,1,1,1V128a1,1,0,0,1-.95,1Zm129.4-14.79h0a1,1,0,0,1-1-1v-7.88a1,1,0,0,1,1-1h0a1,1,0,0,1,1,1v7.88A1,1,0,0,1,327.13,114.24Zm-129.4-1h0a1,1,0,0,1-1-1V104.4a1,1,0,0,1,1-1h0a1,1,0,0,1,1,1v7.88A1,1,0,0,1,197.73,113.27ZM327.14,98.49h0a1,1,0,0,1-1-1V89.61a1,1,0,0,1,1-1h0a1,1,0,0,1,1,1v7.88A1,1,0,0,1,327.14,98.49Zm-129.4-1h0a1,1,0,0,1-1-1V88.64a1,1,0,0,1,1-1h0a1,1,0,0,1,1,1v7.88A1,1,0,0,1,197.74,97.52Zm129.4-14.79a1,1,0,0,1-1-.94,4.21,4.21,0,0,0-4.18-4,1,1,0,0,1,0-2h0a6.22,6.22,0,0,1,6.17,5.88,1,1,0,0,1-.95,1Zm-129.26-1-.22,0a1,1,0,0,1-.75-1.19A6.17,6.17,0,0,1,203,75.72h.85a1,1,0,0,1,0,2H203A4.24,4.24,0,0,0,198.86,81,1,1,0,0,1,197.88,81.78Zm116.21-4h-7.87a1,1,0,0,1,0-2h7.87a1,1,0,0,1,1,1A1,1,0,0,1,314.09,77.79Zm-15.75,0h-7.88a1,1,0,0,1,0-2h7.88a1,1,0,0,1,0,2Zm-15.75,0h-7.88a1,1,0,0,1,0-2h7.88a1,1,0,0,1,0,2Zm-15.76,0H259a1,1,0,0,1,0-2h7.87a1,1,0,0,1,0,2Zm-15.75,0H243.2a1,1,0,0,1,0-2h7.88a1,1,0,1,1,0,2Zm-15.75,0h-7.88a1,1,0,0,1,0-2h7.88a1,1,0,0,1,0,2Zm-15.76,0h-7.88a1,1,0,0,1,0-2h7.88a1,1,0,0,1,0,2Z" style="fill:#d6695d"/></g><g style="opacity:0.64"><path d="M314.65,234.57h-9.14a1,1,0,0,1,0-2h9.14a1,1,0,0,1,0,2Zm-17.25,0h-9.14a1,1,0,0,1,0-2h9.14a1,1,0,0,1,0,2Zm-17.26,0H271a1,1,0,0,1,0-2h9.13a1,1,0,0,1,0,2Zm-17.25,0h-9.14a1,1,0,0,1,0-2h9.14a1,1,0,0,1,0,2Zm-17.26,0H236.5a1,1,0,0,1,0-2h9.13a1,1,0,0,1,0,2Zm-17.25,0h-9.14a1,1,0,0,1,0-2h9.13a1,1,0,0,1,0,2Zm-17.25,0H202a1,1,0,0,1-1-1,1,1,0,0,1,1-1h9.2a1,1,0,0,1,0,2Zm111.6-.24a1,1,0,0,1-.94-.66,1,1,0,0,1,.61-1.28,4.22,4.22,0,0,0,2.78-4v-2.75a1,1,0,0,1,1-1h0a1,1,0,0,1,1,1v2.75a6.22,6.22,0,0,1-4.11,5.84A1,1,0,0,1,322.73,234.27Zm-126-5h0a1,1,0,0,1-1-1v-9.14a1,1,0,0,1,1-1h0a1,1,0,0,1,1,1v9.13A1,1,0,0,1,196.78,229.29ZM326.19,218.5h0a1,1,0,0,1-1-1v-9.14a1,1,0,0,1,1-1h0a1,1,0,0,1,1,1v9.13A1,1,0,0,1,326.19,218.5ZM196.79,212h0a1,1,0,0,1-1-1v-9.13a1,1,0,0,1,1-1h0a1,1,0,0,1,1,1V211A1,1,0,0,1,196.79,212Zm129.41-10.8h0a1,1,0,0,1-1-1v-9.13a1,1,0,0,1,1-1h0a1,1,0,0,1,1,1v9.14A1,1,0,0,1,326.2,201.24Zm-129.39-6.45h0a1,1,0,0,1-1-1v-9.14a1,1,0,0,1,1-1h0a1,1,0,0,1,1,1v9.14A1,1,0,0,1,196.81,194.79ZM326.21,184a1,1,0,0,1-1-1v-.47a4.22,4.22,0,0,0-4.21-4.21h-.48a1,1,0,0,1,0-2H321a6.22,6.22,0,0,1,6.21,6.21V183A1,1,0,0,1,326.21,184Zm-126.39-5.27a1,1,0,0,1-.42-1.91,6.23,6.23,0,0,1,2.63-.58h6.85a1,1,0,0,1,0,2H202a4.07,4.07,0,0,0-1.79.4A1.06,1.06,0,0,1,199.82,178.72Zm112.58-.42h-9.13a1,1,0,0,1,0-2h9.13a1,1,0,0,1,0,2Zm-17.25,0H286a1,1,0,0,1-1-1,1,1,0,0,1,1-1h9.14a1,1,0,0,1,0,2Zm-17.25,0h-9.14a1,1,0,0,1-1-1,1,1,0,0,1,1-1h9.14a1,1,0,0,1,0,2Zm-17.26,0h-9.13a1,1,0,0,1,0-2h9.13a1,1,0,0,1,0,2Zm-17.25,0h-9.14a1,1,0,0,1,0-2h9.14a1,1,0,0,1,0,2Zm-17.26,0H217a1,1,0,0,1,0-2h9.13a1,1,0,0,1,0,2Z" style="fill:url(#s)"/></g><path d="M232.81,133.66l113.1.18c4.92,0,10.68-1.82,10.68-6.73l0-44.46a6.85,6.85,0,0,0-6.84-6.85l-118.94-.08A6.91,6.91,0,0,0,224,82.61l0,42.14A8.89,8.89,0,0,0,232.81,133.66Z" style="fill:#d6695d"/><path d="M228.92,133.93l119,.08a5.21,5.21,0,0,0,5.21-5.21l0-45.85a5.2,5.2,0,0,0-5.2-5.21l-119-.08a5.21,5.21,0,0,0-5.21,5.21l0,45.85A5.21,5.21,0,0,0,228.92,133.93Z" style="fill:url(#t)"/><rect x="231.74" y="85.6" width="64.08" height="11.75" transform="translate(527.51 183.12) rotate(-179.96)" style="fill:url(#u)"/><path d="M345,88.54l0,33.42a2.88,2.88,0,0,1-2.88,2.87l-36,0a2.89,2.89,0,0,1-2.87-2.88l0-33.42a2.9,2.9,0,0,1,2.88-2.89l36,0A2.87,2.87,0,0,1,345,88.54Z" style="fill:url(#v)"/><path d="M345,105.43V122a2.88,2.88,0,0,1-2.88,2.87l-36,0a2.89,2.89,0,0,1-2.87-2.88v-4.67l6.27-7a1.37,1.37,0,0,1,2,0l8.28,8.57a1.37,1.37,0,0,0,2,0l17-18.56a1.4,1.4,0,0,1,2.1.08Z" style="fill:url(#w)"/><path d="M320.84,95.74a5,5,0,1,0-5,5.05A5,5,0,0,0,320.84,95.74Z" style="fill:url(#x)"/><rect x="231.74" y="104.73" width="36.61" height="0.96" style="fill:url(#y)"/><rect x="274.97" y="104.75" width="20.84" height="0.96" style="fill:url(#z)"/><rect x="231.73" y="110.96" width="11.55" height="0.96" style="fill:url(#aa)"/><rect x="254.45" y="110.98" width="41.35" height="0.96" style="fill:url(#ab)"/><rect x="231.73" y="117.4" width="36.62" height="0.96" style="fill:url(#ac)"/><rect x="274.96" y="117.42" width="20.84" height="0.96" style="fill:url(#ad)"/><rect x="231.72" y="123.31" width="11.56" height="0.96" style="fill:url(#ae)"/><rect x="254.45" y="123.34" width="41.35" height="0.96" style="fill:url(#af)"/><path d="M204,330.53l113.1.18c4.92,0,10.68-1.82,10.68-6.73l0-44.46a6.85,6.85,0,0,0-6.85-6.85l-118.93-.08a6.92,6.92,0,0,0-6.9,6.89l0,42.14A8.9,8.9,0,0,0,204,330.53Z" style="fill:#cf3b59"/><path d="M200.14,330.8l119,.08a5.21,5.21,0,0,0,5.21-5.21l0-45.85a5.21,5.21,0,0,0-5.21-5.21l-119-.08a5.21,5.21,0,0,0-5.21,5.21l0,45.85A5.2,5.2,0,0,0,200.14,330.8Z" style="fill:url(#ag)"/><rect x="202.97" y="282.47" width="64.08" height="11.75" transform="translate(469.83 576.84) rotate(-179.96)" style="fill:url(#ah)"/><path d="M316.19,285.41l0,33.42a2.89,2.89,0,0,1-2.88,2.87l-36,0a2.89,2.89,0,0,1-2.87-2.88l0-33.42a2.89,2.89,0,0,1,2.88-2.89l36,0A2.88,2.88,0,0,1,316.19,285.41Z" style="fill:url(#ai)"/><path d="M316.18,302.3v16.53a2.89,2.89,0,0,1-2.88,2.87l-36,0a2.89,2.89,0,0,1-2.87-2.88v-4.67l6.27-7a1.37,1.37,0,0,1,2,0l8.28,8.57a1.37,1.37,0,0,0,2,0l17-18.56a1.39,1.39,0,0,1,2.09.08Z" style="fill:url(#aj)"/><path d="M292.07,292.61a5,5,0,1,0-5.05,5.05A5.05,5.05,0,0,0,292.07,292.61Z" style="fill:url(#ak)"/><rect x="202.96" y="301.6" width="36.61" height="0.96" style="fill:url(#al)"/><rect x="246.2" y="301.62" width="20.84" height="0.96" style="fill:url(#am)"/><rect x="202.96" y="307.83" width="11.56" height="0.96" style="fill:url(#an)"/><rect x="225.68" y="307.85" width="41.35" height="0.96" style="fill:url(#ao)"/><rect x="202.95" y="314.27" width="36.62" height="0.96" style="fill:url(#ap)"/><rect x="246.19" y="314.29" width="20.84" height="0.96" style="fill:url(#aq)"/><rect x="202.95" y="320.18" width="11.55" height="0.96" style="fill:url(#ar)"/><rect x="225.67" y="320.21" width="41.35" height="0.96" style="fill:url(#as)"/><path d="M366.31,13.37c-.07,2.35-4,4.49-5.95,2.24-.39-.44-.74-.9-1.11-1.35-1.56,1.19-4.41,1.49-5.65-.31-1-1.5-1.31-4-2.94-5.17a4.2,4.2,0,0,0-2.36-.51,12,12,0,0,1,12.13-4.16,18.18,18.18,0,0,1,6.42,6.15C368.08,12.3,366.9,13.22,366.31,13.37Z" style="fill:#fda798"/><path d="M385.21,144.28c-1.21,4,1.06,24.19,6.09,23.75a49.23,49.23,0,0,0,5-.72l.86-.16c13.73-2.84,32.1-11.3,46.21-21.78a94.51,94.51,0,0,0,8.09-6.67c5.82-5.4,10.21-11.12,12.16-16.71-16.18-9.77-23.25-3.41-23.25-3.41L428.12,124l-1.41.64c-13.15,5.88-32.07,14.4-38.91,17.8-.86.43-1.53.77-2,1l-.25.14A1.09,1.09,0,0,0,385.21,144.28Z" style="fill:#fda798"/><path d="M353.08,86.65a1.21,1.21,0,0,0-1,.67c-.49,1.34-.18,2.07.4,3.39,1.57,3.56,3.47,5.55,1.55,9.79s-2.42,7.45.4,11.31a1.23,1.23,0,0,0,1.92.07c1.26-.32,1.76-1.28,2.25-2.74a46.39,46.39,0,0,0,2.26-11.88C361,93.82,357.29,86,353.08,86.65Z" style="fill:#fda798"/><path d="M356,83a.94.94,0,0,0-.74.7,4.8,4.8,0,0,0,.55,3.37c1.48,3.5,3.11,5.43,1.9,9.71s-2.06,9.7.42,13.47c.48.72,3.85.39,4.2-.13,1-.35-.72-3.4-.44-4.87a56.08,56.08,0,0,0,.94-11.91C362.72,89.92,359.28,82.25,356,83Z" style="fill:#fda798"/><path d="M357.24,81.24a.94.94,0,0,0-.75.7,4.91,4.91,0,0,0,.55,3.37c1.49,3.5,3.12,5.43,1.91,9.71s-1.38,7.49,1.1,11.26a.84.84,0,0,0,1.51,0c1-.35,1.29-1.33,1.57-2.8a57.42,57.42,0,0,0,.94-11.91C363.93,88.16,360.5,80.49,357.24,81.24Z" style="fill:#fda798"/><path d="M360.61,83.05h0c1.46.7,2.93,2.59,4,4.66a16.43,16.43,0,0,1,2.47,9.86A34.54,34.54,0,0,1,363,112.38l-.8-4.43c-3.37-.4-2.48-7.61-1.43-11.36,1.21-4.29-.42-6.22-1.9-9.72a4.84,4.84,0,0,1-.56-3.36.94.94,0,0,1,.75-.7A2.44,2.44,0,0,1,360.61,83.05Z" style="fill:#fda798"/><path d="M361.51,102.57l-7.69,7.12s17,38.63,21.56,45.48c5.28,7.84,10.05,12.33,14.67,12.92a1,1,0,0,0,.24,0,9,9,0,0,0,1.37,0c8.84-.6,9.47-11,7.84-20.14a6.82,6.82,0,0,0-.34-1.14,22.62,22.62,0,0,0-2.18-4.09c-1.12-1.75-2.57-3.74-4.23-5.88-.75-1-1.55-2-2.4-3l0,0c-7.87-9.65-18.85-21.12-24.72-27.14C363.09,104.15,361.51,102.57,361.51,102.57Z" style="fill:#fda798"/><path d="M477.06,115c4.94,10.3-10.16,29.05-35.21,40.18,0,0-19.35-32.91-24.86-35C417,120.13,464.9,89.6,477.06,115Z" style="fill:url(#at)"/><path d="M454.64,57.87S452.36,73,447,76s-22.71,2-26.58-2.9c-6.54-8.33-5-43.12-3.48-46.21S444.56,12.35,453.44,25,454.64,57.87,454.64,57.87Z" style="fill:#fda798"/><path d="M412.47,13.82C410.4,6.6,413.13-1.28,423,.18c1.53.22,3.1,1.61,4.48,1.66,1.13,0,2.62-1.33,4.4-1.25,2.63.12,4.21.63,5.62,2C443.77-2.26,455-.06,456.14,8.2a7.89,7.89,0,0,1,8.24,2.27A6.77,6.77,0,0,1,465.86,17a5.8,5.8,0,0,1,4,4.93,9.1,9.1,0,0,1-.8,4.65c3.16,1.55,5.53,3.95,5.75,7.93.16,2.89-.72,6.27-2.89,8.18A7.61,7.61,0,0,1,471,50c-1.16,1.85-3.76,3.85-5.74,3.59.43,2.38-.62,5.5-2.44,8.91-2.06,3.88-9.46,8.22-11.46,7.35,0-6.78.65-28.78,3.41-38.21a211.81,211.81,0,0,1-27.89-5.29c-6.29,1.91-13.45,3-17.23-.09C404.09,21.73,407.38,15.68,412.47,13.82Z" style="fill:#1b0a74"/><path d="M461,29.9c4.16-1.34,2.44-7.12.18-11a13.28,13.28,0,0,0,5.58-1.43A5.81,5.81,0,0,1,469.84,22a9.1,9.1,0,0,1-.8,4.65c3.16,1.55,5.53,3.95,5.75,7.93.16,2.89-.72,6.27-2.89,8.18A7.61,7.61,0,0,1,471,50c-1.16,1.85-3.76,3.85-5.74,3.59.43,2.38-.62,5.5-2.44,8.91-2.06,3.88-9.46,8.22-11.46,7.35,0-5.52.43-21.15,2.08-31.85C457.75,37.32,462.45,34.11,461,29.9Z" style="fill:#17085e"/><path d="M452.23,46.94c1.8-1.85,9.44-4,10.4-1,1.53,4.89-4.37,14.32-11.42,10.5C448.64,55,450.66,48.54,452.23,46.94Z" style="fill:#fda798"/><path d="M453.57,50.05s5.6-3.67,6.13-2c1,3.25-3.58,5.93-4.9,6.4,0,0,2.58-2.82,1.91-4S453.57,50.05,453.57,50.05Z" style="fill:#fd876d"/><path d="M431.16,67a11.13,11.13,0,0,1-4.83-1.26.6.6,0,0,1,.53-1.07c2.51,1.23,4.71,1.47,6.55.71a7.6,7.6,0,0,0,3.81-4.11.59.59,0,0,1,1.12.39,8.69,8.69,0,0,1-4.46,4.82A7.08,7.08,0,0,1,431.16,67Z" style="fill:#161228"/><path d="M423.75,45.14a2.71,2.71,0,0,1-2.39,2.78c-1.31,0-2.35-1.34-2.27-3s1.26-2.91,2.57-2.78A2.66,2.66,0,0,1,423.75,45.14Z" style="fill:#161228"/><path d="M440.22,45.06a3,3,0,0,1-2.66,3.09c-1.45,0-2.61-1.49-2.52-3.33s1.4-3.23,2.86-3.1S440.31,43.35,440.22,45.06Z" style="fill:#161228"/><path d="M427.63,58.2a3.2,3.2,0,0,1-1.91-.43,1,1,0,0,1-.37-1.09,13.49,13.49,0,0,1,.52-1.56,46.18,46.18,0,0,0,1.9-6.29.59.59,0,0,1,.71-.45.6.6,0,0,1,.44.72A47.28,47.28,0,0,1,427,55.54a12.75,12.75,0,0,0-.46,1.34c.64.36,3.66-.05,4.28-.35a.6.6,0,0,1,.8.28.61.61,0,0,1-.28.8A12.4,12.4,0,0,1,427.63,58.2Z" style="fill:#161228"/><path d="M444.66,38.14a1.23,1.23,0,0,1-.68-.21,10.27,10.27,0,0,0-9.31-1.17,1.19,1.19,0,1,1-.93-2.19A12.64,12.64,0,0,1,445.35,36a1.19,1.19,0,0,1-.69,2.16Z" style="fill:#161228"/><path d="M415.86,39.13a1.19,1.19,0,0,1-.8-.31,1.2,1.2,0,0,1-.07-1.69,10.72,10.72,0,0,1,10.24-3,1.19,1.19,0,0,1-.61,2.3h0a8.33,8.33,0,0,0-7.88,2.35A1.16,1.16,0,0,1,415.86,39.13Z" style="fill:#161228"/><path d="M110.4,123.16c-4.34.64-3.87,21.68,13,59.43,3.25,7.28,15.31,1.63,13.3-4.25s-10.88-34-10.88-34S118.49,122,110.4,123.16Z" style="fill:#fda798"/><path d="M110.4,123.16c-4.34.64-3.63,21.58,13,59.43-1.9-21.5-.83-28-1.38-37.35C121.62,139,118.49,122,110.4,123.16Z" style="fill:#fd876d"/><path d="M127.84,143.5a26.81,26.81,0,0,1-5.78,3.8,26.36,26.36,0,0,1-10.5,2.84,87.78,87.78,0,0,1-3.4-19.19q0-1,0-1.8c0-.62,0-1.18.09-1.71.29-2.67,1.07-4.13,2.16-4.28a5,5,0,0,1,.86,0,6.38,6.38,0,0,1,2.3.6,1.46,1.46,0,0,1,.46.26C121,127.83,127.84,143.5,127.84,143.5Z" style="fill:url(#au)"/><path d="M122.06,147.3a34.7,34.7,0,0,1-12,3.35c-4.16-7.46-4.67-15.06-4.83-19.58,0-.65,0-1.24,0-1.81s0-1.17.08-1.71c.3-2.67,4-4.24,5.14-4.39a5,5,0,0,1,.86,0,4.75,4.75,0,0,1,2.3.6,1.46,1.46,0,0,1,.46.26c5.4,3.41,7.66,16.1,8,21.28C122,146,122.05,146.63,122.06,147.3Z" style="fill:#cf3b59"/><path d="M125.53,185c.33,1.62,2.82,2.35,9.41,1.56,5.16-.62,36.91-7.23,36.91-7.23V173s-33.43,1.85-38.56,4S124.81,181.37,125.53,185Z" style="fill:#fda798"/><path d="M101,193.71C104,236.15,82.87,375,82.87,375H79.39s-6.61-141.9-6.17-147.27.6-28.89.6-28.89Z" style="fill:#322da5"/><polygon points="73.14 241.53 79.39 374.95 81.13 374.95 85.51 226.53 73.14 241.53" style="fill:#190a76"/><path d="M11,341.68s53.06-52.47,57.93-58.13c3.58-4.18,13.87-53.87,13.87-53.87l12.47-8.75V194.82s-18.68-6.14-37.48,2.34c-10.49,30.73-5.34,81.11-5.34,81.11L8.7,339.59Z" style="fill:#322da5"/><polygon points="83.01 229.76 89.75 224.01 82.46 237.6 83.01 229.76" style="fill:#190a76"/><path d="M91.22,200.68s-28,1.68-29.22,11.77-1.47,65-1.47,65L7.7,340.93l44.76-62.66C51.2,248.71,44,217.42,58,193.71Z" style="fill:#190a76"/><path d="M80.58,372.42c-2.3.93-4.17,8.74-4.17,8.74H97.78A51.56,51.56,0,0,1,87.94,376C83,372.75,82.38,371.69,80.58,372.42Z" style="fill:#042f78"/><rect x="76.41" y="381.16" width="21.38" height="1.67" transform="translate(174.19 763.99) rotate(180)" style="fill:#1c3166"/><path d="M11,339.53C9.66,337.43,1.64,337,1.64,337L5.37,358a51.85,51.85,0,0,1,3.39-10.6C11.08,342,12,341.18,11,339.53Z" style="fill:#042f78"/><rect x="-8" y="346.78" width="21.38" height="1.67" transform="matrix(-0.17, -0.98, 0.98, -0.17, -339.13, 410.94)" style="fill:#1c3166"/><path d="M101.65,211.16C75.68,209.57,52,194,52,194s18.45-24.84,23.45-34.41c2.79-5.29,6-14,8.43-21.81,1.9-6.25,3.28-12,3.42-14.9.19-3.92,4.51-5.37,8-5.91.75-.1,1.46-.16,2.08-.21,1.37-.09,2.31-.06,2.31-.06s2.73.73,10.93,3.46c2.18.73,3.71,2.66,4.71,5.27,4.09,10.67,0,33.15-2,37.55-2.44,5.49-8.1,3.47-8.1,3.47C102.86,174.87,101.65,211.16,101.65,211.16Z" style="fill:url(#av)"/><path d="M105.23,166.49s-8-3.21-12.5-6.75c0,0,4.11,8.1,11.57,10.76Z" style="fill:#cf3b59"/><path d="M87.4,125.25s-8.25,29.7-14,37.88S52,194.05,52,194.05,63,201,73,204.47c0,0-8.73-11.69-2.07-23.95s17.22-43.29,24.14-53.29C93.6,118.67,87.4,125.25,87.4,125.25Z" style="fill:#cf3b59"/><path d="M98.33,182.09a8.62,8.62,0,0,1-2,.67,5,5,0,0,1-2.62-.12,4,4,0,0,1-1.6-1A7.06,7.06,0,0,1,90.24,178a232.1,232.1,0,0,1-4.81-35.08c0-.39,0-.76-.06-1.14-.46-10.22-.07-15.9,1.24-19.76.82-2.38,6.14-3.71,6.77-3.07,5.42,5.57,7.2,22.09,7.2,22.09s2.78,26,3.56,32.58a2.6,2.6,0,0,1,0,.26,4.78,4.78,0,0,1-.12,1.72A10.69,10.69,0,0,1,98.33,182.09Z" style="fill:#fda798"/><path d="M129.88,200l-2.53-1.1-2-.87c-8.09-3.55-24.52-10.83-27.85-12.83a37.41,37.41,0,0,1-3.82-2.55l0,0c-2.51-2-3.14-3.35-2.62-4.4a8,8,0,0,1,.7-1.13,5.84,5.84,0,0,1,.5-.64,10.59,10.59,0,0,1,10.66-3.61h0c.32.17.73.41,1.22.72,6.57,4.11,26.84,19.6,26.84,19.6Z" style="fill:#fda798"/><path d="M125.37,198.06c-8.09-3.55-24.52-10.83-27.85-12.83a37.41,37.41,0,0,1-3.82-2.55l0,0a4,4,0,0,1-1.6-1A7.06,7.06,0,0,1,90.24,178a232.1,232.1,0,0,1-4.81-35.08l.8-2,5.88,34.91,0,.29c0,.14,0,.27.09.4a5.14,5.14,0,0,0,.67,1.57,6.82,6.82,0,0,0,2.72,2.44l2.7,1.61Z" style="fill:#fd876d"/><path d="M104.14,173.59s-3.29-.37-4.75.49c0,0,2.43-2.84,3.67-10.15Z" style="fill:#fd876d"/><path d="M86.45,122.35a53.68,53.68,0,0,0-2.87,20.41c12.14,5,19.29-1.9,19.29-1.9s-4.06-16.37-9.49-21.94C92.75,118.28,87.85,117.86,86.45,122.35Z" style="fill:url(#aw)"/><path d="M115.32,125.47c-1-2.61-2.53-4.54-4.71-5.27-8.2-2.73-10.93-3.46-10.93-3.46s-.94,0-2.31.06c-.73-.35-2.2,0-2.08.21.93,1.66,1.85,3.35,2.77,5l1.88,3.47c1.34,2.45,2.52,5.82,4.55,7.85,2.93,2.92,6.41.33,8.2-2.39A19.78,19.78,0,0,0,115.32,125.47Z" style="fill:#cf3b59"/><path d="M118.28,107.27c-2.71,5.52-5.26,11.34-6.25,15.12-5.26,6.18-13.57-5.4-13.57-5.4a54.11,54.11,0,0,0,2.31-5c1.53-3.68,2.81-7.45,3.16-8.55l.07-.18,0-.12Z" style="fill:#fda798"/><path d="M117.41,109.53c-.32.55-.62,1.06-.87,1.55a25.79,25.79,0,0,0-1.84,4c-.56,1.31-1.33,3.38-1.9,4.76-4,1.31-9.63-7.56-10.52-12,1.42-3.8,2.67-8.08,2.67-8.08Z" style="fill:#fd876d"/><path d="M111.86,122.32c-3.72,3.72-11.13-3-13.15-5.63-1-1.29-2.53-.35-1.54.93,3.23,4.22,12.11,11.31,15.92,5.38C113.5,122.36,112.69,121.5,111.86,122.32Z" style="fill:url(#ax)"/><path d="M132.39,61.51c-.88,1.24-2.82-.08-1.94-1.32,0-.06.06-.13.1-.19l-4,0-2.5,0a26.38,26.38,0,0,0-1.76-2.25,3.33,3.33,0,0,1-3.63-.29,5.93,5.93,0,0,1-2-2.53,4.26,4.26,0,0,1-3,.18,7.29,7.29,0,0,1-2.15-.9A8.58,8.58,0,0,1,105,58.77a8.53,8.53,0,0,1-2,4,17.86,17.86,0,0,1-3.8,3.91,7.38,7.38,0,0,1-.69,3.76A8,8,0,0,1,95,74.21a5.25,5.25,0,0,1-.19,2.48,4.25,4.25,0,0,1-2.41,2.5A6.42,6.42,0,0,1,92,83.85a9,9,0,0,1-3.6,3.5c0,2.49-1.37,4.89-3.07,6.76a3.34,3.34,0,0,1-3.19,1.1,3.84,3.84,0,0,1-2.74,1.53l-.07,0a6.2,6.2,0,0,1-3.24.21,5.26,5.26,0,0,1-3.9-3.23.22.22,0,0,1-.13-.06,6.59,6.59,0,0,1-5.31-3.16,3.85,3.85,0,0,1-.4-1.12A5.78,5.78,0,0,1,62,84.5a5.51,5.51,0,0,1,.28-2.33,3.37,3.37,0,0,1,1-2.27,2.94,2.94,0,0,1,1.21-.74v0a4,4,0,0,1,.46-.14c.17-.11.35-.21.52-.3a5.33,5.33,0,0,1,1.17-4.08,6.37,6.37,0,0,1,4.2-2.13c.32-2.85,1.51-5.38,4.16-6.78A9.39,9.39,0,0,1,75,62.77a8.14,8.14,0,0,1,3.84-5.47c-.4-3.73.3-7.6,3.56-9.55a14.69,14.69,0,0,1,1.44-.91,8.36,8.36,0,0,1,5.49-8.72,6.33,6.33,0,0,1,1-4.23c1.42-1.95,4.14-2.82,6.34-3.65a6.41,6.41,0,0,1,3.15-4.49,9.05,9.05,0,0,1,6.75-.8,6.8,6.8,0,0,1,5.71-2.55c3.72.21,6.89,2.76,9.24,5.47a7.3,7.3,0,0,1,4.42.94,5.79,5.79,0,0,1,2.15,8A10.22,10.22,0,0,1,132,50.08a8.05,8.05,0,0,1,1.47,2.37A9.73,9.73,0,0,1,132.39,61.51Z" style="fill:#1b0a74"/><path d="M126.31,55.64a1.25,1.25,0,0,0-1.1-1.26c-1.86-1.27-3.72-2.57-5.59-3.83a1.19,1.19,0,0,0-1.28-.65c-2.76.5-4.81-.36-6.14-2.54a1.17,1.17,0,0,0-1.64-.12c-2.29,2.1-4.74,4.46-8.3,3.31a1.22,1.22,0,0,0-1.56,1A6.79,6.79,0,0,1,95,58.15a1.17,1.17,0,0,0-1,1.07c.35,2.74-.86,4.77-3.65,6.08a1.32,1.32,0,0,0-.47.44,5.68,5.68,0,0,1-4.34,6.06c-.55,2.73-3.09,5-5.25,4.73a5.74,5.74,0,0,1-4.61,2.53,3.49,3.49,0,0,1-2.68,2.19A3.71,3.71,0,0,1,70,80.48a5.45,5.45,0,0,1-6.11-1,2.52,2.52,0,0,0-.63.47,3.37,3.37,0,0,0-1,2.27A5.51,5.51,0,0,0,62,84.5a5.78,5.78,0,0,0,4.38,4.86,3.85,3.85,0,0,0,.4,1.12,6.59,6.59,0,0,0,5.31,3.16.22.22,0,0,0,.13.06,5.26,5.26,0,0,0,3.9,3.23,6.2,6.2,0,0,0,3.24-.21l.07,0a3.84,3.84,0,0,0,2.74-1.53,3.34,3.34,0,0,0,3.19-1.1c1.7-1.87,3.1-4.27,3.07-6.76a9,9,0,0,0,3.6-3.5,6.42,6.42,0,0,0,.37-4.66,4.25,4.25,0,0,0,2.41-2.5A5.25,5.25,0,0,0,95,74.21a8,8,0,0,0,3.55-3.76,7.38,7.38,0,0,0,.69-3.76,17.86,17.86,0,0,0,3.8-3.91,8.53,8.53,0,0,0,2-4,8.58,8.58,0,0,0,6.56-4.64,7.29,7.29,0,0,0,2.15.9,4.26,4.26,0,0,0,3-.18,5.93,5.93,0,0,0,2,2.53,3.33,3.33,0,0,0,3.63.29A26.38,26.38,0,0,1,124,59.92l2.5,0A23.73,23.73,0,0,1,126.31,55.64Z" style="fill:#17085e"/><path d="M118.83,62.16s-3.3-5.29.39-7.93c4.38-3.13,18.06-2.56,17,5.45C135.43,65.39,118.83,62.16,118.83,62.16Z" style="fill:url(#ay)"/><path d="M146.64,107.59a7.2,7.2,0,0,0,4.07-8.54,70.74,70.74,0,0,0,5.88-18.26c-9.77,4.68-28.09,19-28.09,19-3.49,7.49-14.23,15.26-14.23,15.26,6.15,2.38,5.13,4.57,9.86,4.32a2.56,2.56,0,0,0,2.58,1.7c1.94-.05,4.13-.58,4.86-2.55a9.13,9.13,0,0,0,4.89-.23c1.86-.66,2.71-2.41,3.29-4.2A8.1,8.1,0,0,0,146.64,107.59Z" style="fill:#17085e"/><path d="M117.05,74.62s-12.68,17.8-14.21,23.85,6.53,17.39,11,20.89,15.46.11,19.23-3.74a184.27,184.27,0,0,0,14.36-18.53c1.8-3,5.18-12.67,4.92-14.73S129.3,65.76,117.05,74.62Z" style="fill:#fda798"/><path d="M156.6,99.44a12.29,12.29,0,0,0,1-7.15,3.41,3.41,0,0,0,1.3-.76c2.5-2.38,1.11-5.8-.52-8.36,1.14-1.5,1.88-3.31.64-5.06a6.12,6.12,0,0,0-4.17-2.59A5.2,5.2,0,0,0,153,72.31a8.4,8.4,0,0,0-4.37-2c-.33-3.25-2.63-5.71-5.33-7.4a5.48,5.48,0,0,0-3.12-.9,7.31,7.31,0,0,0-5.51-4.12,6.85,6.85,0,0,0-2.35,0l0,0c-2.76-1.46-6.36-3.55-9.57-2.39a9.16,9.16,0,0,0-3.23,2.07,1,1,0,0,0-.25,0c-2.8.19-5.77.62-7.8,2.77a6.9,6.9,0,0,0-1.53,2.9,16.66,16.66,0,0,0-6.37,4c-1.49,1.62-1.6,3.82-1.74,5.92-3.29,2.8-3.68,6.68-2.74,10.67-2.58,2.67-3,8.3-.45,11.09a5.83,5.83,0,0,0-1.17,5c.51,2.08,2.82,4.07,4.66,2.07a5.88,5.88,0,0,0,1.56-3,3.05,3.05,0,0,0-.11-1.27c2.33-3.58,5.37-8,6.82-9.2.23-.07.46-.16.68-.25a.28.28,0,0,1,.16.2l.52-.46c5.06-2.08,10.08-6.1,10.47-11.59a12.65,12.65,0,0,0,5.76,3.48c2,.67,3.66,1,5.06.19a14,14,0,0,0,4.49,4.55c1.71,1.2,3.69,2.53,5.45,2.39L143,87a10.52,10.52,0,0,0,2.83,5.47,4.81,4.81,0,0,0,2.27,1.44,14.18,14.18,0,0,0-.13,2.77c.15,2.09.88,5.18,2.87,6.29C153.1,104.18,155.67,101.18,156.6,99.44Z" style="fill:#1b0a74"/><path d="M112.15,87.45c-.61-2.12-5.06-5.45-7.76-3.68-3.38,2.23-2.7,12.56,3.48,11.09C110.45,94.24,112.68,89.3,112.15,87.45Z" style="fill:#fda798"/><path d="M109.31,88s-2.27-3.79-3.54-2.16a5.38,5.38,0,0,0,.24,6.43,4,4,0,0,1,.92-3.08A4.2,4.2,0,0,1,109.31,88Z" style="fill:#fd876d"/><path d="M119.33,114.15a9.14,9.14,0,0,0,5.16,1.36.57.57,0,0,0,.57-.57.56.56,0,0,0-.57-.57c-2.47,0-4.31-.69-5.48-2a6.63,6.63,0,0,1-1.38-4.73.58.58,0,0,0-.5-.64.57.57,0,0,0-.64.5,7.76,7.76,0,0,0,1.66,5.63A6.52,6.52,0,0,0,119.33,114.15Z" style="fill:#161228"/><path d="M134.65,100.11a2.43,2.43,0,0,0,.81,3.16,2.31,2.31,0,0,0,3-1.49,2.35,2.35,0,0,0-.95-3.23A2.38,2.38,0,0,0,134.65,100.11Z" style="fill:#161228"/><path d="M121.57,93.55a2.68,2.68,0,0,0,.9,3.51c1.16.58,2.66-.15,3.32-1.65s.16-3.13-1.05-3.6A2.64,2.64,0,0,0,121.57,93.55Z" style="fill:#161228"/><path d="M125.16,108.3c1,.67,2.2,1.31,3,1.14a1,1,0,0,0,.75-.75,11.74,11.74,0,0,0,.2-1.46,41.72,41.72,0,0,1,1-5.75.57.57,0,1,0-1.12-.26,43.3,43.3,0,0,0-1,5.89c-.05.51-.09.89-.15,1.22a8.71,8.71,0,0,1-3.21-2,.58.58,0,0,0-.81-.09.57.57,0,0,0-.09.8A8.09,8.09,0,0,0,125.16,108.3Z" style="fill:#161228"/><path d="M120.91,85.82a.58.58,0,0,0,.41.09,9.68,9.68,0,0,1,8.32,2.91.56.56,0,0,0,.8.06.57.57,0,0,0,.06-.81,10.65,10.65,0,0,0-9.35-3.29.58.58,0,0,0-.24,1Z" style="fill:#161228"/><path d="M143.45,98a.58.58,0,0,0,.48.07.57.57,0,0,0,.4-.7,9,9,0,0,0-6.59-6.13.57.57,0,1,0-.22,1.12,7.89,7.89,0,0,1,5.71,5.32A.53.53,0,0,0,143.45,98Z" style="fill:#161228"/><path d="M148.82,234.29l113.1.17c4.91,0,10.67-1.81,10.67-6.73l0-44.45a6.85,6.85,0,0,0-6.84-6.86l-118.93-.07a6.9,6.9,0,0,0-6.9,6.88l0,42.15A8.91,8.91,0,0,0,148.82,234.29Z" style="fill:#312da4"/><path d="M144.92,234.55l119,.08a5.21,5.21,0,0,0,5.22-5.2l0-45.85a5.22,5.22,0,0,0-5.21-5.22l-119-.07a5.21,5.21,0,0,0-5.22,5.2l0,45.85A5.21,5.21,0,0,0,144.92,234.55Z" style="fill:url(#az)"/><rect x="147.75" y="186.23" width="64.08" height="11.75" transform="translate(359.45 384.32) rotate(-179.96)" style="fill:url(#ba)"/><path d="M261,189.16l0,33.42a2.89,2.89,0,0,1-2.88,2.88l-36,0a2.88,2.88,0,0,1-2.88-2.88l0-33.41a2.9,2.9,0,0,1,2.88-2.89l36,0A2.9,2.9,0,0,1,261,189.16Z" style="fill:url(#bb)"/><path d="M261,206.06v16.52a2.89,2.89,0,0,1-2.88,2.88l-36,0a2.88,2.88,0,0,1-2.88-2.88v-4.67l6.27-7a1.36,1.36,0,0,1,2,0l8.28,8.57a1.39,1.39,0,0,0,2,0l17-18.56a1.4,1.4,0,0,1,2.1.07Z" style="fill:url(#bc)"/><path d="M236.85,196.37a5.05,5.05,0,1,0-5,5A5,5,0,0,0,236.85,196.37Z" style="fill:url(#bd)"/><rect x="147.74" y="205.36" width="36.62" height="0.96" style="fill:url(#be)"/><rect x="190.98" y="205.38" width="20.84" height="0.96" style="fill:url(#bf)"/><rect x="147.73" y="211.58" width="11.55" height="0.96" style="fill:url(#bg)"/><rect x="170.46" y="211.61" width="41.35" height="0.96" style="fill:url(#bh)"/><rect x="147.73" y="218.02" width="36.61" height="0.96" style="fill:url(#bi)"/><rect x="190.97" y="218.04" width="20.84" height="0.96" style="fill:url(#bj)"/><rect x="147.73" y="223.94" width="11.56" height="0.96" style="fill:url(#bk)"/><rect x="170.45" y="223.96" width="41.35" height="0.96" style="fill:url(#bl)"/><path d="M139.8,197.46c0,2.26-4.12,7.5-5.42,7.8-.74.17-3.43-1-4.85-5a10.61,10.61,0,0,0-4-2.12l3.92-6.1.15,0h0a18,18,0,0,0,6.42,1.79h0C138,194.73,139.77,195.91,139.8,197.46Z" style="fill:#fda798"/><path d="M138.85,196.85a2.42,2.42,0,0,0,1.58.12A13,13,0,0,1,144,198c.89.44,2.67.24,2.25-.68a6.53,6.53,0,0,0-3.78-2.91c-1-.17-7-.73-8-.15S138,196.37,138.85,196.85Z" style="fill:#fda798"/><path d="M149.42,205.29a.92.92,0,0,0-.18-1.14,5.23,5.23,0,0,0-2.82-.91,3.17,3.17,0,0,0,1.26-1,.88.88,0,0,0-.47-1.52c-3.38-.48-6-2.28-8.55-4.16a5.16,5.16,0,0,0-8.12,2.23c-.74,1.93.36,3.89,1.64,5.45l.22.26a11.71,11.71,0,0,0,4.72,4.17c1.41.72,3.94,2.64,5.82,1.28a1.06,1.06,0,0,0,.44-.88c1.32.21,2.44,0,2.94-1.07a.92.92,0,0,0-.19-1.13h0A3.32,3.32,0,0,0,149.42,205.29Z" style="fill:#fda798"/><path d="M333.58,39.7a4.7,4.7,0,1,0-4.69,4.69A4.69,4.69,0,0,0,333.58,39.7Z" style="fill:url(#bm)"/><path d="M315.3,39.69a4.7,4.7,0,1,0-4.69,4.7A4.69,4.69,0,0,0,315.3,39.69Z" style="fill:#ff5472"/><path d="M297,39.69a4.7,4.7,0,1,0-4.7,4.7A4.69,4.69,0,0,0,297,39.69Z" style="fill:url(#bn)"/><rect x="181.4" y="38.55" width="5.94" height="5.94" style="fill:url(#bo)"/><rect x="190.73" y="35.51" width="5.94" height="8.98" style="fill:url(#bp)"/><rect x="200.23" y="32.01" width="5.94" height="12.48" style="fill:url(#bq)"/><path d="M172.22,174.42c-.06.54-.93.39-1.32.79a12.67,12.67,0,0,0-1.28,3.5c-.18,1-1.4,2.29-1.89,1.41a6.49,6.49,0,0,1-.08-4.77,8.63,8.63,0,0,1,3.39-2.74C172,172.22,172.33,173.47,172.22,174.42Z" style="fill:#fda798"/><path d="M176.24,184.29a.73.73,0,0,1-.87-.25,4.24,4.24,0,0,1-.43-2.29,2.6,2.6,0,0,1-.86.89.7.7,0,0,1-1.14-.52c0-2.69-1.19-4.89-2.39-7.1-1.6-2.94.81-3.22,3.14-3.79,1.59-.39,5.87,2.17,6.46,3.8.43,1.18,1.67,3.35.42,4.68a.84.84,0,0,1-.73.25c0,1-.25,1.9-1.13,2.19a.72.72,0,0,1-.86-.26v0A2.61,2.61,0,0,1,176.24,184.29Z" style="fill:#fda798"/></svg>