<svg xmlns="http://www.w3.org/2000/svg" viewBox="0 0 362.48 268.13"><title>jbzsvglogo</title><path d="M474.6,374.8a66.57,66.57,0,0,0-5.2-17.6,64,64,0,0,0-10.27-15.73A44.52,44.52,0,0,0,472.73,322,42.78,42.78,0,0,0,475,310.53v-49.6a53.49,53.49,0,0,0-9.6-26.13,64,64,0,0,0-13.47-13.2,84.33,84.33,0,0,0-8.93-5.73,123.19,123.19,0,0,0-28.8-12l-107.73.26q-.21,45.41-.4,90.8l63.46.14V266h27.74a28.6,28.6,0,0,1,15.33,11.33V298.8a36.57,36.57,0,0,1-14.27,12l-115.73-.13-.53-106.8L161,204q.06,33.66.13,67.33l59.2-.13q-.14,19.6-.26,39.2l-45.2.13a122.14,122.14,0,0,0-20,8.27,99.44,99.44,0,0,0-16.27,10.27c-5.51,4.31-11.08,8.66-15.73,16.26a68,68,0,0,0-5.2,10.94,97.26,97.26,0,0,0-4.4,13.86v45.74a75.32,75.32,0,0,0,8.13,22.26,60.53,60.53,0,0,0,11.2,15.07c7.35,7.1,14.73,10.34,19.87,12.53a78.71,78.71,0,0,0,25.6,6.14l104.66.13V383.73l-62.53-.53q-.06,15-.13,30h-30A35.54,35.54,0,0,1,177,402.93V385.2a22.07,22.07,0,0,1,7.47-11.33,21,21,0,0,1,6.93-3.6l106.53-.14q.07,50.87.14,101.74l116.66-.14a128.06,128.06,0,0,0,27.74-17.2c5-4.07,10.24-8.4,15.73-15.6A85.27,85.27,0,0,0,471,414a78.19,78.19,0,0,0,4-15.2A76.9,76.9,0,0,0,474.6,374.8ZM170.2,261.87v-48.8l102.8.13v97.6l-43.33.13-.14-49.06Zm15.4,98.53a27.43,27.43,0,0,0-10.8,6,28.13,28.13,0,0,0-8.6,15.8v23a28.51,28.51,0,0,0,5,8.4A29.88,29.88,0,0,0,187,423h43q-.1-14.6-.2-29.2l43,.2q.1,34,.2,68H183.8a110.85,110.85,0,0,1-19.4-5.2c-6.51-2.4-11.66-4.3-17.6-8.6a56.11,56.11,0,0,1-14-14.8,56.79,56.79,0,0,1-8.4-21.8q-.11-20.5-.2-41a66.51,66.51,0,0,1,8.2-16.8,71.92,71.92,0,0,1,13-14.2c8.26-7,16-10.38,22-13a108.32,108.32,0,0,1,14-5l219-.2a33.47,33.47,0,0,0,11-4.6,28.28,28.28,0,0,0,8.8-8.4,26.77,26.77,0,0,0,3.2-6.8v-27a29.91,29.91,0,0,0-8.2-12,30.47,30.47,0,0,0-18-7.4H360V284l-43.4.2V215.6l93.2.4a116.94,116.94,0,0,1,17.6,6,76.68,76.68,0,0,1,15.4,8.2c4.1,2.92,10.07,7.16,14.8,14.8a45.41,45.41,0,0,1,6.6,22v43a71.5,71.5,0,0,1-6.8,14.2c-5.78,9.27-12.21,14.81-17.4,19.2a109.78,109.78,0,0,1-24.8,15.8ZM408.7,370c0,1.73.11,11,0,18.8,0,.71-.13,2.65-.37,6.53-.22,3.72-.32,4.78-.93,6.14a12,12,0,0,1-3.47,4.26,19.76,19.76,0,0,1-7,4l-35.3-.1q0-19.65-.1-39.3ZM465,394a59.27,59.27,0,0,1-4.8,20,64,64,0,0,1-8.8,14A98.6,98.6,0,0,1,433,446c-5.9,4.67-9.88,7.77-16.2,10.4a54.12,54.12,0,0,1-13.2,3.6l-93.4.4-.27-90.13L352.6,370q-.11,24.71-.2,49.4h49.2a18.25,18.25,0,0,0,8.6-2.8,21.16,21.16,0,0,0,10.4-18.07v-30.4a72.65,72.65,0,0,0,12.27-5.86c2.39-1.44,3.7-2.54,10.66-7.74,3.54-2.64,6.43-4.77,8.27-6.13a45.76,45.76,0,0,1,12,25.2A70.91,70.91,0,0,1,465,394Z" transform="translate(-113.27 -203.87)" style="fill:#d2d2d3"/></svg>