<svg xmlns="http://www.w3.org/2000/svg" viewBox="0 0 55.69 59.72"><title>quality</title><path d="M.59,49.8V3.11A2.52,2.52,0,0,1,3.11.59H50.43A2.52,2.52,0,0,1,53,3.11l0,30.68L54.8,35.7l.34,7.06-1.5,8.8L49,56.51l-4.57,2.42-5-2.3-5-6.73-2.37-.1Z" style="fill:#fff"/><path d="M52.37,35V3.11a1.94,1.94,0,0,0-1.94-1.93H3.11A1.94,1.94,0,0,0,1.18,3.11v46.1H34.56l.51,1.18H.59A.58.58,0,0,1,0,49.8V3.11A3.12,3.12,0,0,1,3.11,0H50.43a3.12,3.12,0,0,1,3.12,3.11V35.5Z" style="fill:#534470"/><path d="M8.3,4.09a1.26,1.26,0,0,0-2.52,0,1.26,1.26,0,0,0,2.52,0Z" style="fill:#f6b81d"/><path d="M12.26,4.09A1.26,1.26,0,1,0,11,5.35,1.26,1.26,0,0,0,12.26,4.09Z" style="fill:#f6b81d"/><path d="M16.22,4.09A1.26,1.26,0,1,0,15,5.35,1.26,1.26,0,0,0,16.22,4.09Z" style="fill:#f6b81d"/><polygon points="47.74 28.06 6.1 28.06 6.1 13.19 47.75 13.19 47.74 28.06" style="fill:#f6b81d"/><path d="M26.55,34.8H7.35a.59.59,0,0,1-.59-.59.6.6,0,0,1,.59-.59h19.2a.59.59,0,0,1,.59.59A.58.58,0,0,1,26.55,34.8Z" style="fill:#534470"/><path d="M26.4,38.13H7.2a.58.58,0,0,1-.59-.59A.59.59,0,0,1,7.2,37H26.4a.6.6,0,0,1,.59.59A.59.59,0,0,1,26.4,38.13Z" style="fill:#534470"/><path d="M26.4,41.46H7.2a.59.59,0,0,1-.59-.59.58.58,0,0,1,.59-.59H26.4a.59.59,0,0,1,.59.59A.6.6,0,0,1,26.4,41.46Z" style="fill:#534470"/><path d="M53,8.18H.59A.59.59,0,0,1,0,7.59.58.58,0,0,1,.59,7H53a.59.59,0,0,1,.59.59A.6.6,0,0,1,53,8.18Z" style="fill:#534470"/><path d="M49.75,44.61a5.32,5.32,0,1,1-5.32-5.32A5.32,5.32,0,0,1,49.75,44.61Z" style="fill:#f7b91d"/><polygon points="43.89 47.32 41.28 44.71 42.42 43.57 43.89 45.03 46.44 42.48 47.58 43.62 43.89 47.32" style="fill:#fff"/><path d="M44.43,58.93l-.27-.09a15.26,15.26,0,0,1-10.24-14.4V35.62l10.51-4.89,10.51,4.89v8.82a15.25,15.25,0,0,1-10.25,14.4Z" style="fill:none;stroke:#544472;stroke-miterlimit:10;stroke-width:1.5px"/><path d="M12.58,24.5a.59.59,0,0,1-.42-.18L8.88,21a.59.59,0,0,1-.17-.42.58.58,0,0,1,.17-.41l3.28-3.28a.59.59,0,1,1,.83.83l-2.86,2.86L13,23.49a.59.59,0,0,1,0,.83A.55.55,0,0,1,12.58,24.5Z" style="fill:#fff"/><path d="M19.85,24.5a.55.55,0,0,1-.41-.18.59.59,0,0,1,0-.83l2.87-2.87-2.87-2.86a.59.59,0,1,1,.83-.83l3.28,3.28a.57.57,0,0,1,0,.83l-3.28,3.28A.56.56,0,0,1,19.85,24.5Z" style="fill:#fff"/><path d="M14.84,24.5a.54.54,0,0,1-.22-.05.59.59,0,0,1-.33-.76l2.64-6.57a.57.57,0,0,1,.76-.32.59.59,0,0,1,.33.76l-2.64,6.57A.58.58,0,0,1,14.84,24.5Z" style="fill:#fff"/></svg>