<svg xmlns="http://www.w3.org/2000/svg" xmlns:xlink="http://www.w3.org/1999/xlink" viewBox="0 0 510.27 491.34"><defs><linearGradient id="a" x1="195.87" y1="218.29" x2="247.9" y2="218.29" gradientUnits="userSpaceOnUse"><stop offset="0" stop-color="#eb6c85"/><stop offset="0.22" stop-color="#ed7281"/><stop offset="0.49" stop-color="#f18176"/><stop offset="0.79" stop-color="#f99b63"/><stop offset="1" stop-color="#ffb154"/></linearGradient><linearGradient id="b" x1="197.59" y1="167.2" x2="264.89" y2="167.2" xlink:href="#a"/><linearGradient id="c" x1="394.17" y1="185.69" x2="459.43" y2="185.69" xlink:href="#a"/><clipPath id="d"><path d="M343,60.77h4.36A25.33,25.33,0,0,1,340.19,64h-4.36A25.33,25.33,0,0,0,343,60.77Z" style="fill:none"/></clipPath><clipPath id="e"><path d="M158.36,97h-3.3a19,19,0,0,0,5.39,2.45h3.3A19,19,0,0,1,158.36,97Z" style="fill:none"/></clipPath><linearGradient id="f" x1="372.34" y1="420.26" x2="487.62" y2="420.26" gradientTransform="translate(60.16 -51.17) rotate(6.73)" gradientUnits="userSpaceOnUse"><stop offset="0" stop-color="#fb2040"/><stop offset="0.25" stop-color="#f53d5a"/><stop offset="0.54" stop-color="#ef5772"/><stop offset="0.8" stop-color="#ec6680"/><stop offset="1" stop-color="#eb6c85"/></linearGradient><clipPath id="g"><path d="M423.82,221.48a95.94,95.94,0,0,1-99.9,84.57A95.9,95.9,0,0,1,346.14,116,95.91,95.91,0,0,1,423.82,221.48Z" style="fill:none"/></clipPath><linearGradient id="h" x1="156.1" y1="185.93" x2="251.77" y2="185.93" xlink:href="#a"/><linearGradient id="i" x1="272.2" y1="185.88" x2="363.66" y2="185.88" xlink:href="#a"/><linearGradient id="j" x1="379.33" y1="185.88" x2="495.98" y2="185.88" xlink:href="#a"/><linearGradient id="k" x1="222.11" y1="471.51" x2="261.68" y2="471.51" gradientUnits="userSpaceOnUse"><stop offset="0" stop-color="#3934c4"/><stop offset="0.27" stop-color="#3f39c9"/><stop offset="0.62" stop-color="#4e47d7"/><stop offset="1" stop-color="#685eee"/></linearGradient><linearGradient id="l" x1="11.87" y1="252.67" x2="165.87" y2="266.17" xlink:href="#a"/><linearGradient id="m" x1="14.83" y1="218.94" x2="168.83" y2="232.44" xlink:href="#a"/><linearGradient id="n" x1="21.7" y1="372.68" x2="111.69" y2="379.18" xlink:href="#k"/><linearGradient id="o" x1="21.63" y1="373.52" x2="111.63" y2="380.02" xlink:href="#k"/><linearGradient id="p" x1="13.35" y1="235.76" x2="167.35" y2="249.26" xlink:href="#a"/><linearGradient id="q" x1="156.24" y1="414.55" x2="225.77" y2="414.55" xlink:href="#k"/><linearGradient id="r" x1="135.69" y1="337.98" x2="205.22" y2="337.98" xlink:href="#k"/><linearGradient id="s" x1="118.08" y1="380.07" x2="174.95" y2="380.07" xlink:href="#k"/><linearGradient id="t" x1="85.35" y1="279.07" x2="123.03" y2="279.07" xlink:href="#k"/><linearGradient id="u" x1="155.47" y1="279.07" x2="193.14" y2="279.07" xlink:href="#k"/><linearGradient id="v" x1="205.87" y1="422.05" x2="235.15" y2="422.05" gradientTransform="matrix(-1, 0, 0, 1, 483.79, 0)" xlink:href="#a"/><linearGradient id="w" x1="260.89" y1="302.97" x2="283.46" y2="302.97" gradientTransform="matrix(-1, 0, 0, 1, 483.79, 0)" xlink:href="#a"/><clipPath id="x"><path d="M195.9,451.13H184.3a66.17,66.17,0,0,0,8.09.49H204A66.21,66.21,0,0,1,195.9,451.13Z" style="fill:none"/></clipPath><linearGradient id="y" x1="319.5" y1="447.8" x2="332.21" y2="447.8" gradientTransform="matrix(-1, 0, 0, 1, 483.79, 0)" xlink:href="#a"/><linearGradient id="z" x1="303.4" y1="301.92" x2="336.26" y2="301.92" gradientTransform="matrix(-1, 0, 0, 1, 483.79, 0)" xlink:href="#a"/><linearGradient id="aa" x1="322.58" y1="332.35" x2="347.8" y2="332.35" gradientTransform="matrix(-1, 0, 0, 1, 483.79, 0)" xlink:href="#a"/><linearGradient id="ab" x1="347.73" y1="382.61" x2="360.34" y2="382.61" gradientTransform="matrix(-1, 0, 0, 1, 483.79, 0)" xlink:href="#a"/><linearGradient id="ac" x1="351.5" y1="415.84" x2="372.61" y2="415.84" gradientTransform="matrix(-1, 0, 0, 1, 483.79, 0)" xlink:href="#a"/><linearGradient id="ad" x1="197.56" y1="380.64" x2="362.19" y2="380.64" gradientTransform="matrix(-1, 0, 0, 1, 483.79, 0)" gradientUnits="userSpaceOnUse"><stop offset="0" stop-color="#ffb154"/><stop offset="0.21" stop-color="#f99b63"/><stop offset="0.51" stop-color="#f18176"/><stop offset="0.78" stop-color="#ed7281"/><stop offset="1" stop-color="#eb6c85"/></linearGradient><linearGradient id="ae" x1="353.88" y1="349.87" x2="373.79" y2="349.87" gradientTransform="matrix(-1, 0, 0, 1, 483.79, 0)" xlink:href="#a"/><linearGradient id="af" x1="190.11" y1="436.68" x2="209.61" y2="436.68" gradientTransform="matrix(-1, 0, 0, 1, 483.79, 0)" xlink:href="#k"/><linearGradient id="ag" x1="226.75" y1="357.39" x2="241.78" y2="357.39" gradientTransform="matrix(-1, 0, 0, 1, 483.79, 0)" xlink:href="#k"/><clipPath id="ah"><path d="M239.06,456h-7.72a43.94,43.94,0,0,0,5.39.33h7.72A44.06,44.06,0,0,1,239.06,456Z" style="fill:none"/></clipPath><linearGradient id="ai" x1="265.78" y1="453.82" x2="274.24" y2="453.82" gradientTransform="matrix(-1, 0, 0, 1, 483.79, 0)" xlink:href="#k"/><linearGradient id="aj" x1="255.05" y1="356.69" x2="276.93" y2="356.69" gradientTransform="matrix(-1, 0, 0, 1, 483.79, 0)" xlink:href="#k"/><linearGradient id="ak" x1="267.82" y1="376.95" x2="284.62" y2="376.95" gradientTransform="matrix(-1, 0, 0, 1, 483.79, 0)" xlink:href="#k"/><linearGradient id="al" x1="284.57" y1="410.42" x2="292.97" y2="410.42" gradientTransform="matrix(-1, 0, 0, 1, 483.79, 0)" xlink:href="#k"/><linearGradient id="am" x1="287.08" y1="432.54" x2="301.14" y2="432.54" gradientTransform="matrix(-1, 0, 0, 1, 483.79, 0)" xlink:href="#k"/><linearGradient id="an" x1="184.58" y1="409.11" x2="294.2" y2="409.11" gradientTransform="matrix(-1, 0, 0, 1, 483.79, 0)" xlink:href="#k"/><linearGradient id="ao" x1="288.67" y1="388.62" x2="301.92" y2="388.62" gradientTransform="matrix(-1, 0, 0, 1, 483.79, 0)" xlink:href="#k"/><linearGradient id="ap" x1="152.37" y1="471.51" x2="191.93" y2="471.51" xlink:href="#k"/><linearGradient id="aq" x1="13.2" y1="237.47" x2="167.2" y2="250.97" xlink:href="#a"/></defs><title>seo</title><g style="isolation:isolate"><path d="M231.63,219.69c3.94.1,8.35-.69,12.29-.69a21.66,21.66,0,0,1-11.65-3,16,16,0,0,1-4.61-4.41,42,42,0,0,1-2.9-5.86,7.94,7.94,0,0,0-7.1-4.43c-1.75,0-3.51,0-5.27,0h-5.72a7.91,7.91,0,0,1,6.77,3.87c.77,1.31.63,3.18,1.34,4.54s2.06,2.25,3,3.39A18.84,18.84,0,0,0,231.63,219.69Z" style="fill:#d6695d"/><path d="M255,166.06c.68,0,1.39,0,2.09,0l0,0Z" style="fill:#d6695d"/><path d="M271.08,146.42a96.09,96.09,0,0,0-6.19,7.39l-.27.35a21.72,21.72,0,0,0-4-7.08l-.23-.26a3.47,3.47,0,0,0-.25-.29c-.1-.11-.19-.21-.3-.31a8.21,8.21,0,0,0-.58-.6c-.2-.2-.4-.4-.61-.58l-.36-.33c-.18-.17-.37-.33-.56-.49-.44-.38-.92-.73-1.39-1.08a33.87,33.87,0,0,0-14.12-5.67c-.62-.11-1.25-.21-1.9-.3l-.87-.11c-1-.12-2-.22-3-.29q-1.11-.09-2.25-.12l-.77,0-1.83,0c3.93,0,7.86,0,11.78,0,8.06.08,16.59,1.38,23.36,6A25.28,25.28,0,0,1,271.08,146.42Z" style="fill:#d6695d"/><path d="M247.9,233.52c.13.52.25,1,.38,1.54-5.25.33-10.58.19-15.57.19H234l1.27,0,1.18-.05.88,0,.48,0c1.15-.08,2.31-.18,3.47-.33A46.51,46.51,0,0,0,247.9,233.52Z" style="fill:#d6695d"/><path d="M252.53,175.6c-.43,1.05-.84,2.11-1.22,3.17l-.48-.19-1-.37c-.69-.26-1.41-.51-2.16-.76s-1.43-.48-2.18-.71l-.51-.16c-.6-.19-1.2-.36-1.8-.54-3-.87-6.11-1.61-9.17-2.4-1.1-.28-2.14-.55-3.12-.82l-1.7-.48-.43-.13-1.88-.58-1.27-.42c-4.28-1.44-9.92-3.85-10.75-8.55s3.72-7.85,7.79-9.34c3.8-1.39,7.64-.79,11.62-.79h8.17A30.82,30.82,0,0,0,237,153c-5.23.95-10.59,3.48-10.33,9.23.3,6.7,8.89,8.74,14.1,10.24C244.65,173.61,248.61,174.55,252.53,175.6Z" style="fill:#d6695d"/><path d="M245.52,215.9a95.32,95.32,0,0,0,2.38,17.61,49.25,49.25,0,0,1-6.64,1.25c-1.28.16-2.59.28-3.95.36l-.88,0-1.18.05-1.27,0h-1.27q-17.69,0-27.16-8.35a32.29,32.29,0,0,1-9.27-14.63A8,8,0,0,1,203,201.68l3-.3c.26,0,.52,0,.77,0l.51,0,.51,0a8.43,8.43,0,0,1,1,.2l.49.15.48.18a7.37,7.37,0,0,1,2.53,1.66l.35.37c.17.19.33.39.48.59a4.43,4.43,0,0,1,.29.46c0,.06.09.12.13.19l.14.25a5.55,5.55,0,0,1,.45,1,20.38,20.38,0,0,0,4,6.89c.22.24.44.46.67.69l.58.55Q224.32,219,232.9,219a32.62,32.62,0,0,0,5.82-.48A17.68,17.68,0,0,0,245.52,215.9Z" style="fill:url(#a)"/><path d="M264.89,153.81l-.27.35a95.49,95.49,0,0,0-7.53,11.78l-2.61.11h-.34a7.67,7.67,0,0,1-7-5,13,13,0,0,0-3.78-5.35A14.19,14.19,0,0,0,237,153a28.22,28.22,0,0,0-5.53-.49q-8.2,0-12.85,3.45a7,7,0,0,0-3,5.92,7.39,7.39,0,0,0,2.8,5.79,23.78,23.78,0,0,0,7.23,3.52l1.27.42c.6.19,1.23.39,1.88.58l.43.13,1.7.48c1,.27,2,.54,3.12.82l1.67.41q4.06,1,7.5,2c.6.18,1.2.35,1.8.54l.51.16c.75.23,1.48.47,2.18.71s1.47.5,2.16.76l1,.37.48.19a96.59,96.59,0,0,0-4.84,19,24.35,24.35,0,0,0-4-1.83q-3.3-1.16-15.07-4.16-15.13-3.84-21.25-9.43a25.43,25.43,0,0,1-4.55-32.81,25.53,25.53,0,0,1,11.64-9.66q7.6-3.32,18.36-3.31.93,0,1.83,0l.77,0q1.14,0,2.25.12c1,.07,2,.16,3,.29l.87.11c.63.09,1.27.19,1.9.3a32.84,32.84,0,0,1,14.12,5.67c.47.34.94.7,1.39,1.08a3.31,3.31,0,0,1,.3.25l.26.24.36.33.61.58.58.6.55.6.23.26A25.93,25.93,0,0,1,264.89,153.81Z" style="fill:url(#b)"/></g><g style="isolation:isolate"><path d="M419.89,153.57a23.36,23.36,0,0,0-10.58,4.92c-.93-1.47-1.91-2.9-2.93-4.31a23.71,23.71,0,0,1,2.82-.7q.57-.1,1.17-.18l.57-.07.28,0,.49,0c4.48-.41,9.09-.11,13.57-.11A27.67,27.67,0,0,0,419.89,153.57Z" style="fill:#d6695d"/><path d="M425.28,218.74H424.1a0,0,0,0,0,0,0h.13Z" style="fill:#d6695d"/><path d="M469.86,195.53a49.54,49.54,0,0,1-6.51,19.79,41.14,41.14,0,0,1-27.84,19,72.18,72.18,0,0,1-13.15.95h-1.19a3.45,3.45,0,0,0,.12-.46,0,0,0,0,0,0,0,43.51,43.51,0,0,0,20.74-8l.84-.65.45-.36.62-.52.83-.73.4-.37a1.49,1.49,0,0,0,.14-.12,3.19,3.19,0,0,0,.26-.26c.42-.4.84-.81,1.24-1.24l.33-.34.68-.75a45,45,0,0,0,9.7-18.78l.06-.24c.15-.6.29-1.2.41-1.81.06-.26.11-.52.16-.79s.11-.56.16-.84c.14-.8.27-1.59.39-2.39s.22-1.63.31-2.46c0-.36.08-.72.11-1.09a71.07,71.07,0,0,0-.6-18.77c-.07-.45-.15-.89-.23-1.33-.26-1.38-.57-2.75-.92-4.1a.14.14,0,0,0,0-.06c-.15-.56-.3-1.11-.47-1.65a43.36,43.36,0,0,0-11.18-18.76c-.44-.43-.89-.84-1.34-1.25s-.91-.78-1.38-1.17l0,0c-.28-.23-.56-.45-.85-.66-.7-.54-1.42-1-2.15-1.52l-1.07-.67-.51-.31a44.41,44.41,0,0,0-15.9-5.5l-.14,0L420.4,137c-.92-.09-1.84-.19-2.78-.24-.57,0-1.14-.06-1.71-.08l-1.83,0h10.69a50.92,50.92,0,0,1,18.7,3.21,40.81,40.81,0,0,1,17.22,12.94C469.92,164.57,471.7,181.07,469.86,195.53Z" style="fill:#d6695d"/><path d="M458.53,174.23c-.07-.45-.15-.89-.23-1.33-.26-1.4-.56-2.77-.92-4.1a.14.14,0,0,0,0-.06c-.15-.56-.3-1.11-.47-1.65s-.27-.88-.42-1.32-.29-.88-.45-1.31-.32-.87-.49-1.3-.35-.85-.54-1.27a40.31,40.31,0,0,0-7.93-12.21q-.66-.7-1.35-1.35c-.44-.43-.89-.84-1.34-1.25s-.91-.78-1.38-1.17l0,0c-.28-.23-.56-.45-.85-.66l-.62-.46c-.14-.11-.29-.21-.44-.31-.36-.26-.72-.5-1.09-.74s-.71-.46-1.07-.68l-.51-.31c-.35-.21-.7-.41-1.06-.6s-.71-.39-1.07-.56l-.77-.38-.87-.41-1-.43a42.21,42.21,0,0,0-9.08-2.76l-.65-.12-1.44-.24-.14,0c-.64-.09-1.29-.18-1.94-.25-.92-.1-1.85-.18-2.78-.24-.57,0-1.14-.06-1.71-.08l-1.83,0a50.33,50.33,0,0,0-19.91,3.68,95.66,95.66,0,0,1,12.19,13.87,21.76,21.76,0,0,1,2.84-.67q.57-.1,1.17-.18l.85-.1.49,0c.83-.08,1.68-.11,2.55-.11a29.1,29.1,0,0,1,5.63.52,22.67,22.67,0,0,1,13.05,7.55q7,8.07,7,24.45,0,16.59-7.23,24.88a23.46,23.46,0,0,1-8.48,6.32c0,.64-.1,1.29-.16,1.93a0,0,0,0,1,0,0c-.08.91-.17,1.83-.28,2.74a96,96,0,0,1-2.52,13.27,0,0,0,0,1,0,0,41.85,41.85,0,0,0,20.75-8l.84-.65.45-.36.62-.52.83-.73.4-.37.07-.06.33-.32c.42-.4.84-.81,1.24-1.24l.33-.34.68-.75a43.53,43.53,0,0,0,9.7-18.78l.06-.24c.15-.6.29-1.2.41-1.81.06-.26.11-.52.16-.79s.11-.52.15-.79c0,0,0,0,0-.05.14-.79.27-1.59.39-2.39s.22-1.63.31-2.46c0-.36.08-.72.11-1.09.2-2.24.3-4.57.3-7A73.43,73.43,0,0,0,458.53,174.23Z" style="fill:url(#c)"/></g><g style="isolation:isolate"><polygon points="315.56 60.77 319.92 60.77 313.82 64.27 309.46 64.27 315.56 60.77" style="fill:#8fabec"/><polygon points="309.46 6.92 313.82 6.92 319.92 10.42 315.56 10.42 309.46 6.92" style="fill:#8fabec"/><path d="M332.45,58.26c-8.83-.53-16-7.24-18.52-15.5a24.26,24.26,0,0,1,5.78-24,19.88,19.88,0,0,1,13.9-5.86h-4a20,20,0,0,0-7.88,1.55,21.83,21.83,0,0,0-11.54,12.27,24.77,24.77,0,0,0-.25,17.1,22.15,22.15,0,0,0,10.92,12.53,19.4,19.4,0,0,0,8.09,1.94c1.41,0,2.81,0,4.22,0h.46C333.23,58.3,332.84,58.28,332.45,58.26Z" style="fill:#8fabec"/><polygon points="324.73 0 329.09 0 338.14 0 333.78 0 324.73 0" style="fill:#254c77"/><polygon points="335.83 64 340.19 64 338.14 71.19 333.78 71.19 335.83 64" style="fill:#b0bfe3"/><polygon points="333.78 0 338.14 0 340.19 7.19 335.83 7.19 333.78 0" style="fill:#b0bfe3"/><g style="isolation:isolate"><g style="clip-path:url(#d)"><g style="isolation:isolate"><path d="M343,60.77h4.36A25.33,25.33,0,0,1,340.19,64h-4.36A25.33,25.33,0,0,0,343,60.77Z" style="fill:#8fabec"/></g></g></g><path d="M337.51,7.72a26.06,26.06,0,0,1,3.92,1.78l.93.55a2.26,2.26,0,0,0,.61.37,2.62,2.62,0,0,0,.56,0h3.78a25.74,25.74,0,0,0-6.55-3.06,12.18,12.18,0,0,0-3.52-.17h-1.41C336.4,7.35,337,7.53,337.51,7.72Z" style="fill:#8fabec"/><path d="M359.56,42.79h-4.35c-.06.26-.13.51-.19.75l-.09.36c-.07.25-.14.5-.22.75l-.06.22c-.1.32-.2.64-.31,1a2.5,2.5,0,0,1-.09.25l-.24.69-.15.36c-.07.19-.14.38-.22.57s-.11.25-.17.38-.15.35-.23.53l-.19.42-.24.49-.21.41-.35.67h4.36l.21-.39c.05-.09.09-.19.14-.28l.21-.41.24-.49.19-.42c0-.06,0-.11.08-.16l.15-.37.17-.38.22-.57c0-.12.1-.24.14-.36l0-.08.21-.61.09-.25q.17-.47.3-.93v0l.06-.22c.08-.25.15-.5.22-.75l.09-.36.12-.48.06-.27Z" style="fill:#b0bfe3"/><path d="M353.11,22.3a30.46,30.46,0,0,1,1.55,4.05c.1.33.19.66.28,1,.05.17.14,1,.27,1a1.61,1.61,0,0,0,.49,0h3.86a30.52,30.52,0,0,0-2.62-7.17c-.07-.13-.21-.56-.34-.62s-.09,0-.13,0a3.86,3.86,0,0,0-.68,0h-3.54C352.56,21.16,352.84,21.73,353.11,22.3Z" style="fill:#b0bfe3"/><polygon points="352.25 50.59 356.61 50.59 359.81 57.26 355.45 57.26 352.25 50.59" style="fill:#becef5"/><polygon points="355.45 57.26 359.81 57.26 353.41 64.27 349.05 64.27 355.45 57.26" style="fill:#b0bfe3"/><polygon points="355.45 13.93 359.81 13.93 356.61 20.61 352.25 20.61 355.45 13.93" style="fill:#8fabec"/><polygon points="349.05 6.92 353.41 6.92 359.81 13.93 355.45 13.93 349.05 6.92" style="fill:#b0bfe3"/><polygon points="361.77 40.55 366.13 40.55 359.56 42.79 355.21 42.79 361.77 40.55" style="fill:#becef5"/><rect x="361.78" y="30.64" width="4.36" height="9.91" style="fill:#b0bfe3"/><path d="M361.78,40.55l-6.57,2.24a31,31,0,0,1-3,7.8l3.2,6.67-6.4,7-6.1-3.5A25.33,25.33,0,0,1,335.83,64l-2.05,7.19h-9L322.68,64a25.33,25.33,0,0,1-7.12-3.23l-6.1,3.5-6.4-7,3.2-6.67a30.6,30.6,0,0,1-2.95-7.8l-6.57-2.24V30.64l6.57-2.24a30.39,30.39,0,0,1,2.95-7.79l-3.2-6.68,6.4-7,6.1,3.5a25.33,25.33,0,0,1,7.12-3.23L324.73,0h9l2.05,7.19A25.33,25.33,0,0,1,343,10.42l6.1-3.5,6.4,7-3.2,6.68a30.78,30.78,0,0,1,3,7.79l6.57,2.24ZM329.26,58.3C340.71,58.3,350,48.13,350,35.6s-9.28-22.7-20.73-22.7-20.74,10.16-20.74,22.7,9.28,22.7,20.74,22.7Z" style="fill:#becef5"/><polygon points="355.21 28.4 359.56 28.4 366.13 30.64 361.77 30.64 355.21 28.4" style="fill:#8fabec"/></g><g style="isolation:isolate"><polygon points="179.11 97.01 175.81 97.01 180.43 99.66 183.73 99.66 179.11 97.01" style="fill:#8fabec"/><polygon points="183.73 56.23 180.43 56.23 175.81 58.88 179.11 58.88 183.73 56.23" style="fill:#8fabec"/><path d="M166.31,95.11c6.69-.4,12.13-5.48,14-11.74A18.4,18.4,0,0,0,176,65.19a15.08,15.08,0,0,0-10.54-4.44h3a14.93,14.93,0,0,1,6,1.18,16.58,16.58,0,0,1,8.74,9.29,18.79,18.79,0,0,1,.19,13,16.75,16.75,0,0,1-8.27,9.49A14.67,14.67,0,0,1,169,95.14c-1.06,0-2.13,0-3.2,0h-.35C165.73,95.14,166,95.13,166.31,95.11Z" style="fill:#8fabec"/><polygon points="172.16 50.98 168.86 50.98 162 50.98 165.31 50.98 172.16 50.98" style="fill:#254c77"/><polygon points="163.75 99.46 160.45 99.46 162 104.91 165.31 104.91 163.75 99.46" style="fill:#b0bfe3"/><polygon points="165.31 50.98 162 50.98 160.45 56.43 163.75 56.43 165.31 50.98" style="fill:#b0bfe3"/><g style="isolation:isolate"><g style="clip-path:url(#e)"><g style="isolation:isolate"><path d="M158.36,97h-3.3a19,19,0,0,0,5.39,2.45h3.3A19,19,0,0,1,158.36,97Z" style="fill:#8fabec"/></g></g></g><path d="M162.48,56.83a20.35,20.35,0,0,0-3,1.35l-.7.41a2.22,2.22,0,0,1-.46.29,2.06,2.06,0,0,1-.43,0h-2.86a19.73,19.73,0,0,1,5-2.33,9.53,9.53,0,0,1,2.67-.12h1.06C163.32,56.55,162.9,56.68,162.48,56.83Z" style="fill:#8fabec"/><path d="M145.78,83.4h3.3c0,.19.09.38.14.57s0,.17.07.26.1.38.16.57l.05.17c.07.24.15.48.23.72,0,.06.05.12.07.19s.12.35.19.52.07.18.1.28l.18.42.12.29c.06.14.11.27.17.4l.15.32.18.37c.05.11.11.21.16.31l.26.51H148l-.15-.3-.11-.21c-.05-.1-.11-.2-.16-.31l-.18-.37-.15-.32a.61.61,0,0,0,0-.12l-.12-.28c0-.09-.08-.19-.13-.29s-.11-.28-.17-.43l-.1-.27,0-.06c-.06-.16-.11-.31-.16-.46s-.05-.13-.07-.19c-.08-.23-.15-.47-.23-.7v0l0-.17c-.06-.19-.11-.38-.16-.57a2.68,2.68,0,0,1-.07-.27c0-.12-.07-.24-.09-.36a1.94,1.94,0,0,1-.05-.2Z" style="fill:#b0bfe3"/><path d="M150.67,67.88a22.18,22.18,0,0,0-1.17,3.06c-.08.25-.15.5-.22.76s-.1.73-.2.79a1.15,1.15,0,0,1-.37,0h-2.93a23.41,23.41,0,0,1,2-5.43c.06-.1.16-.42.26-.47a.33.33,0,0,1,.1,0,3,3,0,0,1,.52,0h2.67C151.08,67,150.87,67.44,150.67,67.88Z" style="fill:#b0bfe3"/><polygon points="151.31 89.3 148.01 89.3 145.59 94.36 148.89 94.36 151.31 89.3" style="fill:#becef5"/><polygon points="148.89 94.36 145.59 94.36 150.44 99.66 153.74 99.66 148.89 94.36" style="fill:#b0bfe3"/><polygon points="148.89 61.53 145.59 61.53 148.01 66.59 151.31 66.59 148.89 61.53" style="fill:#8fabec"/><polygon points="153.74 56.23 150.44 56.23 145.59 61.53 148.89 61.53 153.74 56.23" style="fill:#b0bfe3"/><polygon points="144.1 81.7 140.8 81.7 145.78 83.4 149.08 83.4 144.1 81.7" style="fill:#becef5"/><rect x="140.8" y="74.19" width="3.3" height="7.5" style="fill:#b0bfe3"/><path d="M144.1,74.19l5-1.7a23.13,23.13,0,0,1,2.23-5.9l-2.42-5.06,4.85-5.3,4.62,2.65a19,19,0,0,1,5.39-2.45L165.31,51h6.85l1.55,5.45a19,19,0,0,1,5.4,2.45l4.62-2.65,4.84,5.3-2.42,5.06a23.53,23.53,0,0,1,2.24,5.9l5,1.7V81.7l-5,1.7a23.53,23.53,0,0,1-2.24,5.9l2.42,5.06-4.84,5.3L179.11,97a19,19,0,0,1-5.4,2.45l-1.55,5.45h-6.85l-1.56-5.45A19,19,0,0,1,158.36,97l-4.62,2.65-4.85-5.3,2.42-5.06a23.13,23.13,0,0,1-2.23-5.9l-5-1.7Zm24.63,21c8.68,0,15.71-7.7,15.71-17.2s-7-17.19-15.71-17.19S153,68.45,153,77.94s7,17.2,15.7,17.2Z" style="fill:#becef5"/><polygon points="149.08 72.49 145.78 72.49 140.8 74.19 144.1 74.19 149.08 72.49" style="fill:#8fabec"/></g><path d="M243.16,266a112.17,112.17,0,1,1,152.42,44A112.3,112.3,0,0,1,243.16,266Zm14.21-7.84A95.94,95.94,0,1,0,295,127.76,96.05,96.05,0,0,0,257.37,258.13Z" style="fill:#8fabec"/><path d="M488.56,488.09h0a26,26,0,0,0,10.21-35.36l-52.85-96.05a26,26,0,0,0-35.37-10.2h0a26,26,0,0,0-10.2,35.36l52.85,96.05A26,26,0,0,0,488.56,488.09Z" style="fill:#cf3b59"/><polygon points="477.54 489.11 488.66 467.29 398 302.61 380.24 312.41 477.54 489.11" style="fill:#8fabec"/><polygon points="489.5 485.29 473.26 491.19 460.35 489.66 463.68 476.5 481.56 469.3 490.12 465.81 489.5 485.29" style="fill:#cf3b59"/><path d="M230.36,264.46a112.18,112.18,0,1,1,152.43,44A112.31,112.31,0,0,1,230.36,264.46Zm14.21-7.84A95.95,95.95,0,1,0,282.2,126.25,96.06,96.06,0,0,0,244.57,256.62Z" style="fill:#becef5"/><polygon points="465.72 487.71 483.48 477.91 386.18 301.21 368.42 311.02 465.72 487.71" style="fill:#becef5"/><path d="M476.74,486.7h0A26,26,0,0,0,487,451.33l-52.5-94.65a26,26,0,0,0-35.36-10.2h0a26,26,0,0,0-10.21,35.36l52.5,94.65A26,26,0,0,0,476.74,486.7Z" style="fill:url(#f)"/><path d="M233.32,199a95.91,95.91,0,1,0,106.49-84A95.89,95.89,0,0,0,233.32,199Z" style="fill:#fff;opacity:0.6000000000000001"/><g style="clip-path:url(#g)"><g style="isolation:isolate"><path d="M202.22,229.47c5.08.13,10.77-.9,15.85-.9-5.22,0-10.56-1-15-3.82a20.48,20.48,0,0,1-5.93-5.69c-1.65-2.37-2.51-5-3.75-7.54a10.23,10.23,0,0,0-9.16-5.71c-2.26,0-4.52,0-6.78,0H170a10.2,10.2,0,0,1,8.72,5c1,1.7.82,4.11,1.73,5.86s2.65,2.9,3.93,4.37A24.27,24.27,0,0,0,202.22,229.47Z" style="fill:#d6695d"/><path d="M208.47,122.53c11.25.78,22.72,4,30.55,12.59a27.09,27.09,0,0,1,6.54,12.94c.78,4.35-.7,8.79-4.6,10.85-2.84,1.49-6.57,1.39-9.71,1.39,4.63,0,9.26,0,13.89,0,1.93,0,3.87-.11,5.79-.23a10.44,10.44,0,0,0,9.13-6.76c1.62-4.4-.41-8.76-2.65-12.54a34,34,0,0,0-9.88-10.65c-8.73-6-19.72-7.7-30.12-7.8-5.06,0-10.12,0-15.19,0Q205.36,122.32,208.47,122.53Z" style="fill:#d6695d"/><path d="M265.83,215c.77-8.36-.79-17.48-5.58-24.49s-12-11.41-19.87-14.37c-8.61-3.22-17.59-5-26.41-7.55-6.72-1.93-17.8-4.55-18.19-13.21-.46-10.16,12.72-12.53,20.4-12.53H205.65c-5.13,0-10.09-.77-15,1-5.24,1.92-11.11,6-10,12,1.18,6.68,9.91,9.77,15.51,11.57,7.9,2.53,16.08,4.08,24,6.59,7.49,2.38,15,5.2,20.91,10.62,11.3,10.44,12.14,28.2,5.7,41.94-3.46,7.38-7.38,13.63-14.65,17.33-6.76,3.44-14.41,4.86-21.92,5.36q-3.27.21-6.54.21c18.68,0,41,1.48,54.06-14.63A37.39,37.39,0,0,0,265.83,215Z" style="fill:#d6695d"/><path d="M202.22,122.32q22.65,0,34.09,10.14a34.07,34.07,0,0,1,9.54,13.86,10.28,10.28,0,0,1-9.12,13.75l-5,.22h-.44a9.86,9.86,0,0,1-9-6.4,16.94,16.94,0,0,0-4.88-6.89q-5.13-4.15-15.38-4.16-10.58,0-16.56,4.46a9,9,0,0,0-3.87,7.63,9.56,9.56,0,0,0,3.62,7.47q4.59,3.93,22.31,8.2t26.21,8.86A34,34,0,0,1,247,192q4.8,7.93,4.8,19.59A36.89,36.89,0,0,1,246,231.34,34.62,34.62,0,0,1,229.79,245q-10.51,4.52-26.17,4.5-22.81,0-35-10.78a41.69,41.69,0,0,1-12-18.87,10.37,10.37,0,0,1,8.61-13.65l3.8-.39c.33,0,.67,0,1,0a10,10,0,0,1,9.48,6.58,24.6,24.6,0,0,0,6.74,10.48q6.53,5.7,17.6,5.7,11.73,0,17.68-5.07c4-3.38,6-7.35,6-11.87a11.28,11.28,0,0,0-2.51-7.42c-1.67-2.05-4.57-3.82-8.74-5.33q-4.26-1.5-19.43-5.37-19.51-4.95-27.41-12.15-11.07-10.16-11.07-24.75A32.14,32.14,0,0,1,163.54,139a32.77,32.77,0,0,1,15-12.45Q188.35,122.3,202.22,122.32Z" style="fill:url(#h)"/></g><g style="isolation:isolate"><path d="M319.67,226.57a10.28,10.28,0,0,1-8.16-6.2c-.89-2.09-.82-4.28-.82-6.5v-7.69a17.51,17.51,0,0,1,.66-6.32,10.27,10.27,0,0,1,9.47-6.68h-13c-2.55,0-7.07-5.82-9.19-4.27-2.63,1.91-4.18,10.44-4.28,13.67-.12,4.21-1.59,8.77-1.53,13,.07,5.91,6.66,13.83,12.64,13.91,4.66.06,10.71-2.84,15.36-2.84A11.09,11.09,0,0,1,319.67,226.57Z" style="fill:#d6695d"/><path d="M292.13,162.59c.15,4.51,7,12.66,11.45,13.67,2.58.59,6-3.8,8.63-3.8h8.61a10.17,10.17,0,0,1-7.8-3.78c-2.35-2.88-2.33-6.31-2.33-9.84s0-6.92,2.26-9.78a10.22,10.22,0,0,1,7.87-3.86c-3.51,0-7.4-2.51-10.91-2.51-3,0-8.28-1.48-10.94,0C293.11,145.94,292,156.82,292.13,162.59Z" style="fill:#d6695d"/><path d="M348.43,172.62a10.37,10.37,0,0,1-1.7,20.56h10c4.06,0,8,.21,11.16-2.87a10.58,10.58,0,0,0,.43-14.55c-2.77-3-6.35-3.3-10.17-3.3H346.73A9.69,9.69,0,0,1,348.43,172.62Z" style="fill:#d6695d"/><path d="M352.39,124.48a10.41,10.41,0,0,1-1.15,20.72H361.4c4.08,0,8,.17,11.13-3a10.69,10.69,0,0,0,.59-14.24c-2.68-3.21-6.34-3.59-10.2-3.59H351.24A11.09,11.09,0,0,1,352.39,124.48Z" style="fill:#d6695d"/><path d="M377.83,238a10.39,10.39,0,0,0-9.43-11.31c-3.45-.25-7,0-10.43,0h-4.43a10.36,10.36,0,0,1,0,20.72h12.75a12,12,0,0,0,6.84-1.59A10.49,10.49,0,0,0,377.83,238Z" style="fill:#d6695d"/><path d="M351.24,124.41a10.4,10.4,0,0,1,0,20.79H306.61a10.24,10.24,0,0,0-10.13,10.36v6.55a10.24,10.24,0,0,0,10.13,10.35h40.12a10.36,10.36,0,0,1,0,20.72H306.61a10.24,10.24,0,0,0-10.13,10.36v12.75a10.24,10.24,0,0,0,10.13,10.35h46.93a10.36,10.36,0,0,1,0,20.72H282.33A10.25,10.25,0,0,1,272.2,237V134.77a10.25,10.25,0,0,1,10.13-10.36Z" style="fill:url(#i)"/></g><g style="isolation:isolate"><path d="M450.59,228.2A31,31,0,0,1,429,218.56c-5.27-5.5-8.1-12.7-9.42-20.1a74.89,74.89,0,0,1-.08-25.17c1.32-7.93,4.32-15.63,10.19-21.29s14-8.47,22.24-8.47c-6.11,0-12.41-.44-18.5.23a30.85,30.85,0,0,0-25.58,19.9,58.62,58.62,0,0,0-3.46,19.1,68.71,68.71,0,0,0,2,20.31c3,11.26,11.1,21.07,22.69,24.09,4.27,1.11,8.58,1.08,12.95,1.08H452C451.5,228.24,451,228.22,450.59,228.2Z" style="fill:#d6695d"/><path d="M509.44,198.31c2.36-18.65.07-39.92-11.83-55.18a52.71,52.71,0,0,0-22.2-16.68,65.61,65.61,0,0,0-24.12-4.13H437.5c12.58,0,25.07,3.06,35.35,10.52s17.26,18.67,20.47,30.91a91.88,91.88,0,0,1,1.22,39c-2.17,12.17-7.66,23.71-16.75,32.23-10.85,10.18-25.31,14.45-40,14.45h0c9.05,0,18.35.51,27.31-1.14A53.09,53.09,0,0,0,501,223.83C505.77,216.13,508.31,207.22,509.44,198.31Z" style="fill:#d6695d"/><path d="M480,139.17Q496,156,496,186.06q0,29.76-15.83,46.58t-42.33,16.81q-26.82,0-42.65-16.72t-15.84-46.1q0-18.78,5.5-31.53A57.89,57.89,0,0,1,396,138.25a46.74,46.74,0,0,1,15.55-11.07q11.24-4.87,25.93-4.86Q464.08,122.32,480,139.17Zm-18.46,78.37q9.31-10.68,9.32-32.07,0-21.14-9.07-31.54t-24.08-10.4q-15,0-24.19,10.52t-9.2,31.75q0,20.89,9.44,31.66a31.94,31.94,0,0,0,47.78.08Z" style="fill:url(#j)"/></g></g><path d="M423.82,221.48a95.94,95.94,0,0,1-99.9,84.57A95.9,95.9,0,0,1,346.14,116,95.91,95.91,0,0,1,423.82,221.48Z" style="fill:#fff;opacity:0.4"/><path d="M267.86,471.5a19.78,19.78,0,0,0-19.29-19.75v0h-6.68v1a19.76,19.76,0,0,0-.48,37.38v1.17h7.18v0A19.78,19.78,0,0,0,267.86,471.5Z" style="fill:#312da4"/><path d="M241.89,451.72a19.79,19.79,0,1,0,19.79,19.78A19.79,19.79,0,0,0,241.89,451.72Z" style="fill:url(#k)"/><path d="M241.89,461.87a9.64,9.64,0,1,0,9.64,9.64A9.63,9.63,0,0,0,241.89,461.87Z" style="fill:#e0e5eb"/><path d="M234.57,471.51a9.63,9.63,0,0,1,8.48-9.56,8.8,8.8,0,0,0-1.16-.08,9.64,9.64,0,0,0,0,19.27,8.8,8.8,0,0,0,1.16-.08A9.62,9.62,0,0,1,234.57,471.51Z" style="fill:#b0b0b0"/><path d="M182,269.31c-6.05-2.17-12.28-3.76-16.51-3.79-4,0-7.43-.42-11.3-.31-.73,0,2.41,11.7,3,11.83a63.78,63.78,0,0,0,13,1.62c.87.59,3.61,3.29,5.73,3.32,2.59,0,10,1.11,9.72-2.91C185.39,276.87,183.16,269.74,182,269.31Z" style="fill:#fda798"/><path d="M163.27,282l4.59-19.47s-23.93-4.62-42.14-10.93c-8.32-2.86-15.22-6.43-17.48-6.5-7.24-.24-17.35,19.26-2.73,23.32C124.81,273.74,163.27,282,163.27,282Z" style="fill:url(#l)"/><path d="M80.25,219.2c.38,1.28.77,2.55,1.2,3.86.82,2.55,1.71,5.1,2.66,7.6,6.74,17.88,16.39,34,23.72,35.17,1.2.2,17.13-.72,19.38-5,1.56-2.91-7.76-19.1-11.62-27.22-1.89-4-5.11-9.89-8.94-16.24-1.55-2.61-3.21-5.26-5-7.89C94.12,197.85,85.54,187,80.35,186,76.57,185.24,76.8,207.48,80.25,219.2Z" style="fill:url(#m)"/><path d="M80.25,219.2c.38,1.3.77,2.6,1.15,3.88.77,2.63,1.56,5.18,2.32,7.71C89,248,94.29,262.58,100.42,266.64c7,4.6,18,6.7,31.75,8.38-20.58-7.76-23.31-18.25-27.54-38.7-3.3-15.93-14.14-35.61-16.9-41.2a27.59,27.59,0,0,0-4-6.36c-.54,0-1.08,0-1.56,0a10.44,10.44,0,0,0-1.51.1C79.25,193.61,76.8,207.48,80.25,219.2Z" style="fill:#d6695d"/><path d="M16.18,487.09l10.32,1.13s-4.66-2.47-9.66-5.35c-.54-.87-1.09-1.79-1.61-2.8-3.35-6.56-1.47-8.76-3.78-9.33-2.94-.74-10,4.63-10,4.63l11,8.87c1.64,1.59,3,2.77,3,2.77l.52.05.05.05Z" style="fill:#042f78"/><polygon points="15.93 487.06 1.44 475.37 0 477.15 15.68 490.23 26.26 490.5 26.5 488.22 15.93 487.06" style="fill:#312da4"/><path d="M123,477.84c-2,2.28-.47,11-.47,11l23.38-10.3s-6.44.23-12.88.2C125.62,478.73,124.53,476.06,123,477.84Z" style="fill:#042f78"/><rect x="121.86" y="483.61" width="25.55" height="2.29" transform="translate(-184.12 95.51) rotate(-23.79)" style="fill:#312da4"/><path d="M99.46,277.57c9.08,52.83,28.67,200.29,28.67,200.29l-7,2.72S56.76,339.37,54.42,333.51,55.57,289,55.57,289Z" style="fill:url(#n)"/><path d="M74.78,326.88c-2-5.45-21.8-33.1-21.8-33.1s-.9,33.86,1.44,39.73,66.67,147.07,66.67,147.07l5.27-2C121.26,466.62,77,332.92,74.78,326.88Z" style="fill:#312da4"/><polygon points="14.19 475.05 53.1 389.47 77.07 324.55 87.92 316.23 86.18 276.11 30.24 280.57 25.88 383.19 5.58 471.72 14.19 475.05" style="fill:url(#o)"/><polygon points="77.61 332.49 63.23 322.4 77.07 324.55 91.96 312.85 77.61 332.49" style="fill:#312da4"/><path d="M33.81,390.51s1.78-62.71,12.93-82.61c6-10.81,55.58-12.83,55.58-12.83l-8.81-19.88-63.27,5.38L25.88,383.18,5.58,471.72l5.53,2.14Z" style="fill:#312da4"/><path d="M59.47,180.61c14.59-.55,24.75,4.74,28,13.2C104.36,238.16,105,288.86,105,288.86s-49.14,12.82-76.34,7.51c0,0-8.2-77.25,1-99.51C35.92,181.61,49,181,59.47,180.61Z" style="fill:url(#p)"/><path d="M79,164.08c-.29.74-.56,1.43-.76,2.08A36.24,36.24,0,0,0,77,171.38a40.62,40.62,0,0,0-.58,4.82,44.17,44.17,0,0,0,.18,8.32C63,191.24,48.22,182,48.22,182a45.94,45.94,0,0,0,1.57-6.57,101.64,101.64,0,0,0,1.23-11,1,1,0,0,0,0-.23,1,1,0,0,0,0-.15Z" style="fill:#fda798"/><path d="M79,164.08c-.29.74-.56,1.43-.76,2.08A21.21,21.21,0,0,0,77,171.38a40.62,40.62,0,0,0-.58,4.82c-6.48,2.85-13.79,4-19.1,2.85a18.09,18.09,0,0,1-7.55-3.63,101.64,101.64,0,0,0,1.23-11,1,1,0,0,0,0-.23,1,1,0,0,0,0-.15Z" style="fill:#fd876d"/><path d="M40.55,230.55s-5.37,22.13,2.41,33c9.25,12.9,30.26,24.25,62.14,27.43,0,0-49.66,13.69-76.34,7.51,0,0-4.81-55.11-3.37-74.19C25.91,217.43,40.55,230.55,40.55,230.55Z" style="fill:#d6695d"/><path d="M45.81,158.05s3.4,11,8.93,14,25,3.33,29.09-1.61,2.28-41.06.73-44.24-28.4-15-37.52-2S45.81,158.05,45.81,158.05Z" style="fill:#fda798"/><path d="M89.12,112.8c2.12-7.41-.68-15.51-10.77-14-1.58.23-3.2,1.66-4.61,1.7-1.16,0-2.69-1.37-4.52-1.28-2.7.13-4.32.65-5.77,2-6.48-5-18-2.71-19.19,5.78a8.1,8.1,0,0,0-8.46,2.33,7,7,0,0,0-1.52,6.73,6,6,0,0,0-4.09,5.07,9.49,9.49,0,0,0,.82,4.78c-3.24,1.59-5.68,4.05-5.9,8.14-.16,3,.74,6.45,3,8.4A7.82,7.82,0,0,0,29,150c1.19,1.9,3.87,4,5.9,3.69-.44,2.44.63,5.65,2.5,9.15,2.12,4,11.36,6.35,13.41,5.45-3.87-7.26-2.3-27.46-5.14-37.14a218.45,218.45,0,0,0,28.65-5.44c6.45,2,13.81,3.07,17.69-.09C97.73,120.92,94.35,114.71,89.12,112.8Z" style="fill:#1b0a74"/><path d="M39.3,129.32C35,127.94,36.79,122,39.12,118a13.5,13.5,0,0,1-5.73-1.47,6,6,0,0,0-3.2,4.63,9.49,9.49,0,0,0,.82,4.78c-3.24,1.59-5.68,4.05-5.9,8.14-.16,3,.74,6.45,3,8.4A7.82,7.82,0,0,0,29,150c1.19,1.9,3.87,4,5.9,3.69-.44,2.44.63,5.65,2.5,9.15,2.12,4,11.36,6.35,13.41,5.45-3.38-7.7-2.08-19.62-3.78-30.61C42.61,136.94,37.78,133.64,39.3,129.32Z" style="fill:#17085e"/><path d="M48.28,146.82c-1.85-1.9-9.7-4.16-10.68-1-1.57,5,4.49,14.7,11.73,10.77C52,155.14,49.89,148.47,48.28,146.82Z" style="fill:#fda798"/><path d="M46.9,150s-5.75-3.78-6.29-2.07c-1.06,3.34,3.67,6.09,5,6.57,0,0-2.64-2.9-2-4.14S46.9,150,46.9,150Z" style="fill:#fd876d"/><path d="M74.06,164.89a8.35,8.35,0,0,1-5.19-2,.61.61,0,0,1,0-.85.59.59,0,0,1,.85,0,7.13,7.13,0,0,0,4.9,1.71c1.84-.19,3.54-1.34,5.06-3.44a.6.6,0,0,1,1,.7c-1.74,2.4-3.73,3.72-5.93,3.93A4.64,4.64,0,0,1,74.06,164.89Z" style="fill:#161228"/><path d="M77.57,142.53a2.54,2.54,0,0,0,2.57,2.27,2.44,2.44,0,0,0,1.71-3.06,2.23,2.23,0,1,0-4.28.79Z" style="fill:#161228"/><path d="M62.33,144.57a2.81,2.81,0,0,0,2.86,2.52c1.34-.19,2.22-1.71,1.9-3.4s-1.71-2.81-3-2.5A2.78,2.78,0,0,0,62.33,144.57Z" style="fill:#161228"/><path d="M74.17,155.26a9.37,9.37,0,0,1-2-.18.6.6,0,0,1,.37-1.15,9.09,9.09,0,0,0,3.94-.2c-.14-.32-.33-.67-.59-1.15a46,46,0,0,1-2.62-5.7.61.61,0,0,1,1.13-.44A42.67,42.67,0,0,0,76.93,152a12.66,12.66,0,0,1,.69,1.39,1,1,0,0,1-.21,1.1C76.85,155.09,75.42,155.26,74.17,155.26Z" style="fill:#161228"/><path d="M57.18,138.85a1.2,1.2,0,0,1-.82-2.08A11.89,11.89,0,0,1,67,134a1.22,1.22,0,0,1,.85,1.48,1.2,1.2,0,0,1-1.47.85A9.41,9.41,0,0,0,58,138.53,1.21,1.21,0,0,1,57.18,138.85Z" style="fill:#161228"/><path d="M83.94,136.07a1.2,1.2,0,0,1-.77-.28,7.69,7.69,0,0,0-7.48-1.15,1.21,1.21,0,1,1-.94-2.22,10.11,10.11,0,0,1,10,1.52,1.2,1.2,0,0,1-.77,2.13Z" style="fill:#161228"/><polygon points="243.51 473.7 238.98 473.7 188.18 280.46 192.71 280.46 243.51 473.7" style="fill:#312da4"/><path d="M223.85,416.47H158.16a1.92,1.92,0,0,1-1.89-1.62h0a1.91,1.91,0,0,1,1.89-2.22h65.69a1.93,1.93,0,0,1,1.9,1.62h0A1.93,1.93,0,0,1,223.85,416.47Z" style="fill:url(#q)"/><path d="M203.3,339.9H137.61a1.92,1.92,0,0,1-1.89-1.62h0a1.92,1.92,0,0,1,1.89-2.22H203.3a1.91,1.91,0,0,1,1.89,1.62h0A1.92,1.92,0,0,1,203.3,339.9Z" style="fill:url(#r)"/><polygon points="174.95 479.69 170.41 479.69 118.08 280.46 122.61 280.46 174.95 479.69" style="fill:url(#s)"/><path d="M244.71,472.31a3.53,3.53,0,1,1-3.53-3.52A3.53,3.53,0,0,1,244.71,472.31Z" style="fill:#312da4"/><path d="M88.31,276.1h32a1.42,1.42,0,0,1,1.37,1L123,282H88.31a3,3,0,0,1-3-3h0A3,3,0,0,1,88.31,276.1Z" style="fill:url(#t)"/><path d="M158.43,276.1h31.83a1.67,1.67,0,0,1,1.6,1.23l1.28,4.7H158.43a3,3,0,0,1-3-3h0A3,3,0,0,1,158.43,276.1Z" style="fill:url(#u)"/><g style="isolation:isolate"><polygon points="260.24 421.49 248.64 421.49 266.32 422.62 277.92 422.62 260.24 421.49" style="fill:url(#v)"/><polygon points="275.54 334.48 263.94 334.48 246.36 336.63 257.96 336.63 275.54 334.48" style="fill:#d6695d"/><polygon points="215.73 450.58 204.13 450.58 215.84 464.26 227.44 464.26 215.73 450.58" style="fill:#d6695d"/><polygon points="222.9 295.8 211.3 295.8 200.32 310.15 211.93 310.15 222.9 295.8" style="fill:url(#w)"/><path d="M195.54,435.53a52.94,52.94,0,0,0,29.93-11.81,55.22,55.22,0,0,0,17.8-26.82,56.43,56.43,0,0,0,.18-32,55.41,55.41,0,0,0-17.18-26.74,53.19,53.19,0,0,0-30-12.4c-1.33-.11-2.66-.17-4-.17h9.51a58.53,58.53,0,0,1,16.7,2.12,52.93,52.93,0,0,1,20,11,54.92,54.92,0,0,1,13.21,17.51,55.62,55.62,0,0,1,5.46,21.7,57.1,57.1,0,0,1-3.53,22.46,55.82,55.82,0,0,1-12.18,19.24,52.78,52.78,0,0,1-37.85,15.95H192.34C193.41,435.64,194.48,435.6,195.54,435.53Z" style="fill:#d6695d"/><g style="isolation:isolate"><g style="clip-path:url(#x)"><g style="isolation:isolate"><path d="M195.9,451.13H184.3a66.17,66.17,0,0,0,8.09.49H204a66.21,66.21,0,0,1-8.1-.49Z" style="fill:#667b84"/></g></g></g><path d="M183.85,310.19l.31,0,.92-.09c.61-.07,1.23-.13,1.85-.18.43,0,.87-.06,1.3-.09l1.8-.09.6,0,1.6,0h11.6c-.73,0-1.46,0-2.2.05l-1.8.09c-.43,0-.87,0-1.3.09-.62.05-1.23.11-1.85.18l-1.23.13c-1.11.15-2.23.31-3.34.51h-11.6C181.62,310.5,182.74,310.34,183.85,310.19Z" style="fill:#d6695d"/><polygon points="163.18 456.92 151.58 456.92 173.34 465.48 184.94 465.48 163.18 456.92" style="fill:#d6695d"/><polygon points="164.28 438.68 152.68 438.68 151.58 456.92 163.18 456.92 164.28 438.68" style="fill:url(#y)"/><polygon points="180.39 297.02 168.79 297.02 147.53 306.81 159.13 306.81 180.39 297.02" style="fill:url(#z)"/><polygon points="159.13 306.81 147.53 306.81 149.61 324.94 161.21 324.94 159.13 306.81" style="fill:#d6695d"/><path d="M142.19,429.33c-1.37-1.5-2.69-3.07-3.92-4.68h10.3a4.74,4.74,0,0,1,1.19,0c.25.07.38.35.55.56.57.74,1.17,1.46,1.78,2.18,1.13,1.3,2.28,2.58,3.49,3.81a69.63,69.63,0,0,0,8.7,7.48H153.47a3.3,3.3,0,0,1-.77,0c-.41-.1-.93-.67-1.27-.93-.58-.44-1.16-.9-1.73-1.37A69.54,69.54,0,0,1,142.19,429.33Z" style="fill:#d6695d"/><path d="M157.55,328.14a71.39,71.39,0,0,0-6.38,6.87c-1,1.17-1.87,2.38-2.75,3.6-.34.47-.53,1.18-1.14,1.18H136a74.25,74.25,0,0,1,6.15-7.78c1.16-1.29,2.38-2.52,3.64-3.71.61-.57,1.24-1.13,1.86-1.69.31-.27.62-.55.94-.81s.71-.76,1-.86a3,3,0,0,1,.79,0h10.81C160,326,158.73,327,157.55,328.14Z" style="fill:url(#aa)"/><path d="M123.45,381.24a75.4,75.4,0,0,1,.36-7.95c0-.18,0-.84.13-.91a.88.88,0,0,1,.28,0h11.29a72.85,72.85,0,0,0,.55,20.43H125.68a3.91,3.91,0,0,1-1.08,0s-.11,0-.14,0-.11-.65-.14-.8l-.15-1.13A72.35,72.35,0,0,1,123.45,381.24Z" style="fill:url(#ab)"/><polygon points="122.78 404.89 111.18 404.89 120.69 426.8 132.29 426.8 122.78 404.89" style="fill:url(#ac)"/><polygon points="136.06 392.81 124.45 392.81 111.18 404.89 122.78 404.89 136.06 392.81" style="fill:#d6695d"/><polygon points="121.6 361.08 110 361.08 123.91 372.38 135.51 372.38 121.6 361.08" style="fill:#d6695d"/><path d="M121.6,361.08l8.31-22.42,17.68,1.13a70,70,0,0,1,13.62-14.85l-2.08-18.13L180.39,297l11.72,13.68a65.9,65.9,0,0,1,19.82-.55l11-14.35,21.75,8.56-1.11,18.23a69.43,69.43,0,0,1,14.42,14l17.58-2.15,9.51,21.91-13.28,12.08a72.26,72.26,0,0,1,.55,20.43l13.91,11.3-8.31,22.42-17.68-1.13a69.69,69.69,0,0,1-13.62,14.84l2.09,18.13-21.27,9.8-11.71-13.68a66.88,66.88,0,0,1-19.83.55l-11,14.35-21.76-8.57,1.1-18.23a69.33,69.33,0,0,1-14.41-14l-17.58,2.15-9.51-21.91,13.28-12.08a72.64,72.64,0,0,1-.55-20.43Zm33.6,42a53.31,53.31,0,0,0,48.74,32.56,51.89,51.89,0,0,0,21.76-4.8c26.9-12.4,38.95-44.93,26.93-72.65a53.32,53.32,0,0,0-48.74-32.56,51.9,51.9,0,0,0-21.76,4.81c-26.9,12.4-38.95,44.92-26.93,72.64Z" style="fill:url(#ad)"/><polygon points="129.91 338.66 118.31 338.66 110 361.08 121.6 361.08 129.91 338.66" style="fill:url(#ae)"/></g><g style="isolation:isolate"><polygon points="281.9 436.3 274.18 436.3 285.95 437.06 293.68 437.06 281.9 436.3" style="fill:url(#af)"/><polygon points="292.09 378.37 284.37 378.37 272.66 379.8 280.38 379.8 292.09 378.37" style="fill:#312da4"/><polygon points="252.27 455.67 244.54 455.67 252.34 464.78 260.06 464.78 252.27 455.67" style="fill:#312da4"/><polygon points="257.04 352.62 249.31 352.62 242.01 362.17 249.73 362.17 257.04 352.62" style="fill:url(#ag)"/><path d="M238.82,445.66a35.27,35.27,0,0,0,19.93-7.87,36.81,36.81,0,0,0,11.86-17.86,37.58,37.58,0,0,0,.11-21.28,36.79,36.79,0,0,0-11.44-17.8,35.43,35.43,0,0,0-20-8.26c-.89-.07-1.78-.11-2.66-.11H243a39.06,39.06,0,0,1,11.12,1.41,35.22,35.22,0,0,1,13.35,7.35,36.41,36.41,0,0,1,8.79,11.65,37,37,0,0,1,3.63,14.45,37.93,37.93,0,0,1-2.34,15,37.11,37.11,0,0,1-8.12,12.8,35.19,35.19,0,0,1-25.19,10.63h-7.54C237.4,445.73,238.12,445.7,238.82,445.66Z" style="fill:#312da4"/><g style="isolation:isolate"><g style="clip-path:url(#ah)"><g style="isolation:isolate"><path d="M239.06,456h-7.72a43.94,43.94,0,0,0,5.39.33h7.72a44.06,44.06,0,0,1-5.39-.33Z" style="fill:#667b84"/></g></g></g><path d="M231,362.2l.21,0c.2,0,.4,0,.61-.06q.62-.08,1.23-.12l.87-.06,1.2-.06.4,0h8.79l-1.47,0-1.2.06-.87.06q-.62,0-1.23.12l-.81.09c-.75.09-1.49.2-2.23.34h-7.73C229.55,362.4,230.3,362.3,231,362.2Z" style="fill:#312da4"/><polygon points="217.28 459.89 209.55 459.89 224.04 465.59 231.76 465.59 217.28 459.89" style="fill:#312da4"/><polygon points="218.01 447.75 210.29 447.75 209.55 459.89 217.28 459.89 218.01 447.75" style="fill:url(#ai)"/><polygon points="228.74 353.43 221.01 353.43 206.86 359.95 214.58 359.95 228.74 353.43" style="fill:url(#aj)"/><polygon points="214.58 359.95 206.86 359.95 208.24 372.02 215.97 372.02 214.58 359.95" style="fill:#312da4"/><path d="M203.3,441.53c-.91-1-1.79-2-2.61-3.12h6.86a3,3,0,0,1,.79,0c.17,0,.25.23.36.37.39.49.79,1,1.19,1.45.75.87,1.52,1.72,2.33,2.54a46.51,46.51,0,0,0,5.79,5h-7.2a2.17,2.17,0,0,1-.51,0,3.1,3.1,0,0,1-.84-.62c-.39-.29-.78-.6-1.16-.91A46.18,46.18,0,0,1,203.3,441.53Z" style="fill:#312da4"/><path d="M213.53,374.15a46,46,0,0,0-4.25,4.58c-.64.78-1.25,1.58-1.83,2.39-.23.31-.35.79-.76.79h-7.52a47.58,47.58,0,0,1,4.1-5.18c.77-.86,1.58-1.68,2.42-2.47.41-.38.82-.76,1.24-1.13l.62-.54c.17-.14.48-.51.69-.57a2.35,2.35,0,0,1,.53,0H216Q214.71,373,213.53,374.15Z" style="fill:url(#ak)"/><path d="M190.82,409.51a52.08,52.08,0,0,1,.24-5.3c0-.12,0-.56.09-.61a.54.54,0,0,1,.18,0h7.52a48.87,48.87,0,0,0,.37,13.61h-6.91a2.89,2.89,0,0,1-.72,0s-.08,0-.1,0-.07-.43-.09-.53c0-.25-.07-.5-.1-.76A49.12,49.12,0,0,1,190.82,409.51Z" style="fill:url(#al)"/><polygon points="190.38 425.25 182.65 425.25 188.98 439.84 196.71 439.84 190.38 425.25" style="fill:url(#am)"/><polygon points="199.22 417.21 191.49 417.21 182.65 425.25 190.38 425.25 199.22 417.21" style="fill:#312da4"/><polygon points="189.59 396.08 181.87 396.08 191.13 403.61 198.85 403.61 189.59 396.08" style="fill:#312da4"/><path d="M189.59,396.08l5.53-14.93,11.78.76A46.44,46.44,0,0,1,216,372L214.58,360l14.16-6.52,7.8,9.11a44,44,0,0,1,13.19-.37l7.31-9.55,14.48,5.7-.73,12.14a46.08,46.08,0,0,1,9.59,9.34l11.71-1.43L298.42,393l-8.84,8a47.85,47.85,0,0,1,.36,13.61l9.27,7.52-5.54,14.93-11.77-.76a46.23,46.23,0,0,1-9.07,9.89l1.39,12.07-14.16,6.52-7.79-9.11a44.09,44.09,0,0,1-13.21.37l-7.3,9.55-14.48-5.7.73-12.14a46.37,46.37,0,0,1-9.6-9.34l-11.7,1.43-6.33-14.59,8.84-8a48.6,48.6,0,0,1-.37-13.61Zm22.38,28a35.49,35.49,0,0,0,32.45,21.68,34.54,34.54,0,0,0,14.48-3.2c17.92-8.26,25.94-29.91,17.93-48.37a35.49,35.49,0,0,0-32.45-21.68,34.5,34.5,0,0,0-14.48,3.2C212,383.94,204,405.59,212,424.05Z" style="fill:url(#an)"/><polygon points="195.12 381.15 187.4 381.15 181.87 396.08 189.59 396.08 195.12 381.15" style="fill:url(#ao)"/></g><path d="M165.85,472.68l20.05-9.78,64-17.82h.26l56.3-.58.18,0a3.61,3.61,0,0,1,.57,7l-.12,0-66.4,18.69Zm21.29-6-3,1.46,55.92-1.83,63.23-17.8-52.85.54Z" style="fill:#312da4"/><path d="M198.11,471.5a19.77,19.77,0,0,0-19.28-19.75v0h-6.68v1a19.76,19.76,0,0,0-.48,37.38l0,1.17h7.19v0A19.77,19.77,0,0,0,198.11,471.5Z" style="fill:#312da4"/><path d="M172.15,451.72a19.79,19.79,0,1,0,19.78,19.78A19.78,19.78,0,0,0,172.15,451.72Z" style="fill:url(#ap)"/><path d="M172.15,461.87a9.64,9.64,0,1,0,9.63,9.64A9.63,9.63,0,0,0,172.15,461.87Z" style="fill:#e0e5eb"/><path d="M164.83,471.51A9.63,9.63,0,0,1,173.3,462a8.65,8.65,0,0,0-1.15-.08,9.64,9.64,0,0,0,0,19.27,8.65,8.65,0,0,0,1.15-.08A9.62,9.62,0,0,1,164.83,471.51Z" style="fill:#b0b0b0"/><path d="M99.78,278s0,0-.07,0c-3.18-4.56-10.23-6.92-15-3.69-3.26,2.19-3.38,6.16-2.78,9.69.56,3.28,1.75,8.4,5.18,9.75A2,2,0,0,0,89.73,292a3.31,3.31,0,0,0,3,.51,2.42,2.42,0,0,0,1.91-1.93,2.73,2.73,0,0,0,3.78,0,3,3,0,0,0,1-1.88,3,3,0,0,0,3.61-.39C106.53,285.64,101.53,280.21,99.78,278Z" style="fill:#fda798"/><path d="M100.54,270.72c-2.93-.28-6.27.75-9,1.62-.06,0-.09.06-.15.08-1.48.29-2.52,2.31-1,3.47,1.81,1.35,4,2.86,6.17,2.27,1.18-.32,2-1.58,3.27-1.53,1.64.06,3.39,2.18,4.34,3.36,1.62,2,5.43-1.47,4.15-3.68C106.84,273.78,103.69,271,100.54,270.72Z" style="fill:#fda798"/><polygon points="87.92 274.25 74.45 271.91 70.92 284.54 85.08 287 87.92 274.25" style="fill:#fda798"/><path d="M32.7,191.19S2,239.67,17.55,270.53c7.33,14.51,59,20.49,59,20.49l5.64-20.16s-35.92-8.85-37-10.42c-3-4.2,10.78-35.22,9.69-45.3C55,194.38,47.05,194.85,32.7,191.19Z" style="fill:url(#aq)"/><path d="M55.85,207.6s-26,48.51-15.46,54.82,41.81,8.44,41.81,8.44-35.08-7.53-37-10.42S58,216.12,55.85,207.6Z" style="fill:#d6695d"/><path d="M178,285.12a2.8,2.8,0,0,1-2.64,0l0,0a7.55,7.55,0,0,1-4,.44c-.07,0-.12,0-.19-.06a7.36,7.36,0,0,1-2.42.37,1.78,1.78,0,0,1-.67-.14,4.22,4.22,0,0,1-2.12-1,4.28,4.28,0,0,1-.86-2.65c.73,0,1.31-.08,2.57,0,.17.15,2.33.53,2.37-1.08s-.56-1.39-.27-2.84c.5-2.48,3.08-2.2,4.49-.85a3.31,3.31,0,0,1,.62-.62c1.63-1.19,3.28-.31,4.19,1.1a3.36,3.36,0,0,1,.63-.62c2.05-1.38,3.36.66,3.64,2.45a1.78,1.78,0,0,1,2.16,2C184.87,284.67,182.5,286.92,178,285.12Z" style="fill:#fda798"/><path d="M395.42,141.48,333.55,306.05q-4.77.24-9.63,0A96.9,96.9,0,0,1,299.3,298l66.26-176.21A95.17,95.17,0,0,1,395.42,141.48Z" style="fill:#fff;opacity:0.5"/><path d="M339.21,115.85,276.55,282.5a94.85,94.85,0,0,1-13.1-14.74l56.2-149.48A95.08,95.08,0,0,1,339.21,115.85Z" style="fill:#fff;opacity:0.5"/></svg>