<svg xmlns="http://www.w3.org/2000/svg" xmlns:xlink="http://www.w3.org/1999/xlink" viewBox="0 0 520.67 512.57"><defs><linearGradient id="a" x1="-883.79" y1="-213.84" x2="-835.38" y2="-228.23" gradientTransform="matrix(-0.77, 0.64, 0.64, 0.77, -494.8, 1036.4)" gradientUnits="userSpaceOnUse"><stop offset="0" stop-color="#b9c4ea"/><stop offset="0.2" stop-color="#ced6f0"/><stop offset="0.51" stop-color="#e8edf8"/><stop offset="0.78" stop-color="#f7fafd"/><stop offset="1" stop-color="#fdffff"/></linearGradient><linearGradient id="b" x1="-3777.06" y1="823.39" x2="-3705.83" y2="802.21" gradientTransform="matrix(1, -0.07, 0.07, 1, 3708.66, -650.48)" xlink:href="#a"/><linearGradient id="c" x1="121.18" y1="415.26" x2="208.73" y2="415.26" gradientTransform="matrix(1, 0, 0, 1, 0, 0)" xlink:href="#a"/><linearGradient id="d" x1="111.15" y1="415.42" x2="128.36" y2="415.42" gradientTransform="matrix(1, 0, 0, 1, 0, 0)" xlink:href="#a"/><linearGradient id="e" x1="458.17" y1="348.85" x2="516.2" y2="348.85" gradientUnits="userSpaceOnUse"><stop offset="0" stop-color="#009db0"/><stop offset="0.28" stop-color="#01c0ca"/><stop offset="0.56" stop-color="#01dade"/><stop offset="0.81" stop-color="#02e9ea"/><stop offset="1" stop-color="#02efee"/></linearGradient><linearGradient id="f" x1="404.54" y1="413.52" x2="447.4" y2="413.52" xlink:href="#e"/><linearGradient id="g" x1="226.18" y1="535.11" x2="-112.1" y2="230" gradientTransform="matrix(-1, 0, 0, 1, 421.52, -106.28)" xlink:href="#a"/><linearGradient id="h" x1="-16.97" y1="415.95" x2="200.64" y2="415.95" gradientTransform="matrix(-1, 0, 0, 1, 422.53, -106.07)" gradientUnits="userSpaceOnUse"><stop offset="0" stop-color="#3934c4"/><stop offset="0.27" stop-color="#3f39c9"/><stop offset="0.62" stop-color="#4e47d7"/><stop offset="1" stop-color="#685eee"/></linearGradient><linearGradient id="i" x1="53.49" y1="247.96" x2="64.08" y2="247.96" gradientTransform="matrix(-1, 0, 0, 1, 422.53, -106.07)" gradientUnits="userSpaceOnUse"><stop offset="0" stop-color="#eb6c85"/><stop offset="0.22" stop-color="#ed7281"/><stop offset="0.49" stop-color="#f18176"/><stop offset="0.79" stop-color="#f99b63"/><stop offset="1" stop-color="#ffb154"/></linearGradient><linearGradient id="j" x1="12.27" y1="247.95" x2="22.86" y2="247.95" xlink:href="#h"/><linearGradient id="k" x1="243.55" y1="246.22" x2="414.32" y2="246.22" gradientTransform="matrix(1, 0, 0, 1, 0, 0)" xlink:href="#a"/><clipPath id="l"><circle cx="395.8" cy="362.91" r="13.98" transform="translate(-34.39 684.31) rotate(-79.28)" style="fill:none"/></clipPath><clipPath id="m"><path d="M381.79,450.08a14,14,0,1,0,14-14A14,14,0,0,0,381.79,450.08Z" style="fill:none"/></clipPath><clipPath id="n"><path d="M406.42,124.07,255,124a17.13,17.13,0,0,0-16.89,14.35l-16.17-13.91-31.65,12.15-43.33,64.14-9,84.41,22.66,13.26,33.64-4.77,43.53,3.82-.07,163.72a17.11,17.11,0,0,0,17.1,17.13l151.47.08a17.14,17.14,0,0,0,17.14-17.13l.16-320A17.12,17.12,0,0,0,406.42,124.07Z" style="fill:none"/></clipPath><linearGradient id="o" x1="245.4" y1="356" x2="331.35" y2="356" gradientTransform="matrix(1, 0, 0, 1, 0, 0)" xlink:href="#h"/><linearGradient id="p" x1="263.9" y1="312.16" x2="287.66" y2="312.16" gradientTransform="matrix(1, 0, 0, 1, 0, 0)" xlink:href="#i"/><linearGradient id="q" x1="162.93" y1="234.27" x2="382.65" y2="234.27" gradientTransform="matrix(1, 0, 0, 1, 0, 0)" xlink:href="#i"/><linearGradient id="r" x1="174.17" y1="215.43" x2="219.18" y2="215.43" gradientTransform="matrix(1, 0, 0, 1, 0, 0)" xlink:href="#h"/><linearGradient id="s" x1="179.45" y1="211.77" x2="194.21" y2="211.77" gradientTransform="matrix(1, 0, 0, 1, 0, 0)" xlink:href="#h"/><linearGradient id="t" x1="310.67" y1="540.54" x2="492.49" y2="540.54" gradientTransform="matrix(1, 0, 0, 1, 0, 0)" xlink:href="#h"/><linearGradient id="u" x1="2478.1" y1="146.29" x2="2519.83" y2="146.29" gradientTransform="matrix(-1, 0, 0, 1, 2530.65, 0)" gradientUnits="userSpaceOnUse"><stop offset="0" stop-color="#fdffff"/><stop offset="0.22" stop-color="#f7fafd"/><stop offset="0.49" stop-color="#e8edf8"/><stop offset="0.8" stop-color="#ced6f0"/><stop offset="1" stop-color="#b9c4ea"/></linearGradient><linearGradient id="v" x1="2478.1" y1="155.1" x2="2512.32" y2="155.1" gradientTransform="matrix(-1, 0, 0, 1, 2530.65, 0)" xlink:href="#e"/><linearGradient id="w" x1="2493.78" y1="136.7" x2="2501.55" y2="136.7" gradientTransform="matrix(-1, 0, 0, 1, 2530.65, 0)" xlink:href="#e"/><linearGradient id="x" x1="2352.62" y1="195.08" x2="2394.5" y2="195.08" gradientTransform="matrix(-1, 0, 0, 1, 2530.65, 0)" xlink:href="#a"/><linearGradient id="y" x1="2356.69" y1="201.53" x2="2394.5" y2="201.53" gradientTransform="matrix(-1, 0, 0, 1, 2530.65, 0)" xlink:href="#e"/><linearGradient id="z" x1="2360.34" y1="187.82" x2="2369.42" y2="187.82" gradientTransform="matrix(-1, 0, 0, 1, 2530.65, 0)" xlink:href="#e"/><linearGradient id="aa" x1="2440.41" y1="19.14" x2="2453.77" y2="19.14" gradientTransform="matrix(-0.99, -0.17, -0.17, 0.99, 2498.91, 412.43)" xlink:href="#e"/><linearGradient id="ab" x1="2452.64" y1="16.78" x2="2480.73" y2="16.78" gradientTransform="matrix(-1, 0, 0, 1, 2530.65, 0)" xlink:href="#e"/><linearGradient id="ac" x1="2419.38" y1="143.23" x2="2440.19" y2="143.23" gradientTransform="matrix(-1, 0, 0, 1, 2530.65, 0)" xlink:href="#e"/><linearGradient id="ad" x1="2423.22" y1="125.71" x2="2453.79" y2="125.71" gradientTransform="matrix(-1, 0, 0, 1, 2530.65, 0)" xlink:href="#e"/><linearGradient id="ae" x1="2460.26" y1="78.25" x2="2495.95" y2="78.25" gradientTransform="matrix(-1, 0, 0, 1, 2530.65, 0)" xlink:href="#e"/><linearGradient id="af" x1="2353.51" y1="115.52" x2="2397.68" y2="115.52" gradientTransform="matrix(-1, 0, 0, 1, 2530.65, 0)" xlink:href="#e"/><linearGradient id="ag" x1="2376.57" y1="48.82" x2="2412.42" y2="48.82" gradientTransform="matrix(-0.99, -0.13, -0.13, 0.99, 2516.17, 316.27)" xlink:href="#e"/><linearGradient id="ah" x1="2382.48" y1="46.58" x2="2407.1" y2="46.58" gradientTransform="matrix(-0.99, -0.13, -0.13, 0.99, 2515.87, 316.29)" xlink:href="#a"/><linearGradient id="ai" x1="2387.68" y1="37.32" x2="2404.66" y2="37.32" gradientTransform="matrix(-0.99, -0.13, -0.13, 0.99, 2514.64, 316.38)" xlink:href="#e"/><linearGradient id="aj" x1="2387.42" y1="39.29" x2="2404.4" y2="39.29" gradientTransform="matrix(-0.99, -0.13, -0.13, 0.99, 2514.9, 316.37)" xlink:href="#e"/><linearGradient id="ak" x1="2387.16" y1="41.26" x2="2404.14" y2="41.26" gradientTransform="matrix(-0.99, -0.13, -0.13, 0.99, 2515.16, 316.35)" xlink:href="#e"/><linearGradient id="al" x1="2386.9" y1="43.23" x2="2403.88" y2="43.23" gradientTransform="matrix(-0.99, -0.13, -0.13, 0.99, 2515.42, 316.33)" xlink:href="#e"/><linearGradient id="am" x1="2386.63" y1="45.2" x2="2403.61" y2="45.2" gradientTransform="matrix(-0.99, -0.13, -0.13, 0.99, 2515.69, 316.3)" xlink:href="#e"/><linearGradient id="an" x1="2376.57" y1="48.82" x2="2409.28" y2="48.82" gradientTransform="matrix(-1, 0, 0, 1, 2530.65, 0)" xlink:href="#e"/><linearGradient id="ao" x1="2425.59" y1="207.19" x2="2469.57" y2="207.19" gradientTransform="matrix(-1, 0, 0, 1, 2530.65, 0)" xlink:href="#e"/></defs><title>socialmediamarketing</title><path d="M10.11,296.74,36.79,304s.78,18.5-6.35,30.72c0,0-25.7.48-30.44-.73C0,334,12.66,310.05,10.11,296.74Z" style="fill:url(#a)"/><path d="M31.41,306.78l.29-.87a134,134,0,0,0-16.46-4.18l-.16.9A134.75,134.75,0,0,1,31.41,306.78Z" style="fill:#becef5"/><path d="M30.87,310.64l.29-.88a138.17,138.17,0,0,0-16.46-4.18l-.15.91A132.31,132.31,0,0,1,30.87,310.64Z" style="fill:#becef5"/><path d="M29.38,319.82l.29-.87a133.45,133.45,0,0,0-16.46-4.18l-.15.9A133.77,133.77,0,0,1,29.38,319.82Z" style="fill:#becef5"/><path d="M28.88,323.69l.22-.89c-.09,0-9.07-2.17-17.11-3.14l-.11.91C19.87,321.53,28.79,323.67,28.88,323.69Z" style="fill:#becef5"/><path d="M27,327.91l.12-.91a101.5,101.5,0,0,0-16.83-.8l.05.91A100.81,100.81,0,0,1,27,327.91Z" style="fill:#becef5"/><path d="M26.49,387.34l-20.84,35s18.06,20.4,38.1,26.08c0,0,27.73-25.72,31.52-31.85C75.27,416.54,37.38,404.05,26.49,387.34Z" style="fill:url(#b)"/><path d="M14.17,419.73,13,419.1a200.13,200.13,0,0,1,13.18-21.24l1.09.81A195.16,195.16,0,0,0,14.17,419.73Z" style="fill:#becef5"/><path d="M18.67,423.27l-1.19-.63A197.55,197.55,0,0,1,30.66,401.4l1.08.81A198.82,198.82,0,0,0,18.67,423.27Z" style="fill:#becef5"/><path d="M29.63,431.48l-1.19-.63a197.75,197.75,0,0,1,13.17-21.23l1.09.8A196.23,196.23,0,0,0,29.63,431.48Z" style="fill:#becef5"/><path d="M34.11,435.07,33,434.35c.07-.12,7.4-11.56,14.93-20.79l1.05.85C41.46,423.58,34.18,435,34.11,435.07Z" style="fill:#becef5"/><path d="M40.42,437.61l-1.06-.84c.08-.1,8.45-10.69,17-18l.87,1A149.27,149.27,0,0,0,40.42,437.61Z" style="fill:#becef5"/><path d="M121.18,395.49s7.18,28.73,7.18,42.41c0,0,57.8-1,80.37,0,0,0-1.49-28.1-2.29-45.28C206.44,392.62,142.72,396.52,121.18,395.49Z" style="fill:url(#c)"/><path d="M121.18,395.49a23.74,23.74,0,0,1-10-2.56s5.9,36.68,5.22,44.21l12,.76S128.1,412,121.18,395.49Z" style="fill:url(#d)"/><path d="M207.69,416.62s-6.36,1-18.88,1.78a127.37,127.37,0,0,0,19,.75Z" style="fill:#becef5"/><path d="M206.44,400.9a121.9,121.9,0,0,1-35.25,7.25s19.65.51,36,0Z" style="fill:#becef5"/><path d="M127.67,426s20.18-.65,26.59-1.93l-27-2.54Z" style="fill:#becef5"/><path d="M113.2,405.91s2.45,2.42,9,4.47L113.7,410Z" style="fill:#becef5"/><path d="M119,430l9.06,3-.28-3.53S122.2,431,119,430Z" style="fill:#becef5"/><path d="M111.15,392.93s43.11.36,82.37-3.05c0,0,3.52.95,12.92,2.74,0,0-57.26,4.05-85.26,2.87C121.18,395.49,119,396.26,111.15,392.93Z" style="fill:#fff"/><polygon points="228.94 445.02 81.96 445.02 77.82 437.9 233.07 437.9 228.94 445.02" style="fill:#becef5"/><polygon points="80.86 512.35 77.17 512.35 84.25 445.02 92.08 445.02 80.86 512.35" style="fill:#becef5"/><polygon points="90.4 455.78 82.25 463.93 84.25 445.02 92.08 445.02 90.4 455.78" style="fill:#8fabec"/><polygon points="99.93 512.35 96.23 512.35 103.32 445.02 111.15 445.02 99.93 512.35" style="fill:#becef5"/><polygon points="228.54 512.35 232.24 512.35 225.15 445.02 217.32 445.02 228.54 512.35" style="fill:#becef5"/><polygon points="218.67 453.63 226.46 457.38 225.15 445.02 217.32 445.02 218.67 453.63" style="fill:#8fabec"/><polygon points="210.84 512.35 214.54 512.35 207.45 445.02 199.62 445.02 210.84 512.35" style="fill:#becef5"/><polygon points="109.67 454.47 101.68 460.5 103.32 445.02 111.15 445.02 109.67 454.47" style="fill:#8fabec"/><polygon points="200.64 451.55 208.76 457.38 207.45 445.02 199.62 445.02 200.64 451.55" style="fill:#8fabec"/><polygon points="472.04 511.88 473.68 511.85 471.35 449.65 469.71 449.69 472.04 511.88" style="fill:#253769"/><path d="M434.45,446.75c0-3.46,22.6-3.73,29.53-3.73s29.52.27,29.52,3.73-22.6,3.74-29.52,3.74S434.45,450.22,434.45,446.75Zm29.53-2.1c-15.21,0-25.09,1.15-27.5,2.1,2.41,1,12.29,2.1,27.5,2.1s25.08-1.14,27.49-2.1C489.06,445.8,479.18,444.65,464,444.65Z" style="fill:#253769"/><path d="M491.87,420.45a30.06,30.06,0,1,1-55.79,0Z" style="fill:#b9e1fb"/><path d="M436.08,420.45c0,2.43,12.49,4.41,27.89,4.41s27.9-2,27.9-4.41S479.38,416,464,416,436.08,418,436.08,420.45Z" style="fill:#d5ecfb"/><path d="M438.83,420.45c0,1.8,11.26,3.26,25.14,3.26s25.15-1.46,25.15-3.26-11.26-3.27-25.15-3.27S438.83,418.64,438.83,420.45Z" style="fill:#7a5f5a"/><path d="M438.82,430.59c.06-2.25,3.57-2.26,3.5,0-.16,5.34.53,10.67,4.39,14.68,1.56,1.63-.91,4.11-2.48,2.48C439.74,443.08,438.63,436.87,438.82,430.59Z" style="fill:#d5ecfb"/><path d="M464,450.49c6.92,0,29.52-.27,29.52-3.74h-1.63a.49.49,0,0,1,.09-.28c-1,1-11.26,2.38-28,2.38s-27-1.38-28-2.38a.49.49,0,0,1,.09.28h-1.63C434.45,450.22,457.05,450.49,464,450.49Z" style="fill:#253769"/><polygon points="497.72 511.85 499.35 511.74 493.11 447.19 491.48 447.3 497.72 511.85" style="fill:#253769"/><polygon points="431.68 511.86 436.9 447.51 435.27 447.39 430.05 511.74 431.68 511.86" style="fill:#253769"/><polygon points="459.66 511.86 460.69 449.69 459.06 449.65 458.03 511.83 459.66 511.86" style="fill:#253769"/><path d="M438.83,420.45c0,1.33,6.05,2.46,14.75,3l1.57.08c.73,0,1.46.07,2.22.09l1.53.05c1.13,0,2.3.05,3.49.05H464c2.33,0,4.59,0,6.72-.11l1.6-.06c9.79-.45,16.82-1.65,16.82-3.08s-5.86-2.43-14.36-3l-1.67-.09c-2.54-.13-5.27-.2-8.12-.22h-1.58c-1.74,0-3.42,0-5.05.08l-1.52.05c-.85,0-1.69.08-2.51.12l-1.55.08C444.49,418.06,438.83,419.17,438.83,420.45Z" style="fill:#abd4ed"/><path d="M463.61,391.21a14.35,14.35,0,0,1-2.88-2.37c-1.27-1.28-3.25-3.37-3.23-5.32,0-1.61,1.69-2,2.81-1s1.41,2.13,2.19,3.13a9.93,9.93,0,0,0,4.08,2.85c2.17-3.09,2.52-7.34,1.79-11.05-.84-4.29-3.67-10.41-7.9-16.11a21.7,21.7,0,0,1-2,4c-.8,1.33-2.08,3.84-3.6,4.38s-2-.92-1.7-2.14a.46.46,0,0,1,0-.19h0a3,3,0,0,1,.1-.32.45.45,0,0,1,.18-.22c.89-1.71,1.91-3.35,2.69-5.12a27.92,27.92,0,0,0,1.29-4,38.09,38.09,0,0,0-13.12-9.94,48.34,48.34,0,0,1,2.34,6.53c.66,2.11,2.4,6.61.78,8.69a1.7,1.7,0,0,1-2,.55c-1.12-.64-1-2.95-1-4a22.54,22.54,0,0,0-.89-7.19,23.62,23.62,0,0,0-3.16-5.9,21.12,21.12,0,0,0-9.69-.05,5.53,5.53,0,0,1,1.94,3.2c.19,1.17-.53,3.87-2.06,4-2,.12-2.16-4.58-2.41-6.42a26.11,26.11,0,0,0-5.53,2.79,24,24,0,0,0-7.45,7.88.44.44,0,0,1,.07.19c.66,5.14,7.21,6.91,11.11,8.89,1.21.62,5.75,2.74,5.16,4.57-.31,1-1.93,1-2.69.83-1.95-.36-3.71-1.92-5.23-3.1a69.2,69.2,0,0,1-9.87-8.64c-3.21,6.86-3.94,14.77-3.83,20.61a.43.43,0,0,1,.35,0,15.64,15.64,0,0,0,7.31,1.15,19.69,19.69,0,0,1,4.72-.28c1.32.19,3.38,1.8,1.9,3.11-1.27,1.12-4.08.85-5.62.65a27,27,0,0,1-8.59-2.73c.1,1.71.25,3.19.43,4.3a21.16,21.16,0,0,0,9.14,14.11,22.47,22.47,0,0,0,5.17,2.51,24.76,24.76,0,0,0,7.77-11c.62-1.84,1.93-6.92,4.55-6.74,1.17.08,2,1.5,2.19,2.51.38,1.72-.67,3.44-1.61,4.79-1.39,2-2.92,3.82-4.28,5.82s-2.68,3.84-4.12,5.69a23.47,23.47,0,0,0,10-.8c5-1.55,10.3-6.78,7.51-12.16C452.14,393.24,458.78,394.05,463.61,391.21Zm-44.38-14.28-.23,0a.41.41,0,0,1-.62.06,2.18,2.18,0,0,1-.21-.22,2.81,2.81,0,0,1-1-1.66.37.37,0,0,1,.06-.34,4.8,4.8,0,0,1-.13-1c0-.78.36-1.67,1.3-1.5a2.9,2.9,0,0,1,2.2,2.33A2.18,2.18,0,0,1,419.23,376.93Zm32.86,1.26a1.45,1.45,0,0,1-2.17.18,2.56,2.56,0,0,1-.65-2.61.37.37,0,0,1,.26-.27l0,0a2.59,2.59,0,0,1,2.58.24A1.76,1.76,0,0,1,452.09,378.19Z" style="fill:#69bbc9"/><path d="M506.51,361.55a35.49,35.49,0,0,0,8.48,2.06c1.6-5.53,1.35-11.54.74-17.3a24.14,24.14,0,0,1-7,5.16c-2.32,1.09-6.3,2.91-8.37.5a.43.43,0,0,1,0-.6c2.24-1.85,5.23-1.67,7.88-2.49a15.29,15.29,0,0,0,7.26-4.9c-.05-.48-.11-1-.17-1.43-.54-4.26-1.28-8.48-2.12-12.69l-.12.24c-.36.74-1,2.29-2,2.45s-1.23-.92-1.05-1.61c.28-1.06,1.3-1.92,1.72-2.95a18.46,18.46,0,0,0,.67-1.89c-.72-3.34-1.48-6.67-2.25-10a.43.43,0,0,0-.52-.29c-3.31.46-6.64.92-10,1.46-3.63,3.57-6.21,7.77-6.63,13-.12,1.49.81,9.27-2.75,8.32-3.74-1-2-8-1.25-10.34a33.72,33.72,0,0,1,5.31-10,77.85,77.85,0,0,0-21.76,7.24,15.92,15.92,0,0,0,1.11,16.11c.72,1.14,4.92,6.46,1.53,7.05-2.86.49-5.09-5.11-5.57-7.2-.71-3.11-.29-6.33-.08-9.47a20.61,20.61,0,0,1,1.06-5.4,1.83,1.83,0,0,0-.24.13c-5.13,3.05-10,7-11.56,13a22.3,22.3,0,0,0-.48,8.14,38.71,38.71,0,0,0,4.37,5.44c1.69,1.71,3.64,2.47,5.59,3.76,1.38.92,3.76,3.82,1.7,5.31-1.65,1.2-4.75-.27-6.33-.93-.64-.27-1.27-.56-1.89-.86-.25,16.26,13.91,7.85,13.91,7.92-.11,14.89,15.08,15,24.43,11.54-.94-.17-1.88-.35-2.82-.5-1.86-.31-3.76-.42-5.61-.78-2-.4-4.81-1.66-4.4-4.24.35-2.21,3.24-.42,4.3.16,3.63,2,7.88,3.86,12.12,3.64.45-.27.89-.55,1.32-.86a26.27,26.27,0,0,0,7.87-8.77,73.45,73.45,0,0,1-10.78-1c-2.58-.45-6.68-1.14-7.92-3.84a.44.44,0,0,1,.37-.64,16.35,16.35,0,0,1,8.81,2,17.18,17.18,0,0,0,10.22,2,25.83,25.83,0,0,0,1.1-2.67l0-.17a36,36,0,0,1-8.46-2.07C505.78,362.17,506,361.36,506.51,361.55ZM500.92,331a.33.33,0,0,1,.19-.28,1.64,1.64,0,0,1,1.44-1.35,2,2,0,0,1,1.71,3.38,2.57,2.57,0,0,1-2.37.56C500.9,333,500.78,331.89,500.92,331Zm-18.29,39.9a1.58,1.58,0,0,1-2,.1.36.36,0,0,1,.09-.62,2.24,2.24,0,0,1,.56-1.53,1.2,1.2,0,0,1,1.89.24A1.43,1.43,0,0,1,482.63,370.89Zm1.7-32c-.16,1-.63,2.46-1.62,2.94-1.18.58-1.67-.89-1.8-1.77a.4.4,0,0,1,0-.19,5.35,5.35,0,0,1-.66-3.06c.19-1.51,1.69-1.89,2.91-1.18A3,3,0,0,1,484.33,338.92Zm11.19,15.79a1.79,1.79,0,0,1-2.07.36,2.07,2.07,0,0,1-1.15-2.27.48.48,0,0,1,.65-.37,1.42,1.42,0,0,1,2.15-.2A1.9,1.9,0,0,1,495.52,354.71Z" style="fill:url(#e)"/><path d="M434.68,425.1a21.48,21.48,0,0,1,1.78,5.26A31.58,31.58,0,0,1,425,431.7a15.3,15.3,0,0,0,3.08-4.71c.61-1.52,1.62-4.13-.07-5.32a.3.3,0,0,0-.4,0c-1.12,1.52-.85,3.4-1.27,5.12a9.71,9.71,0,0,1-2.89,4.83l-1,0c-2.85-.13-5.68-.38-8.5-.7l.15-.09c.47-.26,1.46-.78,1.52-1.39s-.66-.73-1.12-.58c-.69.23-1.2.92-1.86,1.24-.4.19-.81.36-1.22.51-2.25-.28-4.49-.6-6.73-.91a.28.28,0,0,1-.22-.32c.14-2.11.29-4.25.49-6.38a13.73,13.73,0,0,1,8.28-4.86c1-.15,6.18.05,5.38-2.15s-5.4-.85-6.91-.27a22.85,22.85,0,0,0-6.38,3.86,47.74,47.74,0,0,1,3.75-14.12,11,11,0,0,1,10.72-.12c.79.4,4.51,2.79,4.74.62.19-1.83-3.63-3-5-3.16a22.06,22.06,0,0,0-6.27.43,13.82,13.82,0,0,0-3.53.94c0-.06.05-.11.08-.16,1.77-3.4,4.15-6.67,8.06-8a15.67,15.67,0,0,1,5.36-.71,24.8,24.8,0,0,1,3.82,2.49,19.53,19.53,0,0,1,2.76,3.34c.68.83,2.71,2.18,3.6.81.71-1.1-.41-3-.92-4-.21-.39-.43-.77-.66-1.15,10.75-1,5.87,8.4,5.91,8.4,9.86-.82,10.68,8.78,8.83,14.87-.17-.59-.33-1.17-.48-1.76-.29-1.16-.45-2.36-.78-3.51s-1.34-3-3-2.57c-1.45.34-.12,2.07.31,2.71,1.51,2.19,2.94,4.79,3,7.48-.16.3-.32.59-.51.88a17.24,17.24,0,0,1-5.43,5.42,44.35,44.35,0,0,0-1.16-6.77c-.42-1.61-1.08-4.17-2.92-4.81a.29.29,0,0,0-.41.26,10.08,10.08,0,0,0,1.77,5.47,10.45,10.45,0,0,1,1.83,6.36,16,16,0,0,1-1.72.83l-.1,0a22.35,22.35,0,0,0-1.78-5.24C435.06,424.61,434.53,424.79,434.68,425.1Zm-20.51-2a.2.2,0,0,0-.17.14,1.06,1.06,0,0,0-.83,1,1.29,1.29,0,0,0,2.32.91,1.58,1.58,0,0,0,.26-1.53C415.47,423,414.76,423,414.17,423.11Zm25.54-13.58a1,1,0,0,0,0-1.29.25.25,0,0,0-.41.08,1.54,1.54,0,0,0-1,.44.74.74,0,0,0,.25,1.18A1,1,0,0,0,439.71,409.53Zm-21.08,2.69a2.69,2.69,0,0,0,1.86-1.17c.33-.78-.67-1-1.26-1.05a.24.24,0,0,0-.12,0,3.75,3.75,0,0,0-2.06-.26,1.13,1.13,0,0,0-.64,1.9A2.08,2.08,0,0,0,418.63,412.22Zm11,6.28a1.1,1.1,0,0,0,.14-1.33,1.41,1.41,0,0,0-1.56-.61.3.3,0,0,0-.21.43.87.87,0,0,0,0,1.37A1.31,1.31,0,0,0,429.62,418.5Z" style="fill:url(#f)"/><path d="M520,390.29c-1-.06-2-.12-3-.2-2-.17-4.85.17-6.52-1.21a.46.46,0,0,1,0-.69c3.14-2.64,6.57.26,9.93.4a31.79,31.79,0,0,0,.17-7.57,18.53,18.53,0,0,0-1.26-5.41c-1.86,2.54-3.5,5.25-6,7.22-1,.79-3.5,3.14-4.78,2.19s1.05-2.72,1.81-3.22c3.1-2.06,6.14-4.08,8.52-7.1a12.13,12.13,0,0,0-5.63-5.69,25.62,25.62,0,0,0-5.83-1.95c.45,3.15,0,7.83-2.95,8.61-2.05.55-3.34-1.85-3.48-3.75a6.47,6.47,0,0,1,3-5.42,49.23,49.23,0,0,0-9.23-.11c-.55,0-1.1.1-1.65.16a.7.7,0,0,1-.06.17c-1.46,2.84-3.12,6.08-3.41,9.33-.11,1.2.39,2.79-.24,3.92-1,1.79-2.88.31-3.16-1.13-.5-2.63.73-5.95,1.58-8.43.35-1,.72-2.14,1.15-3.22a27.72,27.72,0,0,0-10.55,4.32,21.72,21.72,0,0,0-3,2.53,18.57,18.57,0,0,0,.9,9.33c.84,2.07,3.21,6,.9,8.15-1.59,1.49-2.52-1.36-2.86-2.55a52,52,0,0,1-1.63-11.66,34.57,34.57,0,0,0-3.91,7.6,58.21,58.21,0,0,0-2.39,8.15c1.95,1.38,4.24,1.94,6.35,3.14,1,.57,2.95,1.76,2,3.27-2,3.12-6.42-.49-8.92-3.17a7.75,7.75,0,0,0,2.37,6.35c3.81,4,9.77,5.23,14.4,1.65-.19,4.61,3.27,8.4,7.77,7.76a7.72,7.72,0,0,0,4.15-2.13,22.24,22.24,0,0,1-3.15.12c-1.35-.05-3.65-.16-4.19-1.77s.88-1.63,1.87-1.26c1.22.47,2,1.14,3.38,1.17a12.1,12.1,0,0,0,4.6-1.06,18.83,18.83,0,0,1,5.73-5.07,26.9,26.9,0,0,1,2.86-1.25c-1.89-.16-4.67-.5-5.29-2.22-1-2.88,3.34-3.07,4.81-2.83,2,.32,3.85.95,5.86,1.08a15.16,15.16,0,0,0,5-.53c.33-.25.66-.5,1-.77A10.29,10.29,0,0,0,520,390.29Zm-35.47,2.11c-.89,0-1.31-1.1-1.41-1.9a4.14,4.14,0,0,1,.36-2.28.49.49,0,0,1,0-.2c.19-.56.5-1.22,1.09-1.39a1.16,1.16,0,0,1,1.16.41,3.71,3.71,0,0,1,.77,3C486.34,391,485.55,392.44,484.51,392.4Zm11.08-10.67a2.38,2.38,0,0,1,.67-2.82.42.42,0,0,1,.24-.1,1.39,1.39,0,0,1,2.19.51,2.44,2.44,0,0,1-.81,3A1.5,1.5,0,0,1,495.59,381.73Zm-1.75,20.13a1.63,1.63,0,0,1-2.55.52A2.27,2.27,0,0,1,491,400a.42.42,0,0,1,0-.63A1.91,1.91,0,0,1,493.84,401.86Z" style="fill:#69bbc9"/><path d="M470.69,423.59l1.6-.06a49.78,49.78,0,0,1,1.87-4.78c.19-.42.38-.84.59-1.26a58.46,58.46,0,0,1,16.39-20.26c.78-.62-.32-1.71-1.1-1.1a59.56,59.56,0,0,0-16.71,20.69c-.09.2-.18.39-.25.58A47.38,47.38,0,0,0,470.69,423.59Z" style="fill:#253769"/><path d="M462.39,423.69H464c.28-2.18.63-4.36,1-6.52.64-3.76,1.4-7.51,2.22-11.23,1.76-7.85,3.84-15.63,5.93-23.41,2.05-7.6,4.24-15.16,8.93-21.61.59-.81-.76-1.59-1.35-.78-4.5,6.18-6.76,13.39-8.74,20.71-2.36,8.67-4.68,17.37-6.59,26.15-.73,3.38-1.42,6.77-2,10.17C463,419.34,462.67,421.52,462.39,423.69Z" style="fill:#253769"/><path d="M443.8,388a88.65,88.65,0,0,1,5.08,12.81c.21.62.39,1.25.57,1.88h0a120.94,120.94,0,0,1,3.29,14.87c.32,1.95.59,3.94.83,5.91l1.57.08c-.25-2-.52-4.05-.85-6.07a127.4,127.4,0,0,0-2.82-13.31c-.23-.81-.45-1.63-.7-2.44a95.29,95.29,0,0,0-5.63-14.52C444.71,386.25,443.37,387,443.8,388Z" style="fill:#253769"/><path d="M429.35,411.87c4-2.68,8-5.41,12.11-8,2.27-1.46,4.51-2.55,7.22-1.55a6,6,0,0,1,.77.36,8.8,8.8,0,0,1,2,1.48,12.7,12.7,0,0,1,2,2.56,27.59,27.59,0,0,1,3.3,10.63c.28,2.08.44,4.2.56,6.28l1.53.05c-.14-2.09-.29-4.25-.57-6.38-.67-5.29-2.08-10.4-5.46-13.87a12,12,0,0,0-2.09-1.71,9.23,9.23,0,0,0-1.9-.92,7.4,7.4,0,0,0-5.18.07c-2.35.91-4.54,2.73-6.63,4.12l-8.47,5.63C427.8,411.1,428.54,412.4,429.35,411.87Z" style="fill:#253769"/><rect x="233.57" y="121.48" width="197" height="370.04" transform="translate(0.75 -0.81) rotate(0.14)" style="fill:url(#g)"/><path d="M423.83,107.56l-109.43.66,0,15.58,50.18.14,43.33.25a26.45,26.45,0,0,1,26.38,26.5l-.66,301.43a26.45,26.45,0,0,1-26.5,26.38l-93.51.18-.08,32.73,109.43,1.16a26.42,26.42,0,0,0,26.49-26.37l.78-352.14A26.45,26.45,0,0,0,423.83,107.56Z" style="fill:#312da4"/><path d="M414.82,107.45q-.9-.06-1.83-.06l-174-.09a17.13,17.13,0,0,0-17.14,17.13L221.7,495.2a17.12,17.12,0,0,0,17.11,17.12l174,.09c.6,0,1.2,0,1.8-.06A26.44,26.44,0,0,0,439.25,486l.17-352.13A26.45,26.45,0,0,0,414.82,107.45Zm8.53,353.79a17.14,17.14,0,0,1-17.15,17.12l-151.46-.07a17.14,17.14,0,0,1-17.11-17.14l.16-320A17.11,17.11,0,0,1,254.91,124l151.48.07a17.14,17.14,0,0,1,17.12,17.14Z" style="fill:url(#h)"/><path d="M346.83,503.31l-33.4-.1a8,8,0,0,1-8-8h0a8,8,0,0,1,8-8l33.4.1a8,8,0,0,1,8,8h0A8,8,0,0,1,346.83,503.31Z" style="fill:#312da4"/><path d="M249.24,378.84l123.17,0a4.13,4.13,0,0,0,4.12-4.13v-23.7a4.13,4.13,0,0,0-4.12-4.12l-123.17,0a4.12,4.12,0,0,0-4.13,4.12v23.7A4.13,4.13,0,0,0,249.24,378.84Z" style="fill:#f7f7f7"/><path d="M358.37,141.87a5.3,5.3,0,1,1,5.29,5.3A5.29,5.29,0,0,1,358.37,141.87Z" style="fill:url(#i)"/><path d="M379,141.88a5.3,5.3,0,1,1,5.29,5.29A5.3,5.3,0,0,1,379,141.88Z" style="fill:#ff5472"/><path d="M399.59,141.88a5.3,5.3,0,1,1,5.3,5.3A5.3,5.3,0,0,1,399.59,141.88Z" style="fill:url(#j)"/><path d="M249.44,155.53a5.6,5.6,0,0,0-5.6,5.59L243.55,331a5.59,5.59,0,0,0,5.59,5.61l159.29.28a5.6,5.6,0,0,0,5.61-5.58l.21-125.71,0-7.76.05-36.43a5.6,5.6,0,0,0-5.58-5.61ZM397.61,296.64a5.61,5.61,0,0,1-5.61,5.59L265.68,302a5.58,5.58,0,0,1-5.58-5.6l.2-118.77a5.58,5.58,0,0,1,5.6-5.58l126.32.22a5.61,5.61,0,0,1,5.59,5.61l0,11.53,0,16.34Z" style="fill:url(#k)"/><path d="M379.68,362.9a16.12,16.12,0,1,0,16.12-16.1A16.12,16.12,0,0,0,379.68,362.9Z" style="fill:#f7f7f7"/><circle cx="395.8" cy="362.91" r="13.98" transform="translate(-34.39 684.31) rotate(-79.28)" style="fill:#dcddf9"/><g style="clip-path:url(#l)"><path d="M392,372.11c.07.18.14.35.19.52a8,8,0,0,1,.31,1.29,9.35,9.35,0,0,1,.15,1.2,10.68,10.68,0,0,1-.05,2.07c3.39,1.67,7.06-.63,7.06-.63a11.15,11.15,0,0,1-.39-1.63,25.32,25.32,0,0,1-.31-2.73v-.09Z" style="fill:#f5f5ff"/><path d="M392,372.11c.07.18.14.35.19.52a4.75,4.75,0,0,1,.31,1.29,9.35,9.35,0,0,1,.15,1.2,8.32,8.32,0,0,0,4.74.71,4.63,4.63,0,0,0,1.88-.9,25.32,25.32,0,0,1-.31-2.73v-.09Z" style="fill:#e8e8f9"/><path d="M403.54,368.57s-1.4,2.95-2.86,2.73c-1.15-.17,1-3.73,1-3.73Z" style="fill:#e8e8f9"/><path d="M401.88,368.81s-1.49,3.83-3.05,4.7-6.39.66-7.64-.9c-1.81-2.26-.69-11.89-.26-12.79s8-4.22,10.61-.56S401.88,368.81,401.88,368.81Z" style="fill:#f5f5ff"/><path d="M388.93,355.51c.67,1.13,5.95-1.85,9.93-1.37,3.27.4,5.44,4.33,5.39,4.51.82.27,1.46,2.3,1.19,3.74-1,5.37-3.76,6.31-4.27,6.17-2.38-.67-2.59-5.11-1.27-8.51a17.48,17.48,0,0,0-6.16,0c-1,.24-2.88,1.14-3.9.53C388.33,359.69,387.76,356.13,388.93,355.51Z" style="fill:#e8e8f9"/><path d="M401.62,366.43c.53-.54,2.38-.67,2.66.21.44,1.42-.91,3.66-2.95,2.55C400.58,368.78,401.17,366.9,401.62,366.43Z" style="fill:#f5f5ff"/></g><path d="M379.67,406.07A16.12,16.12,0,1,0,395.79,390,16.12,16.12,0,0,0,379.67,406.07Z" style="fill:#f7f7f7"/><circle cx="395.78" cy="406.07" r="13.98" transform="translate(-171.21 398.8) rotate(-45)" style="fill:#dcddf9"/><path d="M391.39,413.8q.12.3.21.57a11.21,11.21,0,0,1,.34,1.42c.08.47.13.91.16,1.32a12.8,12.8,0,0,1-.05,2.27c3.72,1.83,7.75-.69,7.75-.69a12.05,12.05,0,0,1-.43-1.79,27.81,27.81,0,0,1-.34-3v-.11Z" style="fill:#f5f5ff"/><path d="M391.39,413.8q.12.3.21.57a6,6,0,0,1,.34,1.42c.08.47.13.91.16,1.32a9.12,9.12,0,0,0,5.21.78,5.13,5.13,0,0,0,2.06-1,27.81,27.81,0,0,1-.34-3v-.11Z" style="fill:#e8e8f9"/><path d="M400,412.59s-.53,3-2,3.82-6.06,1.29-7.72-.57c-1.81-2-.81-10.71-.41-11.54s7.41-3.89,9.79-.51S400,412.59,400,412.59Z" style="fill:#f5f5ff"/><path d="M388.68,400.8c-.56-1.94.17-4.05,2.81-3.66.41.07.83.44,1.2.45s.7-.36,1.17-.33a2,2,0,0,1,1.51.53c1.69-1.3,4.7-.71,5,1.51a2.09,2.09,0,0,1,2.21.61,1.81,1.81,0,0,1,.39,1.75A1.56,1.56,0,0,1,404,403a2.5,2.5,0,0,1-.22,1.25,2.42,2.42,0,0,1,1.54,2.12,2.8,2.8,0,0,1-.77,2.19,2.08,2.08,0,0,1-.23,2,2,2,0,0,1-1.54,1,4.12,4.12,0,0,1-.65,2.38c-.56,1-2.8,2-3.33,1.74,1.15-2.77.43-7.48,1.17-10a56.5,56.5,0,0,1-7.47-1.42c-1.68.51-3.6.8-4.61,0C386.43,402.91,387.31,401.3,388.68,400.8Z" style="fill:#e8e8f9"/><path d="M401.66,405.11c1.11-.36.66-1.91,0-2.95a3.59,3.59,0,0,0,1.5-.39A1.57,1.57,0,0,1,404,403a2.5,2.5,0,0,1-.22,1.25,2.42,2.42,0,0,1,1.54,2.12,2.8,2.8,0,0,1-.77,2.19,2.08,2.08,0,0,1-.23,2,2,2,0,0,1-1.54,1,4.12,4.12,0,0,1-.65,2.38c-.56,1-2.8,2-3.33,1.74,1.12-3,.37-5.43.82-8.3C400.8,407.09,402.06,406.23,401.66,405.11Z" style="fill:#d2d2ed"/><path d="M399.32,409.67c.48-.5,2.53-1.08,2.78-.27.41,1.31-1.17,3.84-3.05,2.81C398.36,411.84,398.9,410.1,399.32,409.67Z" style="fill:#f5f5ff"/><path d="M379.66,450.08A16.11,16.11,0,1,0,395.78,434,16.11,16.11,0,0,0,379.66,450.08Z" style="fill:#f7f7f7"/><path d="M381.79,450.08a14,14,0,1,0,14-14A14,14,0,0,0,381.79,450.08Z" style="fill:#dcddf9"/><g style="clip-path:url(#m)"><path d="M393,456.41c.94.3,0,4.92-5.09,12.69-1.31,2-3.24-.78-2.58-2s3.47-6.57,3.47-6.57S391.25,455.84,393,456.41Z" style="fill:#f5f5ff"/><path d="M393,456.41c.94.3,0,4.92-5.09,12.69,1.22-4.7,1.23-6.18,1.69-8.23C389.92,459.5,391.25,455.84,393,456.41Z" style="fill:#e8e8f9"/><path d="M388.37,460.26a6.06,6.06,0,0,0,1.14,1.06,5.94,5.94,0,0,0,2.22,1,20.35,20.35,0,0,0,1.48-4.13c0-.15,0-.28.06-.4s0-.27.05-.39c0-.6-.09-.95-.32-1l-.19,0a1.39,1.39,0,0,0-.53.05l-.12,0C390.47,457,388.37,460.26,388.37,460.26Z" style="fill:#e8e8f9"/><path d="M389.49,461.51a6,6,0,0,0,2.14,1.19,20.48,20.48,0,0,0,1.78-4c0-.15.07-.27.1-.4s.06-.26.08-.38c.08-.59,0-1-.24-1.05l-.19-.06a1.18,1.18,0,0,0-.53,0l-.12,0c-1.36.45-2.55,3.1-2.89,4.21C389.57,461.21,389.53,461.36,389.49,461.51Z" style="fill:#dcddf9"/><path d="M389.09,476.08c5.67,1.43,12-1.2,12-1.2a57.9,57.9,0,0,1-2.81-8.05,31.56,31.56,0,0,1-.32-5.25,18.18,18.18,0,0,1,.29-3.42c.23-.86-.59-1.46-1.31-1.82l-.43-.18A4.57,4.57,0,0,0,396,456s-.63,0-2.57,0a1.84,1.84,0,0,0-1.38.8c-1.6,2-2.26,7.11-2.14,8.18a1.44,1.44,0,0,0,1.5,1.3C391.32,468.22,389.09,476.08,389.09,476.08Z" style="fill:#e8e8f9"/><path d="M391.38,466.26a14.26,14.26,0,0,0,3.15-.59,5.4,5.4,0,0,1-3.22,1.51Z" style="fill:#e0ca7d"/><path d="M398,458.65s-.27,6.93.41,9.07,2.61,7.16,2.61,7.16-3.36,1.09-5.18,1.44a4.71,4.71,0,0,0,1.89-4.71c-.58-3.08-.72-10.45-1.51-13.06C397.15,456.81,398,458.65,398,458.65Z" style="fill:#dcddf9"/><path d="M404.92,468c-.8.38-1.3,1.14-2.12.18a51.55,51.55,0,0,1-4.88-6.62c-.31-.51-.58-1-.82-1.45h0a10.65,10.65,0,0,1-1.13-2.9c-.1-.56,0-.89.19-1a.89.89,0,0,1,.31-.08,1.25,1.25,0,0,1,.57,0c1.67.52,3.81,3.59,3.81,3.59s3.49,5.16,4.3,6.3C405.53,466.63,405.7,467.66,404.92,468Z" style="fill:#f5f5ff"/><path d="M404.92,468a1.19,1.19,0,0,1-2.12.18,51.55,51.55,0,0,1-4.88-6.62c-.31-.51-.58-1-.82-1.45.35.47,5.89,7.87,6.69,8.15A1.88,1.88,0,0,0,404.92,468Z" style="fill:#e8e8f9"/><path d="M396,457.23a13.26,13.26,0,0,0,1.71,4.74,4,4,0,0,0,3.6-2.45s-2.57-2.8-4.24-3.31a1.26,1.26,0,0,0-.57,0,.71.71,0,0,0-.31.08C396,456.34,395.87,456.67,396,457.23Z" style="fill:#e8e8f9"/><path d="M392.22,458.14c.2.71.77,1.5,1.59,1.07a7.31,7.31,0,0,0,1.52-1.37l.64-.61.93-.89.14-.13a1.26,1.26,0,0,0-.57,0A4.57,4.57,0,0,0,396,456s-.63,0-2.57,0a1.84,1.84,0,0,0-1.38.8A4.75,4.75,0,0,0,392.22,458.14Z" style="fill:#dcddf9"/><path d="M392.65,452.68a21.41,21.41,0,0,1,.3,3.67c.7,1.68,3.28-.23,3.28-.23a10.35,10.35,0,0,1-.15-1.23c-.08-.89-.09-1.79-.1-2.05v-.07Z" style="fill:#f5f5ff"/><path d="M392.68,453.22c0,.14.06.27.08.4a5.35,5.35,0,0,1,.12,1c0,.32.05.82.08,1.15.76.56,2.58-1,3.08-1.84-.05-.91,0-1.91,0-1.91Z" style="fill:#dcddf9"/><path d="M393,456.34c.54,1.06,2.59.12,3.2-.3.31-.21.57.1.27.31-1,.68-3.37,1.59-3.78.06C392.64,456.24,392.87,456.11,393,456.34Z" style="fill:#e8e8f9"/><path d="M397.7,443.73a3.83,3.83,0,0,1,1.38.94c1.6,1.75,1,4.75,1.29,7.1.34,2.75,2,5.92,4.61,6.7a4.75,4.75,0,0,0,2.81-.06.29.29,0,0,0,.06-.52c-4.66-3.16-1.6-9.28-3.35-13.65a5.13,5.13,0,0,0-7-2.55c-.17.09-1.26.69-1.18.82C395.56,443,396.63,443.29,397.7,443.73Z" style="fill:#e8e8f9"/><path d="M399.08,444.67c1.6,1.75,1,4.75,1.29,7.1.34,2.75,2,5.92,4.61,6.7a.26.26,0,0,0-.08-.24,9.23,9.23,0,0,1-2.56-4.25,33.57,33.57,0,0,1-.51-4.48C401.6,447.55,400.85,445.58,399.08,444.67Z" style="fill:#d2d2ed"/><path d="M389.31,443.84a21.25,21.25,0,0,0-1,5.34c0,2.12,1.16,4.48,3.61,4.6.83,0,2.91-4.61,2.91-4.61Z" style="fill:#e8e8f9"/><path d="M396.86,446.7s.13,4.82-.88,6.54-3.5,2-4.19,1.89c-1.81-.34-2.88-3.67-2.81-6.85C389.07,444.32,392.76,442.56,396.86,446.7Z" style="fill:#f5f5ff"/><path d="M399.54,444.8h0a4.76,4.76,0,0,0-1.91-2,9.7,9.7,0,0,0-4.45-1.58c-6.52-.28-6.9,4.21-3.63,4.64,2.61.35,7,.6,7,.6a9.52,9.52,0,0,0,.07,3.89.86.86,0,0,1,.19-.11c.09,1-.7,2.42-.9,3.24,1.06.79,3.56,0,4.15-2.78A10.4,10.4,0,0,0,399.54,444.8Z" style="fill:#e8e8f9"/><path d="M395.92,450c.35-.39,1.64-1.27,1.9-.43.34,1.06-1.06,3.57-2,2.23A1.65,1.65,0,0,1,395.92,450Z" style="fill:#f5f5ff"/></g><path d="M324.17,358.71h46.45a1.67,1.67,0,0,0,0-3.3l-46.45,0a1.68,1.68,0,0,0,0,3.31Z" style="fill:#dcddf9"/><path d="M298.88,370.36l71.73,0a1.67,1.67,0,0,0,0-3.3l-71.73,0a1.68,1.68,0,0,0,0,3.31Z" style="fill:#dcddf9"/><path d="M252.64,358.69l64.77,0a1.68,1.68,0,0,0,0-3.31l-64.77,0a1.68,1.68,0,0,0,0,3.31Z" style="fill:#dcddf9"/><path d="M252.64,370.35h28.87a1.68,1.68,0,0,0,0-3.31H252.64a1.68,1.68,0,0,0,0,3.31Z" style="fill:#dcddf9"/><path d="M249.22,422l123.17,0a4.13,4.13,0,0,0,4.13-4.12V394.21a4.11,4.11,0,0,0-4.12-4.12l-123.17,0a4.12,4.12,0,0,0-4.12,4.12v23.7A4.12,4.12,0,0,0,249.22,422Z" style="fill:#f7f7f7"/><path d="M324.16,401.87l46.44,0a1.68,1.68,0,0,0,0-3.31l-46.44,0a1.68,1.68,0,0,0,0,3.31Z" style="fill:#dcddf9"/><path d="M298.87,413.52l71.73,0a1.55,1.55,0,0,0,1.4-1.66,1.54,1.54,0,0,0-1.4-1.65l-71.73,0a1.68,1.68,0,0,0,0,3.31Z" style="fill:#dcddf9"/><path d="M252.63,401.85l64.77,0a1.68,1.68,0,0,0,0-3.31l-64.77,0a1.68,1.68,0,0,0,0,3.31Z" style="fill:#dcddf9"/><path d="M252.62,413.51H281.5a1.68,1.68,0,0,0,0-3.31H252.63a1.68,1.68,0,0,0,0,3.31Z" style="fill:#dcddf9"/><path d="M249.21,466l123.17,0a4.11,4.11,0,0,0,4.12-4.12v-23.7a4.11,4.11,0,0,0-4.12-4.12l-123.17,0a4.12,4.12,0,0,0-4.13,4.12v23.7A4.11,4.11,0,0,0,249.21,466Z" style="fill:#f7f7f7"/><path d="M324.14,445.89h46.45a1.68,1.68,0,0,0,0-3.31H324.15a1.68,1.68,0,0,0,0,3.31Z" style="fill:#dcddf9"/><path d="M298.85,457.54l71.73,0a1.68,1.68,0,0,0,0-3.31l-71.74,0a1.68,1.68,0,0,0,0,3.31Z" style="fill:#dcddf9"/><path d="M252.61,445.86l64.77,0a1.67,1.67,0,0,0,0-3.3l-64.78,0a1.67,1.67,0,0,0,0,3.3Z" style="fill:#dcddf9"/><path d="M252.61,457.53h28.88a1.54,1.54,0,0,0,1.41-1.65,1.56,1.56,0,0,0-1.41-1.66H252.61a1.68,1.68,0,0,0,0,3.31Z" style="fill:#dcddf9"/><path d="M398.38,181.73l-.07,111a9.58,9.58,0,0,1-9.57,9.55l-119.69-.07a9.59,9.59,0,0,1-9.56-9.57l.08-111a9.59,9.59,0,0,1,9.56-9.59l119.7.08A9.59,9.59,0,0,1,398.38,181.73Z" style="fill:#fff"/><path d="M398.34,237.85l0,54.87a9.58,9.58,0,0,1-9.57,9.55l-119.69-.07a9.59,9.59,0,0,1-9.56-9.57V277.11L280.34,254a4.56,4.56,0,0,1,6.7-.12l27.49,28.47a4.58,4.58,0,0,0,6.66-.08l56.58-61.65a4.62,4.62,0,0,1,7,.24Z" style="fill:#dcddf9"/><path d="M318.27,205.66a16.77,16.77,0,1,0-16.78,16.75A16.78,16.78,0,0,0,318.27,205.66Z" style="fill:#dcddf9"/><g style="clip-path:url(#n)"><path d="M340.49,414.3c-18.71,8.64-32.06,19.57-29.83,24.4s19.21,1.73,37.91-6.91,32.06-19.57,29.83-24.4S359.19,405.65,340.49,414.3Z" style="fill:#1b0a74"/><path d="M339.71,411.1C323.52,418.59,312,428,313.9,432.22s16.62,1.5,32.81-6,27.74-16.93,25.81-21.11S355.9,403.62,339.71,411.1Z" style="fill:#8fabec"/><path d="M292.06,360.59c-14.59,11.61-12.46,35.27-6.88,44.72,4.57,7.74,19.67,9.36,23.55,10.73,5.2,10,63.95-9.45,55.38-24.31-9-15.57-17-28.94-34.69-35.89C324.78,354,300,354.25,292.06,360.59Z" style="fill:#fda798"/><path d="M330.5,372.84l-5.95-1.11c1.4,2.2-.29,5-3.35,5.2l-.88.05c-17.06.85-37.52-2.42-49.17-15.54-1.84-2.08-3.77-4.53-5.74-7.16l9.67-17.73c1.08,1.5,2.2,3.05,3.4,4.68,6.92,9.3,13.86,14.64,25.38,18.2,9.31,2.89,19,4.75,28.6,6.57C337.49,367,335.49,373.79,330.5,372.84Z" style="fill:#fda798"/><path d="M312.91,393.2l-6-1.12a3.07,3.07,0,0,1,0,3.33,4.15,4.15,0,0,1-3.36,1.87c-17.21,1-38.2-2.12-50-15.49-.64-.73-1.28-1.45-1.94-2.22L261.2,362c6.81,9,13.72,14.27,25.08,17.79,5.94,1.84,12.05,3.25,18.17,4.52,3.47.71,6.95,1.39,10.41,2.05C319.89,387.32,317.9,394.14,312.91,393.2Z" style="fill:#fda798"/><path d="M332.79,417.33c-14.93,6.61-56.87-3.53-71.47-14.44a103.76,103.76,0,0,1-14.77-14L255,373.3c2.85,2.64,5.57,5.54,8.58,8.19,8.86,7.86,16.83,11.78,28.8,13.05,4.81.51,9.67.77,14.53.87s9.78.1,14.63.07c5.08,0,4.76,7.11-.29,7.14l-6,.05C317.15,404.56,335.55,416.11,332.79,417.33Z" style="fill:#fda798"/><path d="M315.48,380.16l-6-1.11c1.4,2.19-.28,5-3.36,5.19l-1.71.08c-16.44.7-35.87-2.48-47.44-14.64l9.47-17.35c6,7,12.5,11.35,22.36,14.41,9.32,2.88,19,4.76,28.6,6.58a3.18,3.18,0,0,1,2.88,3.66A3.94,3.94,0,0,1,315.48,380.16Z" style="fill:#fda798"/><path d="M291.63,362.23s-19.25,17.47-7.54,41.93C284,383.48,291.63,362.23,291.63,362.23Z" style="fill:#fd876d"/><path d="M312.58,363.3s-6.61,12.51,7,26.75c0,0-11.92-10.91-12.73-16.21C305.86,367.29,312.58,363.3,312.58,363.3Z" style="fill:#fd876d"/><path d="M249.59,415.78l34.24,10.81a6,6,0,0,0,7.51-3.91l40-123.15-45.66-14.4-40,123.14A6,6,0,0,0,249.59,415.78Z" style="fill:url(#o)"/><polygon points="261.42 321.92 276.48 326.67 285.19 299.09 275.68 296.09 271.32 309.88 261.42 321.92" style="fill:#d6695d"/><polygon points="263.9 322.71 278.96 327.46 287.66 299.87 278.15 296.87 273.8 310.66 263.9 322.71" style="fill:url(#p)"/><path d="M273.84,423.44l10,3.15a6,6,0,0,0,7.51-3.91l40-123.15-15.69-4.95Z" style="fill:#312da4"/><path d="M337.43,282.15a25.77,25.77,0,1,1,25.18,26.34A25.77,25.77,0,0,1,337.43,282.15Z" style="fill:#312da4"/><path d="M230,146.68s42.12,67.66,152.68,98.57c0,0-1.64,50.84-31.15,76.62,0,0-115-59.5-188.57-28.72Z" style="fill:url(#q)"/><path d="M382,252.65l-.29,2.44C381.87,254.22,382,253.4,382,252.65Z" style="fill:#7c71ea"/><path d="M335.69,228.52c3.34,1.47,6.76,2.89,10.22,4.26C342.45,231.41,339,230,335.69,228.52Z" style="fill:#7c71ea"/><path d="M325.85,224.07c3.22,1.53,6.5,3,9.84,4.45q-5-2.21-9.84-4.47Z" style="fill:#7c71ea"/><path d="M296.5,299.88a541.87,541.87,0,0,1,55,22c13-7.18,34.31-54.07,31.15-76.61-21.54-6.08-34.17-11.45-56.8-21.2C321,254.85,302.85,289.94,296.5,299.88Z" style="fill:#d6695d"/><path d="M169.86,205.18c13.95-35.94,32.87-63.46,46.35-69.14l1.2-3.09,6.67,2.59h0c12.78,5.3,9.56,44.51-7.26,87.85s-40.88,74.47-53.89,69.75v0l-6.67-2.59,1.2-3.09C151.33,274.21,155.92,241.12,169.86,205.18Z" style="fill:#feae59"/><path d="M163.36,202.65c-16.89,43.54-20.07,82.9-7.11,87.93,10.21,4,27.38-14.52,42.47-43.83a269.39,269.39,0,0,0,11.6-25.88A270.08,270.08,0,0,0,219.18,194c8.64-31.82,8.44-57.11-1.77-61.07C204.44,127.92,180.25,159.13,163.36,202.65Z" style="fill:#d6695d"/><path d="M176.09,239.43a37.72,37.72,0,0,1,22.63,7.32,269.39,269.39,0,0,0,11.6-25.88A270.08,270.08,0,0,0,219.18,194a33.1,33.1,0,0,1-21.62-9.92C184,190.09,168.71,226.57,176.09,239.43Z" style="fill:url(#r)"/><path d="M178.59,208.57c-5.93,15.28-7,29.1-2.49,30.86s13.05-9.19,19-24.47,7.05-29.09,2.5-30.86S184.52,193.29,178.59,208.57Z" style="fill:#312da4"/><path d="M182.34,210c-3.23,8.33-3.84,15.87-1.36,16.83s7.11-5,10.35-13.34,3.84-15.87,1.35-16.83S185.57,201.69,182.34,210Z" style="fill:url(#s)"/><path d="M383.21,245.18s-.08,2.79-.61,7.41c-.07.75-.18,1.57-.29,2.44-.07.42-.12.87-.2,1.34s-.11.91-.18,1.39c-.12.75-.24,1.53-.37,2.34a153.7,153.7,0,0,1-3.68,16.75q-.42,1.54-.9,3.09c-.15.51-.32,1-.5,1.56s-.32,1-.5,1.56-.34,1.06-.54,1.59-.36,1.05-.55,1.59A530.69,530.69,0,0,1,313.22,267c-46.57-17.56-77.66-36.06-94.82-47.79,10.85-29.3,15.37-56.23,12.79-71.42,4.07,7.11,28,44.56,95.22,76.2,3.22,1.53,6.5,3,9.83,4.45s6.77,2.88,10.24,4.26q3.45,1.4,7,2.74c2.28.84,4.57,1.69,6.89,2.5.2.06.42.13.62.21,1.92.69,3.84,1.35,5.79,2,.78.28,1.56.51,2.33.77,2.11.71,4.26,1.37,6.42,2Q379.34,244.08,383.21,245.18Z" style="fill:#fff;opacity:0.21"/><path d="M289.53,334.71c-1.17-2.15,4.42-13.29,8.55-12.55,11.68,2.11,25.26,10.12,33.87,18.92,8.34,8.53,21.86,30.1,25.55,41.17.92,2.76-10.64-3.92-12.93-3.81a3.48,3.48,0,0,1-3.53,1.92c-14.78-2.19-15.37-15.68-24.09-25.14S295,344.84,289.53,334.71Z" style="fill:#fda798"/><path d="M442.61,673.65c-7.58,4.44-46.78,14.81-62.24-15.65-38.25-75.39-62.53-246.25-62.53-246.25L364,391.56S464.29,591.67,469.2,619.44,461.35,662.69,442.61,673.65Z" style="fill:#fda798"/><path d="M419.14,679s-24.24-28-41-76.26-60.33-191-60.33-191,27.73,203.5,68.48,254.88A34.73,34.73,0,0,0,419.14,679Z" style="fill:#fd876d"/><path d="M282.09,351.78a45.91,45.91,0,0,1-6.21-1c-5.75-1.3-11.67-3.37-17.27-3.89a13.89,13.89,0,0,1,2-1.8c-.09-.33-.17-.64-.24-1s-.17-.84-.24-1.22c-2-11.56,6.1-14.59,7-14.91,9.4,3.32,18.22,8.36,22.68,12.14C292.19,342.14,287.62,352.17,282.09,351.78Z" style="fill:#fda798"/><path d="M284.84,375.71a69.83,69.83,0,0,1-11.73-4.64c-2.51-1.17-5-2.32-7.53-3.23-4.48-1.67-8.95-2.59-13.37-1.46l-.73.2a14.67,14.67,0,0,1,3.44-3.34l.08-.05a18.69,18.69,0,0,1-.73-3.2,15.83,15.83,0,0,1,4.34-13.07,13.89,13.89,0,0,1,2-1.8c-.09-.33-.17-.64-.24-1a64.67,64.67,0,0,1,14.69,6.2l0,0c.26.14.53.28.78.44,8.7,4.95,16.2,11.18,18.81,15C296.44,368.38,290.31,377.09,284.84,375.71Z" style="fill:#fda798"/><path d="M273.11,371.07c-2.51-1.17-5-2.32-7.53-3.23-4.48-1.67-8.95-2.59-13.37-1.46l-.73.2a14.67,14.67,0,0,1,3.44-3.34l.08-.05a18.69,18.69,0,0,1-.73-3.2C260.66,362.42,267.09,366.64,273.11,371.07Z" style="fill:#fd876d"/><path d="M282.09,351.78l-7-1.41,0,0a147.5,147.5,0,0,0-14.45-5.23c-.09-.33-.17-.64-.24-1s-.17-.84-.24-1.22C269.62,346.42,282.09,351.78,282.09,351.78Z" style="fill:#fd876d"/><path d="M277,390.26a6.45,6.45,0,0,1-1.33.28,5.4,5.4,0,0,1-1.27,0c-6.35-.95-13-4-19.38-5.77-.44-.11-.87-.24-1.31-.33-2.63-.64-5.33-3.41-4.78-3.86a3.31,3.31,0,0,0,.33-.25,17.22,17.22,0,0,1-.56-6.77,14.38,14.38,0,0,1,2.79-6.94,14.67,14.67,0,0,1,3.44-3.34,72.18,72.18,0,0,1,10.66,4.6,93.8,93.8,0,0,1,17.48,11.71C286,382.13,281.73,388.77,277,390.26Z" style="fill:#fda798"/><path d="M277.46,390a1.5,1.5,0,0,1-.47.22,6.45,6.45,0,0,1-1.33.28c-1.77.21-5,0-10.5-1.9-5.19-1.85-8.36-3.12-10.15-3.91a19.88,19.88,0,0,1-2-.9l-.07,0s0,0,0,0,0,0-.08-.09c-.37-.38-1.67-1.7-3.62-3.39a17.22,17.22,0,0,1-.56-6.77,37.47,37.47,0,0,1,12.55,9.57C264.23,386.57,277.46,390,277.46,390Z" style="fill:#fd876d"/><path d="M261.06,401.4c-4.62-.17-8.4-1.71-11.95-3.1l0,0c-4.55-5.32-3.57-10.8-2-14.37a19,19,0,0,1,2.12-3.68c1.58.65,3.13,1.33,4.61,2a.2.2,0,0,0,.11.07l.1,0c.27.14.51.27.78.39a54.15,54.15,0,0,1,13.14,8.74C270.12,393.66,266.69,401.62,261.06,401.4Z" style="fill:#fda798"/><path d="M346.71,426.24c16.18-7.48,27.74-16.93,25.81-21.11l45.36,94.8-71.53,23.41L313.9,432.22C315.83,436.4,330.52,433.72,346.71,426.24Z" style="fill:#dcddf9"/><path d="M310.67,438.7l62.76,235,30.64-5.09,50.09-8.33,38.33-6.37L378.4,407.39l.06.15c.47,1.22,0,2.8-1.24,4.63-3.78,5.5-14.73,13.19-28.65,19.62-9.66,4.47-18.84,7.45-25.79,8.62-6.41,1.09-10.89.65-12.06-1.6Z" style="fill:url(#t)"/><path d="M310.67,438.7l62.76,235,30.64-5.09L322.78,440.41c-6.41,1.09-10.89.65-12.06-1.6Z" style="fill:#312da4"/></g><path d="M11.18,144.39l14.13,21.48a2.22,2.22,0,0,0,3.07.63l23.17-15.23a2.22,2.22,0,0,0,.63-3.07L38.05,126.72a2.21,2.21,0,0,0-3.07-.64L11.81,141.31A2.23,2.23,0,0,0,11.18,144.39Z" style="fill:url(#u)"/><path d="M18.33,155.25l7,10.62a2.22,2.22,0,0,0,3.07.63l23.17-15.23a2.22,2.22,0,0,0,.63-3.07l-2-3-7-1.84a1.06,1.06,0,0,0-1.31.83l-1.7,9a1.06,1.06,0,0,1-1.3.83l-18.79-4.74a1.07,1.07,0,0,0-1.32.93Z" style="fill:url(#v)"/><path d="M29.74,138.83a3.88,3.88,0,1,1,5.38,1.11A3.89,3.89,0,0,1,29.74,138.83Z" style="fill:url(#w)"/><path d="M140.89,177.31,136.19,207a2.59,2.59,0,0,0,2.15,3l32,5.07a2.6,2.6,0,0,0,3-2.16l4.7-29.67a2.59,2.59,0,0,0-2.15-3l-32-5.07A2.59,2.59,0,0,0,140.89,177.31Z" style="fill:url(#x)"/><path d="M138.51,192.31,136.19,207a2.59,2.59,0,0,0,2.15,3l32,5.07a2.6,2.6,0,0,0,3-2.16l.66-4.15-4.59-7.07a1.23,1.23,0,0,0-1.79-.32L159,207.76a1.23,1.23,0,0,1-1.77-.3l-12.51-18.89a1.24,1.24,0,0,0-1.87-.23Z" style="fill:url(#y)"/><path d="M161.29,187.11a4.54,4.54,0,1,1,3.77,5.2A4.54,4.54,0,0,1,161.29,187.11Z" style="fill:url(#z)"/><rect x="78.1" y="9.1" width="10.92" height="20.08" rx="2.55" transform="translate(-2.03 14.35) rotate(-9.7)" style="fill:url(#aa)"/><path d="M50,21.14a2.88,2.88,0,0,1,2-3.23,2.87,2.87,0,0,1-1.81-2.18,2.91,2.91,0,0,1,2.38-3.37l4.72-.81a8.38,8.38,0,0,1-2.84-2.27C52.2,6.08,53.1.22,55.64,0s2.37,4.07,5,4.75A36.63,36.63,0,0,1,74.66,11.9l.26.1L78,30.05,68.93,31.6l-1.53.26-9.67,1.66a2.93,2.93,0,0,1-3.38-2.39,2.87,2.87,0,0,1,.91-2.57,2.93,2.93,0,0,1-3.32-2.39,2.88,2.88,0,0,1,1-2.66A2.89,2.89,0,0,1,50,21.14Z" style="fill:url(#ab)"/><path d="M107.66,135.29l3.19,4.85a2.56,2.56,0,0,1-.73,3.54L97.61,151.9a2.54,2.54,0,0,1-3.53-.73l-3.2-4.85a2.56,2.56,0,0,1,.73-3.54l12.51-8.22A2.55,2.55,0,0,1,107.66,135.29Z" style="fill:url(#ac)"/><path d="M85.57,113.24a2.89,2.89,0,0,1,3.76.55,2.88,2.88,0,0,1,1.27-2.53,2.92,2.92,0,0,1,4.05.83l2.63,4a8.36,8.36,0,0,1,.94-3.51c2-3.32,7.77-4.85,9-2.6s-2.78,3.8-2.36,6.44a36.76,36.76,0,0,1-.91,15.75c0,.09,0,.19,0,.28l-15.3,10.06-5.06-7.69-.85-1.29-5.39-8.21a2.92,2.92,0,0,1,.84-4,2.88,2.88,0,0,1,2.71-.2,2.93,2.93,0,0,1,.86-4,2.89,2.89,0,0,1,2.83-.15A2.9,2.9,0,0,1,85.57,113.24Z" style="fill:url(#ad)"/><path d="M36.51,66.5c5.7-7.92,16.21.65,16.73,5.3v.06l0,0c2.82-3.73,16.24-5.68,17.07,4,1.1,12.83-23,17.37-23,17.37S29,77,36.51,66.5Z" style="fill:url(#ae)"/><path d="M133.12,110.2c1.94-11.81,18.17-8.16,21.28-3.33l0,.07a.25.25,0,0,0,0-.08c1.07-5.64,14.74-15.13,21-4.91,8.23,13.5-15.75,31.67-15.75,31.67S130.57,125.81,133.12,110.2Z" style="fill:url(#af)"/><rect x="119.65" y="36.94" width="33" height="23.75" transform="translate(-5.25 18.39) rotate(-7.58)" style="fill:url(#ag)"/><path d="M118.23,39.22l32.71-4.35L134,23.74a1.76,1.76,0,0,0-2.28.3Z" style="fill:#69bbc9"/><rect x="125" y="34.85" width="21.71" height="23.47" transform="translate(-4.96 18.33) rotate(-7.58)" style="fill:url(#ah)"/><rect x="125.95" y="37.06" width="17.06" height="0.52" transform="translate(-3.75 18.06) rotate(-7.58)" style="fill:url(#ai)"/><rect x="126.21" y="39.03" width="17.06" height="0.52" transform="translate(-4.01 18.12) rotate(-7.58)" style="fill:url(#aj)"/><rect x="126.47" y="41" width="17.06" height="0.52" transform="translate(-4.26 18.17) rotate(-7.58)" style="fill:url(#ak)"/><rect x="126.73" y="42.97" width="17.06" height="0.52" transform="translate(-4.52 18.22) rotate(-7.58)" style="fill:url(#al)"/><rect x="127" y="44.94" width="17.06" height="0.52" transform="translate(-4.78 18.27) rotate(-7.58)" style="fill:url(#am)"/><polygon points="121.36 62.77 154.07 58.42 118.23 39.22 121.36 62.77" style="fill:#69bbc9"/><polygon points="121.36 62.77 154.07 58.42 150.94 34.87 121.36 62.77" style="fill:url(#an)"/><path d="M65.52,211.64a18.45,18.45,0,0,0,2,4.82l-2.16,4.12,4.33,4.33,4.12-2.16a18,18,0,0,0,4.81,2L80,229.18h6.12l1.39-4.44a17.89,17.89,0,0,0,4.81-2l4.13,2.16,4.33-4.33-2.17-4.12a17.79,17.79,0,0,0,2-4.82l4.44-1.39v-6.12l-4.44-1.38a17.66,17.66,0,0,0-2-4.82l2.17-4.12-4.33-4.33-4.13,2.16a17.89,17.89,0,0,0-4.81-2l-1.39-4.45H80l-1.39,4.45a18,18,0,0,0-4.81,2l-4.12-2.16-4.33,4.33,2.16,4.12a18.31,18.31,0,0,0-2,4.82l-4.44,1.38v6.12Zm4.56-4.45a13,13,0,1,1,13,13A13,13,0,0,1,70.08,207.19Z" style="fill:url(#ao)"/></svg>