<svg xmlns="http://www.w3.org/2000/svg" xmlns:xlink="http://www.w3.org/1999/xlink" viewBox="0 0 433.64 451.06"><defs><linearGradient id="a" x1="46.64" y1="346.68" x2="37.15" y2="368.57" gradientTransform="matrix(-1, 0, 0, 1, 220.41, 0)" gradientUnits="userSpaceOnUse"><stop offset="0" stop-color="#009bae"/><stop offset="1" stop-color="#00ebe9"/></linearGradient><linearGradient id="b" x1="-1.39" y1="376.49" x2="23.1" y2="376.49" xlink:href="#a"/><linearGradient id="c" x1="23.1" y1="405.96" x2="25.43" y2="405.96" xlink:href="#a"/><linearGradient id="d" x1="1.11" y1="391.8" x2="9.09" y2="405.08" xlink:href="#a"/><linearGradient id="e" x1="30.32" y1="392.53" x2="67.02" y2="392.53" xlink:href="#a"/><linearGradient id="f" x1="31.94" y1="376.58" x2="29.19" y2="389.27" xlink:href="#a"/><linearGradient id="g" x1="31.34" y1="410.17" x2="19.16" y2="435.9" gradientTransform="matrix(-1, 0, 0, 1, 220.41, 0)" gradientUnits="userSpaceOnUse"><stop offset="0" stop-color="#c8d6f9"/><stop offset="1" stop-color="#acb5e8"/></linearGradient><linearGradient id="h" x1="26.66" y1="410.81" x2="26.66" y2="445.18" xlink:href="#g"/><linearGradient id="i" x1="40.06" y1="403.75" x2="12.81" y2="404.14" gradientTransform="matrix(-1, 0, 0, 1, 220.41, 0)" gradientUnits="userSpaceOnUse"><stop offset="0" stop-color="#f0f0fb"/><stop offset="1" stop-color="#d2d7f6"/></linearGradient><linearGradient id="j" x1="10.55" y1="302.93" x2="20.5" y2="301.78" gradientUnits="userSpaceOnUse"><stop offset="0" stop-color="#f4a999"/><stop offset="1" stop-color="#e8856f"/></linearGradient><linearGradient id="k" x1="29.39" y1="269.42" x2="21.95" y2="244.21" gradientUnits="userSpaceOnUse"><stop offset="0" stop-color="#744ee1"/><stop offset="1" stop-color="#6e91f4"/></linearGradient><linearGradient id="l" x1="435.62" y1="318.85" x2="438.81" y2="311.83" gradientTransform="matrix(0.83, 0.62, -0.56, 0.79, -138.56, -92.43)" gradientUnits="userSpaceOnUse"><stop offset="0" stop-color="#f4a999"/><stop offset="0.34" stop-color="#f3a696"/><stop offset="0.62" stop-color="#f09e8c"/><stop offset="0.87" stop-color="#eb8f7b"/><stop offset="1" stop-color="#e8856f"/></linearGradient><linearGradient id="m" x1="119.04" y1="353.48" x2="121.79" y2="347.43" gradientTransform="matrix(-0.94, -0.34, -0.34, 0.94, 268, 116.53)" xlink:href="#l"/><linearGradient id="n" x1="75.26" y1="285.64" x2="17.48" y2="249.5" xlink:href="#k"/><linearGradient id="o" x1="259.16" y1="267.87" x2="259.16" y2="241.97" gradientTransform="matrix(1, 0, 0.14, 1, -255.49, 0)" xlink:href="#g"/><linearGradient id="p" x1="108.08" y1="246.07" x2="109.17" y2="246.07" gradientTransform="matrix(-1, 0, 0, 1, 155.21, 0)" xlink:href="#g"/><linearGradient id="q" x1="103.53" y1="258.92" x2="63.38" y2="278.01" gradientTransform="matrix(-1, 0, 0, 1, 155.21, 0)" xlink:href="#l"/><linearGradient id="r" x1="83.07" y1="242.86" x2="62.78" y2="227.48" xlink:href="#k"/><linearGradient id="s" x1="102.87" y1="212.54" x2="90.57" y2="205.34" gradientTransform="matrix(-1, 0, 0, 1, 155.21, 0)" xlink:href="#l"/><linearGradient id="t" x1="102.69" y1="186.49" x2="92.69" y2="203.42" gradientTransform="matrix(-1, 0, 0, 1, 155.21, 0)" xlink:href="#l"/><linearGradient id="u" x1="90.35" y1="190.63" x2="84.93" y2="194.04" gradientTransform="matrix(-1, 0, 0, 1, 155.21, 0)" xlink:href="#l"/><linearGradient id="v" x1="216.29" y1="344.49" x2="330.38" y2="344.49" gradientUnits="userSpaceOnUse"><stop offset="0" stop-color="#5752d0"/><stop offset="1" stop-color="#7f7cf9"/></linearGradient><linearGradient id="w" x1="24.39" y1="487.01" x2="22.88" y2="498" gradientTransform="matrix(-0.94, -0.33, 0.33, -0.94, 185.35, 774.32)" xlink:href="#j"/><linearGradient id="x" x1="612.55" y1="366.3" x2="605.93" y2="362.41" gradientTransform="translate(-228.17)" xlink:href="#l"/><linearGradient id="y" x1="-75.42" y1="391.07" x2="-73.62" y2="391.07" gradientTransform="matrix(-1, 0.09, 0.09, 1, 285.6, -13.89)" xlink:href="#v"/><linearGradient id="z" x1="-78.25" y1="392.54" x2="-76.45" y2="392.54" gradientTransform="matrix(-1, 0.09, 0.09, 1, 285.6, -13.89)" xlink:href="#v"/><linearGradient id="aa" x1="-81.07" y1="394" x2="-79.27" y2="394" gradientTransform="matrix(-1, 0.09, 0.09, 1, 285.6, -13.89)" xlink:href="#v"/><linearGradient id="ab" x1="-83.89" y1="395.47" x2="-82.09" y2="395.47" gradientTransform="matrix(-1, 0.09, 0.09, 1, 285.6, -13.89)" xlink:href="#v"/><linearGradient id="ac" x1="-56.92" y1="392.79" x2="-54.59" y2="392.79" gradientTransform="matrix(-1, 0.09, 0.09, 1, 285.6, -13.89)" gradientUnits="userSpaceOnUse"><stop offset="0" stop-color="#ff6279"/><stop offset="1" stop-color="#ffad60"/></linearGradient><linearGradient id="ad" x1="375.64" y1="381.18" x2="420.94" y2="381.18" gradientUnits="userSpaceOnUse"><stop offset="0" stop-color="#c8d6f9"/><stop offset="1" stop-color="#9da3c4"/></linearGradient><linearGradient id="ae" x1="-76.95" y1="390.02" x2="-73.77" y2="390.02" gradientTransform="matrix(-1, 0.09, 0.09, 1, 285.6, -13.89)" xlink:href="#i"/><linearGradient id="af" x1="-79.78" y1="391.47" x2="-76.59" y2="391.47" gradientTransform="matrix(-1, 0.09, 0.09, 1, 285.6, -13.89)" xlink:href="#i"/><linearGradient id="ag" x1="-82.61" y1="392.91" x2="-79.42" y2="392.91" gradientTransform="matrix(-1, 0.09, 0.09, 1, 285.6, -13.89)" xlink:href="#i"/><linearGradient id="ah" x1="-85.43" y1="394.36" x2="-82.25" y2="394.36" gradientTransform="matrix(-1, 0.09, 0.09, 1, 285.6, -13.89)" xlink:href="#i"/><linearGradient id="ai" x1="30.25" y1="357.71" x2="-24.34" y2="306.15" gradientTransform="matrix(-1, 0, 0, 1, 315.68, 0)" xlink:href="#ac"/><linearGradient id="aj" x1="557.65" y1="403.19" x2="556.19" y2="394.95" gradientTransform="translate(-228.17)" xlink:href="#l"/><linearGradient id="ak" x1="5.71" y1="343.59" x2="-36.75" y2="362.38" gradientTransform="matrix(-1, 0, 0, 1, 315.68, 0)" xlink:href="#ac"/><linearGradient id="al" x1="-6.38" y1="355.36" x2="-4.58" y2="355.36" gradientTransform="matrix(-0.98, -0.19, -0.19, 0.98, 398.95, 57.41)" xlink:href="#v"/><linearGradient id="am" x1="-9.19" y1="356.82" x2="-7.39" y2="356.82" gradientTransform="matrix(-0.98, -0.19, -0.19, 0.98, 398.95, 57.41)" xlink:href="#v"/><linearGradient id="an" x1="-12.01" y1="358.28" x2="-10.21" y2="358.28" gradientTransform="matrix(-0.98, -0.19, -0.19, 0.98, 398.95, 57.41)" xlink:href="#v"/><linearGradient id="ao" x1="-14.83" y1="359.74" x2="-13.03" y2="359.74" gradientTransform="matrix(-0.98, -0.19, -0.19, 0.98, 398.95, 57.41)" xlink:href="#v"/><linearGradient id="ap" x1="12.13" y1="357.1" x2="14.46" y2="357.1" gradientTransform="matrix(-0.98, -0.19, -0.19, 0.98, 398.95, 57.41)" xlink:href="#ac"/><linearGradient id="aq" x1="315.57" y1="419.58" x2="361.34" y2="419.58" xlink:href="#ad"/><linearGradient id="ar" x1="-7.91" y1="354.31" x2="-4.72" y2="354.31" gradientTransform="matrix(-0.98, -0.19, -0.19, 0.98, 398.95, 57.41)" xlink:href="#i"/><linearGradient id="as" x1="-10.73" y1="355.75" x2="-7.54" y2="355.75" gradientTransform="matrix(-0.98, -0.19, -0.19, 0.98, 398.95, 57.41)" xlink:href="#i"/><linearGradient id="at" x1="-13.56" y1="357.19" x2="-10.37" y2="357.19" gradientTransform="matrix(-0.98, -0.19, -0.19, 0.98, 398.95, 57.41)" xlink:href="#i"/><linearGradient id="au" x1="-16.38" y1="358.63" x2="-13.19" y2="358.63" gradientTransform="matrix(-0.98, -0.19, -0.19, 0.98, 398.95, 57.41)" xlink:href="#i"/><linearGradient id="av" x1="15.19" y1="247.83" x2="65.68" y2="247.83" gradientTransform="matrix(-1, 0, 0, 1, 315.68, 0)" xlink:href="#v"/><linearGradient id="aw" x1="11.85" y1="261.74" x2="65.38" y2="261.74" gradientTransform="matrix(-1, 0, 0, 1, 315.68, 0)" xlink:href="#v"/><linearGradient id="ax" x1="5.14" y1="326.74" x2="58.66" y2="326.74" gradientTransform="matrix(-0.98, 0.17, 0.17, 0.98, 252.94, -51.12)" xlink:href="#v"/><linearGradient id="ay" x1="37.35" y1="382.58" x2="90.83" y2="382.58" gradientTransform="matrix(-1.03, 0.4, 0.52, 1.35, 146.25, -249.88)" xlink:href="#v"/><linearGradient id="az" x1="29.76" y1="194.91" x2="28.3" y2="205.62" gradientTransform="matrix(-0.97, -0.24, -0.24, 0.97, 388, 89.72)" xlink:href="#j"/><linearGradient id="ba" x1="34.29" y1="232.63" x2="44.73" y2="229.84" gradientTransform="matrix(-1, 0, 0, 1, 315.68, 0)" xlink:href="#l"/><linearGradient id="bb" x1="27.97" y1="210.33" x2="46.14" y2="221.14" gradientTransform="matrix(-1, 0, 0, 1, 315.68, 0)" xlink:href="#l"/><linearGradient id="bc" x1="30.72" y1="205.76" x2="48.88" y2="216.56" gradientTransform="matrix(-1, 0, 0, 1, 315.68, 0)" xlink:href="#l"/><linearGradient id="bd" x1="29.02" y1="223.45" x2="35.79" y2="223.45" gradientTransform="matrix(-1, 0, 0, 1, 315.68, 0)" gradientUnits="userSpaceOnUse"><stop offset="0" stop-color="#d82c53"/><stop offset="1" stop-color="#ff5774"/></linearGradient><linearGradient id="be" x1="29.02" y1="221.77" x2="35.79" y2="221.77" xlink:href="#bd"/><linearGradient id="bf" x1="106.8" y1="287.45" x2="433.64" y2="287.45" xlink:href="#v"/><linearGradient id="bg" x1="343.07" y1="280.82" x2="348.91" y2="280.82" gradientTransform="matrix(-1, 0, 0, 1, 710.35, 0)" gradientUnits="userSpaceOnUse"><stop offset="0" stop-color="#aaceff"/><stop offset="1" stop-color="#dbe9ff"/></linearGradient><linearGradient id="bh" x1="336.04" y1="280.82" x2="341.88" y2="280.82" xlink:href="#bg"/><linearGradient id="bi" x1="329.01" y1="280.82" x2="334.85" y2="280.82" xlink:href="#bg"/><linearGradient id="bj" x1="321.97" y1="280.82" x2="327.81" y2="280.82" xlink:href="#bg"/><linearGradient id="bk" x1="316.12" y1="280.82" x2="319.53" y2="280.82" xlink:href="#bg"/><linearGradient id="bl" x1="311.97" y1="280.82" x2="315.38" y2="280.82" xlink:href="#bg"/><linearGradient id="bm" x1="308.07" y1="280.82" x2="311.48" y2="280.82" xlink:href="#bg"/><linearGradient id="bn" x1="660.6" y1="259.17" x2="729.41" y2="259.17" gradientTransform="translate(1078.15 516.75) rotate(180)" xlink:href="#i"/><linearGradient id="bo" x1="662.9" y1="253.67" x2="718.52" y2="253.67" gradientTransform="translate(1078.15 516.75) rotate(180)" xlink:href="#i"/><linearGradient id="bp" x1="557.04" y1="280.82" x2="562.88" y2="280.82" xlink:href="#bg"/><linearGradient id="bq" x1="550.01" y1="280.82" x2="555.85" y2="280.82" xlink:href="#bg"/><linearGradient id="br" x1="542.97" y1="280.82" x2="548.81" y2="280.82" xlink:href="#bg"/><linearGradient id="bs" x1="535.94" y1="280.82" x2="541.78" y2="280.82" xlink:href="#bg"/><linearGradient id="bt" x1="530.08" y1="280.82" x2="533.5" y2="280.82" xlink:href="#bg"/><linearGradient id="bu" x1="525.94" y1="280.82" x2="529.35" y2="280.82" xlink:href="#bg"/><linearGradient id="bv" x1="522.03" y1="280.82" x2="525.45" y2="280.82" xlink:href="#bg"/><linearGradient id="bw" x1="874.57" y1="259.17" x2="943.38" y2="259.17" gradientTransform="translate(1078.15 516.75) rotate(180)" xlink:href="#i"/><linearGradient id="bx" x1="876.87" y1="253.67" x2="932.49" y2="253.67" gradientTransform="translate(1078.15 516.75) rotate(180)" xlink:href="#i"/><radialGradient id="by" cx="4656.84" cy="57.54" r="11.22" gradientTransform="matrix(-0.67, -0.01, 0.01, -0.62, 3504.35, 335.92)" gradientUnits="userSpaceOnUse"><stop offset="0" stop-color="#1d1273"/><stop offset="1" stop-color="#fff"/></radialGradient><radialGradient id="bz" cx="4994.67" cy="53.98" r="11.22" gradientTransform="matrix(-0.67, -0.01, 0.01, -0.62, 3504.3, 338.51)" xlink:href="#by"/><radialGradient id="ca" cx="5167.92" cy="51.15" r="11.22" gradientTransform="matrix(-0.67, -0.01, 0.01, -0.62, 3504.25, 340.56)" xlink:href="#by"/><radialGradient id="cb" cx="4886.74" cy="142.2" r="101.44" gradientTransform="matrix(-0.71, -0.01, 0.01, -0.68, 3713.95, 278.54)" xlink:href="#by"/><linearGradient id="cc" x1="170.57" y1="84.48" x2="290.57" y2="84.48" gradientTransform="matrix(1, 0, 0, 1, 0, 0)" xlink:href="#ac"/><linearGradient id="cd" x1="230.57" y1="84.48" x2="290.57" y2="84.48" gradientTransform="matrix(1, 0, 0, 1, 0, 0)" xlink:href="#ac"/><radialGradient id="ce" cx="4917.51" cy="126.77" r="11.22" gradientTransform="matrix(-0.67, -0.01, 0.01, -0.62, 3505.4, 285.61)" xlink:href="#by"/><radialGradient id="cf" cx="4962.36" cy="160.47" r="11.22" gradientTransform="matrix(-0.67, -0.01, 0.01, -0.62, 3505.91, 261.12)" xlink:href="#by"/><radialGradient id="cg" cx="4829.95" cy="159.86" r="11.22" gradientTransform="matrix(-0.67, -0.01, 0.01, -0.62, 3505.9, 261.56)" xlink:href="#by"/><radialGradient id="ch" cx="4831.28" cy="191.54" r="11.22" gradientTransform="matrix(-0.67, -0.01, 0.01, -0.62, 3506.38, 238.54)" xlink:href="#by"/></defs><title>web security_1</title><g style="isolation:isolate"><path d="M180.26,341.86s17,5.69,14.72,25.2,1,43.3,1,43.3h-9.71s-17.3-23.17-4.55-40.54S180.26,341.86,180.26,341.86Z" style="fill:url(#a)"/><path d="M181.61,343.07c3.1,2.55,12.12,11.79,2.4,27.09-11.54,18.17,7.28,40.14,7.28,40.14L196,410c0,.24.05.37.05.37h-9.71s-17.3-23.17-4.55-40.54C192,355.89,184.83,346.31,181.61,343.07Z" style="fill:#fff"/><path d="M198.9,388.78c-.91-17.32-.21-19.49,6.57-25.21s16.32-15.12,16.32-15.12c-6.5,12.8-6.37,18.61-7.6,28-.94,7.3-12,21.87-16.89,28C198.39,402,199.35,397.38,198.9,388.78Z" style="fill:url(#b)"/><path d="M195,407.4s.91-1.09,2.32-2.87C196.2,407.07,195,407.4,195,407.4Z" style="fill:url(#c)"/><path d="M202.2,380.72c3.38,14.39-3.81,24.06-3.81,24.06H191.3c0-5-.34-9.72-2.68-14.53a5.64,5.64,0,0,0-.44-.71c1-.47,2.11-.94,3.35-1.41C204.62,383.13,198.82,366.33,202.2,380.72Z" style="fill:#009bae"/><path d="M183.82,384.34c7.19,3.62,5.11,19.13,5.11,19.13l-6.76,2.41s1.21-7.06-3.38-12.58-7.63-3.4-7.63-3.4S176.62,380.72,183.82,384.34Z" style="fill:#009bae"/><path d="M218.32,377a27,27,0,0,1,18.84,7.24s-4.7-2.37-13.12-2.07-7.8,7.42-14.56,14.05-12.4,7.58-12.4,7.58,9-12.87,15.52-21.63C213.75,380.65,212.63,377,218.32,377Z" style="fill:#009bae"/><path d="M239.5,386.72a1,1,0,0,1,.06.2Z" style="fill:#faf9fc"/><path d="M208.53,384.77c2.25-3-.09-10.43,14.3-8.7,13.15,1.57,16.24,9.32,16.67,10.65-.33-.85-2.43-4.36-15.11-7.21-14.57-3.27-6.85,4.23-13.44,9s-12,13.61-12,13.61-3.73,6.2-2.86,1S206.27,387.79,208.53,384.77Z" style="fill:url(#d)"/><path d="M163.88,391.23c6.59-13.35,14.55-12.48,19.85-9.56,7.52,4.14,6.28,21.45,6.28,21.45l-1.08.35s-.17-3.36-.75-9.14-3.41-14-12.6-2.58a39.2,39.2,0,0,1-22.19,13.43S157.29,404.59,163.88,391.23Z" style="fill:url(#e)"/><path d="M181.3,374.61a5.68,5.68,0,0,1,5.79-.58,7,7,0,0,0,6.26-.57c6.93-4.17,7.46,1.56,7.46,1.56l-.19,1.55a.07.07,0,0,0,0,.05,14.28,14.28,0,0,1-9.07,11.51c-1.24.48-12.14,5.17-12.14,5.17C180.87,387.35,177.06,377.71,181.3,374.61Z" style="fill:url(#f)"/><polygon points="201.11 451.03 186.38 451.03 180.26 402 207.22 402 201.11 451.03" style="fill:url(#g)"/><path d="M206.15,410.59a7.76,7.76,0,0,0-2.08-.31c-10.67,0-14.74,38.16-14,40.75h-3.71l-6.12-49h27Z" style="mix-blend-mode:multiply;fill:url(#h)"/><rect x="177.63" y="402" width="32.22" height="3.88" style="fill:url(#i)"/><path d="M27,276.23c-.87,8-11.68,36.33-9.58,43.28s-1.26,8.33.45,11.62-1,3.71-2.15,2.42a7.89,7.89,0,0,1-1.68-4.79,49.46,49.46,0,0,1-3.38,5.74s2.6,5.45.54,6.13-2.75,0-3.53-2.82-1.88-1.58-1.76-3.5c0,0-2.44-.75-3-2.81a3.45,3.45,0,0,1-2.4-.26c-.8-.62.06-4.19-.45-5.65s1.57-2.26,2.8-5.4,4.24-3.06,5.21-6.37-.7-30.67-.2-42.83S28.15,266.18,27,276.23Z" style="fill:url(#j)"/><path d="M36.89,214.81s-9.15,1.52-17.49,20.37A364.69,364.69,0,0,0,6,270.2c5.24,5.08,14.81,14.21,23.62,11.93,0,0,3-42.7,5.93-57.08C36,222.79,36.89,214.81,36.89,214.81Z" style="fill:url(#k)"/><path d="M38.49,414s1.41,12.05.2,18.47,1.48,13.75,7.69,10.4,8.14-10.35,8-12.17,1.1-20.05,1.1-20.05S38,410.79,38.49,414Z" style="fill:url(#l)"/><path d="M19.35,304.12C17.79,309.28,37,419.77,37,419.77c1.13,6.56,21.42,7.26,20.82-1.2,0,0-2.32-39.14-2.8-44.05s.14-46.64-.18-55.43C54.2,300.68,26.58,280.16,19.35,304.12Z" style="fill:#3531a1"/><path d="M32.91,426.09s3.21,6.86,2.3,11.2S30,442,29.54,445c-.54,3.51.61,4.69.61,4.69s6.31,2.59,17,.67c6.21-1.12,3.23-4.33,7.8-7s-2.32-9.94.54-15.76l-6.11,4.65s-1.15-4.62-3.64-6.08C41.34,423.58,34.31,423.78,32.91,426.09Z" style="fill:#1d1273"/><path d="M55.59,440.52c-4.68,2.53-1.62,4.6-8,5.65-11,1.82-17.43-.63-17.43-.63s-.36-.07-.59-.67c0,0,0,.07,0,.12-.54,3.51.61,4.69.61,4.69s6.31,2.59,17,.67c6.21-1.12,3.23-4.33,7.8-7a3.35,3.35,0,0,0,1.57-3.58A3.27,3.27,0,0,1,55.59,440.52Z" style="fill:#fff"/><path d="M56.42,420.6c0-.26-2.91-26.53-4.76-39.07s-1-51.24-1-51.64l.5,0c0,.38-.83,39,1,51.55s4.74,38.83,4.77,39.09Z" style="fill:#1d1273"/><path d="M53.36,422.76c0-.27-3-27.52-4.92-40.53s-1.06-53.16-1-53.56h.5c0,.4-.86,40.49,1,53.48s4.89,40.27,4.92,40.55Z" style="fill:#1d1273"/><path d="M50.2,424.2c0-.26-2.82-25.81-4.67-38.35S42.6,330.38,42.59,330h.5c0,.43,1.09,43.31,2.94,55.84s4.64,38.11,4.67,38.36Z" style="fill:#1d1273"/><path d="M47,424.34c0-.24-2.68-23.8-4.53-36.34s-3.31-59.1-3.32-59.57l.5,0c0,.47,1.46,47,3.31,59.52s4.51,36.12,4.54,36.35Z" style="fill:#1d1273"/><path d="M43.41,423.5c0-.21-2.16-20.8-4-33.34s-5.7-60.85-5.74-61.34l.5,0c0,.49,3.89,48.78,5.74,61.31s4,33.15,4,33.36Z" style="fill:#1d1273"/><path d="M40.3,422.21c0-.17-2.11-17.35-4-29.89s-6.84-64-6.9-64.51l.5-.05c0,.52,5,51.95,6.9,64.49s3.93,29.73,3.95,29.9Z" style="fill:#1d1273"/><path d="M38.13,420.07c-.05-.29-5.17-29.08-7-41.62s-6.34-50.63-6.39-51l.5-.05c0,.38,4.53,38.46,6.38,51s7,41.32,7,41.61Z" style="fill:#1d1273"/><path d="M51.32,404.47S38.67,408.88,33.79,414s-11.36,9.3-12,1.62,5.88-15.75,7.53-16.81,7.23-2.61,9.05-3.46S46,392.13,46,392.13,54.37,402.89,51.32,404.47Z" style="fill:url(#m)"/><path d="M34.1,395.71s-1.5,4.47-.4,7.52-6.49,1.8-9,8.69c0,0,1.52-1.36,5.64-1S43,414.5,42,416.42s-6.43-3.17-9.35,1.28-5,9.84-2.56,16-.41,10.11-4.05,9.49S12.49,437.68,13,424s1.37-19.85,4.2-22.57,8.14-3.3,9.79-3.73S34.1,395.71,34.1,395.71Z" style="fill:#1d1273"/><path d="M17.19,401.43a11.44,11.44,0,0,1,4.08-2.32,10.76,10.76,0,0,0-1,.79c-2.82,2.73-3.77,8.82-4.51,22.31s8.87,18.19,12.42,18.73a4.08,4.08,0,0,0,2.31-.32,4,4,0,0,1-4.5,2.61c-3.64-.61-13.53-5.55-13-19.23S14.36,404.15,17.19,401.43Z" style="fill:#fff"/><path d="M87.37,313.79c6.34,12.82,13.4,50.25,14.91,68.76.44,5.3-6.11,11.57-19.08,14.12s-34.48,11.07-34.48,11.07a16.19,16.19,0,0,1-6.78-16.15s8.33-3.62,10.54-5.73S67,373,71.52,373s-16-33.23-24-48.43S74.76,288.27,87.37,313.79Z" style="fill:#3531a1"/><path d="M42,394.89l-.22-.44a30.49,30.49,0,0,0,7.83-5.31,90.59,90.59,0,0,1,11-8.27,48.91,48.91,0,0,1,11-5.56c3.17-1.17,3.74-1.39,3.24-5.31-1-7.46-21.5-41.53-21.71-41.87l.43-.26c.85,1.4,20.81,34.5,21.77,42.07.56,4.31-.32,4.64-3.56,5.84a48.28,48.28,0,0,0-10.84,5.5A89.28,89.28,0,0,0,50,389.52,31.17,31.17,0,0,1,42,394.89Z" style="fill:#1d1273"/><path d="M42.42,397.22l-.22-.44c4.19-2.09,4.66-2.47,6-3.58a100.75,100.75,0,0,1,9.05-6.45A110.77,110.77,0,0,1,68,380.63c6.09-3.17,9.45-4.92,8.87-9.46-1-7.48-17.85-42.79-18-43.15l.45-.21c.7,1.45,17.1,35.73,18.06,43.3.63,4.88-3,6.79-9.13,10a111.54,111.54,0,0,0-10.63,6.09,101.58,101.58,0,0,0-9,6.42C47.14,394.73,46.67,395.11,42.42,397.22Z" style="fill:#1d1273"/><path d="M43,399.76l-.22-.45c1.81-.89,2.93-1.42,3.74-1.8,2-1,2-1,6-3.59l5.47-3.62c3.25-2.14,6.38-4,9.15-5.6,8.06-4.72,13.38-7.83,12.74-12.86-1-7.49-14.41-43.1-14.54-43.46l.47-.17c.55,1.46,13.6,36,14.56,43.57.69,5.35-5,8.7-13,13.35-2.76,1.62-5.89,3.45-9.13,5.58l-5.46,3.62c-4,2.65-4,2.65-6,3.63C45.87,398.34,44.76,398.86,43,399.76Z" style="fill:#1d1273"/><path d="M44.08,402.21l-.22-.44c1.23-.62,2.12-1,2.8-1.38a17.83,17.83,0,0,0,3.61-2.1c1.23-.85,3.27-2.29,7.82-5.28a124.58,124.58,0,0,1,12.4-6.95C78,382.23,84,379.21,83.38,374.72c-1-7.5-11.75-46.1-11.86-46.49l.48-.13c.11.39,10.92,39,11.88,46.56.62,4.83-5.47,7.93-13.16,11.85a124.35,124.35,0,0,0-12.36,6.91c-4.54,3-6.58,4.42-7.8,5.28a18.24,18.24,0,0,1-3.68,2.14C46.2,401.16,45.31,401.6,44.08,402.21Z" style="fill:#1d1273"/><path d="M45.47,404.12l-.19-.46,3-1.25a18.47,18.47,0,0,0,3.91-2c1.33-.82,3.56-2.2,8.5-5.05C64.81,393,69.13,391,73,389.17c8.91-4.19,16-7.51,15.71-12.61-.39-8.09-10.15-50.07-10.25-50.49l.49-.12c.09.43,9.87,42.45,10.26,50.59.26,5.43-6.92,8.81-16,13.08-3.8,1.79-8.11,3.82-12.22,6.2-4.93,2.85-7.16,4.22-8.49,5.05a19.38,19.38,0,0,1-4,2Z" style="fill:#1d1273"/><path d="M46.47,405.1l-.13-.48,3.13-.88a17.89,17.89,0,0,0,4.12-1.46c1.43-.66,3.81-1.75,9.07-4,3.09-1.3,6.31-2.55,9.43-3.75,11.29-4.36,22-8.48,22.4-14.26.62-8.06-8.46-54.27-8.55-54.74l.49-.1c.37,1.91,9.18,46.75,8.56,54.88-.47,6.09-11.28,10.26-22.72,14.68-3.11,1.2-6.33,2.45-9.42,3.75-5.25,2.23-7.63,3.32-9.05,4a19.1,19.1,0,0,1-4.2,1.49Z" style="fill:#1d1273"/><path d="M85.67,214.74c5.56,7.7,8.46,23.38,7.92,41.87s-.51,65.69.25,69.34c0,0-25.82,4.18-36.76,4.06-9.27-.11-27.19-3.33-39.66-2.88,0-15.59,8.72-101.21,13.61-108.84S81.36,208.76,85.67,214.74Z" style="fill:url(#n)"/><path d="M43.07,238.5l-12.3.79a2.12,2.12,0,0,0-2.06,2.5l4.45,25.29a2.7,2.7,0,0,0,2.63,2l11.3.18a2,2,0,0,0,2.21-2l-3.25-26.45A2.8,2.8,0,0,0,43.07,238.5Z" style="fill:url(#o)"/><path d="M46.33,244.47H46l.39,3.18h.29a.4.4,0,0,0,.41-.42l-.29-2.37A.48.48,0,0,0,46.33,244.47Z" style="fill:url(#p)"/><path d="M42.61,238.53l-12.27.78a2.12,2.12,0,0,0-2.06,2.5l4.48,25.27a2.72,2.72,0,0,0,2.63,2l11.28.17c1.35,0,2.34-.88,2.19-2l-3.28-26.42A2.78,2.78,0,0,0,42.61,238.53Z" style="fill:#fff"/><path d="M46,244.48l.39,3.18c.13,0,.23-.07.22-.15l-.35-2.89C46.29,244.54,46.17,244.48,46,244.48Z" style="fill:#fff"/><path d="M31.62,241.63a1.5,1.5,0,1,1-.75,1.89A1.45,1.45,0,0,1,31.62,241.63Z" style="fill:#3531a1"/><path d="M98.25,266.54c-8.25-1.05-34.9-2.25-39.64-8s-6.85-5.66-8.68-9-3.76-1.28-3.33.43,1.32,5.8,2.12,6.12a51.41,51.41,0,0,0-6.87-.45s-3.19-5.34-5-4-1.56,2.34.39,4.62.28,2.51,2,3.51c0,0-.76,2.5.67,4.18,0,0-1.24,1.15-1.16,2.18s3.63,2.36,4.59,3.64,2.84,0,6.25.73,5.07-1.83,8.47-.74,24,12.76,36.4,15.19S108.63,267.86,98.25,266.54Z" style="fill:url(#q)"/><path d="M83.13,213.13s12.39,4.36,20.34,23.39c7.75,18.54,1.53,51.38,1.53,51.38-9.06,0-16-15.5-18.48-23,0,0-.89-27.75-3.83-42.13C82.23,220.53,83.13,213.13,83.13,213.13Z" style="fill:url(#r)"/><path d="M101.23,285.66l-1-.25c7.53-27.86-5-53.74-10.43-61.36-6.11-8.53-20.35-11.25-20.5-11.28l.19-1c.6.11,14.78,2.83,21.12,11.69C96.17,231.2,108.86,257.44,101.23,285.66Z" style="fill:#fff"/><path d="M67.89,195.36s.43,13.23,2.23,15.81-12.19,8.05-12.19,8.05-8.16-5.19-6.68-7.28a7,7,0,0,0,.61-5.73C49.76,198.64,67.89,195.36,67.89,195.36Z" style="fill:url(#s)"/><path d="M42.9,180.54a44.16,44.16,0,0,0-.12,8.81c.3,2.52-.92,10.6.27,13.42s3,6.74,11,5,11.33-5.68,13.34-11.61,2.39-12.25,1.65-13.88-3.12-8.67-11.83-8.67C49.09,173.57,43.41,176,42.9,180.54Z" style="fill:url(#t)"/><path d="M43.45,174s4-8.34,12.22-8.34,10.91,5.63,10.91,5.63c6.2-2,5.48,4.26,8.62,5.3,5.59,1.85,4,6.82,1.36,8.49,0,0,2.85,9.32-4,13.69s-4.94-6.69-5.76-11.86c-.72-4.49-2.23-5.63-4.73-5.63-1.07-1.93-3.54-5.17-10.61-1.9-7.57,3.5-9.38,4.28-12.27,2.53S36.64,175,43.45,174Z" style="fill:#1d1273"/><path d="M47.74,190.89a19,19,0,0,1-2.41,3.91,2.5,2.5,0,0,0,2.46.87Z" style="fill:#e26c6c"/><path d="M57.8,187.62a.79.79,0,0,1-.44-.14,6.11,6.11,0,0,0-4.11-.56.8.8,0,1,1-.26-1.57,7.64,7.64,0,0,1,5.26.81.8.8,0,0,1,.21,1.11A.78.78,0,0,1,57.8,187.62Z" style="fill:#0d0848"/><path d="M46.1,186.55a.81.81,0,0,1-.53-.2,2.63,2.63,0,0,0-2.47-.22.8.8,0,0,1-.48-1.52,4.13,4.13,0,0,1,4,.56.79.79,0,0,1,0,1.12A.82.82,0,0,1,46.1,186.55Z" style="fill:#0d0848"/><path d="M46,198.77a18.18,18.18,0,0,1,.44,3.32l.75.11c3.4.47,5.11-.17,6-1A2.76,2.76,0,0,0,54,199.7a2.55,2.55,0,0,0,0-.92c-1.93.58-5.13.32-6.83.13C46.46,198.84,46,198.77,46,198.77Z" style="fill:#0d0848"/><path d="M46.5,198.86l.64,1.58A12,12,0,0,0,54,199.7a2.55,2.55,0,0,0,0-.92C52.07,199.36,48.2,199.05,46.5,198.86Z" style="fill:#fff"/><path d="M47.2,202.2c3.4.47,5.11-.17,6-1a13.85,13.85,0,0,0-3.85.05A4.11,4.11,0,0,0,47.2,202.2Z" style="fill:#e26c6c"/><path d="M56,191.28a2.75,2.75,0,0,0-1.64-.5,3,3,0,0,0-.62.06,1.46,1.46,0,0,1-.22-.9A1.56,1.56,0,1,1,56,191.28Z" style="fill:#0d0848"/><path d="M45.57,190.07a2.74,2.74,0,0,0-1.64-.51,3,3,0,0,0-.62.06,1.46,1.46,0,0,1-.22-.9,1.56,1.56,0,1,1,2.48,1.35Z" style="fill:#0d0848"/><path d="M66.5,189.38c.57-.7,3.74-2.13,4.13.24a6.67,6.67,0,0,1-3.1,7.09C64.52,198.43,65.25,190.91,66.5,189.38Z" style="fill:url(#u)"/><path d="M279.24,341.7,286,409.61l1.68,17,.85,8.49c.13,1.43.3,2.79.4,4.28a10.75,10.75,0,0,1-.7,4.52,11,11,0,0,1-6.39,6.32,10.09,10.09,0,0,1-2.24.57,13.54,13.54,0,0,1-2.26.13H273l-17.17,0H234.42a16.24,16.24,0,0,1-2.27-.12,11.06,11.06,0,0,1-8.72-6.87,10.89,10.89,0,0,1-.74-4.55c.1-1.49.25-2.85.37-4.28l.78-8.5,1.55-17,6.22-68a1,1,0,0,1,2,.18h0l-6.35,67.95-1.59,17-.79,8.49c-.12,1.4-.29,2.87-.37,4.21a9,9,0,0,0,.61,3.81,9.24,9.24,0,0,0,5.4,5.29,8.89,8.89,0,0,0,1.89.48,14.46,14.46,0,0,0,2,.1h21.45l17.17,0h4.29a12.9,12.9,0,0,0,2-.11,8.84,8.84,0,0,0,1.9-.49,9.21,9.21,0,0,0,6-9.18c-.09-1.35-.27-2.81-.39-4.21l-.83-8.49-1.65-17-6.61-67.93a.73.73,0,0,1,1.45-.14Z" style="fill:#1d1273"/><path d="M319.06,451.06H274.8a11.23,11.23,0,0,1-8.24-3.61A11.08,11.08,0,0,1,263.7,439l9-97.29a1,1,0,0,1,1.09-.9,1,1,0,0,1,.9,1.09l-9,97.28a9.1,9.1,0,0,0,2.35,7,9.2,9.2,0,0,0,6.76,3h44.26a9.19,9.19,0,0,0,6.77-3,9.07,9.07,0,0,0,2.33-7l-9.56-97.23a1,1,0,0,1,2-.19l9.56,97.22a11.06,11.06,0,0,1-2.83,8.52A11.21,11.21,0,0,1,319.06,451.06Z" style="fill:#1d1273"/><path d="M330.38,350.82l-1.19-8a5.52,5.52,0,0,0-5.47-4.68H218.11a1.82,1.82,0,0,0-1.82,1.81h0a1.82,1.82,0,0,0,1.82,1.8H264.4a4,4,0,0,1,3.93,3.3l1,5.75Z" style="fill:url(#v)"/><path d="M299.53,295.77c6.21,2.68,29.69,13.31,32.08,18.91s5.31,4.69,6,7.72,2.65,1.85,2.7.42a6.67,6.67,0,0,0-1.51-4,52.1,52.1,0,0,0,6.13,2.31s2,6.09,3.73,5.63c.95-.25.14-3.28-.87-5.5s.36-2-.76-3.19a4,4,0,0,0,.43-3.42s1.13-1.12.72-1.86c-.55-1-4.5-3.2-7-4.57s-4.19-.6-6.6-2.22-22.05-19.79-31.17-24.47S291.71,292.39,299.53,295.77Z" style="fill:url(#w)"/><path d="M294.47,238.72c-10.28,3.11-6.63,40.38-3.62,50.77s21.11,3.79,19-9.24c-.64-4-2.76-27.2-5.36-33.76C301.73,239.39,296.73,238,294.47,238.72Z" style="fill:#3531a1"/><path d="M375.88,370.34c.24-1-9.54-10.16-9.54-10.16l11.83-10.51s6.51,12.28,8.8,15.87c1.26,2,11.23,11.07,16,10.34a11.8,11.8,0,0,1-12.37.39c-9-4.78-11.61-.34-14.83-2C375.22,374,375.61,371.5,375.88,370.34Z" style="fill:url(#x)"/><path d="M379.29,370.42c4.06,2.95,6.19-3,7.28-4.58s2.83-1.38,4.18-.76c1,.49,11.87,4.93,16.61,6.43a17.29,17.29,0,0,0,4.89.83l1.86.05c2.7.07,6.45.3,6.82,2.95a0,0,0,0,1,0,0h0c-.22.3-2.42,7.83-22.9,7.59-4.76-.05-9.18-2.52-11.62-2.44l-8.64.91-1.5.2-1.41-10.8S375.22,367.47,379.29,370.42Z" style="fill:#fff"/><path d="M377.29,377.2l5-.45A38.14,38.14,0,0,1,396,378c3.24.91,9.8,1.11,14.71.67a21.33,21.33,0,0,0,10.19-3.59c0,.09,0,.16,0,.25a0,0,0,0,1,0,0h0c-.22.3-2.42,7.83-22.9,7.59-4.76-.05-9.18-2.52-11.62-2.44l-8.64.91-1.5.2-.36-2.75A1.51,1.51,0,0,1,377.29,377.2Z" style="fill:#1d1273"/><path d="M379.4,371.72c4.07,2.94,6.19-3,7.29-4.58s2.83-1.38,4.18-.76l1,.45.78-.93c3.57,1.48,11,4.44,14.67,5.62a17.64,17.64,0,0,0,4.89.82l1.86.05c2.12.06,5.69,0,6.4,1.49l-.87.08-14.16,1.67a14.79,14.79,0,0,1-7.61-1.36,14.94,14.94,0,0,0-3.72-1.19,14.54,14.54,0,0,0-3.9-.17l-14.95,1.33L375,372C375.15,371.32,375.91,369.18,379.4,371.72Z" style="fill:#3531a1"/><path d="M393.84,366.38c3.84,1.56,10.18,4.08,13.52,5.14a19,19,0,0,0,2.34.57l0,0a5.42,5.42,0,0,1-5.84,1.65l-9.2-3a2.49,2.49,0,0,1-1.14-4Z" style="fill:#1d1273"/><path d="M394.67,368.07a.9.9,0,0,1,.16,1.79.9.9,0,1,1-.16-1.79Z" style="fill:url(#y)"/><path d="M397.61,369.28a.91.91,0,0,1,1,.81.9.9,0,0,1-1.8.16A.9.9,0,0,1,397.61,369.28Z" style="fill:url(#z)"/><path d="M400.55,370.49a.89.89,0,1,1-.82,1A.91.91,0,0,1,400.55,370.49Z" style="fill:url(#aa)"/><path d="M403.49,371.7a.89.89,0,1,1,.16,1.78.89.89,0,0,1-.16-1.78Z" style="fill:url(#ab)"/><path d="M376.44,370.52a.77.77,0,0,1,.78,1.05,4.51,4.51,0,0,0-.27,1.78.77.77,0,0,1-.71.81l-.94.08L375,372A1.73,1.73,0,0,1,376.44,370.52Z" style="fill:url(#ac)"/><path d="M376,379.64c3.72-.8,5.74.81,10.52.39,4.43-.4,10.5,1.11,13.05,1.09,20-.17,21.36-5.75,21.36-5.75a6.18,6.18,0,0,1-2.81,5.17s-1,1-1.5.71c0,0,.16.55-.8.95,0,0-.86.28-1.17-.31,0,0,0,1.08-1.64,1.54,0,0-2.87,1.09-3.28,0a1.61,1.61,0,0,1-1.61,1.23s-2.91.72-3.15-.24l-.14-.4a2,2,0,0,1-2,1.22s-3.37.19-3.63-.93a13.24,13.24,0,0,0-3.48.1,7.41,7.41,0,0,1-4.35,1.48s-1.19.11-1.38-.81c0,0-.37,1.12-2.49,1.21,0,0-2.72.55-3.16-.91,0,0-.54,1.34-1.44,1.42-1.69.15-6.7.88-6.75-1.79C376.15,383.66,375.11,383.1,376,379.64Z" style="fill:url(#ad)"/><path d="M415.85,382.19h-.05a.45.45,0,0,0,0-.08A.21.21,0,0,0,415.85,382.19Z" style="fill:#fff"/><path d="M379,383.47l6.74-1a.37.37,0,0,1,.41.34l.06.63a.36.36,0,0,1-.34.4l-4.64.42a.37.37,0,0,1-.4-.34l-2.17,0A.37.37,0,0,1,379,383.47Z" style="fill:#fff"/><path d="M379.44,383.49l6.34-1a.33.33,0,0,1,.37.3l.05.58a.34.34,0,0,1-.3.37l-4.23.38a.34.34,0,0,1-.37-.31l-2.16,0A.34.34,0,0,1,379.44,383.49Z" style="fill:#1d1273"/><path d="M395.62,366.31a.74.74,0,0,1,1.24.81l-1.5,2.27a.73.73,0,0,1-.56.32.72.72,0,0,1-.47-.11.73.73,0,0,1-.21-1Z" style="fill:url(#ae)"/><path d="M398.56,367.49a.75.75,0,0,1,1-.21.73.73,0,0,1,.21,1l-1.5,2.26a.74.74,0,0,1-.55.33.7.7,0,0,1-.48-.12.73.73,0,0,1-.21-1Z" style="fill:url(#af)"/><path d="M401.51,368.68a.75.75,0,0,1,1-.21.74.74,0,0,1,.21,1l-1.51,2.27a.75.75,0,0,1-.55.33.79.79,0,0,1-.47-.12.72.72,0,0,1-.21-1Z" style="fill:url(#ag)"/><path d="M404.45,369.87a.74.74,0,0,1,1-.21.73.73,0,0,1,.21,1l-1.5,2.27a.76.76,0,0,1-.56.32.73.73,0,0,1-.47-.11.74.74,0,0,1-.21-1Z" style="fill:url(#ah)"/><path d="M381.25,354.28s-9.7,18-24.45,18l-26.71-55.6s-44.74,34-66.47,19.11c-17.19-11.77-5.43-42.17-5.43-42.17,16.66,1.81,42.19-3.2,42.19-3.2.65,1.29-.92,4.63-.92,4.63s32.6-8.43,46.14-1.8C359.36,300,381.25,354.28,381.25,354.28Z" style="fill:url(#ai)"/><polygon points="367.37 368.22 345.34 325.5 348.01 324.14 370.04 366.86 367.37 368.22" style="fill:#fff"/><polygon points="362.7 371.47 340.67 328.75 343.34 327.39 365.37 370.11 362.7 371.47" style="fill:#fff"/><path d="M319.4,403.72c.5-.9.35-19.09.35-19.09l15.87.46s-5.12,16.24-3.91,20.31c.67,2.24,7.43,10.42,12.2,11a11.78,11.78,0,0,1-12-3c-7.35-7.05-11.08-3.49-13.71-6C317.77,407,318.82,404.76,319.4,403.72Z" style="fill:url(#aj)"/><path d="M330.19,311s16.14,1.74,17.84,12.11-2.17,70.51-2.17,70.51c-9.53,3.35-27.39-3.22-27.39-3.22a432.49,432.49,0,0,1,.76-61.37c-5.74,3.31-18.37,5.33-22.12,6.19C314.38,326.68,330.19,311,330.19,311Z" style="fill:url(#ak)"/><path d="M322.65,404.72c3.1,3.95,6.78-1.21,8.27-2.41s3.1-.57,4.23.41c.86.74,10.05,8,14.19,10.7a17.88,17.88,0,0,0,4.48,2.13l1.77.55c2.58.8,6.12,2,5.75,4.69,0,0,0,0,0,0h0c-.29.23-4.48,6.87-24.11,1.07-4.56-1.35-8.13-4.92-10.5-5.51l-8.56-1.48-1.5-.21,1.62-10.78S319.55,400.78,322.65,404.72Z" style="fill:#fff"/><path d="M318.86,410.7l4.89.92a38.15,38.15,0,0,1,12.87,4.95c2.87,1.76,9.12,3.74,14,4.65a21.42,21.42,0,0,0,10.79-.67l0,.24s0,0,0,0h0c-.29.23-4.48,6.87-24.11,1.07-4.56-1.35-8.13-4.92-10.5-5.51l-8.56-1.48-1.5-.21.41-2.75A1.53,1.53,0,0,1,318.86,410.7Z" style="fill:#1d1273"/><path d="M322.4,406c3.1,3.95,6.79-1.21,8.27-2.41s3.1-.57,4.23.4l.88.72,1-.68c3,2.39,9.33,7.25,12.56,9.39a17.88,17.88,0,0,0,4.48,2.13l1.77.55c2,.63,5.48,1.53,5.75,3.18l-.86-.17-14.08-2.24a14.77,14.77,0,0,1-6.95-3.39,14.6,14.6,0,0,0-3.24-2.15,15,15,0,0,0-3.71-1.23l-14.74-2.78.34-2.27C318.42,404.46,319.74,402.61,322.4,406Z" style="fill:#3531a1"/><path d="M337.76,404.8c3.26,2.55,8.67,6.69,11.58,8.62a18,18,0,0,0,2.1,1.19l0,0a5.43,5.43,0,0,1-6.08,0l-8-5.4a2.48,2.48,0,0,1,0-4.12Z" style="fill:#1d1273"/><path d="M338.09,406.66a.89.89,0,0,1,.71,1,.88.88,0,0,1-1.05.71.89.89,0,1,1,.34-1.75Z" style="fill:url(#al)"/><path d="M340.58,408.62a.89.89,0,0,1,.72,1,.91.91,0,0,1-1.06.72.9.9,0,1,1,.34-1.76Z" style="fill:url(#am)"/><path d="M343.08,410.58a.88.88,0,0,1,.71,1.05.9.9,0,0,1-1.05.71.88.88,0,0,1-.71-1A.9.9,0,0,1,343.08,410.58Z" style="fill:url(#an)"/><path d="M345.57,412.55a.89.89,0,0,1,.72,1,.88.88,0,0,1-1.05.71.89.89,0,1,1,.33-1.75Z" style="fill:url(#ao)"/><path d="M319.88,404a.77.77,0,0,1,.47,1.23,4.39,4.39,0,0,0-.76,1.64.78.78,0,0,1-.9.58l-.93-.17.34-2.27A1.73,1.73,0,0,1,319.88,404Z" style="fill:url(#ap)"/><path d="M317,412.7c3.8.24,5.3,2.34,10,3.23,4.38.83,9.8,3.94,12.25,4.61,19.3,5.29,22.13.29,22.13.29a6.21,6.21,0,0,1-4.12,4.21s-1.25.71-1.64.26c0,0,0,.58-1,.7,0,0-.91,0-1.05-.62,0,0-.25,1.06-2,1.05,0,0-3.07.26-3.16-.92a1.62,1.62,0,0,1-1.89.75s-3-.09-3-1.09l0-.42a2,2,0,0,1-2.24.63s-3.3-.73-3.24-1.88a13,13,0,0,0-3.37-.84,7.46,7.46,0,0,1-4.6.23s-1.17-.22-1.1-1.15c0,0-.66,1-2.73.48,0,0-2.76-.21-2.79-1.74,0,0-.88,1.15-1.77,1-1.67-.32-6.69-1-6-3.56C316,416.61,315.14,415.79,317,412.7Z" style="fill:url(#aq)"/><path d="M354.57,426h-.05l0-.07Z" style="fill:#fff"/><path d="M318.77,417.2l6.77.86a.38.38,0,0,1,.3.44l-.12.62a.38.38,0,0,1-.44.3l-4.57-.87a.36.36,0,0,1-.3-.43l-2.07-.63A.36.36,0,0,1,318.77,417.2Z" style="fill:#fff"/><path d="M319.19,417.34l6.37.79a.33.33,0,0,1,.27.39l-.11.57a.33.33,0,0,1-.4.27l-4.17-.78a.35.35,0,0,1-.27-.4l-2.08-.57A.32.32,0,0,1,319.19,417.34Z" style="fill:#1d1273"/><path d="M339.49,405.22a.75.75,0,0,1,1.05.07.74.74,0,0,1-.08,1l-2.07,1.77a.74.74,0,0,1-.63.17.72.72,0,0,1-.42-.24.73.73,0,0,1,.08-1Z" style="fill:url(#ar)"/><path d="M342,407.16a.74.74,0,0,1,1.05.08.73.73,0,0,1-.08,1l-2.07,1.77a.75.75,0,0,1-.62.16.78.78,0,0,1-.43-.24.74.74,0,0,1,.08-1Z" style="fill:url(#as)"/><path d="M344.5,409.1a.74.74,0,0,1,1,.08.73.73,0,0,1-.07,1L343.4,412a.77.77,0,0,1-.63.17.74.74,0,0,1-.34-1.29Z" style="fill:url(#at)"/><path d="M347,411a.75.75,0,0,1,1.05.08.73.73,0,0,1-.08,1l-2.07,1.77a.72.72,0,0,1-.62.17.74.74,0,0,1-.35-1.28Z" style="fill:url(#au)"/><path d="M264.72,293.7a62.69,62.69,0,0,0-3.54,12.73,36.17,36.17,0,0,0,0,13,18.75,18.75,0,0,0,2.3,6,15.25,15.25,0,0,0,4.37,4.61,14.12,14.12,0,0,0,5.93,2.3,21.83,21.83,0,0,0,6.55-.14A51.37,51.37,0,0,0,293,328c4.1-1.88,8.09-4.05,12.05-6.26s7.89-4.49,11.95-6.56a60.88,60.88,0,0,1,6.21-2.82,19.23,19.23,0,0,1,6.63-1.47,19.14,19.14,0,0,0-6.56,1.64,62.6,62.6,0,0,0-6.11,3c-4,2.17-7.85,4.55-11.75,6.86s-7.85,4.61-11.95,6.63a52.92,52.92,0,0,1-12.94,4.68,23.29,23.29,0,0,1-7,.33,15.79,15.79,0,0,1-6.73-2.42,17.12,17.12,0,0,1-5.06-5A20.61,20.61,0,0,1,259,320a38.33,38.33,0,0,1-.39-13.91,65.26,65.26,0,0,1,3.33-13.46Z" style="fill:#fff"/><path d="M270.31,291.81a56.48,56.48,0,0,0-4.39,12.47,29.87,29.87,0,0,0-.32,13,15.74,15.74,0,0,0,2.61,5.79,14.62,14.62,0,0,0,2.16,2.36,15.47,15.47,0,0,0,1.26,1,8,8,0,0,0,1.32.77,11.33,11.33,0,0,0,6.25.54,32.39,32.39,0,0,0,6.43-1.78c4.23-1.57,8.31-3.59,12.41-5.59s8.18-4,12.4-5.83a58.17,58.17,0,0,1,13.09-4.09,25.36,25.36,0,0,1,6.85-.23,17,17,0,0,1,6.49,2.08,16.71,16.71,0,0,0-6.5-1.9,24.87,24.87,0,0,0-6.78.4,57.7,57.7,0,0,0-12.87,4.39c-4.13,1.88-8.16,4-12.2,6.13s-8.09,4.24-12.37,6a34.51,34.51,0,0,1-6.69,2,13,13,0,0,1-7.22-.49,16.81,16.81,0,0,1-8.76-11,32.2,32.2,0,0,1-.1-14,59,59,0,0,1,4.25-13.3Z" style="fill:#fff"/><path d="M286.82,192.91c-5-3.83-24.5-10.69-29.89,6.26s-2.66,35.62-2.66,35.62,20.65,4.15,38.29-2.29c0,0-1.33-16.79-.5-25.08S290.42,195.64,286.82,192.91Z" style="fill:#1d1273"/><path d="M300.3,291.93c-3,0-34.59,25.36-43.88,23.38-1.45-.3-7-1.53-7-9.27,0-6.9,1.73-60.29,2.66-62.15,1.7-3.39,9.52-5.69,13.26-6.38.52-.1,9-1.33,11.84-1.54,4.89-.38,15.11.12,20,3.42C301.61,242.3,310.2,291.93,300.3,291.93Z" style="fill:#1d1273"/><path d="M298.42,247.64c-.43.62-.8,1.15-1.53,1.15s-1.1-.53-1.53-1.15a2.22,2.22,0,0,0-4.15,0c-.43.62-.8,1.15-1.53,1.15s-1.1-.53-1.53-1.15a2.22,2.22,0,0,0-4.15,0c-.43.62-.8,1.15-1.53,1.15s-1.1-.53-1.53-1.15a2.22,2.22,0,0,0-4.15,0c-.43.62-.8,1.15-1.53,1.15s-1.11-.53-1.54-1.15a2.21,2.21,0,0,0-4.14,0c-.43.62-.81,1.15-1.54,1.15s-1.1-.53-1.53-1.15a2.22,2.22,0,0,0-4.15,0c-.43.62-.8,1.15-1.53,1.15s-1.1-.53-1.53-1.15a2.22,2.22,0,0,0-4.15,0c-.44.62-.81,1.15-1.54,1.15s-1.1-.53-1.53-1.15l-.31-.42v1.12a2.23,2.23,0,0,0,1.84,1.11,2.52,2.52,0,0,0,2.08-1.44c.43-.62.8-1.15,1.53-1.15s1.11.53,1.54,1.15a2.21,2.21,0,0,0,4.14,0c.44-.62.81-1.15,1.54-1.15s1.1.53,1.53,1.15a2.22,2.22,0,0,0,4.15,0c.43-.62.8-1.15,1.53-1.15s1.1.53,1.53,1.15a2.22,2.22,0,0,0,4.15,0c.43-.62.8-1.15,1.53-1.15s1.1.53,1.53,1.15a2.22,2.22,0,0,0,4.15,0c.43-.62.8-1.15,1.53-1.15s1.1.53,1.53,1.15a2.22,2.22,0,0,0,4.15,0c.43-.62.8-1.15,1.53-1.15s1.1.53,1.54,1.15a2.21,2.21,0,0,0,4.14,0c.43-.62.81-1.15,1.53-1.15v-.65A2.53,2.53,0,0,0,298.42,247.64Z" style="fill:url(#av)"/><path d="M301.65,261.55c-.46.62-.85,1.16-1.64,1.16s-1.19-.54-1.65-1.16a2.37,2.37,0,0,0-4.35,0c-.46.62-.86,1.16-1.65,1.16s-1.18-.54-1.64-1.16a2.68,2.68,0,0,0-2.18-1.43,2.65,2.65,0,0,0-2.17,1.43c-.46.62-.86,1.16-1.65,1.16s-1.18-.54-1.64-1.16a2.38,2.38,0,0,0-4.36,0c-.46.62-.85,1.16-1.64,1.16s-1.19-.54-1.65-1.16a2.37,2.37,0,0,0-4.35,0c-.46.62-.86,1.16-1.65,1.16s-1.19-.54-1.65-1.16a2.65,2.65,0,0,0-2.17-1.43,2.68,2.68,0,0,0-2.18,1.43c-.46.62-.86,1.16-1.65,1.16s-1.18-.54-1.64-1.16a2.38,2.38,0,0,0-4.36,0c-.46.62-.86,1.16-1.65,1.16s-1.19-.54-1.65-1.16a3.23,3.23,0,0,0-1.5-1.32V261a3,3,0,0,1,1,1,2.38,2.38,0,0,0,4.36,0c.46-.63.86-1.16,1.65-1.16s1.19.53,1.65,1.16a2.38,2.38,0,0,0,4.35,0c.46-.63.86-1.16,1.65-1.16s1.18.53,1.64,1.16a2.38,2.38,0,0,0,4.36,0c.46-.63.85-1.16,1.64-1.16s1.19.53,1.65,1.16a2.38,2.38,0,0,0,4.35,0c.46-.63.86-1.16,1.65-1.16s1.19.53,1.64,1.16a2.38,2.38,0,0,0,4.36,0c.46-.63.85-1.16,1.64-1.16s1.19.53,1.65,1.16a2.38,2.38,0,0,0,4.35,0c.46-.63.86-1.16,1.65-1.16s1.18.53,1.64,1.16a2.38,2.38,0,0,0,4.36,0c.46-.63.85-1.16,1.64-1.16v-.66A2.68,2.68,0,0,0,301.65,261.55Z" style="fill:url(#aw)"/><path d="M255.35,281.79a1.84,1.84,0,0,0,.39,0c1.11-.19,1.53-1,1.9-1.78s.64-1.29,1.42-1.42,1.26.32,1.82.86a2.73,2.73,0,0,0,2.4,1,2.68,2.68,0,0,0,1.89-1.78c.35-.69.65-1.29,1.42-1.43s1.27.33,1.83.86a2.66,2.66,0,0,0,2.39,1c1.1-.19,1.52-1,1.89-1.78s.65-1.29,1.42-1.42,1.27.32,1.83.86a2.68,2.68,0,0,0,2.39,1c1.1-.19,1.52-1,1.89-1.78s.65-1.29,1.42-1.43,1.27.33,1.83.86a2.36,2.36,0,0,0,4.28-.75c.35-.69.64-1.28,1.42-1.42s1.26.32,1.82.86a2.7,2.7,0,0,0,2.4,1c1.1-.19,1.52-1,1.89-1.78s.64-1.29,1.42-1.42,1.26.32,1.82.85a2.37,2.37,0,0,0,4.29-.74c.35-.7.64-1.29,1.42-1.43l-.11-.64c-1.11.19-1.53,1-1.9,1.78s-.64,1.29-1.42,1.42-1.26-.32-1.82-.86a2.69,2.69,0,0,0-2.39-1c-1.11.19-1.53,1-1.9,1.78s-.64,1.29-1.42,1.43-1.26-.33-1.82-.86a2.64,2.64,0,0,0-2.39-1c-1.11.19-1.53,1-1.9,1.78s-.64,1.28-1.42,1.42-1.26-.33-1.82-.86a2.68,2.68,0,0,0-2.39-1c-1.1.19-1.52,1-1.9,1.78s-.64,1.29-1.41,1.42-1.27-.32-1.83-.86a2.71,2.71,0,0,0-2.39-1,2.67,2.67,0,0,0-1.9,1.78c-.34.7-.64,1.29-1.42,1.43s-1.26-.33-1.82-.86a2.68,2.68,0,0,0-2.39-1c-1.11.19-1.53,1-1.9,1.78s-.64,1.29-1.42,1.42-1.26-.32-1.82-.86a2.38,2.38,0,0,0-4.29.75c-.35.69-.65,1.29-1.42,1.43s-1.27-.33-1.83-.86a2.68,2.68,0,0,0-2.39-1l.11.64c.78-.14,1.26.33,1.83.86A2.88,2.88,0,0,0,255.35,281.79Z" style="fill:url(#ax)"/><path d="M254.16,302.74a1.86,1.86,0,0,0,.68-.13c1.17-.44,1.35-1.67,1.51-2.75s.29-1.93,1.1-2.24,1.5.27,2.32.94,1.8,1.49,3,1.05,1.35-1.68,1.51-2.76.28-1.93,1.09-2.24,1.51.28,2.32.94,1.81,1.5,3,1.05,1.35-1.67,1.51-2.75.29-1.93,1.1-2.24,1.5.27,2.31.94,1.81,1.49,3,1.05,1.35-1.67,1.51-2.76.28-1.93,1.09-2.23,1.51.27,2.32.94,1.81,1.49,3,1.05,1.35-1.68,1.51-2.76.28-1.93,1.09-2.24,1.51.28,2.32.94,1.8,1.5,3,1,1.35-1.67,1.51-2.75.29-1.93,1.09-2.24,1.51.27,2.32.94,1.81,1.49,3,1,1.35-1.67,1.51-2.76.29-1.93,1.09-2.23l-.23-.62c-1.17.45-1.35,1.68-1.51,2.76s-.29,1.93-1.09,2.24-1.51-.27-2.32-.94-1.81-1.5-3-1.05-1.35,1.67-1.51,2.75-.29,1.93-1.1,2.24-1.5-.27-2.31-.94-1.81-1.49-3-1.05-1.34,1.67-1.5,2.76-.29,1.93-1.1,2.23-1.5-.27-2.31-.94-1.82-1.49-3-1.05-1.34,1.68-1.5,2.76-.29,1.93-1.1,2.24-1.5-.27-2.32-.94-1.8-1.5-3-1.05-1.35,1.67-1.51,2.75-.28,1.93-1.09,2.24-1.51-.27-2.32-.94-1.81-1.49-3-1.05-1.35,1.67-1.51,2.76-.29,1.93-1.09,2.24-1.51-.27-2.32-.94-1.81-1.5-3-1.05-1.35,1.67-1.51,2.75-.29,1.94-1.09,2.24-1.52-.27-2.33-.94-1.8-1.49-3-1l.23.61c.81-.31,1.51.27,2.32.94A3.9,3.9,0,0,0,254.16,302.74Z" style="fill:url(#ay)"/><path d="M286.1,268c6.67-1.13,34.76,6,39.81,2.53s7-1.09,9.24-3.28,3.23-.14,2.49,1.1a6.68,6.68,0,0,1-3.43,2.54,52,52,0,0,1,6.4,1.36s5-4.06,6.21-2.73c.66.72-1.67,2.83-3.73,4.15s-.79,1.9-2.37,2.28a4,4,0,0,1-1.5,3.11s-2,1.23-2.7,1.63c-1,.53-9.91-1.28-12.82-1.28-6.5,0-25.9,3.33-37.25,3.33C276.18,282.76,277.69,269.45,286.1,268Z" style="fill:url(#az)"/><path d="M279,241.23a31.27,31.27,0,0,1-12.08-3.9c3.07-2.87,1.62-17.73,1.62-17.73l12.83,7.75c-1,6,1.68,8.49,1.68,8.49C284.63,238.79,279,241.23,279,241.23Z" style="fill:url(#ba)"/><path d="M281.22,200c8.62,1.79,11.12,5.61,10,14.27-1.34,10.83-4.46,19-14.79,14.46C262.44,222.62,266.89,197.06,281.22,200Z" style="fill:url(#bb)"/><path d="M283.83,214.42a17.86,17.86,0,0,0,1.71,3.92,2.33,2.33,0,0,1-2.38.49Z" style="fill:#e26c6c"/><path d="M277.67,209a.36.36,0,0,1-.25-.11.35.35,0,0,1,0-.51,4.75,4.75,0,0,1,4.14-1,.36.36,0,0,1,.27.43.37.37,0,0,1-.44.27,4.08,4.08,0,0,0-3.45.8A.38.38,0,0,1,277.67,209Z" style="fill:#1d1273"/><path d="M290.94,209.39a.36.36,0,0,1-.24-.09,3.64,3.64,0,0,0-3-1,.36.36,0,0,1-.44-.26.36.36,0,0,1,.26-.43,4.31,4.31,0,0,1,3.62,1.1.37.37,0,0,1,.05.51A.41.41,0,0,1,290.94,209.39Z" style="fill:#1d1273"/><path d="M270.8,216.08c.35-1.72-.37-4.84-3-4.91s-5.53,6.47.58,9.16C269.29,220.71,270.08,219.66,270.8,216.08Z" style="fill:url(#bc)"/><path d="M281.59,200.8,270.3,215.52c.14-13.91,4.27-20,4.27-20s13.91-6.39,19.32,2.44-.35,18-.35,18S293.66,204,281.59,200.8Z" style="fill:#1d1273"/><path d="M280.55,211.45c0,.65-.4,1.17-.84,1.15s-.78-.56-.75-1.22.4-1.17.84-1.15S280.58,210.79,280.55,211.45Z" style="fill:#1d1273"/><path d="M279.62,210.25l1.46-.5S280.31,210.92,279.62,210.25Z" style="fill:#1d1273"/><path d="M288.76,211.64c0,.65-.4,1.17-.84,1.15s-.78-.56-.75-1.22.4-1.17.84-1.15S288.79,211,288.76,211.64Z" style="fill:#1d1273"/><path d="M287.83,210.44l1.46-.5S288.52,211.11,287.83,210.44Z" style="fill:#1d1273"/><path d="M286.66,221.69s-2.52,2.77-6.77,0c0,0,.41,3.76,3.75,3.5C286.5,225,286.66,221.69,286.66,221.69Z" style="fill:url(#bd)"/><path d="M286.66,221.69s-2.52,1.76-6.77,0a4.07,4.07,0,0,0,3.82,2.16A3.6,3.6,0,0,0,286.66,221.69Z" style="fill:#0d0848"/><path d="M286.66,221.69s-2.52,1.76-6.77,0a17.81,17.81,0,0,0,3.68-.5C285.91,220.72,286.66,221.69,286.66,221.69Z" style="fill:url(#be)"/><path d="M252.76,243c-6.18,8.74,15.62,43.61,29.29,43.06s13.83-20.33,7.16-21.19c-2.06-.27-17.08-19.38-23.7-21.92S254.12,241.09,252.76,243Z" style="fill:#3531a1"/><rect x="82.62" y="309.65" width="73.46" height="7.69" style="fill:#3531a1"/><path d="M151.52,451.06H87.69A5.73,5.73,0,0,1,82,445.35v-158a1,1,0,0,1,1-1h73.31a1,1,0,0,1,1,1v158A5.73,5.73,0,0,1,151.52,451.06Zm-62.83-2h61.83a4.72,4.72,0,0,0,4.74-4.71v-156H84V444.36A4.72,4.72,0,0,0,88.69,449.07Z" style="fill:#1d1273"/><rect x="349.37" y="309.65" width="73.46" height="7.69" style="fill:#3531a1"/><path d="M418.27,451.06H354.44a5.74,5.74,0,0,1-5.75-5.71v-158a1,1,0,0,1,1-1H423a1,1,0,0,1,1,1v158A5.73,5.73,0,0,1,418.27,451.06Zm-62.83-2h61.83a4.72,4.72,0,0,0,4.74-4.71v-156H350.69V444.36A4.73,4.73,0,0,0,355.44,449.07Z" style="fill:#1d1273"/><rect x="106.8" y="283.6" width="326.85" height="7.69" style="fill:url(#bf)"/><rect x="73.66" y="283.6" width="90.01" height="7.69" style="fill:#3531a1"/><path d="M358,283.25a.35.35,0,0,1-.35.34H298.81a.69.69,0,0,1-.68-.68v-1.64H358Z" style="fill:#1d1273"/><path d="M305.82,280.59v.68h-2.1v-.91h1.87A.23.23,0,0,1,305.82,280.59Z" style="fill:#1d1273"/><path d="M308.25,280.59v.68h-2.1v-.91H308A.22.22,0,0,1,308.25,280.59Z" style="fill:#1d1273"/><path d="M310.69,280.59v.68h-2.1v-.91h1.87A.23.23,0,0,1,310.69,280.59Z" style="fill:#1d1273"/><path d="M320.85,280.59v.68h-2.11v-.91h1.88A.23.23,0,0,1,320.85,280.59Z" style="fill:#1d1273"/><path d="M323.28,280.59v.68h-2.1v-.91h1.87A.23.23,0,0,1,323.28,280.59Z" style="fill:#1d1273"/><path d="M351.89,280.59v.68h-2.1v-.91h1.87A.23.23,0,0,1,351.89,280.59Z" style="fill:#1d1273"/><path d="M354.33,280.59v.68h-2.1v-.91h1.87A.23.23,0,0,1,354.33,280.59Z" style="fill:#1d1273"/><path d="M318.34,280.59v.68h-7.23v-.91h7A.23.23,0,0,1,318.34,280.59Z" style="fill:#1d1273"/><path d="M362.24,280.59v.68H355v-.91h7A.23.23,0,0,1,362.24,280.59Z" style="fill:#1d1273"/><path d="M349.22,280.59v.68H324.15v-.91H349A.22.22,0,0,1,349.22,280.59Z" style="fill:#1d1273"/><path d="M361.66,280.36h5.09a.52.52,0,0,1,.53.52v.39h-5.84v-.68A.22.22,0,0,1,361.66,280.36Z" style="fill:url(#bg)"/><path d="M368.7,280.36h5.09a.52.52,0,0,1,.52.52v.39h-5.84v-.68A.23.23,0,0,1,368.7,280.36Z" style="fill:url(#bh)"/><path d="M375.73,280.36h5.09a.52.52,0,0,1,.52.52v.39H375.5v-.68A.23.23,0,0,1,375.73,280.36Z" style="fill:url(#bi)"/><path d="M382.77,280.36h5.09a.52.52,0,0,1,.52.52v.39h-5.84v-.68A.23.23,0,0,1,382.77,280.36Z" style="fill:url(#bj)"/><path d="M391.05,280.36h2.66a.52.52,0,0,1,.52.52v.39h-3.41v-.68A.23.23,0,0,1,391.05,280.36Z" style="fill:url(#bk)"/><path d="M395.2,280.36h2.66a.52.52,0,0,1,.52.52v.39H395v-.68A.23.23,0,0,1,395.2,280.36Z" style="fill:url(#bl)"/><path d="M399.1,280.36h2.66a.52.52,0,0,1,.52.52v.39h-3.41v-.68A.23.23,0,0,1,399.1,280.36Z" style="fill:url(#bm)"/><path d="M354.58,237.48c.46-1.86,1.2-3.16,3.12-3.16l-11.88,49a2.66,2.66,0,0,1-1.73-3.23C344.57,278,352.11,247.49,354.58,237.48Z" style="fill:#1d1273"/><path d="M357.7,234.32h62.67a1.34,1.34,0,0,1,1.31,1.66l-11.54,45.29H344.26l11.6-45.52A1.89,1.89,0,0,1,357.7,234.32Z" style="fill:#fff"/><path d="M409.9,283.25a.34.34,0,0,1-.34.34H344.89a.68.68,0,0,1-.68-.68v-1.64H409.9Z" style="fill:#1d1273"/><polygon points="350.7 269.1 406.39 237.95 417.55 237.95 348.75 277.23 350.7 269.1" style="opacity:0.5;fill:url(#bn)"/><polygon points="359.63 278.63 415.25 247.53 413.3 255.65 370.8 278.63 359.63 278.63" style="opacity:0.5;fill:url(#bo)"/><path d="M144,283.25a.34.34,0,0,1-.34.34H84.84a.69.69,0,0,1-.68-.68v-1.64H144Z" style="fill:#1d1273"/><path d="M91.85,280.59v.68h-2.1v-.91h1.87A.23.23,0,0,1,91.85,280.59Z" style="fill:#1d1273"/><path d="M94.29,280.59v.68h-2.1v-.91h1.87A.23.23,0,0,1,94.29,280.59Z" style="fill:#1d1273"/><path d="M96.72,280.59v.68h-2.1v-.91h1.87A.23.23,0,0,1,96.72,280.59Z" style="fill:#1d1273"/><path d="M106.88,280.59v.68h-2.1v-.91h1.87A.23.23,0,0,1,106.88,280.59Z" style="fill:#1d1273"/><path d="M109.32,280.59v.68h-2.11v-.91h1.88A.23.23,0,0,1,109.32,280.59Z" style="fill:#1d1273"/><path d="M137.92,280.59v.68h-2.1v-.91h1.87A.23.23,0,0,1,137.92,280.59Z" style="fill:#1d1273"/><path d="M140.36,280.59v.68h-2.1v-.91h1.87A.23.23,0,0,1,140.36,280.59Z" style="fill:#1d1273"/><path d="M104.37,280.59v.68H97.15v-.91h7A.23.23,0,0,1,104.37,280.59Z" style="fill:#1d1273"/><path d="M148.27,280.59v.68h-7.22v-.91h7A.23.23,0,0,1,148.27,280.59Z" style="fill:#1d1273"/><path d="M135.26,280.59v.68H110.18v-.91H135A.23.23,0,0,1,135.26,280.59Z" style="fill:#1d1273"/><path d="M147.7,280.36h5.09a.52.52,0,0,1,.52.52v.39h-5.84v-.68A.23.23,0,0,1,147.7,280.36Z" style="fill:url(#bp)"/><path d="M154.73,280.36h5.09a.52.52,0,0,1,.52.52v.39H154.5v-.68A.23.23,0,0,1,154.73,280.36Z" style="fill:url(#bq)"/><path d="M161.76,280.36h5.1a.52.52,0,0,1,.52.52v.39h-5.84v-.68A.22.22,0,0,1,161.76,280.36Z" style="fill:url(#br)"/><path d="M168.8,280.36h5.09a.52.52,0,0,1,.52.52v.39h-5.84v-.68A.23.23,0,0,1,168.8,280.36Z" style="fill:url(#bs)"/><path d="M177.08,280.36h2.67a.51.51,0,0,1,.51.52v.39h-3.41v-.68A.23.23,0,0,1,177.08,280.36Z" style="fill:url(#bt)"/><path d="M181.23,280.36h2.66a.52.52,0,0,1,.52.52v.39H181v-.68A.23.23,0,0,1,181.23,280.36Z" style="fill:url(#bu)"/><path d="M185.13,280.36h2.67a.52.52,0,0,1,.52.52v.39H184.9v-.68A.23.23,0,0,1,185.13,280.36Z" style="fill:url(#bv)"/><path d="M140.62,237.48c.46-1.86,1.2-3.16,3.11-3.16l-11.87,49a2.66,2.66,0,0,1-1.73-3.23C130.6,278,138.14,247.49,140.62,237.48Z" style="fill:#1d1273"/><path d="M143.73,234.32h62.68a1.34,1.34,0,0,1,1.3,1.66l-11.54,45.29H130.29l11.6-45.52A1.89,1.89,0,0,1,143.73,234.32Z" style="fill:#fff"/><path d="M195.93,283.25a.34.34,0,0,1-.34.34H130.92a.69.69,0,0,1-.68-.68v-1.64h65.69Z" style="fill:#1d1273"/><polygon points="136.73 269.1 192.42 237.95 203.59 237.95 134.78 277.23 136.73 269.1" style="opacity:0.5;fill:url(#bw)"/><polygon points="145.67 278.63 201.28 247.53 199.33 255.65 156.83 278.63 145.67 278.63" style="opacity:0.5;fill:url(#bx)"/><path d="M394.37,238.76a7.5,7.5,0,1,0-7.65,7.31A7.46,7.46,0,0,0,394.37,238.76Z" style="mix-blend-mode:multiply;fill:url(#by)"/><path d="M168.06,239.09a7.5,7.5,0,1,0-7.65,7.3A7.46,7.46,0,0,0,168.06,239.09Z" style="mix-blend-mode:multiply;fill:url(#bz)"/><path d="M52,240.61a7.5,7.5,0,1,0-7.66,7.31A7.47,7.47,0,0,0,52,240.61Z" style="mix-blend-mode:multiply;fill:url(#ca)"/><path d="M298.1,113.07c.82-40.63-30.87-74.22-70.8-75s-73,31.48-73.79,72.11,30.87,74.22,70.79,75S297.27,153.7,298.1,113.07Z" style="mix-blend-mode:multiply;fill:url(#cb)"/><path d="M237.57,0h-7V169h7l60-43.73V25.84C267,25.84,249.13,15.35,237.57,0Z" style="fill:#1d1273"/><path d="M170.57,25.84v99.39l60,43.73V0C219,15.35,201.11,25.84,170.57,25.84Z" style="fill:url(#cc)"/><path d="M230.57,0V169l60-43.73V25.84C260,25.84,242.13,15.35,230.57,0Z" style="fill:url(#cd)"/><path d="M230.57,0c-11.56,15.35-29.46,25.84-60,25.84v99.39l60,43.73,60-43.73V25.84C260,25.84,242.13,15.35,230.57,0Zm45,117.68-45,32.79-45-32.79V39.93c18.12-2.07,33-8.11,45-18.23,12,10.12,26.89,16.16,45,18.23Z" style="fill:#736dee"/><ellipse cx="230.57" cy="82.49" rx="27" ry="26.84" style="fill:#7174ef"/><path d="M225.75,94.36l3.86-12.06a8.6,8.6,0,0,1,3-15.47,8.76,8.76,0,0,0-2-.24,8.62,8.62,0,0,0-5,15.71l-3.86,12.06a1.58,1.58,0,0,0,1.51,2h4A1.58,1.58,0,0,1,225.75,94.36Z" style="fill:#1d1273"/><path d="M239.39,94.36,235.53,82.3a8.6,8.6,0,0,0-3-15.47,8.6,8.6,0,0,0-3,15.47l-3.86,12.06a1.58,1.58,0,0,0,1.51,2h10.63A1.58,1.58,0,0,0,239.39,94.36Z" style="fill:#3531a1"/><path d="M221.77,142a7.5,7.5,0,1,0-7.65,7.3A7.46,7.46,0,0,0,221.77,142Z" style="mix-blend-mode:multiply;fill:url(#ce)"/><path d="M192.69,96a7.5,7.5,0,1,0-7.66,7.31A7.49,7.49,0,0,0,192.69,96Z" style="mix-blend-mode:multiply;fill:url(#cf)"/><path d="M281.33,98.53a7.5,7.5,0,1,0-7.65,7.31A7.47,7.47,0,0,0,281.33,98.53Z" style="mix-blend-mode:multiply;fill:url(#cg)"/><path d="M281.33,55.81a7.5,7.5,0,1,0-7.65,7.3A7.46,7.46,0,0,0,281.33,55.81Z" style="mix-blend-mode:multiply;fill:url(#ch)"/><path d="M388.8,239.33a2.49,2.49,0,0,1-2.5-2.48V180L273.55,97.81a2.46,2.46,0,0,1-.54-3.47,2.5,2.5,0,0,1,3.49-.54l113.78,82.93a2.49,2.49,0,0,1,1,2v58.11A2.49,2.49,0,0,1,388.8,239.33Z" style="fill:#3531a1"/><path d="M271.4,101.27A6.51,6.51,0,0,1,270,92.13a6.61,6.61,0,0,1,9.2-1.4,6.51,6.51,0,0,1,1.41,9.14A6.59,6.59,0,0,1,271.4,101.27Z" style="fill:#3531a1"/><path d="M273.52,98.4a3,3,0,0,1-.65-4.16,3,3,0,0,1,4.19-.64,3,3,0,0,1,.65,4.16A3,3,0,0,1,273.52,98.4Z" style="fill:#fff"/><path d="M382.22,236.52A6.58,6.58,0,1,0,388.8,230,6.56,6.56,0,0,0,382.22,236.52Z" style="fill:#3531a1"/><ellipse cx="388.8" cy="236.52" rx="3" ry="2.98" style="fill:#fff"/><path d="M162,239.33a2.49,2.49,0,0,1-2.5-2.48V179.1a2.47,2.47,0,0,1,1-2l53.87-39.27a2.5,2.5,0,0,1,3.49.54,2.47,2.47,0,0,1-.53,3.47l-52.85,38.52v56.49A2.49,2.49,0,0,1,162,239.33Z" style="fill:#3531a1"/><path d="M211.67,134.76a6.61,6.61,0,0,1,9.2,1.4,6.51,6.51,0,0,1-1.42,9.14,6.59,6.59,0,0,1-9.19-1.4A6.51,6.51,0,0,1,211.67,134.76Z" style="fill:#3531a1"/><path d="M155.38,236.52A6.58,6.58,0,1,0,162,230,6.56,6.56,0,0,0,155.38,236.52Z" style="fill:#3531a1"/><path d="M213.79,137.63a3,3,0,1,1-.65,4.16A3,3,0,0,1,213.79,137.63Z" style="fill:#fff"/><ellipse cx="161.96" cy="236.52" rx="3" ry="2.98" style="fill:#fff"/><path d="M45.75,241.33a2.48,2.48,0,0,1-1.48-4.49l85.19-62.23V133.38a2.47,2.47,0,0,1,1-2L184.9,91.72a2.5,2.5,0,0,1,3.49.53,2.46,2.46,0,0,1-.54,3.47l-53.39,38.92v41.23a2.48,2.48,0,0,1-1,2l-86.21,63A2.5,2.5,0,0,1,45.75,241.33Z" style="fill:#3531a1"/><path d="M49.91,243.92a6.61,6.61,0,0,1-9.2-1.4,6.51,6.51,0,0,1,1.41-9.14,6.6,6.6,0,0,1,9.19,1.4A6.5,6.5,0,0,1,49.91,243.92Z" style="fill:#3531a1"/><path d="M47.79,241.05a3,3,0,0,1-4.2-.64,3,3,0,0,1,.65-4.16,3,3,0,0,1,4.19.63A3,3,0,0,1,47.79,241.05Z" style="fill:#fff"/><path d="M190,99.19a6.51,6.51,0,0,0,1.41-9.14,6.6,6.6,0,0,0-9.19-1.41,6.51,6.51,0,0,0-1.42,9.14A6.62,6.62,0,0,0,190,99.19Z" style="fill:#3531a1"/><path d="M187.88,96.32a3,3,0,0,0,.65-4.17,3,3,0,0,0-4.2-.64,3,3,0,0,0-.64,4.17A3,3,0,0,0,187.88,96.32Z" style="fill:#fff"/><path d="M271.4,59.46A6.51,6.51,0,0,1,270,50.32a6.61,6.61,0,0,1,9.2-1.4,6.51,6.51,0,0,1,1.41,9.14A6.59,6.59,0,0,1,271.4,59.46Z" style="fill:#3531a1"/><path d="M273.52,56.6a3,3,0,0,1-.65-4.17,3,3,0,0,1,4.19-.64,3,3,0,0,1,.65,4.16A3,3,0,0,1,273.52,56.6Z" style="fill:#fff"/></g></svg>