<svg xmlns="http://www.w3.org/2000/svg" xmlns:xlink="http://www.w3.org/1999/xlink" viewBox="0 0 531.47 500.13"><defs><linearGradient id="a" x1="386.91" y1="441" x2="447.02" y2="441" gradientTransform="matrix(-1, 0, 0, 1, 810.34, 0)" gradientUnits="userSpaceOnUse"><stop offset="0" stop-color="#eb6c85"/><stop offset="0.22" stop-color="#ed7281"/><stop offset="0.49" stop-color="#f18176"/><stop offset="0.79" stop-color="#f99b63"/><stop offset="1" stop-color="#ffb154"/></linearGradient><linearGradient id="b" x1="364.74" y1="348.78" x2="422.77" y2="348.78" gradientTransform="matrix(-1, 0, 0, 1, 810.34, 0)" gradientUnits="userSpaceOnUse"><stop offset="0" stop-color="#009db0"/><stop offset="0.28" stop-color="#01c0ca"/><stop offset="0.56" stop-color="#01dade"/><stop offset="0.81" stop-color="#02e9ea"/><stop offset="1" stop-color="#02efee"/></linearGradient><linearGradient id="c" x1="433.54" y1="413.45" x2="476.4" y2="413.45" xlink:href="#b"/><clipPath id="d"><path d="M379.47,84.77c-86,3.1-93.42-22-185.71-62s-216.22,48-190.26,150-46.35,222,51.81,272,290.16,94,388.16,0S601.47,76.77,379.47,84.77Z" style="fill:none"/></clipPath><linearGradient id="e" x1="-964.78" y1="318.46" x2="-1283.89" y2="30.64" gradientTransform="matrix(-1, 0, 0, 1, -827.98, 2.2)" gradientUnits="userSpaceOnUse"><stop offset="0" stop-color="#b9c4ea"/><stop offset="0.2" stop-color="#ced6f0"/><stop offset="0.51" stop-color="#e8edf8"/><stop offset="0.78" stop-color="#f7fafd"/><stop offset="1" stop-color="#fdffff"/></linearGradient><linearGradient id="f" x1="-1197.07" y1="205.99" x2="-986" y2="205.99" gradientTransform="matrix(-1, 0, 0, 1, -827.58, 0)" gradientUnits="userSpaceOnUse"><stop offset="0" stop-color="#3934c4"/><stop offset="0.27" stop-color="#3f39c9"/><stop offset="0.62" stop-color="#4e47d7"/><stop offset="1" stop-color="#685eee"/></linearGradient><linearGradient id="g" x1="288" y1="34.88" x2="351.13" y2="34.88" gradientTransform="translate(6.31 -37.86) rotate(6.44)" gradientUnits="userSpaceOnUse"><stop offset="0" stop-color="#fb2040"/><stop offset="0.25" stop-color="#f53d5a"/><stop offset="0.54" stop-color="#ef5772"/><stop offset="0.8" stop-color="#ec6680"/><stop offset="1" stop-color="#eb6c85"/></linearGradient><linearGradient id="h" x1="309.86" y1="34.38" x2="338.18" y2="34.38" gradientTransform="translate(6.31 -37.86) rotate(6.44)" xlink:href="#e"/><linearGradient id="i" x1="273.94" y1="136.02" x2="335.66" y2="136.02" gradientTransform="translate(50.45 -65.54) rotate(13.99)" xlink:href="#f"/><linearGradient id="j" x1="291.74" y1="134.36" x2="317.86" y2="134.36" gradientTransform="translate(50.45 -65.54) rotate(13.99)" xlink:href="#e"/><linearGradient id="k" x1="204.26" y1="75.53" x2="266.82" y2="75.53" gradientTransform="translate(-18.89 73.37) rotate(-16.06)" xlink:href="#a"/><linearGradient id="l" x1="187.7" y1="290.99" x2="323.94" y2="290.99" gradientTransform="matrix(1, 0, 0, 1, 0, 0)" xlink:href="#f"/><linearGradient id="m" x1="202.04" y1="271.94" x2="267.16" y2="271.94" gradientTransform="translate(519.57 490.53) rotate(168.27)" xlink:href="#e"/><linearGradient id="n" x1="266.92" y1="297.62" x2="314.75" y2="297.62" gradientTransform="matrix(1, 0, 0, 1, 0, 0)" xlink:href="#b"/><linearGradient id="o" x1="266.92" y1="307.99" x2="311.26" y2="307.99" gradientTransform="matrix(1, 0, 0, 1, 0, 0)" xlink:href="#e"/><linearGradient id="p" x1="279.62" y1="286.65" x2="289.72" y2="286.65" gradientTransform="matrix(1, 0, 0, 1, 0, 0)" xlink:href="#e"/><linearGradient id="q" x1="200.34" y1="282.61" x2="236.39" y2="282.61" gradientTransform="translate(450.7 11.37) rotate(78.27)" xlink:href="#e"/><linearGradient id="r" x1="242.67" y1="289.79" x2="263.27" y2="289.79" gradientTransform="translate(485.3 -16.8) rotate(78.27)" xlink:href="#e"/><linearGradient id="s" x1="199.07" y1="286.17" x2="210.58" y2="286.17" gradientTransform="translate(443.41 27.47) rotate(78.28)" xlink:href="#e"/><linearGradient id="t" x1="221.32" y1="293.81" x2="262.01" y2="293.81" gradientTransform="translate(480.23 -2.52) rotate(78.27)" xlink:href="#e"/><linearGradient id="u" x1="197.77" y1="295.01" x2="233.81" y2="295.01" gradientTransform="translate(460.78 23.77) rotate(78.27)" xlink:href="#e"/><linearGradient id="v" x1="240.1" y1="302.19" x2="260.7" y2="302.19" gradientTransform="matrix(0.2, 0.98, -0.98, 0.2, 495.4, -4.4)" xlink:href="#e"/><linearGradient id="w" x1="196.56" y1="298.26" x2="208.07" y2="298.26" gradientTransform="translate(453.23 39.55) rotate(78.27)" xlink:href="#e"/><linearGradient id="x" x1="218.81" y1="305.91" x2="259.5" y2="305.91" gradientTransform="translate(490.08 9.58) rotate(78.27)" xlink:href="#e"/><linearGradient id="y" x1="183.05" y1="193.37" x2="246.68" y2="193.37" gradientTransform="matrix(1, -0.08, 0.08, 1, -14.38, 16.88)" xlink:href="#g"/></defs><title>web apps</title><polygon points="401.44 500.13 403.07 500.09 400.75 449.59 399.11 449.62 401.44 500.13" style="fill:#312da4"/><path d="M363.84,446.69c0-3.47,22.6-3.74,29.53-3.74s29.53.27,29.53,3.74-22.6,3.73-29.53,3.73S363.84,450.15,363.84,446.69Zm29.53-2.11c-15.21,0-25.08,1.15-27.49,2.11,2.41.95,12.28,2.1,27.49,2.1s25.09-1.15,27.49-2.1C418.46,445.73,408.58,444.58,393.37,444.58Z" style="fill:#312da4"/><path d="M421.27,420.38a30.06,30.06,0,1,1-55.79,0Z" style="fill:url(#a)"/><ellipse cx="393.37" cy="420.38" rx="27.89" ry="4.42" style="fill:#fda798"/><ellipse cx="393.37" cy="420.38" rx="25.15" ry="3.27" style="fill:#7a5f5a"/><path d="M368.21,430.52c.07-2.25,3.57-2.26,3.51,0-.16,5.34.53,10.67,4.39,14.68,1.56,1.63-.91,4.11-2.48,2.48C369.14,443,368,436.8,368.21,430.52Z" style="fill:#fff;opacity:0.42"/><path d="M393.37,450.42c6.93,0,29.53-.27,29.53-3.73h-1.63a.43.43,0,0,1,.09-.28c-1,1-11.26,2.38-28,2.38s-27-1.38-28-2.38a.43.43,0,0,1,.09.28h-1.64C363.84,450.15,386.44,450.42,393.37,450.42Z" style="fill:#312da4"/><polygon points="427.11 500.1 428.75 499.98 422.5 447.12 420.87 447.23 427.11 500.1" style="fill:#312da4"/><polygon points="361.07 500.1 366.29 447.44 364.67 447.32 359.44 499.98 361.07 500.1" style="fill:#312da4"/><polygon points="389.06 500.11 390.09 449.62 388.46 449.59 387.43 500.07 389.06 500.11" style="fill:#312da4"/><path d="M368.23,420.38c0,1.33,6,2.46,14.75,3l1.57.08c.73,0,1.46.07,2.22.09.49,0,1,0,1.52.06,1.14,0,2.3,0,3.5,0,.52,0,1,0,1.57,0h0c2.33,0,4.58-.05,6.72-.12l1.6-.06c9.79-.45,16.82-1.65,16.82-3.08s-5.87-2.43-14.36-2.95l-1.67-.09c-2.54-.14-5.27-.21-8.12-.23h-1.59c-1.73,0-3.41,0-5,.08-.53,0-1,0-1.53.06-.85,0-1.68.07-2.5.12-.53,0-1.05.06-1.56.07C373.89,418,368.23,419.1,368.23,420.38Z" style="fill:#ff6b77"/><path d="M393,391.14a14.71,14.71,0,0,1-2.89-2.37c-1.26-1.28-3.25-3.37-3.22-5.32,0-1.61,1.69-2,2.8-1s1.42,2.13,2.2,3.13a9.86,9.86,0,0,0,4.08,2.85c2.16-3.09,2.52-7.34,1.79-11.05-.84-4.29-3.67-10.4-7.91-16.11a22.38,22.38,0,0,1-1.95,4c-.8,1.33-2.08,3.84-3.6,4.38s-1.95-.92-1.7-2.14a.46.46,0,0,1,0-.19h0a3,3,0,0,1,.1-.32.5.5,0,0,1,.18-.22c.89-1.71,1.91-3.35,2.68-5.11a27.26,27.26,0,0,0,1.3-4,38,38,0,0,0-13.13-9.94,47.55,47.55,0,0,1,2.35,6.53c.65,2.11,2.39,6.62.78,8.69a1.7,1.7,0,0,1-2,.55c-1.12-.63-1-2.95-1-4a22.27,22.27,0,0,0-.88-7.2,23.89,23.89,0,0,0-3.16-5.89,21,21,0,0,0-9.7-.06,5.55,5.55,0,0,1,1.95,3.2c.19,1.17-.53,3.87-2.06,4-2,.12-2.16-4.57-2.41-6.42a26.18,26.18,0,0,0-5.54,2.79,24.06,24.06,0,0,0-7.44,7.88.62.62,0,0,1,.07.19c.65,5.14,7.21,6.91,11.11,8.89,1.21.62,5.75,2.74,5.16,4.57-.31,1-1.93,1-2.69.83-2-.36-3.71-1.92-5.23-3.1a69.84,69.84,0,0,1-9.88-8.64c-3.2,6.86-3.93,14.77-3.82,20.62a.43.43,0,0,1,.35,0,15.6,15.6,0,0,0,7.31,1.15,19.69,19.69,0,0,1,4.72-.28c1.32.19,3.37,1.8,1.89,3.11-1.26,1.13-4.07.86-5.61.65a27,27,0,0,1-8.59-2.73,41.3,41.3,0,0,0,.43,4.3A21.09,21.09,0,0,0,349,401.39a22.28,22.28,0,0,0,5.17,2.51,24.84,24.84,0,0,0,7.77-11c.62-1.84,1.93-6.92,4.55-6.74,1.16.08,2,1.5,2.19,2.51.38,1.72-.67,3.44-1.61,4.79-1.4,2-2.93,3.82-4.28,5.82s-2.68,3.84-4.12,5.69a23.57,23.57,0,0,0,10-.79c5-1.56,10.3-6.79,7.52-12.17C381.54,393.17,388.18,394,393,391.14Zm-44.39-14.28-.22,0a.41.41,0,0,1-.63.06,2.09,2.09,0,0,1-.2-.22,2.76,2.76,0,0,1-1-1.66.37.37,0,0,1,0-.33,5,5,0,0,1-.12-1c0-.79.36-1.68,1.3-1.51a2.9,2.9,0,0,1,2.2,2.33A2.18,2.18,0,0,1,348.62,376.86Zm32.87,1.26a1.45,1.45,0,0,1-2.17.18,2.58,2.58,0,0,1-.66-2.6.38.38,0,0,1,.27-.28l0,0a2.59,2.59,0,0,1,2.58.24A1.76,1.76,0,0,1,381.49,378.12Z" style="fill:#009db0"/><path d="M435.91,361.48a36,36,0,0,0,8.48,2.07c1.6-5.53,1.35-11.55.74-17.31a24.35,24.35,0,0,1-7,5.17c-2.32,1.08-6.3,2.9-8.37.49a.43.43,0,0,1,0-.6c2.24-1.85,5.23-1.67,7.88-2.49a15.34,15.34,0,0,0,7.26-4.9c-.06-.47-.11-1-.17-1.43-.54-4.26-1.28-8.48-2.12-12.69l-.12.24c-.36.74-1,2.29-2,2.45s-1.22-.91-1-1.61c.28-1.06,1.3-1.92,1.72-2.95a18.39,18.39,0,0,0,.66-1.89c-.71-3.34-1.48-6.67-2.24-10a.43.43,0,0,0-.52-.3c-3.31.46-6.65.92-10,1.47-3.63,3.56-6.21,7.76-6.64,13-.12,1.49.81,9.28-2.74,8.32-3.75-1-2-8-1.25-10.34a33.61,33.61,0,0,1,5.31-10A77.85,77.85,0,0,0,402,325.4a15.9,15.9,0,0,0,1.11,16.11c.72,1.14,4.92,6.46,1.53,7.05-2.86.5-5.09-5.11-5.57-7.2-.72-3.11-.3-6.33-.08-9.47a20.21,20.21,0,0,1,1.06-5.4l-.25.13c-5.12,3.05-10,7-11.55,13a22.52,22.52,0,0,0-.49,8.14,38.78,38.78,0,0,0,4.38,5.44c1.69,1.71,3.64,2.47,5.58,3.76,1.39.92,3.76,3.82,1.71,5.31-1.65,1.2-4.75-.27-6.33-.93-.64-.27-1.27-.56-1.89-.86-.25,16.26,13.91,7.85,13.91,7.92-.11,14.9,15.08,15,24.43,11.54-.94-.17-1.88-.35-2.82-.5-1.86-.31-3.76-.41-5.61-.78-2-.4-4.81-1.66-4.4-4.23.35-2.22,3.24-.43,4.29.15,3.64,2,7.89,3.86,12.12,3.64.45-.27.9-.55,1.33-.85a26.37,26.37,0,0,0,7.86-8.78,73.44,73.44,0,0,1-10.77-1c-2.58-.45-6.68-1.14-7.92-3.84a.42.42,0,0,1,.37-.63,16.36,16.36,0,0,1,8.81,2,17.09,17.09,0,0,0,10.22,2,23,23,0,0,0,1.09-2.67,1,1,0,0,0,.05-.16,36.37,36.37,0,0,1-8.45-2.07C435.18,362.11,435.4,361.29,435.91,361.48Zm-5.6-30.56a.33.33,0,0,1,.2-.27,1.63,1.63,0,0,1,1.44-1.36,2,2,0,0,1,1.71,3.38,2.58,2.58,0,0,1-2.38.56C430.29,332.89,430.17,331.82,430.31,330.92ZM412,370.82a1.58,1.58,0,0,1-2,.1.36.36,0,0,1,.08-.62,2.29,2.29,0,0,1,.57-1.53,1.2,1.2,0,0,1,1.89.24A1.43,1.43,0,0,1,412,370.82Zm1.7-32c-.16,1-.64,2.45-1.62,2.93-1.19.58-1.67-.89-1.81-1.77a.59.59,0,0,1,0-.19,5.34,5.34,0,0,1-.65-3.06c.19-1.51,1.69-1.89,2.91-1.18A3.07,3.07,0,0,1,413.73,338.86Zm11.19,15.79a1.81,1.81,0,0,1-2.07.35,2.07,2.07,0,0,1-1.15-2.27.46.46,0,0,1,.65-.36,1.42,1.42,0,0,1,2.15-.21A1.92,1.92,0,0,1,424.92,354.65Z" style="fill:url(#b)"/><path d="M364.08,425a22.18,22.18,0,0,1,1.77,5.26c-3.58,1.3-7.58,1.44-11.42,1.35a15.47,15.47,0,0,0,3.08-4.72c.6-1.52,1.62-4.13-.08-5.32a.3.3,0,0,0-.39,0c-1.12,1.52-.85,3.4-1.27,5.12a9.8,9.8,0,0,1-2.9,4.84l-.95,0c-2.85-.13-5.68-.38-8.51-.7l.15-.09c.47-.26,1.47-.77,1.53-1.39s-.66-.73-1.12-.58c-.69.23-1.21.92-1.87,1.24a12.89,12.89,0,0,1-1.21.51c-2.25-.28-4.49-.6-6.73-.91a.28.28,0,0,1-.22-.32c.14-2.11.28-4.25.48-6.38a13.72,13.72,0,0,1,8.29-4.85c1-.16,6.18,0,5.38-2.16s-5.4-.85-6.91-.27a22.71,22.71,0,0,0-6.38,3.86,47.81,47.81,0,0,1,3.74-14.12,11,11,0,0,1,10.73-.11c.79.4,4.51,2.78,4.74.61.19-1.83-3.63-3-5-3.16a22.06,22.06,0,0,0-6.27.43,14.24,14.24,0,0,0-3.53.94l.08-.16c1.77-3.39,4.15-6.67,8.05-8a15.73,15.73,0,0,1,5.37-.71,24.8,24.8,0,0,1,3.82,2.49,19.53,19.53,0,0,1,2.76,3.34c.67.83,2.71,2.19,3.6.81.71-1.1-.41-3-.93-3.95-.2-.4-.43-.78-.65-1.16,10.75-1,5.86,8.4,5.91,8.4,9.86-.82,10.68,8.78,8.82,14.87-.16-.59-.32-1.17-.47-1.76-.29-1.16-.45-2.36-.79-3.51s-1.33-3-3-2.57c-1.45.34-.13,2.07.31,2.71,1.5,2.19,2.93,4.79,3,7.48-.15.3-.32.59-.5.88a17.14,17.14,0,0,1-5.43,5.42,45.61,45.61,0,0,0-1.16-6.77c-.42-1.61-1.08-4.16-2.93-4.81a.29.29,0,0,0-.4.26,10,10,0,0,0,1.77,5.47,10.53,10.53,0,0,1,1.83,6.37,18.06,18.06,0,0,1-1.72.82l-.11,0a21.88,21.88,0,0,0-1.77-5.24C364.45,424.54,363.92,424.72,364.08,425Zm-20.51-2a.24.24,0,0,0-.18.14,1.05,1.05,0,0,0-.82,1,1.29,1.29,0,0,0,2.32.91,1.61,1.61,0,0,0,.26-1.53C344.87,422.93,344.16,422.91,343.57,423Zm25.54-13.58a1,1,0,0,0,0-1.29.25.25,0,0,0-.41.08,1.54,1.54,0,0,0-1,.44.73.73,0,0,0,.25,1.18A1,1,0,0,0,369.11,409.46ZM348,412.15a2.71,2.71,0,0,0,1.87-1.17c.33-.78-.67-1-1.26-1.05h-.12a3.87,3.87,0,0,0-2.07-.26,1.14,1.14,0,0,0-.64,1.9A2.07,2.07,0,0,0,348,412.15Zm11,6.28a1.13,1.13,0,0,0,.14-1.33,1.41,1.41,0,0,0-1.56-.61.3.3,0,0,0-.21.43.88.88,0,0,0,0,1.37A1.31,1.31,0,0,0,359,418.43Z" style="fill:url(#c)"/><path d="M449.37,390.22c-1-.05-2-.12-3-.2-2-.16-4.86.18-6.53-1.21a.46.46,0,0,1,0-.69c3.13-2.64,6.57.26,9.92.4a31.29,31.29,0,0,0,.18-7.57,18.61,18.61,0,0,0-1.26-5.41c-1.86,2.54-3.51,5.25-6,7.22-1,.79-3.5,3.14-4.78,2.19s1.05-2.71,1.8-3.22c3.11-2.06,6.14-4.07,8.52-7.09a12.09,12.09,0,0,0-5.62-5.7A25.79,25.79,0,0,0,436.8,367c.45,3.15,0,7.83-2.95,8.61-2.05.55-3.34-1.85-3.48-3.75a6.44,6.44,0,0,1,3-5.42,49.23,49.23,0,0,0-9.23-.11c-.55,0-1.1.1-1.66.16a.45.45,0,0,1-.05.18c-1.46,2.83-3.13,6.07-3.42,9.32-.11,1.2.4,2.79-.23,3.92-1,1.79-2.88.31-3.16-1.13-.51-2.63.73-5.95,1.58-8.43.35-1,.72-2.14,1.15-3.22a27.83,27.83,0,0,0-10.56,4.32A22.25,22.25,0,0,0,404.8,374a18.68,18.68,0,0,0,.89,9.33c.85,2.07,3.22,6,.91,8.15-1.59,1.49-2.53-1.35-2.86-2.54a52.05,52.05,0,0,1-1.64-11.67,35.69,35.69,0,0,0-3.91,7.6,58.17,58.17,0,0,0-2.38,8.15c1.95,1.38,4.24,1.94,6.35,3.14,1,.57,2.95,1.77,2,3.27-2,3.13-6.42-.49-8.93-3.17a7.73,7.73,0,0,0,2.38,6.35c3.81,3.95,9.77,5.23,14.4,1.65-.19,4.62,3.27,8.4,7.77,7.76a7.66,7.66,0,0,0,4.14-2.13,22.13,22.13,0,0,1-3.15.12c-1.34-.05-3.64-.16-4.18-1.77s.88-1.63,1.87-1.26c1.22.47,2,1.14,3.38,1.17a12.14,12.14,0,0,0,4.6-1.06,18.83,18.83,0,0,1,5.73-5.07,26.74,26.74,0,0,1,2.85-1.25c-1.89-.16-4.66-.5-5.28-2.22-1-2.88,3.34-3.07,4.81-2.83,2,.32,3.85.95,5.86,1.09a15.37,15.37,0,0,0,5-.54c.34-.25.67-.5,1-.77A10.22,10.22,0,0,0,449.37,390.22Zm-35.46,2.11c-.89,0-1.31-1.09-1.41-1.9a4.06,4.06,0,0,1,.36-2.28.51.51,0,0,1,0-.2c.19-.55.49-1.21,1.08-1.39a1.2,1.2,0,0,1,1.17.42,3.71,3.71,0,0,1,.77,3C415.74,390.94,414.94,392.37,413.91,392.33ZM425,381.66a2.36,2.36,0,0,1,.66-2.82.47.47,0,0,1,.25-.1,1.39,1.39,0,0,1,2.19.51,2.45,2.45,0,0,1-.82,3A1.5,1.5,0,0,1,425,381.66Zm-1.75,20.13a1.63,1.63,0,0,1-2.55.52,2.27,2.27,0,0,1-.29-2.36.42.42,0,0,1,0-.63A1.91,1.91,0,0,1,423.24,401.79Z" style="fill:#009db0"/><path d="M400.09,423.52l1.6-.06c.55-1.62,1.15-3.21,1.86-4.78.2-.42.39-.84.6-1.25a58.37,58.37,0,0,1,16.39-20.26c.78-.63-.33-1.72-1.1-1.11a59.54,59.54,0,0,0-16.71,20.69c-.09.2-.18.39-.25.59A47.24,47.24,0,0,0,400.09,423.52Z" style="fill:#009db0"/><path d="M391.79,423.62c.52,0,1,0,1.57,0,.28-2.18.62-4.36,1-6.53.64-3.76,1.4-7.51,2.22-11.23,1.76-7.85,3.84-15.63,5.93-23.4,2-7.6,4.24-15.17,8.93-21.62.59-.81-.77-1.58-1.35-.78-4.51,6.18-6.76,13.39-8.75,20.71-2.36,8.67-4.67,17.38-6.58,26.15-.73,3.38-1.42,6.77-2,10.17C392.4,419.28,392.07,421.46,391.79,423.62Z" style="fill:#009db0"/><path d="M373.2,387.88a88.65,88.65,0,0,1,5.08,12.81c.21.63.39,1.25.56,1.88h0a119.09,119.09,0,0,1,3.28,14.87c.33,2,.6,3.94.84,5.91l1.57.08c-.26-2-.53-4.05-.85-6.06a124.58,124.58,0,0,0-2.83-13.32c-.22-.81-.44-1.63-.7-2.43a94,94,0,0,0-5.63-14.53C374.11,386.18,372.77,387,373.2,387.88Z" style="fill:#009db0"/><path d="M358.75,411.8c4-2.68,8.05-5.41,12.11-8,2.27-1.46,4.5-2.55,7.22-1.55a6.7,6.7,0,0,1,.76.36,8.39,8.39,0,0,1,2,1.48,12.42,12.42,0,0,1,2,2.57,27.15,27.15,0,0,1,3.3,10.63c.29,2.07.45,4.19.57,6.27.49,0,1,0,1.52.06-.13-2.09-.28-4.26-.56-6.39-.68-5.29-2.08-10.39-5.47-13.87a10.81,10.81,0,0,0-2.09-1.7,8.72,8.72,0,0,0-1.89-.93,7.4,7.4,0,0,0-5.18.07c-2.35.91-4.54,2.74-6.63,4.12-2.82,1.89-5.65,3.75-8.47,5.63C357.2,411,357.94,412.33,358.75,411.8Z" style="fill:#009db0"/><g style="clip-path:url(#d)"><path d="M125.72,291.9c-41.32-12.06-81.18-3.82-79.87,21.48,1.45,28.07-4,58.41-5.4,86.95-.47,9.78-15.07,66.48-19.59,76.91-5.13,11.83,9,83.28,13.75,86.9,20.56,15.57,60.71-.66,80.78,15.56,2.9,2.34,6.1-80.67,42.06-121,9.39-43.22,11.74-68.22,1.28-110.85C156,336.74,148.3,298.52,125.72,291.9Z" style="fill:#fda798"/><path d="M53.91,317.7c4.28-1.53-9.34-9.42-4.94-11-5.46-3.27,7.3-15.78,13.18-19.91,32.79-23.33,80.85-30.62,120.69-14.92,23.95,9.41,47,26.05,67.88,40.75,7.74,5.48,17.92,10.07,17.21,20.81a10.4,10.4,0,0,1-2.06,5.56,8.36,8.36,0,0,1-4.91,3.26c-26.62,6-44.6-4.29-67.85-15.93-25.06-12.49-44.83-.86-72,5.17-17.23,3.85-34.8-5.78-51.57.07-4.57,1.63-9.13,3.22-13.67,4.86C44.68,340.41,42.85,321.64,53.91,317.7Z" style="fill:#fda798"/><path d="M86.79,322.89c31.4-25.26,67.31-48.73,108-35.49,24.47,8,48.49,23.18,70.22,36.61,2.23,1.37,4.63,2.66,6.93,4.09a8.41,8.41,0,0,1-4.7,3.55c-26.2,7.64-44.78-1.57-68.7-11.78-25.76-10.95-46.27-13.27-73.07-5.6-16.95,4.89-29.62,20.38-46,27.24C77.69,337.77,82.89,326.05,86.79,322.89Z" style="fill:#fd876d"/><path d="M276.81,271A66.77,66.77,0,0,1,260,281c-15.74,6.41-32,5.59-51.13,5.38-26.68-.27-45.9,4.87-66.48,20.32-1.05.78-2.12,1.59-3.18,2.45-17.6,14-33.62,30.32-49.35,46.38-4.41,4.51-9.83,2.59-12.64-1.45a10.31,10.31,0,0,1-1.91-7v0A9.65,9.65,0,0,1,78,341.49a.71.71,0,0,0,.13-.12c.33-.33.67-.72,1-1.09l8.58-8.79a7.39,7.39,0,0,1-2.55-.67,8.81,8.81,0,0,1-4.71-4.93,10.2,10.2,0,0,1,.54-8.78c.91-1.65,1.85-3.32,2.83-5,19.63-33.7,51.26-67.05,91.91-70.21,13.25-1,27.11-.23,40.89,1.36,12.94,1.48,25.8,3.65,38,5.64,9.33,1.49,20.48,1.21,24.53,11.15C280.72,263.78,280.1,268.42,276.81,271Z" style="fill:#fda798"/><path d="M216.64,243.27c-10.46,16.72-26.31,24.86-44.84,35.48-15,8.6-26.9,9.53-31.46,20.82-1.05.78-12.66,9.52-13.71,10.38-17.6,14-21.09,29.56-36.82,45.62-4.41,4.51-9.83,2.59-12.64-1.45.15-4.21.48-8.48,1-12.75.54-5.16,1.33-10.35,2.35-15.48.9-4.65,2-9.25,3.37-13.77,19.63-33.7,51.26-67.05,91.91-70.21C189,240.89,202.86,241.68,216.64,243.27Z" style="fill:#fd876d"/><path d="M187.88,216.46c8.77-3.6,18.12-9.7,26.79-3.36,3.24,2.36,5.14,6.61,3.74,10.57-9.18,25.7-27.58,35.37-49.81,48.77-24,14.46-34.55,27.28-30.7,54.19,3.15,22-29.42,45.2-34.39,67.1-2.6,11.54-20,5.7-17.46-5.75,1-4.45,2-9.08,3.06-13.64-5.69,2.85-12.85-1.57-13.24-8.72-2.1-40.25,6.6-88.54,41.2-113.75C137.88,236.7,164.31,226.19,187.88,216.46Z" style="fill:#fda798"/><path d="M160.08,321.2s-6.09-7.07-14.42-6.59c0,0,5-3.62,15.11-2C160.77,312.62,160.05,320.52,160.08,321.2Z" style="fill:#fd876d"/><path d="M92.53,481.31c52.67,12.62,92.72,33.87,89.46,47.47s-48.59,14.4-101.26,1.78S-12,496.69-8.72,483.09,39.87,468.7,92.53,481.31Z" style="fill:#2d6fab"/><path d="M93.08,466.29c40.13,9.61,70.65,25.8,68.17,36.17s-37,11-77.16,1.35S13.44,478,15.93,467.64,53,456.67,93.08,466.29Z" style="fill:#b0b0b0"/><path d="M33.05,440.49l124.4,18.26S123.11,748.91,101,943.84c-10.37,88.91-7.9,168-17.17,189-29.66,67.53-253.18,74.6-226.08-77.43C-106.52,854.7,33.05,440.49,33.05,440.49Z" style="fill:#fda798"/><path d="M84.09,503.81C44,494.2,13.44,478,15.93,467.64L-43.89,703.37,129.05,724l32.2-221.52C158.77,512.82,124.22,513.42,84.09,503.81Z" style="fill:#fff"/><path d="M182,528.78l-70.53,545.47L-142.45,1034-8.72,483.09c0,.14-.06.28-.08.42-2.38,13.6,37.39,34.56,89.54,47S178,542.4,181.9,529.1C181.93,529,182,528.89,182,528.78Z" style="fill:#4288d7"/><path d="M157.58,343.06a31.82,31.82,0,0,0-15,6.67s8-9,14.13-10.18Z" style="fill:#fd876d"/></g><rect x="169.35" y="31.76" width="192.01" height="342.24" transform="translate(0.41 -0.53) rotate(0.12)" style="fill:url(#e)"/><path d="M355.06,18.87l-111,.64,0,14.41,56.22.11,40.07.23a24.44,24.44,0,0,1,24.4,24.49l-.52,278.79a24.45,24.45,0,0,1-24.5,24.4l-96.29.2-.06,30.27,111,1a24.44,24.44,0,0,0,24.49-24.4l.62-325.68A24.45,24.45,0,0,0,355.06,18.87Z" style="fill:#312da4"/><path d="M346.73,18.77c-.55,0-1.12-.06-1.69-.06l-170.7,0a15.85,15.85,0,0,0-15.85,15.85l-.06,342.91a15.83,15.83,0,0,0,15.83,15.83l170.71,0c.55,0,1.12,0,1.67-.05a24.46,24.46,0,0,0,22.79-24.4l.06-325.67A24.47,24.47,0,0,0,346.73,18.77Zm8,327.2a15.85,15.85,0,0,1-15.85,15.85l-149.89,0A15.84,15.84,0,0,1,173.15,346l0-296A15.84,15.84,0,0,1,189,34.11l149.91,0A15.83,15.83,0,0,1,354.77,50Z" style="fill:url(#f)"/><path d="M284,384.91l-40.69-.09a7.39,7.39,0,0,1-7.38-7.4h0a7.39,7.39,0,0,1,7.41-7.37l40.69.08a7.39,7.39,0,0,1,7.38,7.4h0A7.41,7.41,0,0,1,284,384.91Z" style="fill:#312da4"/><g style="opacity:0.15"><path d="M369.49,43.17V72.84l-1,8.77a7.27,7.27,0,0,1-8,6.42l-51.68-5.84a7.34,7.34,0,0,1-6.5-7.31,5.65,5.65,0,0,1-.08-1.7l5.47-48.41a5.54,5.54,0,0,1,6.12-4.88l48,5.41A24.37,24.37,0,0,1,369.49,43.17Z" style="fill:#1b0976"/><path d="M362.51,133.44a5.41,5.41,0,0,0-3.44-2.67l-49.38-12.3a5.4,5.4,0,0,0-6.56,3.94l-11.52,46.22a5.56,5.56,0,0,0-.15,1.66,7.19,7.19,0,0,0,5.36,7.92l49.34,12.3a7.12,7.12,0,0,0,8.63-5.19L366,140.51C366.7,137.51,365,135.13,362.51,133.44Z" style="fill:#1b0976"/><path d="M219,125.5a5.66,5.66,0,0,0,.72,1.53,7.28,7.28,0,0,0,8.72,4.23L278,117a7.2,7.2,0,0,0,4.93-8.93l-12.95-45c-.86-3-3.53-4.25-6.61-4.45A5.47,5.47,0,0,0,259,58L209.38,72.3a5.49,5.49,0,0,0-3.75,6.8Z" style="fill:#1b0976"/><path d="M341.31,294.94l-9,43.53c-.69,3.33-3.78,4.65-7.22,4.81a5.12,5.12,0,0,1-2.7.19L267,332c-8.38,15.3-16,25.75-21.49,36.53a186,186,0,0,1-14.42,24.78H174.26a15.83,15.83,0,0,1-15.83-15.83v-7.08c1-.75,2-1.48,3.1-2.2a47.63,47.63,0,0,1,10.06-12.27l2.22,5.34c13.17-6.7,27.9-13,32.93-21.05,3-4.84,6.45-11.55,10.55-18.52l-11.42-2.37a5.22,5.22,0,0,1-4.05-6.16l9.32-44.9a5.19,5.19,0,0,1,.91-2,6.93,6.93,0,0,1,7.5-3.55L336,286.84A6.85,6.85,0,0,1,341.31,294.94Z" style="fill:#1b0976"/><path d="M198.94,232.87a5.44,5.44,0,0,0,.39,1.67,7.41,7.41,0,0,0,7.83,6l52.26-4a7.34,7.34,0,0,0,6.75-7.88l-3.67-47.47c-.24-3.17-2.65-5-5.67-5.79a5.53,5.53,0,0,0-4.23-1.49l-52.32,4a5.59,5.59,0,0,0-5.13,6Z" style="fill:#1b0976"/></g><path d="M301.45,1.4l45.53,5c5.19.59,11.06,3.2,10.47,8.39l-5.3,46.94a7.28,7.28,0,0,1-8,6.41l-51.68-5.83a7.34,7.34,0,0,1-6.45-8.1l5-44.5A9.47,9.47,0,0,1,301.45,1.4Z" style="fill:#cf3b59"/><path d="M297.44,0l51.72,5.84A5.53,5.53,0,0,1,354,12l-5.47,48.41a5.53,5.53,0,0,1-6.12,4.88l-51.72-5.84a5.55,5.55,0,0,1-4.88-6.13l5.47-48.4A5.53,5.53,0,0,1,297.44,0Z" style="fill:url(#g)"/><path d="M337.83,32.73,314.62,15.59A1.67,1.67,0,0,0,312,16.74l-3.23,28.68a1.66,1.66,0,0,0,2.31,1.71l26.46-11.54A1.66,1.66,0,0,0,337.83,32.73Z" style="fill:url(#h)"/><path d="M299.39,107.47l43.49,10.73c4.95,1.23,10.3,4.52,9.07,9.47l-11.17,44.81a7.12,7.12,0,0,1-8.63,5.19l-49.34-12.3a7.19,7.19,0,0,1-5.22-8.68l10.59-42.48A9.25,9.25,0,0,1,299.39,107.47Z" style="fill:#312da4"/><path d="M295.68,105.63l49.38,12.31A5.42,5.42,0,0,1,349,124.5l-11.52,46.22a5.42,5.42,0,0,1-6.56,3.94l-49.39-12.31a5.41,5.41,0,0,1-3.94-6.56l11.52-46.22A5.41,5.41,0,0,1,295.68,105.63Z" style="fill:url(#i)"/><path d="M327.41,137.52a13.05,13.05,0,1,0-24.94,1.3h0L309,155a.68.68,0,0,0,1.07.26l13.38-11.17h0A13,13,0,0,0,327.41,137.52ZM314.32,140a5.67,5.67,0,1,1,5.61-3.37A5.67,5.67,0,0,1,314.32,140Z" style="fill:url(#j)"/><path d="M199.56,59.2l43.61-12.67c5-1.43,11.33-1.26,12.76,3.71l12.95,45a7.22,7.22,0,0,1-4.93,8.93l-49.54,14.26a7.27,7.27,0,0,1-9-5L193.15,70.8A9.37,9.37,0,0,1,199.56,59.2Z" style="fill:#d6695d"/><path d="M195.37,59.47,245,45.2A5.49,5.49,0,0,1,251.74,49l13.36,46.4a5.49,5.49,0,0,1-3.76,6.79l-49.58,14.27a5.49,5.49,0,0,1-6.79-3.75l-13.35-46.4A5.49,5.49,0,0,1,195.37,59.47Z" style="fill:url(#k)"/><path d="M228.15,94c1.6,2.27.52,5.79-2.43,7.87s-6.62,1.94-8.22-.33-.52-5.78,2.42-7.86S226.55,91.75,228.15,94Z" style="fill:#fff"/><path d="M247.52,80.87c1.6,2.26.51,5.78-2.43,7.86s-6.63,1.94-8.23-.33-.52-5.78,2.43-7.86S245.91,78.6,247.52,80.87Z" style="fill:#fff"/><path d="M217.52,62.31l-2.21.64a.86.86,0,0,0-.59,1.07l.63,2.21,8,27.69,3-.88-7.78-27a.7.7,0,0,1,.48-.86l16.31-4.69a.68.68,0,0,1,.86.47l7.29,25.32,3-.87-7.48-26L239,59l-.53-1.82a.86.86,0,0,0-1.07-.59Z" style="fill:#fff"/><path d="M195.73,307l110.72,23.08c4.81,1,10.82.39,11.82-4.42l9-43.53A6.85,6.85,0,0,0,322,274L205.54,249.84a6.91,6.91,0,0,0-8.15,5.35l-8.57,41.26A8.9,8.9,0,0,0,195.73,307Z" style="fill:#312da4"/><path d="M191.86,306.45l116.49,24.18a5.21,5.21,0,0,0,6.16-4l9.32-44.89a5.21,5.21,0,0,0-4.05-6.16L203.29,251.36a5.2,5.2,0,0,0-6.16,4l-9.32,44.89A5.21,5.21,0,0,0,191.86,306.45Z" style="fill:url(#l)"/><rect x="202.56" y="266.07" width="64.08" height="11.75" transform="translate(409.04 585.88) rotate(-168.27)" style="fill:url(#m)"/><path d="M314.69,285.51l-6.79,32.72a2.87,2.87,0,0,1-3.4,2.23l-35.29-7.32a2.88,2.88,0,0,1-2.23-3.4L273.77,277a2.9,2.9,0,0,1,3.41-2.25l35.28,7.33A2.87,2.87,0,0,1,314.69,285.51Z" style="fill:url(#n)"/><path d="M311.26,302.05l-3.36,16.18a2.87,2.87,0,0,1-3.4,2.23l-35.29-7.32a2.88,2.88,0,0,1-2.23-3.4l.95-4.58,7.56-5.56a1.37,1.37,0,0,1,2,.38l6.37,10.07a1.38,1.38,0,0,0,2,.38l20.44-14.72a1.39,1.39,0,0,1,2,.49Z" style="fill:url(#o)"/><path d="M289.61,287.68a5,5,0,1,0-6,3.92A5,5,0,0,0,289.61,287.68Z" style="fill:url(#p)"/><rect x="217.88" y="264.3" width="0.96" height="36.62" transform="translate(-102.73 438.98) rotate(-78.27)" style="fill:url(#q)"/><rect x="252.49" y="279.37" width="0.96" height="20.84" transform="translate(-82.18 478.59) rotate(-78.27)" style="fill:url(#r)"/><rect x="204.35" y="280.39" width="0.96" height="11.56" transform="translate(-116.99 428.58) rotate(-78.28)" style="fill:url(#s)"/><rect x="241.18" y="273.14" width="0.96" height="41.35" transform="translate(-95.13 470.72) rotate(-78.27)" style="fill:url(#t)"/><rect x="215.31" y="276.7" width="0.96" height="36.61" transform="translate(-116.92 446.34) rotate(-78.27)" style="fill:url(#u)"/><rect x="249.92" y="291.77" width="0.96" height="20.84" transform="translate(-96.37 485.95) rotate(-78.27)" style="fill:url(#v)"/><rect x="201.84" y="292.49" width="0.96" height="11.55" transform="translate(-130.84 435.73) rotate(-78.27)" style="fill:url(#w)"/><rect x="238.67" y="285.23" width="0.96" height="41.35" transform="translate(-108.98 477.9) rotate(-78.27)" style="fill:url(#x)"/><path d="M261.12,303q-2,4.34-4,8.25c-10,19.79-19.24,31.85-25.64,44.39-6.25,12.24-22.34,46.58-62.19,65.87-6.06,2.93-10.7.33-12.51-4.66-3.23-.71-20.66-43.13-20.62-46.73.22-18,46.78-27.19,56.56-42.79,10.25-16.35,24.84-54,55.54-50.85a41.6,41.6,0,0,1,8,1.7C262.25,280.06,263.66,297.53,261.12,303Z" style="fill:#fda798"/><path d="M164,350.42s-20.73,10.69-24.79,28.47c0,0,2.95-22.69,18.39-35.83l2.26,5.45Z" style="fill:#fd876d"/><path d="M238,340.55a1,1,0,0,1-.78-.38c-6.25-7.88-19.6-12.95-19.73-13a1,1,0,1,1,.7-1.87c.57.21,14,5.32,20.6,13.63a1,1,0,0,1-.79,1.62Z" style="fill:#fd876d"/><path d="M234.24,347.2a1,1,0,0,1-.79-.37c-6.25-7.88-19.6-12.95-19.73-13a1,1,0,0,1,.7-1.88c.57.22,14,5.33,20.6,13.63a1,1,0,0,1-.16,1.41A1,1,0,0,1,234.24,347.2Z" style="fill:#fd876d"/><path d="M261.12,303q-2,4.34-4,8.25c-5.54-9-17.77-13.13-24.52-14.81a3.91,3.91,0,0,1-2.49-5.69,29.3,29.3,0,0,1,13-12.44,15,15,0,0,1,9.8-1.05c1.11.25,2.25.56,3.4.92C262.25,280.06,263.66,297.53,261.12,303Z" style="fill:#fdb8ac"/><path d="M239.65,292.49s13.5,4.75,16.42,11.66C256.07,304.15,256.4,287.24,239.65,292.49Z" style="fill:#fdc3b9"/><path d="M190.5,165.67l46-3.67c5.25-.41,11.55,1.06,12,6.31l3.67,47.48a7.34,7.34,0,0,1-6.75,7.88l-52.27,4a7.42,7.42,0,0,1-7.93-6.8l-3.48-45A9.53,9.53,0,0,1,190.5,165.67Z" style="fill:#cf3b59"/><path d="M186.27,165.08,238.59,161a5.59,5.59,0,0,1,6,5.14l3.79,49a5.59,5.59,0,0,1-5.14,6l-52.31,4a5.59,5.59,0,0,1-6-5.14l-3.78-49A5.57,5.57,0,0,1,186.27,165.08Z" style="fill:url(#y)"/><path d="M233.82,195.28l-.41-5.23-3.88-.89a15.25,15.25,0,0,0-2-4l1.58-3.67-4-3.41-3.38,2.12a15.41,15.41,0,0,0-4.24-1.39l-1.48-3.7-5.22.4-.9,3.89a15.54,15.54,0,0,0-4,2l-3.66-1.57-3.41,4,2.12,3.38a15.41,15.41,0,0,0-1.39,4.24l-3.7,1.48.4,5.23,3.89.89a15.38,15.38,0,0,0,2,4l-1.58,3.67,4,3.41L208,208a15.41,15.41,0,0,0,4.24,1.39l1.48,3.7,5.23-.4.89-3.89a15.38,15.38,0,0,0,4-2l3.66,1.57,3.42-4L228.73,201a15.45,15.45,0,0,0,1.38-4.25Zm-18.06,10.81a12,12,0,1,1,11.05-12.9A12,12,0,0,1,215.76,206.09Z" style="fill:#fff"/><path d="M218.31,193.84a3.49,3.49,0,1,1-3.75-3.21A3.48,3.48,0,0,1,218.31,193.84Z" style="fill:#fff"/></svg>