<svg xmlns="http://www.w3.org/2000/svg" xmlns:xlink="http://www.w3.org/1999/xlink" viewBox="0 0 451.07 533.07"><defs><linearGradient id="a" x1="113.17" y1="511.16" x2="192.62" y2="511.16" gradientUnits="userSpaceOnUse"><stop offset="0" stop-color="#fb2040"/><stop offset="0.25" stop-color="#f53d5a"/><stop offset="0.54" stop-color="#ef5772"/><stop offset="0.8" stop-color="#ec6680"/><stop offset="1" stop-color="#eb6c85"/></linearGradient><linearGradient id="b" x1="458.64" y1="424.4" x2="171.9" y2="210.12" gradientUnits="userSpaceOnUse"><stop offset="0" stop-color="#b9c4ea"/><stop offset="0.2" stop-color="#ced6f0"/><stop offset="0.51" stop-color="#e8edf8"/><stop offset="0.78" stop-color="#f7fafd"/><stop offset="1" stop-color="#fdffff"/></linearGradient><linearGradient id="c" x1="131.55" y1="379.51" x2="505.83" y2="341.79" xlink:href="#b"/><linearGradient id="d" x1="389.88" y1="415" x2="402.86" y2="415" gradientUnits="userSpaceOnUse"><stop offset="0" stop-color="#eb6c85"/><stop offset="0.22" stop-color="#ed7281"/><stop offset="0.49" stop-color="#f18176"/><stop offset="0.79" stop-color="#f99b63"/><stop offset="1" stop-color="#ffb154"/></linearGradient><linearGradient id="e" x1="191.1" y1="385.48" x2="204.08" y2="385.48" xlink:href="#d"/><linearGradient id="f" x1="382.56" y1="338.39" x2="395.53" y2="338.39" xlink:href="#d"/><linearGradient id="g" x1="183.78" y1="308.87" x2="196.75" y2="308.87" xlink:href="#d"/><linearGradient id="h" x1="331.39" y1="210.84" x2="409.44" y2="210.84" xlink:href="#d"/><linearGradient id="i" x1="167.13" y1="226.55" x2="242.09" y2="226.55" xlink:href="#b"/><linearGradient id="j" x1="273.91" y1="226.11" x2="324.81" y2="226.11" gradientUnits="userSpaceOnUse"><stop offset="0" stop-color="#009db0"/><stop offset="0.28" stop-color="#01c0ca"/><stop offset="0.56" stop-color="#01dade"/><stop offset="0.81" stop-color="#02e9ea"/><stop offset="1" stop-color="#02efee"/></linearGradient><linearGradient id="k" x1="283.14" y1="215.56" x2="295.44" y2="215.56" xlink:href="#d"/><linearGradient id="l" x1="176.97" y1="227.81" x2="229.91" y2="227.81" xlink:href="#j"/><linearGradient id="m" x1="257.82" y1="464.98" x2="312.67" y2="464.98" gradientUnits="userSpaceOnUse"><stop offset="0" stop-color="#3934c4"/><stop offset="0.27" stop-color="#3f39c9"/><stop offset="0.62" stop-color="#4e47d7"/><stop offset="1" stop-color="#685eee"/></linearGradient><linearGradient id="n" x1="395.31" y1="464.98" x2="450.16" y2="464.98" xlink:href="#m"/><linearGradient id="o" x1="308.69" y1="394.99" x2="399.36" y2="394.99" gradientUnits="userSpaceOnUse"><stop offset="0" stop-color="#fdffff"/><stop offset="0.22" stop-color="#f7fafd"/><stop offset="0.49" stop-color="#e8edf8"/><stop offset="0.8" stop-color="#ced6f0"/><stop offset="1" stop-color="#b9c4ea"/></linearGradient><linearGradient id="p" x1="341.81" y1="316.72" x2="366.23" y2="316.72" xlink:href="#d"/><linearGradient id="q" x1="341.81" y1="369.47" x2="366.23" y2="369.47" xlink:href="#d"/><linearGradient id="r" x1="350.7" y1="464.98" x2="357.34" y2="464.98" xlink:href="#m"/><clipPath id="s"><path d="M313.48,0s31.76,6.53,80,26.58,52.28,205.94,52.28,205.94-122.91,41.63-138.41,39.87-87.05-48.8-79.57-56.83S276.55,86.91,276.55,86.91,282.39,33.3,283.12,18,313.48,0,313.48,0Z" style="fill:none"/></clipPath><linearGradient id="t" x1="333.31" y1="66.82" x2="354.84" y2="66.82" xlink:href="#m"/><linearGradient id="u" x1="322.17" y1="127.77" x2="360.08" y2="127.77" xlink:href="#m"/><linearGradient id="v" x1="1409.21" y1="103.14" x2="1441.8" y2="59.92" gradientTransform="matrix(-1, 0, 0, 1, 1766.9, 0)" xlink:href="#a"/><linearGradient id="w" x1="319.81" y1="198.67" x2="391.67" y2="198.67" xlink:href="#a"/><linearGradient id="x" x1="319.77" y1="234.28" x2="319.81" y2="234.28" xlink:href="#a"/><linearGradient id="y" x1="808.02" y1="429.56" x2="888.2" y2="429.56" gradientTransform="translate(-788.4)" xlink:href="#m"/><linearGradient id="z" x1="786.89" y1="272.4" x2="942.47" y2="272.4" gradientTransform="translate(-788.4)" xlink:href="#d"/><linearGradient id="aa" x1="786.89" y1="282.36" x2="942.47" y2="282.36" gradientTransform="translate(-788.4)" xlink:href="#d"/><linearGradient id="ab" x1="47.32" y1="299.73" x2="92.04" y2="299.73" xlink:href="#b"/><linearGradient id="ac" x1="92.04" y1="271.78" x2="203.24" y2="271.78" xlink:href="#o"/><linearGradient id="ad" x1="786.89" y1="285.52" x2="942.47" y2="285.52" gradientTransform="translate(-788.4)" xlink:href="#d"/><linearGradient id="ae" x1="786.89" y1="269.14" x2="942.47" y2="269.14" gradientTransform="translate(-788.4)" xlink:href="#d"/></defs><title>webdevelopment</title><path d="M167.6,397.79a17.78,17.78,0,0,0,9.52-2.86,68,68,0,0,1-1.42,16c-3.73,5.51-14.11,15.64-13.4,15.58a36.9,36.9,0,0,0,8.32-1.77,55.9,55.9,0,0,1-6.34,9.47c-5,6.13-12.2,11-14.92,18.52a.48.48,0,0,1-.32.33.6.6,0,0,1-1,.4c-13.53-11.75-15.95-29.59-17.94-45.68-.09-.76-.19-1.51-.27-2.28a53.83,53.83,0,0,0,12.48,8.9c.65.33-8.48-13-13-19.18a33.63,33.63,0,0,1,2.33-11.42c3.17-7.76,8.6-15,13.87-21.69.21-.28.46-.54.67-.82a36.24,36.24,0,0,0,5.83,9.65c.43.51-1-9.77-1.82-14.46,1.32-1.5,2.65-3,4-4.46,1.81-1.94,4-5.24,7.27-4.8s10.31,12.18,11.22,15.54c.39,1.44.75,2.91,1.07,4.38.15.63.28,1.28.4,1.92a160.7,160.7,0,0,1,2.41,17.91,10.41,10.41,0,0,1-.7.94C173.33,391.15,167,397.79,167.6,397.79Z" style="fill:#becef5"/><path d="M155.27,391.87c6.68-.92,11.78-4.78,16.68-8.76A.72.72,0,0,0,171,382c-4.59,3.73-9.38,7.45-15.61,8.42q2.13-13.62,5-27.15c.19-.89-1.32-1.1-1.51-.22q-3.88,17.91-6.34,36a58,58,0,0,1-8.83-16.24c-.31-.85-1.72-.33-1.42.52a59.18,59.18,0,0,0,9.48,17.15.73.73,0,0,0,.55.28c-.35,2.63-.67,5.28-1,7.92a37.12,37.12,0,0,1-6.56-10.49c-.34-.84-1.76-.32-1.42.52a38.06,38.06,0,0,0,7.46,11.63.75.75,0,0,0,.31.2q-1.47,13.05-2.22,26.16a.75.75,0,0,0-.09.3c-.21,3.2-.32,6.4-.37,9.59-.07,2.08-.14,4.16-.18,6.25a.51.51,0,0,0,.22.47c.39,19.69,3.59,39.16,8.12,58.43l1.48-.32c-5.12-21.77-8.52-43.81-8.08-66.13.1-2.35.2-4.71.33-7.06a.76.76,0,0,0,.68-.08,24.43,24.43,0,0,0,7-6.54c.54-.75-.66-1.63-1.19-.87a23.32,23.32,0,0,1-6.4,6.07q1.27-22.56,4.72-45Z" style="fill:#8fabec"/><path d="M102.18,432.32a18.13,18.13,0,0,1-9,.71,51.9,51.9,0,0,0,6.29,11.58c4.92,3,17,7.51,16.35,7.67a37.19,37.19,0,0,1-7.64,1.17,49.83,49.83,0,0,0,8.4,5.22c6.23,3.09,13.88,4.62,18.57,9.43a.47.47,0,0,0,.37.15.58.58,0,0,0,1,0c7.77-12.89,4.16-27,.73-39.71-.16-.6-.32-1.19-.5-1.79a45.06,45.06,0,0,1-7.77,10.44c-.46.44,3.06-12.34,4.9-18.3a26,26,0,0,0-5.61-7.89c-5.16-4.87-12.08-8.69-18.68-12.13l-.83-.41a27,27,0,0,1-1.89,9c-.2.52-2.29-7.63-3-11.41-1.6-.73-3.2-1.46-4.83-2.14-2.16-.92-5.1-2.73-7.71-1.42s-4.89,12.24-4.6,15.05c.13,1.19.3,2.4.49,3.6.07.53.17,1.05.26,1.56A118.09,118.09,0,0,0,91,426.89c.29.17.58.34.89.5C95.21,429.05,102.73,432.13,102.18,432.32Z" style="fill:#8fabec"/><path d="M147.7,514.67c-2.27-15.84-5.75-31.43-11.67-46.34a.42.42,0,0,0,0-.42c-.71-1.55-1.42-3.1-2.15-4.64-1-2.39-2.17-4.75-3.36-7.1a.52.52,0,0,0-.17-.19q-4.8-9.63-10.21-19a.61.61,0,0,0,.21-.24,28.42,28.42,0,0,0,2.64-11c0-.74-1.35-.71-1.37,0a27.25,27.25,0,0,1-2.25,9.85c-1.1-1.89-2.21-3.78-3.35-5.66a.58.58,0,0,0,.38-.37,43.43,43.43,0,0,0,2.61-15.73c0-.73-1.38-.7-1.37,0a42.7,42.7,0,0,1-2.35,14.86q-7.86-12.86-16.84-25.17c-.44-.6-1.66,0-1.21.62q6.78,9.27,12.9,18.89c-5.6,1.14-10.85-.22-15.94-1.64-.82-.22-1.23.9-.42,1.12,5.43,1.52,11,2.88,17,1.57l.06,0a362,362,0,0,1,18.31,32.37,22.1,22.1,0,0,1-7.38-2.64c-.69-.4-1.43.61-.74,1a23.52,23.52,0,0,0,8,2.81.75.75,0,0,0,.6-.15c.86,1.73,1.69,3.47,2.52,5.21,7.48,16.63,11.59,34.22,14.16,52.12Z" style="fill:#becef5"/><path d="M99,415.39a36.74,36.74,0,0,1-11.9-4.25c.07.53.17,1.05.26,1.56a38.94,38.94,0,0,0,11.21,3.81C99.46,416.66,99.87,415.54,99,415.39Z" style="fill:#becef5"/><path d="M228.12,425.87c-.08,5-12.82,7.47-16.86,8.84-8.95,3-17.69,6.08-24.31,12.67-7.8,7.76-14.53,16.71-21.26,25.26a1.64,1.64,0,0,1-1.59.63,22.78,22.78,0,0,1-1.85-3.68c-2.32-5.23-5.87-14.79-5-20.24a31,31,0,0,1,4.06-10.87,9.47,9.47,0,0,0,2.55,4.6c.32.3,1-6.87,1.47-10.13.58-.66,1.18-1.3,1.81-1.92a39.3,39.3,0,0,1,4.71-4c.36-.26.71-.52,1.08-.76a49.9,49.9,0,0,1,4.29-2.6l1.2-.63c1.38-.7,2.82-1.35,4.28-1.94a24.77,24.77,0,0,0,2.37,7.17c.24.48.84-5.66.93-8.38,1.38-.48,2.8-.88,4.23-1.25a19.68,19.68,0,0,0,1.75,4.63c.2.36,2.09-3.8,2.78-5.63a60.08,60.08,0,0,1,13.64-1c.39,0,.78,0,1.16.07,1.22.07,2.43.2,3.62.37,4.39.62,14.72,3.16,14.93,8.58Z" style="fill:#8fabec"/><path d="M179.12,439.1c-10.81,9.76-14.17,27.69-14.87,32.78A21.74,21.74,0,0,0,162,478.5c-1.28,8-.91,16.53-.69,24.64.08,2.67.21,5.33.36,8l1.5-.25c-.09-1.68-.18-3.36-.24-5.05-.27-7.25-.26-14.53.1-21.78.19-3.75.57-7.52,2.16-11a1.52,1.52,0,0,0,.48-.41c6.73-8.55,13.46-17.5,21.26-25.26,6.62-6.59,15.36-9.64,24.31-12.67,4-1.37,16.78-3.8,16.86-8.84C211.15,427.68,191.58,427.87,179.12,439.1Z" style="fill:#becef5"/><path d="M178.66,434.31a29.48,29.48,0,0,1-.23-11.23l-1.2.63a30.38,30.38,0,0,0,.34,10.83C177.71,435.18,178.79,435,178.66,434.31Z" style="fill:#becef5"/><path d="M174.52,436.32a39.29,39.29,0,0,1-1.58-10c-.37.24-.72.5-1.08.76a39.39,39.39,0,0,0,1.57,9.48C173.61,437.18,174.71,437,174.52,436.32Z" style="fill:#becef5"/><path d="M192.62,503.55a33.57,33.57,0,0,1-.87,7.61A36.27,36.27,0,0,1,176.2,533H129.59a36.22,36.22,0,0,1-15.54-21.79,33.25,33.25,0,0,1,.08-15.53,33.86,33.86,0,0,1,2.18-6.26h73.16a33.49,33.49,0,0,1,3.15,14.18Z" style="fill:url(#a)"/><path d="M192.62,503.55a33.57,33.57,0,0,1-.87,7.61A36.27,36.27,0,0,1,176.2,533H129.59c60.89,2.77,59.88-43.58,59.88-43.58a33.49,33.49,0,0,1,3.15,14.18Z" style="fill:#cf3b59"/><path d="M130.82,489.37H116.31a33.86,33.86,0,0,0-2.18,6.26,33.25,33.25,0,0,0-.08,15.53A36.22,36.22,0,0,0,129.59,533H136C128.24,527.78,124.61,504.14,130.82,489.37Z" style="fill:#ff5675"/><path d="M114.13,495.63a33.25,33.25,0,0,0-.08,15.53A36.22,36.22,0,0,0,129.59,533h18.73c-.21-3.59-.53-9.15-.88-15.43h.05l-.12-2.66h-.08c-.16-2.9-.32-5.9-.49-8.9h0c-.31-5.72-.62-11.42-.86-16.28l-1.82-.32H116.31A33.86,33.86,0,0,0,114.13,495.63Z" style="fill:#cf3b59"/><path d="M443.13,460.76H166.67c-4.39,0-7.94-3.25-7.94-7.25V152c0-5.12,4.54-9.27,10.14-9.27H440.93c5.6,0,10.14,4.15,10.14,9.27V453.51C451.07,457.51,447.51,460.76,443.13,460.76Z" style="fill:#becef5"/><path d="M441.41,152V453.5c0,4-3.56,7.26-7.94,7.26H157c-4.39,0-7.94-3.25-7.94-7.26V152c0-5.11,4.54-9.26,10.14-9.26H431.27C436.87,142.76,441.41,146.91,441.41,152Z" style="fill:url(#b)"/><path d="M419.46,447.23H171a4.12,4.12,0,0,1-4.29-3.92V282.71a4.11,4.11,0,0,1,4.29-3.92H419.46a4.11,4.11,0,0,1,4.29,3.92v160.6A4.12,4.12,0,0,1,419.46,447.23Z" style="fill:url(#c)"/><path d="M451.07,174.68H158.73V152c0-5.12,4.54-9.27,10.14-9.27H440.93c5.6,0,10.14,4.15,10.14,9.27Z" style="fill:#8fabec"/><path d="M441.41,174.68H149.07V152c0-5.12,4.54-9.27,10.14-9.27H431.27c5.6,0,10.14,4.15,10.14,9.27Z" style="fill:#becef5"/><path d="M204.94,158.72a5.39,5.39,0,1,1,5.37,4.9A5.15,5.15,0,0,1,204.94,158.72Z" style="fill:#fff"/><path d="M184.3,158.72a5.39,5.39,0,1,1,5.37,4.9A5.15,5.15,0,0,1,184.3,158.72Z" style="fill:#fff"/><path d="M163.66,158.72a5.39,5.39,0,1,1,5.36,4.9A5.14,5.14,0,0,1,163.66,158.72Z" style="fill:#fff"/><polygon points="415.85 155.14 418.5 152.71 422.3 156.18 426.09 152.71 428.75 155.14 424.95 158.6 428.75 162.07 426.09 164.5 422.3 161.03 418.5 164.5 415.85 162.07 419.64 158.6 415.85 155.14" style="fill:#fff"/><path d="M351.7,378.7h-97a1,1,0,1,1,0-1.9h97a1,1,0,1,1,0,1.9Z" style="fill:#fff"/><path d="M237.1,378.7H214.39a1,1,0,1,1,0-1.9H237.1a1,1,0,1,1,0,1.9Z" style="fill:#fff"/><path d="M351.7,394.17H300.05a1,1,0,1,1,0-1.91H351.7a1,1,0,1,1,0,1.91Z" style="fill:#fff"/><path d="M284.73,394.17H214.39a1,1,0,1,1,0-1.91h70.34a1,1,0,1,1,0,1.91Z" style="fill:#fff"/><path d="M380.15,409H283.2a1,1,0,1,1,0-1.91h96.95a1,1,0,1,1,0,1.91Z" style="fill:#fff"/><path d="M265.55,409H226.29a1,1,0,1,1,0-1.91h39.26a1,1,0,1,1,0,1.91Z" style="fill:#fff"/><path d="M380.15,424.45H315.77a1,1,0,1,1,0-1.91h64.38a1,1,0,1,1,0,1.91Z" style="fill:#fff"/><path d="M300.45,424.45H226.29a1,1,0,1,1,0-1.91h74.16a1,1,0,1,1,0,1.91Z" style="fill:#fff"/><path d="M402.86,417.08a5.94,5.94,0,0,0-2.09.38,2.78,2.78,0,0,0-1.2,1.05,4.73,4.73,0,0,0-.72,1.84,18.79,18.79,0,0,0-.15,2.88,22.57,22.57,0,0,1-.33,4.7,4.18,4.18,0,0,1-1.22,2.14,6.47,6.47,0,0,1-2.62,1.27,15.18,15.18,0,0,1-3.64.31h-1v-4.16a9.23,9.23,0,0,0,2.65-.23,1.83,1.83,0,0,0,.92-.68,2.75,2.75,0,0,0,.3-1.49c0-.71.06-2.06.16-4a9.72,9.72,0,0,1,.52-2.89,5.7,5.7,0,0,1,1.1-1.84,6.71,6.71,0,0,1,1.78-1.32,7.72,7.72,0,0,1-2.05-1.63,6.64,6.64,0,0,1-1.21-2.91,48.51,48.51,0,0,1-.31-5.34,4.26,4.26,0,0,0-.25-1.74,1.57,1.57,0,0,0-.86-.66,9.62,9.62,0,0,0-2.76-.24v-4.14h1a16.4,16.4,0,0,1,3.93.36,5.41,5.41,0,0,1,2.29,1.24,4.43,4.43,0,0,1,1.26,2.15,17.6,17.6,0,0,1,.33,4,18.41,18.41,0,0,0,.29,4.14,3.53,3.53,0,0,0,1.27,2,5,5,0,0,0,2.6.69Z" style="fill:url(#d)"/><path d="M191.1,383.4a5,5,0,0,0,2.6-.68,3.53,3.53,0,0,0,1.27-2,18.29,18.29,0,0,0,.29-4.14,17.49,17.49,0,0,1,.33-4,4.39,4.39,0,0,1,1.26-2.15,5.15,5.15,0,0,1,2.29-1.24,16.45,16.45,0,0,1,3.93-.36h1V373a10.16,10.16,0,0,0-2.76.23,1.58,1.58,0,0,0-.86.67,4.24,4.24,0,0,0-.25,1.73,48.51,48.51,0,0,1-.31,5.34,6.54,6.54,0,0,1-1.21,2.91,7.53,7.53,0,0,1-2.05,1.63,6.52,6.52,0,0,1,1.78,1.33,5.55,5.55,0,0,1,1.1,1.83,9.85,9.85,0,0,1,.52,2.89c.1,2,.15,3.33.16,4a2.91,2.91,0,0,0,.3,1.5,1.82,1.82,0,0,0,.92.67,9.15,9.15,0,0,0,2.66.24v4.16h-1a15.73,15.73,0,0,1-3.64-.31,6.47,6.47,0,0,1-2.62-1.28,4.18,4.18,0,0,1-1.22-2.14,22.51,22.51,0,0,1-.33-4.7,18.55,18.55,0,0,0-.15-2.87,4.78,4.78,0,0,0-.72-1.85,2.85,2.85,0,0,0-1.2-1.05,6.44,6.44,0,0,0-2.09-.38Z" style="fill:url(#e)"/><path d="M344.37,302.09h-97a1,1,0,1,1,0-1.9h97a1,1,0,1,1,0,1.9Z" style="fill:#fff"/><path d="M229.77,302.09H207.06a1,1,0,1,1,0-1.9h22.71a1,1,0,1,1,0,1.9Z" style="fill:#fff"/><path d="M344.37,317.56H292.72a1,1,0,1,1,0-1.91h51.65a1,1,0,1,1,0,1.91Z" style="fill:#fff"/><path d="M277.4,317.56H207.06a1,1,0,1,1,0-1.91H277.4a1,1,0,1,1,0,1.91Z" style="fill:#fff"/><path d="M372.82,332.38H275.87a1,1,0,1,1,0-1.91h96.95a1,1,0,1,1,0,1.91Z" style="fill:#fff"/><path d="M258.22,332.38H219a1,1,0,1,1,0-1.91h39.26a1,1,0,1,1,0,1.91Z" style="fill:#fff"/><path d="M372.82,347.84H308.44a1,1,0,1,1,0-1.91h64.38a1,1,0,1,1,0,1.91Z" style="fill:#fff"/><path d="M293.12,347.84H219a1,1,0,1,1,0-1.91h74.16a1,1,0,1,1,0,1.91Z" style="fill:#fff"/><path d="M395.53,340.47a6,6,0,0,0-2.09.38,2.78,2.78,0,0,0-1.2,1,4.72,4.72,0,0,0-.71,1.84,18.79,18.79,0,0,0-.15,2.88,22.38,22.38,0,0,1-.34,4.7,4.18,4.18,0,0,1-1.22,2.14,6.4,6.4,0,0,1-2.62,1.27,15.18,15.18,0,0,1-3.64.31h-1v-4.16a9.63,9.63,0,0,0,2.65-.23,1.79,1.79,0,0,0,.92-.68,2.76,2.76,0,0,0,.3-1.5c0-.7.07-2.05.17-4a9.45,9.45,0,0,1,.51-2.89,5.91,5.91,0,0,1,1.11-1.84,6.49,6.49,0,0,1,1.77-1.32,7.89,7.89,0,0,1-2.05-1.63,6.64,6.64,0,0,1-1.21-2.91,46.86,46.86,0,0,1-.3-5.34,4.39,4.39,0,0,0-.26-1.74,1.55,1.55,0,0,0-.85-.66,9.62,9.62,0,0,0-2.76-.24v-4.14h1a16.34,16.34,0,0,1,3.93.36,5.35,5.35,0,0,1,2.29,1.24,4.43,4.43,0,0,1,1.26,2.15,16.91,16.91,0,0,1,.34,4,18.63,18.63,0,0,0,.28,4.14,3.59,3.59,0,0,0,1.27,2,5,5,0,0,0,2.6.69Z" style="fill:url(#f)"/><path d="M183.78,306.79a5.13,5.13,0,0,0,2.6-.68,3.63,3.63,0,0,0,1.27-2,18.57,18.57,0,0,0,.28-4.14,17.49,17.49,0,0,1,.33-4,4.39,4.39,0,0,1,1.26-2.15,5.19,5.19,0,0,1,2.3-1.24,16.21,16.21,0,0,1,3.92-.37h1v4.15a9.75,9.75,0,0,0-2.76.23,1.52,1.52,0,0,0-.85.67,4.19,4.19,0,0,0-.26,1.73,46.86,46.86,0,0,1-.3,5.34,6.55,6.55,0,0,1-1.22,2.91,7.62,7.62,0,0,1-2,1.63,6.32,6.32,0,0,1,1.77,1.33A5.68,5.68,0,0,1,192.2,312a9.75,9.75,0,0,1,.51,2.88c.1,2,.15,3.33.16,4a3,3,0,0,0,.3,1.5,1.86,1.86,0,0,0,.92.67,9.2,9.2,0,0,0,2.66.24v4.16h-1a15.12,15.12,0,0,1-3.64-.32,6.34,6.34,0,0,1-2.62-1.27,4.18,4.18,0,0,1-1.22-2.14,22.51,22.51,0,0,1-.33-4.7,18.55,18.55,0,0,0-.15-2.87,4.93,4.93,0,0,0-.71-1.85,2.93,2.93,0,0,0-1.21-1.05,6.37,6.37,0,0,0-2.08-.38Z" style="fill:url(#g)"/><path d="M277.27,258.13H413.19c6,0,10.84-4.43,10.84-9.91V205.4c0-5.47-4.85-9.91-10.84-9.91H277.27c-6,0-10.84,4.44-10.85,9.91v42.82C266.42,253.7,271.28,258.13,277.27,258.13Z" style="fill:#becef5"/><path d="M272.44,258.13H408.36c6,0,10.84-4.43,10.84-9.91V205.4c0-5.47-4.85-9.91-10.84-9.91H272.44c-6,0-10.84,4.44-10.84,9.91v42.82C261.6,253.7,266.45,258.13,272.44,258.13Z" style="fill:#fff"/><rect x="331.39" y="204.3" width="78.05" height="13.08" style="fill:url(#h)"/><rect x="331.39" y="225.82" width="14.61" height="1.99" style="fill:#becef5"/><rect x="351.2" y="225.82" width="58.24" height="1.99" style="fill:#becef5"/><rect x="331.39" y="230.53" width="38.52" height="1.99" style="fill:#becef5"/><rect x="373.01" y="230.53" width="14.61" height="1.99" style="fill:#becef5"/><rect x="391.25" y="230.53" width="18.19" height="1.99" style="fill:#becef5"/><rect x="331.39" y="235.25" width="46.07" height="1.99" style="fill:#becef5"/><rect x="381.62" y="235.25" width="27.81" height="1.99" style="fill:#becef5"/><rect x="373.01" y="240.07" width="36.42" height="1.99" style="fill:#becef5"/><rect x="331.39" y="239.96" width="9" height="1.99" style="fill:#becef5"/><rect x="343.73" y="239.96" width="25.62" height="1.99" style="fill:#becef5"/><rect x="331.39" y="244.68" width="14.61" height="1.99" style="fill:#becef5"/><rect x="351.2" y="244.68" width="58.24" height="1.99" style="fill:#becef5"/><path d="M184,258.78h52.65c6.16,0,11.16-4.56,11.16-10.19V204.52c0-5.63-5-10.19-11.16-10.19H184c-6.16,0-11.15,4.56-11.15,10.19v44.07C172.83,254.22,177.82,258.78,184,258.78Z" style="fill:#becef5"/><path d="M178.29,258.78h52.65c6.16,0,11.15-4.56,11.15-10.19V204.52c0-5.63-5-10.19-11.16-10.19H178.29c-6.16,0-11.16,4.56-11.16,10.19v44.07C167.13,254.22,172.13,258.78,178.29,258.78Z" style="fill:url(#i)"/><path d="M324.81,207.52v37.2a3.38,3.38,0,0,1-3.51,3.2H277.41a3.37,3.37,0,0,1-3.5-3.2v-37.2a3.37,3.37,0,0,1,3.5-3.22H321.3A3.38,3.38,0,0,1,324.81,207.52Z" style="fill:url(#j)"/><path d="M324.81,226.33v18.39a3.38,3.38,0,0,1-3.51,3.2H277.41a3.37,3.37,0,0,1-3.5-3.2v-5.2l7.63-7.77a1.79,1.79,0,0,1,2.46,0l10.08,9.53a1.79,1.79,0,0,0,2.45,0l20.73-20.68a1.8,1.8,0,0,1,2.55.08Z" style="fill:#8fabec"/><path d="M295.44,215.56a6.17,6.17,0,1,0-6.15,5.62A5.9,5.9,0,0,0,295.44,215.56Z" style="fill:url(#k)"/><path d="M224.68,230.27l5.23-.87-.78-7.64-5.31,0a19.19,19.19,0,0,0-3.45-6l3-4-6.47-4.9-3.74,3.46a22.66,22.66,0,0,0-7-2l-1-4.79-8.36.71,0,4.87a22.19,22.19,0,0,0-6.52,3.14L186,209.56l-5.37,5.92,3.78,3.42a18.38,18.38,0,0,0-2.16,6.44l-5.25.87.79,7.64,5.32,0a18.9,18.9,0,0,0,3.44,6l-3,4,6.48,4.91,3.74-3.47a22.71,22.71,0,0,0,7.05,2l.95,4.79,8.36-.72,0-4.86a22.1,22.1,0,0,0,6.52-3.15l4.37,2.77,5.37-5.91-3.79-3.42A18.21,18.21,0,0,0,224.68,230.27Zm-9.56,6.39a16.17,16.17,0,0,1-21.36,1.82,13.07,13.07,0,0,1-2-19.53,16.19,16.19,0,0,1,21.37-1.83A13.08,13.08,0,0,1,215.12,236.66Z" style="fill:url(#l)"/><g style="opacity:0.15"><path d="M394,460.76H212.46a14.29,14.29,0,0,1,3-6.65l42.45-52.9V335a187.61,187.61,0,0,1,14-70.83h62.79A188,188,0,0,1,348.57,335v66.3l43,53.55A11.19,11.19,0,0,1,394,460.76Z" style="fill:#1b0976"/><path d="M345.54,212a.71.71,0,0,0-.27-.31A259.83,259.83,0,0,0,304.42,175c-.31-11.83-.72-24-1.22-27.59a16.73,16.73,0,0,0,4.79-4.69H278.36a17.62,17.62,0,0,0,13.1,7.56c-.08,4-.11,9.64-.09,15.83-1.52-1-3.05-1.93-4.61-2.88a227.23,227.23,0,0,0-13.35,70.79l0,0s0,.05,0,.07v0a.53.53,0,0,0,0,.16.09.09,0,0,1,0,.05.69.69,0,0,0,0,.2h0c.57,1.53,8.69.49,20.18-2.32l-.07.06c1.69,1.33,6.31,1.16,8.21-.59l.11-.12a7.15,7.15,0,0,0,1.95-2.07c2.34-.67,4.75-1.39,7.21-2.16C330.89,221.08,346.37,214.24,345.54,212Zm-47.47,19,1.46-.39A5.39,5.39,0,0,1,298.07,231Zm-4.48-63.42c0-3.24,0-6,0-8q0-4.35.1-9.22a18.26,18.26,0,0,0,7.5-1.78c.22,1.66.42,5,.6,9.23s.35,9.37.5,14.64h0c0,.34,0,.68,0,1C299.42,171.47,296.52,169.51,293.59,167.59Z" style="fill:#1b0976"/></g><path d="M310.07,399.5l-43.83,54.61a14.17,14.17,0,0,0-3.13,7.74l-5.28,66c-.24,3,3.8,4.57,6,2.34l33.52-33.87a15.12,15.12,0,0,1,7.57-4.1l5.53-1.21h0a3.37,3.37,0,0,0,2.23-3.12V400.46C312.68,398.57,311.5,398.14,310.07,399.5Z" style="fill:url(#m)"/><path d="M397.91,399.5l44.42,55.34a11.16,11.16,0,0,1,2.46,6.11l5.36,66.91c.24,3-3.8,4.57-6,2.34l-35.53-35.91a5.33,5.33,0,0,0-2.65-1.43L397.53,491h0a3.37,3.37,0,0,1-2.23-3.12V400.46C395.3,398.57,396.48,398.14,397.91,399.5Z" style="fill:url(#n)"/><path d="M399.36,335V484.38c0,22.89-20.3,41.44-45.33,41.44s-45.34-18.55-45.34-41.44V335a187.52,187.52,0,0,1,13.94-70.83h62.79A187.71,187.71,0,0,1,399.36,335Z" style="fill:url(#o)"/><path d="M354,296c-6.74,0-12.21,5-12.21,11.15v22.88c0,6.16,5.47,11.16,12.21,11.16s12.21-5,12.21-11.16V307.19C366.23,301,360.76,296,354,296Z" style="fill:#d15761"/><path d="M354,296c-6.74,0-12.21,5-12.21,11.16v19c0,6.16,5.47,11.16,12.21,11.16s12.21-5,12.21-11.16v-19C366.23,301,360.76,296,354,296Z" style="fill:url(#p)"/><path d="M354,348.79c-6.74,0-12.21,5-12.21,11.16v22.87C341.81,389,347.28,394,354,394s12.21-5,12.21-11.16V360C366.23,353.78,360.76,348.79,354,348.79Z" style="fill:#d15761"/><path d="M354,348.79c-6.74,0-12.21,5-12.21,11.16v19c0,6.16,5.47,11.16,12.21,11.16s12.21-5,12.21-11.16V360C366.23,353.79,360.76,348.79,354,348.79Z" style="fill:url(#q)"/><rect x="350.7" y="398.7" width="6.63" height="132.55" rx="1.93" style="fill:url(#r)"/><g style="clip-path:url(#s)"><polygon points="349.45 85.52 354.17 85.72 365.28 -82.95 360.56 -83.15 349.45 85.52" style="fill:#312da4"/><polygon points="323.46 -82.96 333.68 86.91 338.41 86.73 328.19 -83.14 323.46 -82.96" style="fill:#312da4"/><path d="M344.08,57c-5.94,0-10.77,4.41-10.77,9.85s4.83,9.83,10.77,9.83,10.76-4.42,10.76-9.84S350,57,344.08,57Z" style="fill:url(#t)"/><path d="M344.08,63.47a3.36,3.36,0,1,0,3.66,3.35A3.52,3.52,0,0,0,344.08,63.47Z" style="fill:#769375"/><path d="M391.94,212c.84,2.23-14.64,9.07-34.56,15.28s-36.75,9.42-37.58,7.19,14.65-9.06,34.57-15.27S391.11,209.78,391.94,212Z" style="fill:#c23753"/><path d="M331.91,63.16h35a2.48,2.48,0,0,1,2.58,2.37V97.26a6.92,6.92,0,0,1-1.7,4.14l-6.72,7a6.81,6.81,0,0,1-4.3,1.78H342.06a6.81,6.81,0,0,1-4.3-1.78l-6.72-7a6.93,6.93,0,0,1-1.71-4.14V65.53A2.49,2.49,0,0,1,331.91,63.16Z" style="fill:#cf3b59"/><path d="M328.73,121.7h0a17.16,17.16,0,0,1,2.35-1.47,22.47,22.47,0,0,0,6.56-6v-9.07h12v9.23s-1.12,6.18-4.53,9.75c-6.9,7.22-7.57,7.77-7.57,9.82a6.43,6.43,0,0,0,6.45,6.31c3.7,0,6.71-3.37,6.71-6.2,0-2.17,1.43-6.35,6.51-9.46,1.73-.25,4-.22,2.24,1.74a10.5,10.5,0,0,0-2.44,7.72s0,.08,0,.11,0,.09,0,.14c0,8.89-7.8,16.1-17.42,16.1s-17.42-7.21-17.42-16.1A15.69,15.69,0,0,1,328.73,121.7Z" style="fill:url(#u)"/><path d="M324.24,63.16h35a2.48,2.48,0,0,1,2.58,2.37V97.26a6.93,6.93,0,0,1-1.71,4.14l-6.72,7a6.81,6.81,0,0,1-4.29,1.78H334.38a6.81,6.81,0,0,1-4.29-1.78l-6.73-7a6.93,6.93,0,0,1-1.71-4.14V65.53A2.5,2.5,0,0,1,324.24,63.16Z" style="fill:url(#v)"/><path d="M351.44,198.46c-.32-9.24-.92-44.53-1.83-51-.24-1.75-.52-3.3-.8-4.58a17.18,17.18,0,0,0-1.25-3.74,5.19,5.19,0,0,0-2.69-2.78,4.22,4.22,0,0,0-3.78.47,6.17,6.17,0,0,0-1.72,1.49,6.23,6.23,0,0,0,1.73,1.25,3.7,3.7,0,0,1,1.17-1,2.46,2.46,0,0,1,1.27-.41,1.22,1.22,0,0,1,.47.09,3.33,3.33,0,0,1,1.58,1.83,14.4,14.4,0,0,1,1.07,3.25c.33,1.46.63,3.26.9,5.33.91,6.94,1.5,42.81,1.77,52.36.27,9.07.23,17.85-.09,23.55a10.9,10.9,0,0,1-.35,2.19,8.49,8.49,0,0,1-2.34,3.52c-1.23,1.14-4.65,1-5.22.47h0c-.49.5-.95,1-1.41,1.54,1.69,1.32,6.3,1.15,8.2-.6l.12-.12c.85-.86,1.95-1,2.86-4.57a12.92,12.92,0,0,0,.33-2.32C351.77,218.38,351.79,208.45,351.44,198.46ZM340,159.61q0-4.35.1-9.22h-.47c-.58,0-1.15,0-1.72-.08-.32,15.34.18,52.87.85,61h2l.22-.26C340.37,204.73,340,170.32,340,159.61Z" style="fill:#1b0a74"/><path d="M391.67,211.71c-2.37-1.57-18.45,1.63-37.31,7.5s-33.64,12.28-34.55,14.86a227.53,227.53,0,0,1,13.36-70.79A262.43,262.43,0,0,1,391.67,211.71Z" style="fill:url(#w)"/><path d="M319.81,234.07c0,.14,0,.28,0,.42A.67.67,0,0,1,319.81,234.07Z" style="fill:url(#x)"/><path d="M351.43,198.46c-.14-4.32-.36-14.34-.63-24.44-.72-.53-1.44-1.05-2.16-1.55.32,11.44.55,23.53.69,28.5.26,8.9.15,18.54-.15,24.25l2.25-.71C351.71,218.24,351.76,207.87,351.43,198.46Z" style="fill:#1b0a74"/></g><path d="M77.81,525.52l-9.13.82L61.11,381.56,30.73,526.34l-7.93-.44s-1.36-115-2.9-141.79C18.85,366,21.1,335,21.1,335c2.55.1,9,.07,12,0l65.81-2.26C105,362.83,77.81,525.52,77.81,525.52Z" style="fill:url(#y)"/><path d="M68.6,524.84,61.11,381.56S75.3,377,78.64,372.25a28.12,28.12,0,0,1-9.2,12.09S60,444,71.82,526.34Z" style="fill:#312da4"/><path d="M25.08,526.16l-2.36-1.32S20.8,402.21,19.9,384.11c-1-20.27,2.3-53.81,2.3-53.81L47.87,335S35.3,362.83,32.66,390.37C30.6,412,20.59,487.56,25.08,526.16Z" style="fill:#312da4"/><path d="M68.56,524.16l-1.16,6.38H96s-9.3-6.36-18.38-6.37c.11.83-6.59,2.2-8.83.11Z" style="fill:#160471"/><rect x="67.4" y="530.54" width="28.62" height="1.81" style="fill:#6d69e4"/><path d="M22.2,524.16,21,530.54H49.66s-9.3-6.36-18.38-6.37c.1.83-6.6,2.2-8.83.11Z" style="fill:#160471"/><rect x="21.04" y="530.54" width="28.62" height="1.81" style="fill:#6d69e4"/><polygon points="163.02 301.38 145.57 304.12 140.66 290.21 157.33 287.01 163.02 301.38" style="fill:#ffa59c"/><path d="M54.67,250.11s-2.48,40,26.44,63.38c13.6,11,73-6.53,73-6.53l-2.47-21.25s-47.42,4.52-49.23,3.46c-4.85-2.85-6.67-49.45-23.11-60.49C72.47,224.08,57.73,236.33,54.67,250.11Z" style="fill:url(#z)"/><path d="M82.88,242.66s5.05,46.26,8.15,58.7c2.82,11.27,63.11,5.6,63.11,5.6S101.21,324.2,83.55,315s-25.94-43.83-25.94-43.83Z" style="fill:#d15761"/><path d="M52,221.9c16.3-.56,27.64,4.84,31.24,13.48,18.89,45.27,22.71,106,22.71,106s-58,4.1-88.4-1.32c0,0-9.16-78.85,1.11-101.57C25.69,222.92,40.3,222.31,52,221.9Z" style="fill:url(#aa)"/><path d="M73.84,205c-.32.75-.62,1.46-.85,2.13a34.44,34.44,0,0,0-1.4,5.33,36.82,36.82,0,0,0-.65,4.92,41.78,41.78,0,0,0,.2,8.48c-15.22,6.87-31.72-2.58-31.72-2.58a42.23,42.23,0,0,0,1.76-6.71,94.31,94.31,0,0,0,1.37-11.18.66.66,0,0,0,0-.23,1.19,1.19,0,0,0,0-.16Z" style="fill:#ffa59c"/><path d="M73.84,205c-.32.75-.62,1.46-.85,2.13a20.74,20.74,0,0,0-1.4,5.33,36.82,36.82,0,0,0-.65,4.92c-7.24,2.9-15.4,4.07-21.33,2.9a20.89,20.89,0,0,1-8.43-3.71,94.31,94.31,0,0,0,1.37-11.18.66.66,0,0,0,0-.23,1.19,1.19,0,0,0,0-.16Z" style="fill:#c48b86"/><path d="M34.93,220.52a58.13,58.13,0,0,0,28.26,7.65s-2.87,5.32-3.64,9.1C59.55,237.27,38.58,231.87,34.93,220.52Z" style="fill:#fff"/><path d="M69.22,225.38s-1.24,1.92-6,2.79l7.72,6.37s.11-7.68,0-8.78S69.22,225.38,69.22,225.38Z" style="fill:#fff"/><path d="M30.71,270.73s-4.47,8.09,4.22,19.17c10.34,13.17,35.41,48.23,71,51.48,0,0-58.6,5-88.4-1.32,0,0-5.37-56.25-3.76-75.73C14.36,257.34,30.71,270.73,30.71,270.73Z" style="fill:#d15761"/><path d="M37.79,199.61S42,211.43,47.86,214.43s25.93,4.07,30.63-2.93c5.65-8.43,2.29-39.79.64-42.89s-30.3-14.58-40-1.93S37.79,199.61,37.79,199.61Z" style="fill:#ffa59c"/><path d="M86.55,153.18C80.46,147,64.23,147.35,49.22,149c-12.36,1.37-20.54,15-20.37,15.56-3.09.92-5.52,7.95-4.49,12.9,3.86,18.55,14.17,21.8,16.11,21.3,9-2.3,9.78-17.62,4.79-29.36,7.93-.7,14.63-1.74,23.27.11,3.78.81,15.23,1.91,19.08-.21C93.34,166.14,89.9,156.59,86.55,153.18Z" style="fill:#3c1e01"/><path d="M38.77,191.41c-2-1.85-10.35-4-11.39-1-1.68,4.89,4.79,14.33,12.51,10.5C42.7,199.53,40.49,193,38.77,191.41Z" style="fill:#ffa59c"/><path d="M37.3,194.53s-6.14-3.68-6.72-2c-1.13,3.25,3.92,5.93,5.37,6.4,0,0-2.82-2.82-2.09-4S37.3,194.53,37.3,194.53Z" style="fill:#c48b86"/><path d="M91.61,152.47c-.85-1.49-3.31-.18-2.46,1.31a10.33,10.33,0,0,1,1.34,6.57,11.36,11.36,0,0,0-.79-1.86s-1.35,11.61-10.57,10.12-26.31-4.64-33.87.79c0,0,13.82-1.31,18-.71s18.68,4.24,24.42.9a1.55,1.55,0,0,0,.61-.29C93.69,164.94,94.92,158.26,91.61,152.47Z" style="fill:#23100f"/><path d="M31.56,157.38c.57-1.6-2.18-2.29-2.75-.7a11.24,11.24,0,0,0-.43,6.2c-2.51.07-5,.24-7.52.55-1.81.23-1,2.74.76,2.51a72,72,0,0,1,8.56-.52,1.34,1.34,0,0,0,1.38-1.65A9,9,0,0,1,31.56,157.38Z" style="fill:#23100f"/><path d="M174.32,293.16s-.06,0-.08,0c-4.3-3.74-12.17-4.62-16.49-.61-2.94,2.74-2.22,6.55-.84,9.81,1.28,3,3.61,7.68,7.5,8.3a2.09,2.09,0,0,0,2.39-2.12,3.84,3.84,0,0,0,3.27-.09,2.36,2.36,0,0,0,1.58-2.22,3.09,3.09,0,0,0,3.95-.75,2.73,2.73,0,0,0,.69-2,3.37,3.37,0,0,0,3.69-1.07C183,299.17,176.63,295,174.32,293.16Z" style="fill:#ffa59c"/><path d="M172,287.25c-3.06-.65-11.68-.89-15.09-.16-1.56.34.35,2.93,1.82,4.24a12.58,12.58,0,0,0,8,2.6c1.3-.16,2.7-2.05,4-1.84,1.72.28,2.85,2.06,3.69,3.32,1.43,2.17,5.68,1.43,4.64-.86C177.86,291.91,175.27,288,172,287.25Z" style="fill:#ffa59c"/><path d="M70.11,208c.23,0,.45,0,.68,0a9.13,9.13,0,0,0,6.33-3.84.56.56,0,0,0-.15-.82.67.67,0,0,0-.89.14,7.93,7.93,0,0,1-5.4,3.35,7.85,7.85,0,0,1-5.23-1.67.68.68,0,0,0-.9,0,.55.55,0,0,0,0,.83A9.25,9.25,0,0,0,70.11,208Z" style="fill:#161228"/><path d="M73.85,186.16a2.64,2.64,0,0,0,2.75,2.2,2.35,2.35,0,0,0,1.82-3,2.59,2.59,0,0,0-2.91-2.19A2.41,2.41,0,0,0,73.85,186.16Z" style="fill:#161228"/><path d="M57.6,188.14a2.93,2.93,0,0,0,3,2.46,2.62,2.62,0,0,0,2-3.32,2.87,2.87,0,0,0-3.24-2.43A2.66,2.66,0,0,0,57.6,188.14Z" style="fill:#161228"/><path d="M70.21,198.58a6.48,6.48,0,0,0,3.11-.59,1.25,1.25,0,0,0,.63-1c0-1-.67-3.91-3.6-7.17a.69.69,0,0,0-.91-.08.55.55,0,0,0-.09.82c2.48,2.76,3.35,5.39,3.31,6.39,0,0,0,.06-.09.09-.78.51-3.53.41-4.11.24a.64.64,0,0,0-.8.38.58.58,0,0,0,.42.74A9.85,9.85,0,0,0,70.21,198.58Z" style="fill:#161228"/><path d="M52.11,182.57a1.36,1.36,0,0,0,.87-.32,10.79,10.79,0,0,1,8.94-2.19,1.3,1.3,0,0,0,1.57-.84,1.17,1.17,0,0,0-.91-1.43,13.62,13.62,0,0,0-11.35,2.74,1.11,1.11,0,0,0-.06,1.66A1.32,1.32,0,0,0,52.11,182.57Z" style="fill:#161228"/><path d="M80.65,179.85a1.32,1.32,0,0,0,1-.42,1.1,1.1,0,0,0-.17-1.65c-4.84-3.66-10.39-1.57-10.62-1.48a1.14,1.14,0,0,0-.68,1.54,1.32,1.32,0,0,0,1.67.62h0a8.82,8.82,0,0,1,8,1.12A1.3,1.3,0,0,0,80.65,179.85Z" style="fill:#161228"/><rect x="92.04" y="300.9" width="98.97" height="3.96" style="fill:#becef5"/><polygon points="92.05 304.87 47.32 298.55 47.32 294.59 92.05 300.9 92.05 304.87" style="fill:url(#ab)"/><polygon points="47.32 294.59 159.62 291.58 191.01 300.9 92.05 300.9 47.32 294.59" style="fill:#becef5"/><path d="M188.23,300.9H89.65l13-55.47a3.64,3.64,0,0,1,3.56-2.77H195a5.38,5.38,0,0,1,5.36,6.52Z" style="fill:#8fabec"/><path d="M190.62,300.9H92l13-55.47a3.64,3.64,0,0,1,3.57-2.77h90.65a3.92,3.92,0,0,1,3.9,4.75Z" style="fill:url(#ac)"/><path d="M166.13,309.89a2.39,2.39,0,0,0,.38-1.3c.37.36.73.71,1.06,1,1,.87,3.37.7,4-.18a.92.92,0,0,0,.08-.51l.29.27c1.13,1,3.75.78,4.39-.2a1.42,1.42,0,0,0,.07-.22c1.21.79,3.54.6,4.14-.33,1-1.48.26-2.8-.52-4.4a56.64,56.64,0,0,0-3.16-5.58c-1-1.54-3.69-1.7-4.95-1a2.29,2.29,0,0,0-.47.32c-.37-.62-.67-1.25-1.06-1.86-1-1.54-3.69-1.7-4.94-1a1.54,1.54,0,0,0-1.1,1.33,3.85,3.85,0,0,0-4-.48,1.39,1.39,0,0,0-1,1.27,7.13,7.13,0,0,0,.76,2.62,3.31,3.31,0,0,0-1.65.34,1.36,1.36,0,0,0-1,1.26c0,3.19,1.76,6.12,4.81,8.75C163.19,310.94,165.55,310.77,166.13,309.89Z" style="fill:#ffa59c"/><path d="M171.39,297.8a91.18,91.18,0,0,0,4.32,8.61s-3.86-8.23-3.85-8.93Z" style="fill:#c48b86"/><path d="M164.29,296.31s2.55,5.14,4.13,7.58c0,0-4.49-6.79-5-8.11Z" style="fill:#c48b86"/><polygon points="67.26 261.83 52.88 266.28 60.21 277.53 73.66 269.67 67.26 261.83" style="fill:#ffa59c"/><path d="M66.52,262.54c5.81-6.84,24,6.49,27.74,10.84A1.6,1.6,0,0,1,93,276c.26.3.54.59.8.9,1.24,1.51-1.1,3.59-2.35,2.06l-.27-.29a1.9,1.9,0,0,1-2.62-.24c-.34-.43-.75-.81-1.11-1.23-.42.75-1.34.19-2.18-.42-3.22-2.35-5.11-4.26-8.22-6.26-3.41-.34-7.61-.73-10.18-2.71C65.16,266.42,64.49,263.9,66.52,262.54Z" style="fill:#ffa59c"/><path d="M7.24,243.87c17.61-13,31.59-19.25,33.59-11.57,1.6,6.13-6.56,60-3.24,64.54A105.27,105.27,0,0,0,8,312.34C-9.55,281,7.24,243.87,7.24,243.87Z" style="fill:#f5dd98"/><path d="M8,311.76c0,.12,0,.23,0,.34l.18,0,.07,0c17.58,4.19,62.13-35.59,62.13-35.59l-12.55-18s-8.39,4.86-17.71,10.13l-.05,0-1.72,1c-6.43,3.62-13.1,7.31-17.57,9.62-.89.46-1.7.87-2.4,1.2,0,0,0,0,0,0a12.41,12.41,0,0,1-2.9,1.17A86.88,86.88,0,0,0,8,311.76Z" style="fill:url(#ad)"/><path d="M8,311.76l.22.41a104.92,104.92,0,0,1,29.63-15.43l0,0c-1.53-1.92-.71-13.87.5-27,0,0,0-.09,0-.13.29-3.21.61-6.49.93-9.7,1.27-13,2.46-25,1.76-27.74-2-7.67-27.19-11.74-33.59,11.57C7.48,243.69-9.17,280.53,8,311.76Z" style="fill:url(#ae)"/><path d="M7.24,243.87c-4.66,18.4,1,49.05,5.35,60.62,12-5.05,57.78-27.63,57.78-27.63S25.7,316.74,8.17,312.43a.34.34,0,0,1-.17-.12C-9.54,281,7.24,243.87,7.24,243.87Z" style="fill:#d15761"/><path d="M17.37,281.6c1-.73,2.18-1.5,3.42-2.29,6.09-3.85,14.11-8,17.59-9.75.29-3.21.61-6.49.93-9.7-7.46,6.67-17.66,17.26-20.92,20.65,0,0,0,0,0,0Z" style="fill:#d15761"/></svg>