<svg xmlns="http://www.w3.org/2000/svg" xmlns:xlink="http://www.w3.org/1999/xlink" viewBox="0 0 1922.28 1080"><defs><linearGradient id="a" x1="8704.44" y1="1270.67" x2="8705.57" y2="1262.63" gradientTransform="matrix(0, -1, -1, 0, 3421.5, 9555.64)" gradientUnits="userSpaceOnUse"><stop offset="0" stop-color="#473068"/><stop offset="1" stop-color="#000028"/></linearGradient><linearGradient id="b" x1="8673.07" y1="852.28" x2="8674.05" y2="845.34" gradientTransform="matrix(-1, 0, 0, 1, 10484.26, 0)" xlink:href="#a"/></defs><title>Website Design</title><rect width="1920" height="1080" style="fill:#fff"/><path d="M423.34,130.54C445.59,231.31,501.46,300.41,645,367.75c112.76,52.91,367.08,47.45,416.41,135.35,55.93,99.67-236.31,199.53-78.32,309.73,161.64,112.74,471.76-17.54,717.39,37.34C1953.25,906.65,1886,1036,2344.06,1078.8H423.34Z" transform="translate(-423.34)" style="fill:#f0f7ff;fill-rule:evenodd"/><path d="M1116.93,0H2343.34V333.16c-80.37-222.08-280.41-43-412.92-113.43C1861.19,183,1829.92,64,1755.23,57.27c-127.3-11.46-98.1,132.45-270.09,123.26C1331.9,172.35,1285.36,9.45,1116.93,0Z" transform="translate(-423.34)" style="fill:#f0f7ff;fill-rule:evenodd"/><path d="M1586.52,441.33c13.07,37.67,115.84,32.55,207.47,28,122.64-6.1,257.23-12.8,274.3-71.6,11.22-38.68-29.35-96.67-73.36-105.43-48.46-9.65-63.94,47.79-139.13,65.08-84.17,19.35-121.37-39.61-191.84-11.55C1616.79,364.6,1576.87,413.54,1586.52,441.33Z" transform="translate(-423.34)" style="fill:#e6effc"/><path d="M1451.23,852.66c-32.59-249.93,9.15-332.95,57.5-359.66,104.36-57.66,276,126.93,415.29,47.7,58-33,64.11-85.3,142.87-110.56,54.36-17.44,118.15-13.91,161.87,8.63,98.76,50.91,146.6,225.31,74.76,414Z" transform="translate(-423.34)" style="fill:#e6effc;opacity:0.65"/><path d="M2266.83,850.89a253.87,253.87,0,0,0,5.53-34.46c.36-4,.62-8.12-.5-12-1.53-5.22-5.39-9.36-8.91-13.51-5.25-6.19-10-12.92-12.85-20.54-5.74-15.59-2.62-33-6.13-49.29-1.58-7.33-4.5-14.31-6.45-21.55s-2.89-15.06-.51-22.17c-10.92,8.47-14,23.73-13.5,37.54s3.95,27.54,2.82,41.31c-.72,8.7-3.24,17.46-1.53,26,1.58,7.94,6.69,14.9,7.8,22.91,1,7.27-1.35,14.81.41,21.94s7.31,12.59,12.62,17.65c2.84,2.71,5.83,5.5,9.58,6.61s8.2.41,11.74,2.29" transform="translate(-423.34)" style="fill:#a4d2ff"/><path d="M2234.74,724.7c0,1.39,0,2.77.06,4.16s.07,2.77.12,4.15q.14,4.15.36,8.3c.15,2.77.32,5.53.53,8.29s.44,5.52.71,8.27l.2,2.06.22,2.07c.15,1.37.32,2.74.47,4.12l.26,2.06.13,1,.14,1,.29,2.06.3,2.05c.81,5.46,1.8,10.9,3,16.29.08.34.15.67.23,1l.24,1,.47,2,.52,2,.26,1,.28,1,1.13,4,.28,1c.09.33.2.66.3,1l.6,2,.6,2,.3,1,.33,1,1.29,3.94c.21.66.45,1.31.67,2l.69,2,.68,2,.72,1.94.71,1.95c.12.32.24.65.37,1l.37,1,.76,1.93.37,1c.13.32.25.64.39,1l1.56,3.84,1.64,3.82.84,1.9c.28.63.55,1.27.84,1.89.59,1.26,1.16,2.52,1.76,3.76s1.2,2.5,1.82,3.74,1.25,2.47,1.92,3.69c-.73-1.18-1.42-2.39-2.11-3.59s-1.34-2.43-2-3.66-1.27-2.47-1.9-3.71c-.31-.61-.61-1.24-.91-1.86l-.91-1.88-1.74-3.78-1.68-3.81c-1.09-2.55-2.15-5.12-3.15-7.71l-.75-1.94-.73-1.95-.71-2c-.24-.65-.48-1.3-.7-2l-1.35-3.95-.33-1-.32-1-.62-2-.63-2c-.1-.33-.21-.66-.3-1l-.29-1-1.15-4-.28-1-.27-1-.53-2-.49-2-.24-1c-.09-.33-.16-.67-.23-1a235.65,235.65,0,0,1-4.76-33c-.06-.69-.1-1.38-.15-2.07s-.1-1.39-.14-2.08l-.13-2.08c0-.69-.07-1.38-.11-2.08-.13-2.77-.24-5.54-.3-8.31s-.09-5.55-.07-8.32c0-1.39,0-2.78.06-4.16S2234.68,726.08,2234.74,724.7Z" transform="translate(-423.34)" style="fill:#f3f8ff"/><path d="M2280.81,848.47a220.34,220.34,0,0,1,2-30c.46-3.44,1-6.94,2.74-10,2.29-4.1,6.34-6.84,10.1-9.64,5.61-4.19,10.94-8.93,14.78-14.79,7.84-12,8.59-27.28,14.68-40.26,2.75-5.85,6.55-11.16,9.59-16.87s5.35-12.1,4.72-18.54c7.55,9.23,7.22,22.67,4.09,34.17s-8.65,22.39-10.36,34.2c-1.07,7.45-.65,15.3-3.74,22.16-2.87,6.37-8.51,11.23-11,17.76-2.25,5.91-1.72,12.71-4.58,18.36s-8.58,9.17-14,12.4c-2.9,1.73-6,3.5-9.33,3.71s-7-1.24-10.31-.35" transform="translate(-423.34)" style="fill:#a4d2ff"/><path d="M2332.2,748.58c-.21,1.18-.44,2.35-.67,3.52s-.49,2.35-.74,3.52c-.51,2.33-1.07,4.66-1.64,7s-1.21,4.63-1.85,6.94c-.17.57-.32,1.15-.49,1.72l-.51,1.73c-.17.57-.34,1.14-.52,1.72s-.34,1.14-.52,1.72a202.36,202.36,0,0,1-10.36,26.82l-.39.81-.41.81-.8,1.61-.84,1.59-.42.8-.43.79c-1.17,2.09-2.3,4.21-3.54,6.26l-.91,1.55-.46.77-.48.77-1.89,3.05c-.31.52-.65,1-1,1.52l-1,1.5-1,1.51-1,1.48c-1.34,2-2.73,3.93-4.14,5.87l-2.16,2.88-2.2,2.83-1.13,1.4c-.38.46-.75.94-1.14,1.39-.77.92-1.53,1.85-2.32,2.74s-1.58,1.8-2.38,2.69-1.63,1.75-2.48,2.6c.8-.9,1.56-1.82,2.32-2.74s1.51-1.85,2.24-2.79,1.47-1.89,2.2-2.84c.36-.47.71-1,1.07-1.43l1.07-1.43,2.11-2.9,2.05-2.93,2-3,.51-.74c.16-.25.32-.5.49-.75l1-1.5,1-1.5.95-1.51,1-1.52c.32-.5.65-1,.95-1.51l1.84-3.07.46-.77.45-.77.88-1.55.89-1.55c.15-.26.31-.52.45-.78l.43-.78,1.71-3.14.43-.79.41-.79.82-1.58.8-1.6.39-.8c.13-.27.26-.54.38-.81,2.07-4.29,3.95-8.67,5.7-13.1l.65-1.67.64-1.67.32-.83.31-.84.61-1.68c.4-1.13.81-2.25,1.2-3.38l.59-1.68.57-1.7q1.14-3.39,2.2-6.81c.72-2.28,1.4-4.57,2.07-6.86s1.3-4.6,1.93-6.91c.31-1.15.61-2.31.91-3.46S2331.92,749.74,2332.2,748.58Z" transform="translate(-423.34)" style="fill:#f3f8ff"/><path d="M2267.12,850.06a279.63,279.63,0,0,1-9.89-37.09c-.84-4.34-1.59-8.82-.78-13.17,1.08-5.88,4.85-10.85,8.24-15.78,5-7.36,9.55-15.26,11.77-23.91,4.55-17.7-.81-36.46,1.22-54.62.91-8.2,3.33-16.15,4.65-24.3s1.49-16.8-1.91-24.32c12.9,8,18,24.4,18.95,39.58S2298.12,727,2300.9,742c1.75,9.44,5.49,18.74,4.57,28.3-.85,8.85-5.66,17-6,25.93-.3,8.07,3.13,16.06,2,24s-6.6,14.59-11.84,20.73c-2.81,3.28-5.77,6.67-9.76,8.3s-8.92,1.36-12.58,3.81" transform="translate(-423.34)" style="fill:#8dbffb"/><path d="M2288.17,708.39c.23,1.51.43,3,.62,4.54s.36,3,.52,4.54c.33,3,.6,6.07.84,9.11s.43,6.09.59,9.14c0,.76.08,1.52.11,2.29l.09,2.28c0,.77,0,1.53.07,2.29s0,1.53.06,2.29c.08,3,.1,6.11.08,9.16l0,2.29v1.15l0,1.14,0,2.29-.09,2.29q-.34,9.16-1.41,18.28c-.05.38-.09.76-.14,1.14l-.16,1.14-.31,2.27-.35,2.27-.18,1.13-.2,1.13-.81,4.51-.2,1.13c-.07.38-.15.75-.22,1.12l-.46,2.25-.47,2.24-.23,1.12-.26,1.12-1,4.46c-.17.75-.37,1.49-.55,2.23l-.56,2.22-.57,2.22-.62,2.2c-.8,3-1.67,5.88-2.57,8.8l-1.4,4.35-1.49,4.34L2276,837c-.26.71-.51,1.44-.79,2.15-.55,1.42-1.07,2.85-1.66,4.26s-1.15,2.83-1.75,4.23-1.23,2.79-1.89,4.17c.6-1.41,1.15-2.83,1.7-4.25s1.07-2.85,1.58-4.28,1-2.88,1.51-4.32c.25-.71.48-1.44.72-2.16l.71-2.17,1.37-4.36,1.29-4.38c.11-.36.21-.73.31-1.1l.31-1.1.61-2.19.31-1.1c.1-.37.19-.74.29-1.11l.57-2.21.57-2.21.53-2.22.53-2.21c.18-.74.37-1.48.52-2.22l1-4.46.24-1.12.22-1.12.44-2.23.44-2.24c.07-.37.15-.75.22-1.12l.2-1.12.78-4.5.2-1.12.17-1.13.34-2.25.3-2.25.15-1.13c.06-.38.09-.76.14-1.13.73-6,1.21-12.1,1.48-18.18l.11-2.27.08-2.28,0-1.14,0-1.14,0-2.29c0-1.52.05-3,.05-4.56v-4.56c0-3-.07-6.09-.16-9.13s-.2-6.09-.35-9.13-.33-6.09-.54-9.13c-.11-1.52-.22-3-.35-4.55S2288.33,709.91,2288.17,708.39Z" transform="translate(-423.34)" style="fill:#f3f8ff"/><path d="M1491.71,851.91a253.87,253.87,0,0,0,5.53-34.46c.36-4,.62-8.12-.5-12-1.53-5.22-5.39-9.36-8.91-13.51-5.25-6.19-10-12.92-12.85-20.54-5.74-15.59-2.62-33-6.13-49.29-1.58-7.33-4.5-14.31-6.45-21.55s-2.89-15.06-.51-22.17c-10.92,8.47-14,23.73-13.5,37.54s3.95,27.54,2.82,41.31c-.72,8.7-3.24,17.46-1.53,26,1.58,7.94,6.69,14.9,7.8,22.91,1,7.27-1.35,14.81.41,21.94s7.31,12.59,12.62,17.65c2.84,2.71,5.83,5.5,9.59,6.61s8.19.41,11.73,2.29" transform="translate(-423.34)" style="fill:#a4d2ff"/><path d="M1459.62,725.72c0,1.39,0,2.77.06,4.16s.07,2.77.12,4.15q.14,4.15.36,8.3c.15,2.76.32,5.53.53,8.29s.44,5.51.71,8.27l.2,2.06.22,2.07c.15,1.37.32,2.74.47,4.12l.26,2.05.13,1,.14,1,.29,2,.3,2.05c.81,5.47,1.8,10.91,3,16.3.08.33.15.67.23,1l.24,1,.47,2,.52,2,.26,1,.28,1,1.13,4,.28,1c.09.33.2.66.3,1l.6,2,.6,2,.31,1,.32,1,1.29,3.94c.21.66.45,1.31.67,2l.69,2,.68,2,.72,1.94.71,2c.12.32.24.65.37,1l.37,1,.76,1.93.37,1c.13.33.25.65.39,1l1.56,3.84,1.64,3.82.84,1.9c.28.63.55,1.26.84,1.89.59,1.26,1.16,2.52,1.76,3.76s1.2,2.5,1.82,3.74,1.25,2.47,1.92,3.69c-.73-1.18-1.42-2.39-2.11-3.59s-1.33-2.43-2-3.66-1.27-2.47-1.89-3.71c-.32-.61-.62-1.24-.92-1.86l-.91-1.88-1.74-3.78-1.68-3.81c-1.09-2.55-2.15-5.12-3.15-7.71l-.75-1.94-.73-2-.71-2c-.24-.66-.48-1.3-.7-2l-1.35-4-.33-1-.31-1-.63-2-.63-2c-.1-.33-.21-.66-.3-1l-.29-1-1.15-4-.28-1-.27-1-.53-2-.49-2-.24-1c-.09-.34-.16-.68-.23-1a235.3,235.3,0,0,1-4.76-33c-.06-.69-.1-1.38-.15-2.07s-.1-1.39-.14-2.08l-.13-2.08c0-.69-.07-1.38-.11-2.08-.13-2.77-.24-5.54-.3-8.31s-.09-5.55-.07-8.33c0-1.38,0-2.77.06-4.15S1459.56,727.1,1459.62,725.72Z" transform="translate(-423.34)" style="fill:#f3f8ff"/><path d="M1505.69,849.49a220.34,220.34,0,0,1,2-30c.46-3.44,1-7,2.74-10,2.29-4.1,6.34-6.84,10.1-9.64,5.61-4.19,10.94-8.93,14.78-14.79,7.84-12,8.59-27.28,14.68-40.26,2.75-5.86,6.55-11.16,9.59-16.87s5.35-12.1,4.72-18.54c7.55,9.23,7.22,22.67,4.09,34.17s-8.65,22.39-10.36,34.2c-1.07,7.45-.65,15.3-3.74,22.16-2.87,6.36-8.51,11.23-11,17.75-2.25,5.92-1.72,12.72-4.58,18.37s-8.58,9.17-14,12.4c-2.9,1.73-6,3.5-9.33,3.71s-7-1.24-10.31-.35" transform="translate(-423.34)" style="fill:#a4d2ff"/><path d="M1557.08,749.6c-.21,1.17-.44,2.35-.67,3.52s-.49,2.35-.74,3.51c-.51,2.34-1.07,4.67-1.64,7s-1.21,4.64-1.85,7c-.17.57-.32,1.15-.49,1.72l-.51,1.73c-.17.57-.34,1.14-.52,1.72s-.34,1.14-.52,1.71a202.49,202.49,0,0,1-10.36,26.83l-.39.81-.41.8-.8,1.62-.84,1.59-.42.8-.43.79c-1.17,2.09-2.3,4.21-3.54,6.26l-.91,1.55-.46.77-.48.77-1.89,3.05c-.31.52-.65,1-1,1.52l-1,1.5-1,1.5-1,1.49c-1.34,2-2.73,3.93-4.14,5.87l-2.16,2.88-2.2,2.83-1.13,1.4c-.38.46-.75.93-1.14,1.39-.77.92-1.53,1.84-2.32,2.74s-1.58,1.8-2.38,2.69-1.63,1.75-2.48,2.6c.8-.9,1.56-1.82,2.32-2.74s1.51-1.85,2.24-2.8,1.47-1.88,2.2-2.83c.36-.47.71-1,1.07-1.43l1.07-1.43,2.11-2.9,2-2.93,2-3,.51-.74c.16-.25.32-.5.49-.75l1-1.5,1-1.5,1-1.51,1-1.52c.32-.5.65-1,1-1.52l1.84-3.06.46-.77.45-.77.88-1.55.89-1.56c.15-.25.31-.51.45-.77l.43-.79,1.71-3.13.43-.79.41-.79.82-1.58.8-1.6.39-.8c.13-.27.26-.54.38-.81,2.07-4.29,4-8.67,5.7-13.1l.65-1.67.64-1.67.32-.83.31-.84.61-1.68c.4-1.13.81-2.25,1.2-3.38l.59-1.69.57-1.69c.76-2.26,1.49-4.54,2.2-6.81s1.4-4.57,2.07-6.86,1.3-4.6,1.93-6.91c.31-1.15.61-2.31.91-3.46S1556.8,750.76,1557.08,749.6Z" transform="translate(-423.34)" style="fill:#f3f8ff"/><path d="M1492,851.07a279.08,279.08,0,0,1-9.89-37.08c-.84-4.35-1.59-8.82-.78-13.17,1.08-5.88,4.85-10.85,8.24-15.78,5.06-7.36,9.55-15.26,11.77-23.91,4.55-17.7-.81-36.46,1.22-54.62.91-8.2,3.33-16.16,4.65-24.3s1.49-16.8-1.91-24.32c12.9,8.05,18,24.4,19,39.58S1523,728,1525.78,743c1.75,9.44,5.49,18.74,4.57,28.29-.85,8.86-5.66,17.05-6,25.94-.3,8.07,3.13,16.06,2,24s-6.6,14.59-11.84,20.73c-2.81,3.28-5.77,6.67-9.76,8.3s-8.92,1.36-12.58,3.81" transform="translate(-423.34)" style="fill:#8dbffb"/><path d="M1513.05,709.41c.23,1.51.43,3,.62,4.53s.36,3,.52,4.55c.33,3,.6,6.07.84,9.11s.43,6.09.59,9.14c0,.76.08,1.52.11,2.28l.09,2.29c0,.76,0,1.53.07,2.29s0,1.53.06,2.29c.08,3.05.1,6.11.08,9.16l0,2.29v1.14l0,1.15,0,2.29-.09,2.29q-.35,9.16-1.41,18.28c-.05.38-.09.76-.14,1.14l-.15,1.14-.32,2.27-.35,2.27-.18,1.13-.2,1.13-.81,4.51-.2,1.13c-.06.37-.15.75-.22,1.12l-.46,2.25-.47,2.24-.23,1.12-.26,1.12-1,4.46c-.17.75-.37,1.49-.55,2.23l-.56,2.22-.57,2.22-.62,2.2c-.8,3-1.67,5.88-2.57,8.8l-1.4,4.35-1.49,4.34-.78,2.15c-.26.71-.51,1.43-.79,2.15-.55,1.42-1.07,2.85-1.66,4.26s-1.15,2.83-1.75,4.23-1.23,2.79-1.89,4.17c.6-1.41,1.15-2.83,1.7-4.25s1.07-2.85,1.58-4.29,1-2.87,1.51-4.31c.25-.71.48-1.44.72-2.16l.71-2.17,1.37-4.36,1.29-4.38c.11-.36.21-.73.31-1.1l.31-1.1.61-2.19.31-1.1c.1-.37.19-.74.29-1.11l.57-2.21.57-2.21.53-2.22.53-2.21c.18-.74.37-1.48.52-2.23l1-4.45.24-1.12.22-1.12.44-2.23.44-2.24c.07-.38.15-.75.22-1.12l.2-1.12.78-4.5.2-1.12.17-1.13.34-2.25.31-2.26.15-1.12c0-.38.08-.76.13-1.14.73-6,1.21-12.09,1.48-18.17l.11-2.28.08-2.28,0-1.14,0-1.14,0-2.28c0-1.52,0-3,0-4.56v-4.56c0-3-.07-6.09-.16-9.14s-.2-6.08-.35-9.12-.33-6.09-.54-9.13c-.11-1.52-.22-3-.35-4.55S1513.21,710.93,1513.05,709.41Z" transform="translate(-423.34)" style="fill:#f3f8ff"/><path d="M2046.67,856.56a118.57,118.57,0,0,0,2.57-16A14.83,14.83,0,0,0,2049,835c-.71-2.43-2.5-4.35-4.13-6.28a32.34,32.34,0,0,1-6-9.53c-2.66-7.24-1.21-15.34-2.84-22.88-.73-3.4-2.09-6.64-3-10s-1.35-7-.24-10.29c-5.07,3.93-6.52,11-6.26,17.42s1.83,12.79,1.3,19.18c-.33,4-1.5,8.1-.71,12.07.74,3.68,3.11,6.92,3.62,10.63.47,3.38-.62,6.88.19,10.19s3.39,5.84,5.86,8.19a11.58,11.58,0,0,0,4.45,3.07c1.78.53,3.8.19,5.44,1.06" transform="translate(-423.34)" style="fill:#a4d2ff"/><path d="M2031.78,798c0,.64,0,1.29.08,1.93s.06,1.28.1,1.93l.06,1,.06,1,.06,1,.07,1q.27,3.84.69,7.67l.1.95.12,1,.22,1.91.27,1.9.13.95.15.94.3,1.9c.11.63.24,1.26.35,1.88.21,1.26.5,2.51.77,3.76,0,.15.06.31.1.46l.11.47.23.93.23.92.12.47.13.46.51,1.85c.16.62.36,1.22.54,1.84l.27.92.14.46.15.46.58,1.82c.19.61.41,1.22.61,1.82l.31.91.32.91c.86,2.41,1.77,4.81,2.76,7.18l.74,1.77.78,1.76c.26.59.53,1.17.8,1.76s.55,1.16.84,1.74c-.36-.54-.69-1.09-1-1.64s-.65-1.12-1-1.68c-.63-1.13-1.21-2.28-1.8-3.43l-.84-1.74-.81-1.76c-.52-1.18-1-2.37-1.51-3.57-1-2.4-1.84-4.83-2.62-7.3-.41-1.23-.75-2.47-1.12-3.71l-.13-.47-.12-.47-.24-.95-.24-.94-.11-.47c0-.16-.07-.32-.11-.48-.26-1.27-.55-2.53-.76-3.81-.1-.64-.22-1.27-.32-1.91l-.28-1.92-.13-1-.11-1-.22-1.92-.17-1.93-.08-1-.06-1c-.19-2.57-.26-5.15-.28-7.73v-2.9l0-1c0-.64,0-1.29.07-1.93S2031.72,798.63,2031.78,798Z" transform="translate(-423.34)" style="fill:#f3f8ff"/><path d="M2053.16,855.44a101.62,101.62,0,0,1,.93-14,13,13,0,0,1,1.28-4.63c1.06-1.9,2.94-3.17,4.68-4.47a27.77,27.77,0,0,0,6.86-6.86c3.64-5.57,4-12.67,6.82-18.69,1.28-2.72,3-5.18,4.45-7.83a15.49,15.49,0,0,0,2.19-8.6c3.5,4.28,3.35,10.52,1.9,15.86s-4,10.39-4.81,15.87c-.5,3.45-.3,7.1-1.74,10.28-1.33,3-3.95,5.22-5.1,8.24-1,2.75-.8,5.91-2.13,8.53s-4,4.26-6.51,5.76a10,10,0,0,1-4.33,1.72c-1.6.09-3.24-.58-4.79-.17" transform="translate(-423.34)" style="fill:#a4d2ff"/><path d="M2077,809.07c-.07.55-.17,1.1-.26,1.65s-.19,1.1-.3,1.64l-.15.82-.18.82-.17.82-.18.81c-.51,2.17-1.06,4.33-1.71,6.46l-.23.8-.26.8-.51,1.59-.55,1.58-.28.79-.3.79-.6,1.56c-.21.52-.43,1-.64,1.55-.42,1-.91,2-1.38,3.06-.06.13-.11.26-.18.38l-.19.38-.38.74-.38.75-.2.38-.2.36c-.55,1-1.08,2-1.66,2.91q-1.71,2.88-3.64,5.63c-.63.91-1.29,1.81-2,2.7l-1,1.32-1,1.3c-.72.85-1.44,1.7-2.2,2.52-.37.41-.76.82-1.14,1.22s-.78.79-1.19,1.17c.35-.43.69-.87,1-1.31s.67-.88,1-1.33l1-1.33,1-1.36c1.28-1.8,2.5-3.65,3.68-5.51l.44-.7.44-.71c.28-.47.58-.94.86-1.41l.84-1.43.21-.35.2-.36.41-.72c.27-.49.55-1,.81-1.45l.78-1.45.2-.37.19-.36.37-.74.37-.73.19-.37c.06-.12.11-.25.17-.37.46-1,.95-2,1.37-3l.66-1.51.62-1.53.31-.77.3-.77.59-1.55.57-1.56.28-.77.27-.79c.74-2.08,1.43-4.18,2.09-6.3S2076.4,811.21,2077,809.07Z" transform="translate(-423.34)" style="fill:#f3f8ff"/><path d="M2046.8,856.17a131.07,131.07,0,0,1-4.59-17.21,16.6,16.6,0,0,1-.36-6.11c.51-2.73,2.25-5,3.82-7.33a35.39,35.39,0,0,0,5.47-11.1c2.11-8.21-.38-16.92.56-25.35.43-3.8,1.55-7.49,2.16-11.27s.7-7.8-.88-11.29c6,3.74,8.36,11.32,8.79,18.37s-.58,14.19.71,21.13c.82,4.38,2.55,8.69,2.12,13.13-.39,4.11-2.62,7.91-2.78,12-.14,3.74,1.46,7.45.93,11.16s-3.06,6.77-5.5,9.62a12.74,12.74,0,0,1-4.52,3.85c-1.89.78-4.14.63-5.84,1.77" transform="translate(-423.34)" style="fill:#8dbffb"/><path d="M2056.58,790.42c.12.7.23,1.4.34,2.1s.2,1.4.28,2.11c.05.35.1.7.14,1l.11,1.06.12,1,.1,1.06c.07.71.13,1.41.18,2.12s.12,1.42.16,2.12l.12,2.13c0,.71,0,1.42.08,2.13l0,1.06v1.07l0,2.13,0,2.13,0,1.06,0,1.07-.09,2.13c0,.71-.09,1.42-.14,2.13-.08,1.42-.26,2.84-.41,4.25,0,.18,0,.36-.06.53l-.08.53-.15,1.06-.16,1.06-.07.53c0,.18-.07.35-.1.53-.26,1.39-.5,2.8-.8,4.18q-.87,4.19-2.05,8.28c-.39,1.37-.81,2.72-1.24,4.07l-.69,2-.72,2c-.5,1.32-1,2.65-1.57,4-.28.65-.57,1.3-.86,2s-.6,1.28-.93,1.91c.26-.66.5-1.33.73-2s.48-1.34.7-2l.66-2c.21-.67.41-1.35.62-2l.61-2,.57-2,.54-2c.19-.68.35-1.37.52-2.05l.26-1,.23-1c.15-.69.32-1.37.47-2.06l.44-2.07.11-.51.1-.52.2-1c.12-.69.27-1.38.38-2.07l.36-2.08.09-.52.07-.53.15-1,.15-1,.07-.52c0-.17,0-.35.06-.52.15-1.4.33-2.79.42-4.2.06-.7.12-1.4.17-2.1l.12-2.11.06-1,0-1.06.08-2.11,0-2.11,0-1.06v-1.06c0-.7,0-1.41,0-2.11s0-1.41,0-2.12,0-1.41,0-2.12c0-.35,0-.7,0-1.06l0-1.05,0-1.06,0-1.06-.05-1.06,0-1.06c0-.71-.07-1.41-.11-2.12S2056.62,791.13,2056.58,790.42Z" transform="translate(-423.34)" style="fill:#f3f8ff"/><path d="M1718.5,854.29a118.32,118.32,0,0,0,2.57-16,15,15,0,0,0-.23-5.56c-.71-2.42-2.5-4.35-4.14-6.27a32.36,32.36,0,0,1-6-9.54c-2.67-7.23-1.22-15.34-2.85-22.87-.73-3.4-2.08-6.64-3-10s-1.34-7-.24-10.29c-5.07,3.93-6.51,11-6.26,17.42s1.83,12.78,1.3,19.17c-.33,4-1.5,8.11-.7,12.08.73,3.68,3.1,6.91,3.62,10.63.47,3.37-.63,6.87.19,10.18s3.39,5.84,5.85,8.19a11.54,11.54,0,0,0,4.45,3.07c1.79.53,3.81.19,5.45,1.06" transform="translate(-423.34)" style="fill:#a4d2ff"/><path d="M1703.61,795.72c0,.65.05,1.29.09,1.93s.06,1.29.1,1.93l0,1,.06,1,.06,1,.08,1c.18,2.56.4,5.12.68,7.66l.1,1,.12,1,.23,1.91.26,1.9.14,1,.15,1,.3,1.89c.11.63.23,1.26.35,1.89.21,1.26.5,2.5.76,3.75,0,.16.06.31.1.47l.12.46.23.93.23.93.11.46.13.46.51,1.85c.17.62.36,1.23.54,1.84l.28.92.13.46.15.46.58,1.83c.2.61.41,1.21.62,1.82l.3.91.33.9c.86,2.42,1.76,4.82,2.75,7.18.25.59.49,1.19.75,1.78s.51,1.17.77,1.76.53,1.17.81,1.75.55,1.16.84,1.74c-.36-.53-.69-1.09-1-1.64s-.65-1.11-1-1.68c-.64-1.12-1.22-2.27-1.81-3.42l-.83-1.75-.81-1.76c-.52-1.18-1-2.37-1.51-3.57q-1.46-3.6-2.63-7.29c-.4-1.23-.75-2.48-1.11-3.72l-.14-.47-.12-.47-.23-.94-.24-.94-.12-.48c0-.15-.07-.31-.1-.47-.26-1.27-.56-2.54-.76-3.81-.11-.64-.23-1.28-.33-1.92l-.27-1.92-.14-1-.11-1-.21-1.93-.18-1.93-.08-1-.06-1c-.18-2.58-.25-5.16-.28-7.74v-1.93l0-1c0-.32,0-.64,0-1,0-.65,0-1.29.08-1.94S1703.56,796.37,1703.61,795.72Z" transform="translate(-423.34)" style="fill:#f3f8ff"/><path d="M1725,853.17a103.2,103.2,0,0,1,.94-13.94,12.66,12.66,0,0,1,1.27-4.63c1.06-1.9,2.94-3.17,4.69-4.47a28.16,28.16,0,0,0,6.86-6.87c3.64-5.57,4-12.66,6.81-18.68,1.28-2.72,3-5.18,4.45-7.83a15.54,15.54,0,0,0,2.19-8.61c3.51,4.29,3.35,10.52,1.9,15.86s-4,10.39-4.8,15.87c-.5,3.46-.31,7.1-1.74,10.29-1.33,3-4,5.21-5.11,8.24-1,2.74-.8,5.9-2.12,8.52s-4,4.26-6.51,5.76a10.06,10.06,0,0,1-4.34,1.72c-1.6.1-3.23-.58-4.78-.16" transform="translate(-423.34)" style="fill:#a4d2ff"/><path d="M1748.84,806.81c-.07.55-.16,1.1-.25,1.65l-.3,1.64c0,.27-.1.54-.16.82l-.17.81-.18.82-.18.81c-.51,2.17-1.06,4.33-1.7,6.47l-.24.8-.25.8-.52,1.59-.55,1.58-.28.79-.29.78-.6,1.57c-.21.51-.43,1-.65,1.54-.42,1-.91,2.05-1.37,3.07l-.18.38-.19.37-.39.75-.38.75-.19.37-.21.37c-.54,1-1.08,1.95-1.66,2.91-1.13,1.92-2.35,3.79-3.63,5.62-.64.92-1.3,1.81-2,2.7l-1,1.32-1,1.31c-.72.85-1.44,1.7-2.19,2.52-.38.41-.76.81-1.15,1.21s-.78.8-1.19,1.17c.35-.43.69-.87,1-1.31s.68-.87,1-1.32l1-1.34c.33-.45.64-.9,1-1.35,1.29-1.81,2.5-3.65,3.68-5.52l.45-.7.43-.7c.29-.48.58-.94.86-1.42L1736,839l.21-.36.21-.36.4-.72c.27-.48.56-1,.81-1.44l.79-1.46.2-.36.18-.37.37-.73.37-.74.19-.37.18-.37c.46-1,.94-2,1.36-3,.22-.51.45-1,.66-1.52l.62-1.53.31-.76.3-.78.59-1.54.57-1.56.28-.78.27-.78c.74-2.09,1.43-4.19,2.09-6.3S1748.24,809,1748.84,806.81Z" transform="translate(-423.34)" style="fill:#f3f8ff"/><path d="M1718.64,853.91a129.66,129.66,0,0,1-4.59-17.22,16.59,16.59,0,0,1-.37-6.11c.51-2.73,2.26-5,3.83-7.32a35.57,35.57,0,0,0,5.46-11.1c2.11-8.21-.38-16.92.57-25.35.42-3.81,1.54-7.5,2.16-11.28s.69-7.8-.89-11.29c6,3.74,8.36,11.33,8.8,18.37s-.58,14.19.71,21.13c.81,4.38,2.54,8.7,2.12,13.13-.4,4.11-2.63,7.92-2.78,12-.14,3.75,1.45,7.45.93,11.16s-3.07,6.78-5.5,9.62a12.8,12.8,0,0,1-4.53,3.86c-1.89.77-4.14.63-5.84,1.76" transform="translate(-423.34)" style="fill:#8dbffb"/><path d="M1728.41,788.16c.13.69.23,1.39.34,2.09s.2,1.41.29,2.11c0,.35.09.7.13,1.06l.12,1.05.11,1.06.11,1.06c.06.7.13,1.41.18,2.12s.11,1.41.15,2.12.08,1.42.12,2.12,0,1.42.08,2.13l0,1.07,0,1.06,0,2.13,0,2.13,0,1.07,0,1.06-.08,2.14c0,.71-.1,1.42-.15,2.13-.08,1.42-.26,2.83-.4,4.25l-.06.53-.08.53-.16,1.06-.15,1.06-.08.53-.09.52c-.26,1.4-.5,2.8-.81,4.19q-.87,4.17-2,8.27c-.39,1.37-.8,2.73-1.24,4.08l-.68,2-.72,2c-.51,1.33-1,2.65-1.58,4-.27.65-.56,1.3-.86,1.94s-.6,1.29-.93,1.91c.26-.66.5-1.32.74-2s.47-1.33.69-2,.44-1.34.66-2,.42-1.34.63-2l.6-2,.57-2,.55-2c.19-.68.34-1.36.52-2.05l.25-1,.23-1c.16-.69.33-1.37.47-2.06l.44-2.07.11-.52.1-.52.2-1c.13-.7.28-1.38.39-2.08l.35-2.08.09-.52.08-.52.15-1,.14-1,.08-.52.06-.53c.14-1.4.32-2.79.42-4.19,0-.7.11-1.4.16-2.11l.12-2.1.06-1.06,0-1,.07-2.11,0-2.12,0-1.05V805.1c0-.71,0-1.41,0-2.12s0-1.41,0-2.11,0-1.42,0-2.12l0-1.06,0-1.06,0-1.06,0-1.06,0-1.06-.06-1.06c0-.7-.07-1.41-.11-2.11S1728.46,788.86,1728.41,788.16Z" transform="translate(-423.34)" style="fill:#f3f8ff"/><polygon points="1523.89 851.46 1404.08 851.46 1410.43 777.99 1412.65 752.25 1515.45 752.25 1517.64 777.99 1523.89 851.46" style="fill:#4741bb"/><polygon points="1517.64 777.99 1410.43 777.99 1412.65 752.25 1515.45 752.25 1517.64 777.99" style="opacity:0.42"/><path d="M2161.26,429.13v330a8.45,8.45,0,0,1-8.45,8.45H1621.73a13.32,13.32,0,0,1-13.33-13.33v-330a8.45,8.45,0,0,1,8.45-8.46h531.08a13.33,13.33,0,0,1,13.33,13.33Z" transform="translate(-423.34)" style="fill:#a1b3ff"/><rect x="1215.5" y="444.23" width="494.61" height="284.71" rx="9.93" style="fill:#fff"/><path d="M1766,415.8l101,75s22.2-81.2-40.54-70.78C1813.93,422.08,1766,415.8,1766,415.8Z" transform="translate(-423.34)" style="opacity:0.22"/><rect x="1469.4" y="459.51" width="220.03" height="253.78" rx="12.67" style="fill:#c7e7ff;opacity:0.49"/><rect x="1592.52" y="610.13" width="81.65" height="6.91" rx="3.45" style="fill:#b0e1ff"/><rect x="1592.52" y="627.91" width="81.65" height="6.91" rx="3.45" style="fill:#b0e1ff"/><rect x="1592.52" y="646.48" width="81.65" height="6.91" rx="3.45" style="fill:#b0e1ff"/><rect x="1592.52" y="665.05" width="81.65" height="6.91" rx="3.45" style="fill:#b0e1ff"/><rect x="1592.52" y="682.83" width="81.65" height="6.91" rx="3.45" style="fill:#b0e1ff"/><path d="M1487.2,460.25h31.37a0,0,0,0,1,0,0v94.09A15.68,15.68,0,0,1,1502.88,570h0a15.68,15.68,0,0,1-15.68-15.68V460.25A0,0,0,0,1,1487.2,460.25Z" style="fill:#fdbd28"/><path d="M1952.44,460.25v55.67a3.5,3.5,0,0,0-1.59-2.79A6.65,6.65,0,0,0,1947,512a5.66,5.66,0,0,0-5.09,2.56V460.25Z" transform="translate(-423.34)" style="fill:#fdbd28"/><path d="M1987.43,460.25v55.67a3.41,3.41,0,0,0-2-2.79,9.56,9.56,0,0,0-4.75-1.15c-2.89,0-5.35,1.07-6.3,2.56V460.25Z" transform="translate(-423.34)" style="fill:#fdbd28"/><path d="M1529.1,460.25h22a0,0,0,0,1,0,0v73.37a11,11,0,0,1-11,11h0a11,11,0,0,1-11-11V460.25A0,0,0,0,1,1529.1,460.25Z" style="fill:#fdbd28"/><path d="M1564.09,459.92h22a0,0,0,0,1,0,0V570.27a11,11,0,0,1-11,11h0a11,11,0,0,1-11-11V459.92a0,0,0,0,1,0,0Z" style="fill:#fdbd28"/><path d="M2022.42,459.84v55.67a3.41,3.41,0,0,0-2-2.79,9.62,9.62,0,0,0-4.76-1.15c-2.88,0-5.35,1.07-6.3,2.56V459.84Z" transform="translate(-423.34)" style="fill:#fdbd28"/><path d="M1599.09,459.51h22a0,0,0,0,1,0,0v80.74a11,11,0,0,1-11,11h0a11,11,0,0,1-11-11V459.51a0,0,0,0,1,0,0Z" style="fill:#fdbd28"/><path d="M2056.62,459.84v55.67a3.41,3.41,0,0,0-2-2.79,9.62,9.62,0,0,0-4.76-1.15c-2.88,0-5.35,1.07-6.3,2.56V459.84Z" transform="translate(-423.34)" style="fill:#fdbd28"/><path d="M2091.16,459.74V537.2a5,5,0,0,0-2-3.87,7.57,7.57,0,0,0-4.76-1.61,6.82,6.82,0,0,0-6.3,3.57V459.74Z" transform="translate(-423.34)" style="fill:#fdbd28"/><path d="M1633.29,459.51h22a0,0,0,0,1,0,0V600.73a11,11,0,0,1-11,11h0a11,11,0,0,1-11-11V459.51a0,0,0,0,1,0,0Z" style="fill:#fdbd28"/><path d="M1667.6,459.51h22a0,0,0,0,1,0,0V600.73a11,11,0,0,1-11,11h0a11,11,0,0,1-11-11V459.51A0,0,0,0,1,1667.6,459.51Z" style="fill:#fdbd28"/><rect x="1233.08" y="459.51" width="220.03" height="253.78" rx="12.59" style="fill:#c7e7ff;opacity:0.49"/><rect x="1356.85" y="484.2" width="81.65" height="6.91" rx="3.45" style="fill:#b0e1ff"/><rect x="1356.85" y="501.98" width="81.65" height="6.91" rx="3.45" style="fill:#b0e1ff"/><rect x="1356.85" y="520.55" width="81.65" height="6.91" rx="3.45" style="fill:#b0e1ff"/><rect x="1356.85" y="539.13" width="81.65" height="6.91" rx="3.45" style="fill:#b0e1ff"/><rect x="1356.85" y="556.9" width="81.65" height="6.91" rx="3.45" style="fill:#b0e1ff"/><rect x="1354.48" y="610.13" width="81.65" height="6.91" rx="3.45" style="fill:#b0e1ff"/><rect x="1354.48" y="627.91" width="81.65" height="6.91" rx="3.45" style="fill:#b0e1ff"/><rect x="1354.48" y="646.48" width="81.65" height="6.91" rx="3.45" style="fill:#b0e1ff"/><rect x="1354.48" y="665.05" width="81.65" height="6.91" rx="3.45" style="fill:#b0e1ff"/><rect x="1354.48" y="682.83" width="81.65" height="6.91" rx="3.45" style="fill:#b0e1ff"/><rect x="1245.08" y="472.88" width="97.84" height="97.84" rx="7.64" style="fill:#b0e1ff"/><rect x="1205.56" y="606.05" width="97.84" height="97.84" rx="9.89" style="fill:#b0e1ff"/><rect x="1483.58" y="601.86" width="97.84" height="97.84" rx="12.33" style="fill:#b0e1ff"/><path d="M1740.93,517.89l-34.32-19.81a5.94,5.94,0,0,0-8.92,5.15v39.63a6,6,0,0,0,8.92,5.15l34.32-19.81A6,6,0,0,0,1740.93,517.89Z" transform="translate(-423.34)" style="fill:#4f6bfd"/><path d="M2157.69,420.05l-548.25,339.4a13.29,13.29,0,0,1-1-5.17V429.13a13.33,13.33,0,0,1,13.33-13.33h526.2A13.31,13.31,0,0,1,2157.69,420.05Z" transform="translate(-423.34)" style="fill:#fff;opacity:0.2"/><path d="M1610,582.54s-3.51,1.69.81-2.29C1625.69,559.78,1638,540,1651,526c0,0,.19-5-5.12-4.22,0,0-42.12,25.9-50,40.67-3.29,6.21-4.81,6-5.73,7Z" transform="translate(-423.34)" style="fill:#fcc0bf"/><polygon points="1187.41 821.03 1193.93 840.68 1209.51 838.08 1209.82 816.49 1187.41 821.03" style="fill:#fcc0bf"/><path d="M1633,827.69s-14.13,8.12-20.39-1,20.4-2.6,20.4-2.6Z" transform="translate(-423.34)" style="fill:#3d2c63;opacity:0.19"/><path d="M1633.82,823.7s-14.63,8.68-21.76,2.57c0,0-27-108-44.81-121.86-.7-.55-.85-1.6-1.23-2.48-5-11.53-4.92-31.08-4.43-41.6l38.93-10.4S1642.88,706.63,1633.82,823.7Z" transform="translate(-423.34)" style="fill:#2b1a82"/><polygon points="1043.35 765.88 1024.97 779.41 1032.79 793.11 1055.35 785.33 1043.35 765.88" style="fill:#fcc0bf"/><path d="M1459.2,771.39s-3.13,8.68,5.07,18.91l5.75-1.89Z" transform="translate(-423.34)" style="fill:#3d2c63;opacity:0.19"/><path d="M1461.06,768.6c-7,4.71,7.91,21.6,7.91,21.6,82.78-28.79,105-45.75,109.28-133.13.46-9.41-43-10.65-43-10.65C1529.72,647.48,1540.6,714.84,1461.06,768.6Z" transform="translate(-423.34)" style="fill:#2b1a82"/><path d="M1611.33,581.24s-.8,1-2.14,2.46c-4.89,5.49-16.91,18.38-22.69,19.12-9.21,1.18-17.37-14.86-17.37-14.86s6.57-8.22,23.68-24.65l3.14-3S1609.33,570.81,1611.33,581.24Z" transform="translate(-423.34)" style="fill:#fdbd28"/><path d="M1611.33,581.24s-.8,1-2.14,2.46c-1-1.82-2.19-4-3.72-6.44a54.76,54.76,0,0,0-12.66-14l3.14-3S1609.33,570.81,1611.33,581.24Z" transform="translate(-423.34)" style="fill:#fff;opacity:0.32"/><path d="M1610.24,667.68c-9.11,5.32-75.17,6.86-79-3-4.13-10.65,10.88-77.82,23.51-89.63,2.71-2.54,7.17-3.81,12.06-4.37a82,82,0,0,1,16.84.21c4.17.44,7,1,7,1S1617,583.94,1610.24,667.68Z" transform="translate(-423.34)" style="fill:#fdbd28"/><path d="M1575.6,580.94c-8.53.37-8.9-7.72-8.8-10.3a82,82,0,0,1,16.84.21C1584.23,574.24,1584,580.59,1575.6,580.94Z" transform="translate(-423.34)" style="fill:#fff;opacity:0.32"/><path d="M1592.31,615.23a30.84,30.84,0,0,0-10.4-12.35Z" transform="translate(-423.34)" style="fill:#3d2c63;opacity:0.32"/><path d="M1586.32,548.72s1.55,9-.36,10.74c0,0-3.87.27-2.3-8.67S1586.32,548.72,1586.32,548.72Z" transform="translate(-423.34)" style="fill:#29114d"/><ellipse cx="1163.03" cy="557.51" rx="3.88" ry="3.7" style="fill:#fcc0bf"/><path d="M1578.57,577.17a9.16,9.16,0,0,1-4.89.7,5.28,5.28,0,0,1-4.57-5.7,36.25,36.25,0,0,0,0-6.17v-.1a5.29,5.29,0,0,1,5.42-5.52h1.66a5.39,5.39,0,0,1,5.52,5.38c0,1.32,0,2.45,0,3.41,0,1.14.06,2.05.12,2.77A5.2,5.2,0,0,1,1578.57,577.17Z" transform="translate(-423.34)" style="fill:#fcc0bf"/><path d="M1581.71,569.17a10.14,10.14,0,0,1-2.65.62,12.11,12.11,0,0,1-9.93-3.79c-.21-3.06-.6-5.62-.6-5.62h13.41C1581.73,564.26,1581.67,567.1,1581.71,569.17Z" transform="translate(-423.34)" style="fill:#3d2c63;opacity:0.19"/><path d="M1566.05,548.24s-5.09,19.72,8.64,20c15.09.28,10.8-19.61,10.8-19.61S1576.81,536.18,1566.05,548.24Z" transform="translate(-423.34)" style="fill:#fcc0bf"/><path d="M1591.6,540.37c0,.19-.1.38-.14.56l-.09.35c-.48,1.92-.88,3.42-1.3,4.58,0,.12-.09.24-.14.35-1.67,4.25-3.91,3.58-12.78,3h0l-.61,0h0c-2.06-.13-4.46-.25-7.28-.31h-.45l-2.31,0c1,5.45-.72,12.06-.91,11.82a13,13,0,0,1-2.2-11.79,8.58,8.58,0,0,1-.21-1.82c0-.12,0-.24,0-.37a8.56,8.56,0,0,1,1.07-4.07c.08-.15.17-.29.26-.44a10.17,10.17,0,0,1,6.21-4,21.3,21.3,0,0,1,3.15-.59l.61-.06a28.26,28.26,0,0,1,4.69,0l.42,0A43.31,43.31,0,0,1,1591.6,540.37Z" transform="translate(-423.34)" style="fill:#29114d"/><path d="M1564.93,549.9a22.89,22.89,0,0,1,6.79.59s-4-1.94-5.56-1.61S1564.93,549.9,1564.93,549.9Z" transform="translate(-423.34)" style="fill:#29114d"/><ellipse cx="1141.41" cy="558.08" rx="3.7" ry="3.53" style="fill:#fcc0bf"/><path d="M1576,560.73l5.81-.23s-.24,4.29-3.11,3.82S1576,560.73,1576,560.73Z" transform="translate(-423.34)"/><circle cx="1151.39" cy="554.29" r="1.12"/><circle cx="1159.26" cy="554.34" r="1.12"/><path d="M1649.68,845.49l-29.41,5a2.27,2.27,0,0,1-2.61-1.86l-.89-5.25c-.42-2.47-.76-4.45.78-4.71l.28.07a17.77,17.77,0,0,0,14.85-3h0c3.85-.37,4.56,1,8,2,2.62.77,4.85,1.67,6.33,2.25a4.7,4.7,0,0,1,2.72,2.88,1.83,1.83,0,0,1,.08.25C1650.51,845.89,1649.68,845.49,1649.68,845.49Z" transform="translate(-423.34)" style="fill:#fdbd28"/><path d="M1649.68,845.49l-5.56.94c-2.42-2.4-3.22-6.53-3.49-8.72,2.62.77,4.85,1.67,6.33,2.25a4.7,4.7,0,0,1,2.72,2.88,1.83,1.83,0,0,1,.08.25C1650.51,845.89,1649.68,845.49,1649.68,845.49Z" transform="translate(-423.34)" style="fill:#eaeaea"/><path d="M1649.68,845.49l-29.41,5a2.27,2.27,0,0,1-2.61-1.86l-.06-.34,32.08-5.44a1.83,1.83,0,0,1,.08.25C1650.51,845.89,1649.68,845.49,1649.68,845.49Z" transform="translate(-423.34)" style="fill:#2b1a82"/><path d="M1633.85,840.42h-.2a.71.71,0,0,1-.61-.78l.46-3.54a.7.7,0,1,1,1.38.17l-.45,3.55A.7.7,0,0,1,1633.85,840.42Z" transform="translate(-423.34)" style="fill:#3d2c63"/><path d="M1637,840.55h-.18a.69.69,0,0,1-.63-.75l.32-3.4a.68.68,0,0,1,.76-.63.69.69,0,0,1,.63.75l-.32,3.4A.69.69,0,0,1,1637,840.55Z" transform="translate(-423.34)" style="fill:#3d2c63"/><path d="M1458.66,810.45l-17.72-24a2.29,2.29,0,0,1,.48-3.18l4.28-3.16c2-1.49,3.64-2.68,4.56-1.43l.07.28a17.8,17.8,0,0,0,9.37,11.91h0c2.07,3.27,1.18,4.51,1.82,8,.5,2.69.71,5.08.85,6.67a4.67,4.67,0,0,1-1.34,3.72,1.66,1.66,0,0,1-.19.18C1458.68,811.38,1458.66,810.45,1458.66,810.45Z" transform="translate(-423.34)" style="fill:#fdbd28"/><path d="M1458.66,810.45l-3.34-4.53c1-3.24,4.37-5.82,6.2-7,.5,2.69.71,5.08.85,6.67a4.67,4.67,0,0,1-1.34,3.72,1.66,1.66,0,0,1-.19.18C1458.68,811.38,1458.66,810.45,1458.66,810.45Z" transform="translate(-423.34)" style="fill:#eaeaea"/><path d="M1458.66,810.45l-17.72-24a2.29,2.29,0,0,1,.48-3.18l.28-.2L1461,809.26a1.66,1.66,0,0,1-.19.18C1458.68,811.38,1458.66,810.45,1458.66,810.45Z" transform="translate(-423.34)" style="fill:#2b1a82"/><path d="M1456.05,794a.51.51,0,0,1-.09-.18.7.7,0,0,1,.42-.89l3.37-1.19a.69.69,0,1,1,.46,1.31l-3.36,1.2A.72.72,0,0,1,1456.05,794Z" transform="translate(-423.34)" style="fill:#3d2c63"/><path d="M1457.34,796.88a.51.51,0,0,1-.09-.16.7.7,0,0,1,.39-.91l3.18-1.25a.7.7,0,0,1,.51,1.3l-3.18,1.25A.68.68,0,0,1,1457.34,796.88Z" transform="translate(-423.34)" style="fill:#3d2c63"/><path d="M1594,578a58.77,58.77,0,0,1,11.46,9.8l-2.07,2.17Z" transform="translate(-423.34)" style="fill:#3d2c63;opacity:0.32"/><path d="M1555.77,608.89s7.24,22.18,35.31,41c19.55,13.12,19.59,13.05,19.59,13.05Z" transform="translate(-423.34)" style="fill:#3d2c63;opacity:0.32"/><path d="M1587.64,611.61s-.16-.85,4.21,3.07c17.35,36,38.79,46.46,38.79,46.46l-3.36,7.17s-13.68.66-50-33.86c-5.09-4.84-8.26-8.57-9.19-9.48Z" transform="translate(-423.34)" style="fill:#fcc0bf"/><path d="M1592.31,615.22c-1,10.58-12.78,22.29-12.78,22.29-1.58-1.25-3.07-2.51-4.49-3.79-17.53-15.85-23.29-33.91-23.29-33.91a29.71,29.71,0,0,1,14.52-6.46c7-1.12,18.36,12.08,23.45,18.49C1591.33,613.87,1592.31,615.22,1592.31,615.22Z" transform="translate(-423.34)" style="fill:#fdbd28"/><path d="M1592.31,615.22c-1,10.58-12.78,22.29-12.78,22.29-1.58-1.25-3.07-2.51-4.49-3.79a49.55,49.55,0,0,0,14.68-21.88C1591.33,613.87,1592.31,615.22,1592.31,615.22Z" transform="translate(-423.34)" style="fill:#fff;opacity:0.32"/><path d="M1647.38,520.68l-2.28,1.74c-.22.15,4.73,5.1,4.73,5.1s10.89-5.24,11.48-5.93-3.42.07-3.42.07,3.66-1.51,4.51-2.62c.67-.9-4.61.68-4.61.68,2-1.15,5.26-2.79,5-3.48-.34-.85-6.22,2.09-6.22,2.09s3.74-2.25,3.65-3.15S1652,518,1652,518a5.09,5.09,0,0,0,.06-3.86v0a.7.7,0,0,0-1.29.26C1650.41,517,1647.38,520.68,1647.38,520.68Z" transform="translate(-423.34)" style="fill:#fcc0bf"/><path d="M1632.91,662.43l-2.51-1.4c-.21-.14-3.12,7.28-3.12,7.28s9.43,7,10.3,7.28-1.43-3.11-1.43-3.11,2.84,2.76,4.2,3.1c1.08.27-2.45-4-2.45-4,1.83,1.34,4.64,3.73,5.17,3.22s-4.37-4.89-4.37-4.89,3.54,2.55,4.33,2.11-5.82-6.42-5.82-6.42a5.13,5.13,0,0,0,3.58-1.47h0a.7.7,0,0,0-.75-1.09C1637.47,663.77,1632.91,662.43,1632.91,662.43Z" transform="translate(-423.34)" style="fill:#fcc0bf"/><path d="M1571.44,709.09s3.17-14.74,3.6-17.61c0,0,9,31.47,10.64,47.71C1585.68,739.19,1574.78,712.81,1571.44,709.09Z" transform="translate(-423.34)" style="opacity:0.31"/><path d="M1382.56,814.42h166a37,37,0,0,1,37,37v0a0,0,0,0,1,0,0H1345.53a0,0,0,0,1,0,0v0A37,37,0,0,1,1382.56,814.42Z" style="fill:#2b1a82"/><path d="M1842.79,303s6.88,17.93,52.67,4.55l2,6.71s-15.47,17.37-46.81,15a36.31,36.31,0,0,1-23-10.83Z" transform="translate(-423.34)" style="fill:#fcc0bf"/><path d="M1808.4,308.08c2.08,5.21,16.85,13.27,23.32,16.61l.22.11c1.73.89,2.81,1.4,2.81,1.4a16.31,16.31,0,0,0,1.94-1.1c8.29-5.4,14-18.47,14-18.47-1.27-.79-2.51-1.55-3.73-2.26-19.91-11.75-32.23-13.28-32.23-13.28S1805,299.7,1808.4,308.08Z" transform="translate(-423.34)" style="fill:#4f6bfd"/><path d="M1831.72,324.69l.22.11c1.73.89,2.81,1.4,2.81,1.4a16.31,16.31,0,0,0,1.94-1.1c8.29-5.4,14-18.47,14-18.47-1.27-.79-2.51-1.55-3.73-2.26C1845.45,308,1841.23,316.23,1831.72,324.69Z" transform="translate(-423.34)" style="fill:#fff;opacity:0.32"/><path d="M1760.65,381.5c.94,10.27,68.29,12.95,77.15,7.77,2-76.68-21.74-98.18-21.74-98.18s-2.2-.33-5.53-.63a91.18,91.18,0,0,0-17.41-.06c-4.73.52-9.12,1.64-12,3.81C1763.27,307.66,1759.64,370.43,1760.65,381.5Z" transform="translate(-423.34)" style="fill:#4f6bfd"/><path d="M1802.9,298.87c7.42-.46,7.7-6.68,7.63-8.41a91.18,91.18,0,0,0-17.41-.06C1793,293.82,1794.9,299.38,1802.9,298.87Z" transform="translate(-423.34)" style="fill:#fff;opacity:0.32"/><path d="M1825.38,305.9s3.26,10.91,6.56,18.9c1.73.89,2.81,1.4,2.81,1.4a16.31,16.31,0,0,0,1.94-1.1Z" transform="translate(-423.34)" style="fill:#3d2c63;opacity:0.32"/><polygon points="1339.76 332.08 1359.29 319.71 1337.31 343.51 1339.76 332.08" style="fill:#3d2c63;opacity:0.32"/><path d="M1772.28,326.6s-21.26,15.33,21.43,30.21c0,0,3.49,4.8-1.42,6.56,0,0-38.79-2.92-47.12-20.45-9.9-20.85,14.74-35.75,14.74-35.75Z" transform="translate(-423.34)" style="fill:#fcc0bf"/><path d="M1747.37,317.89s11,11.77,21.24,13.13c0,0,1.45-1,3.61-2.58,6.47-4.81,19.32-15.31,18.47-22a29,29,0,0,0-5.81-14.32s-18.52,5.25-34.75,22.69C1749.2,315.78,1748.28,316.81,1747.37,317.89Z" transform="translate(-423.34)" style="fill:#4f6bfd"/><path d="M1895.59,307.45l-2.53,1.35c-.23.11,3.85,5.78,3.85,5.78s11.57-3.41,12.26-4-3.38-.47-3.38-.47,3.85-.9,4.86-1.87c.81-.77-4.65-.06-4.65-.06,2.12-.82,5.64-1.91,5.48-2.63-.19-.9-6.45,1.06-6.45,1.06s4-1.62,4.1-2.51-8.53,1.44-8.53,1.44a5.12,5.12,0,0,0,.68-3.79v0a.69.69,0,0,0-1.31,0C1899.16,304.32,1895.59,307.45,1895.59,307.45Z" transform="translate(-423.34)" style="fill:#fcc0bf"/><path d="M1794.59,356.72l-2.85-.29c-.25,0,0,6.95,0,6.95s11.5,3.61,12.4,3.51-2.54-2.28-2.54-2.28,3.69,1.4,5.08,1.16c1.1-.18-3.83-2.64-3.83-2.64,2.21.5,5.74,1.56,6,.88.35-.86-5.94-2.73-5.94-2.73s4.25.92,4.8.2-7.89-3.55-7.89-3.55a5.11,5.11,0,0,0,2.68-2.77v0a.7.7,0,0,0-1.12-.69C1799.3,356.12,1794.59,356.72,1794.59,356.72Z" transform="translate(-423.34)" style="fill:#fcc0bf"/><path d="M1747.37,317.89s11,11.77,21.24,13.13c0,0,1.45-1,3.61-2.58a55.83,55.83,0,0,1-22.09-13.66C1749.2,315.78,1748.28,316.81,1747.37,317.89Z" transform="translate(-423.34)" style="fill:#fff;opacity:0.32"/><polygon points="1437.38 487.9 1440.11 508.64 1456.06 509.02 1460.47 487.66 1437.38 487.9" style="fill:#fcc0bf"/><path d="M1883.09,494.93s-16.16,5.84-22.08-1.57c0,0-.47-5.48-1.11-13.22-1.32-16.15-3.37-42.14-3.4-48.83-.06-13.65-59.2-6.83-68.89-11.22,0,0-2-26.16,2.6-37a9.78,9.78,0,0,1,2.18-3.38C1870,377.89,1907.36,361,1883.09,494.93Z" transform="translate(-423.34)" style="fill:#fdbd28"/><path d="M1894.68,519.56l-30.11-.63a2.3,2.3,0,0,1-2.24-2.34l.11-5.38c0-2.53.1-4.56,1.67-4.53l.27.13a18,18,0,0,0,15.3-.15h0c3.89.36,4.33,1.84,7.51,3.47,2.45,1.26,4.5,2.57,5.85,3.43a4.73,4.73,0,0,1,2.15,3.37,2,2,0,0,1,0,.27C1895.43,520.12,1894.68,519.56,1894.68,519.56Z" transform="translate(-423.34)" style="fill:#4f6bfd"/><path d="M1894.68,519.56l-5.69-.12c-1.94-2.84-2-7.09-1.8-9.31,2.45,1.26,4.5,2.57,5.85,3.43a4.73,4.73,0,0,1,2.15,3.37,2,2,0,0,1,0,.27C1895.43,520.12,1894.68,519.56,1894.68,519.56Z" transform="translate(-423.34)" style="fill:#fff"/><path d="M1894.68,519.56l-30.11-.63a2.3,2.3,0,0,1-2.24-2.34v-.35l32.85.69a2,2,0,0,1,0,.27C1895.43,520.12,1894.68,519.56,1894.68,519.56Z" transform="translate(-423.34)" style="fill:#2b1a82"/><path d="M1880,511.52a.64.64,0,0,1-.2,0,.7.7,0,0,1-.45-.89l1.12-3.43a.71.71,0,0,1,1.34.44l-1.12,3.43A.71.71,0,0,1,1880,511.52Z" transform="translate(-423.34)" style="fill:#fff"/><path d="M1883,512.25l-.18,0a.71.71,0,0,1-.48-.88l1-3.31a.7.7,0,1,1,1.35.39l-1,3.32A.72.72,0,0,1,1883,512.25Z" transform="translate(-423.34)" style="fill:#fff"/><polygon points="1405.71 487.9 1408.44 508.64 1424.39 509.02 1428.8 487.66 1405.71 487.9" style="fill:#fcc0bf"/><path d="M1859.9,480.14c-1.32-16.15-3.37-42.14-3.4-48.83-.06-13.65-59.2-6.83-68.89-11.22,0,0-2-26.16,2.6-37C1846.89,382.72,1872.29,391.48,1859.9,480.14Z" transform="translate(-423.34)" style="opacity:0.2"/><path d="M1851.42,494.93s-16.16,5.84-22.08-1.57c0,0-2-28.74-4.85-62.1-.3-3.44-19.17-4.11-33.47-3.73-22.41.59-39.35-20.71-33.14-42.25a12.56,12.56,0,0,1,2.84-5.6C1838.29,377.89,1872.26,375.77,1851.42,494.93Z" transform="translate(-423.34)" style="fill:#fdbd28"/><path d="M1863,519.56l-30.11-.63a2.3,2.3,0,0,1-2.24-2.34l.11-5.38c0-2.53.1-4.56,1.67-4.53l.27.13a18,18,0,0,0,15.3-.15h0c3.89.36,4.33,1.84,7.51,3.47,2.45,1.26,4.5,2.57,5.85,3.43a4.73,4.73,0,0,1,2.15,3.37,2,2,0,0,1,0,.27C1863.76,520.12,1863,519.56,1863,519.56Z" transform="translate(-423.34)" style="fill:#4f6bfd"/><path d="M1863,519.56l-5.69-.12c-1.94-2.84-2-7.09-1.8-9.31,2.45,1.26,4.5,2.57,5.85,3.43a4.73,4.73,0,0,1,2.15,3.37,2,2,0,0,1,0,.27C1863.76,520.12,1863,519.56,1863,519.56Z" transform="translate(-423.34)" style="fill:#fff"/><path d="M1863,519.56l-30.11-.63a2.3,2.3,0,0,1-2.24-2.34v-.35l32.85.69a2,2,0,0,1,0,.27C1863.76,520.12,1863,519.56,1863,519.56Z" transform="translate(-423.34)" style="fill:#2b1a82"/><path d="M1848.28,511.52a.64.64,0,0,1-.2,0,.7.7,0,0,1-.45-.89l1.12-3.43a.71.71,0,0,1,1.34.44L1849,511A.69.69,0,0,1,1848.28,511.52Z" transform="translate(-423.34)" style="fill:#fff"/><path d="M1851.34,512.25l-.18,0a.71.71,0,0,1-.48-.88l1-3.31a.7.7,0,1,1,1.35.39l-1,3.32A.72.72,0,0,1,1851.34,512.25Z" transform="translate(-423.34)" style="fill:#fff"/><path d="M1812.57,267s1.55,9-.37,10.75c0,0-3.86.26-2.29-8.67S1812.57,267,1812.57,267Z" transform="translate(-423.34)" style="fill:#29114d"/><ellipse cx="1389.28" cy="275.75" rx="3.88" ry="3.7" style="fill:#fcc0bf"/><path d="M1804.82,295.41a9.17,9.17,0,0,1-4.89.7,5.28,5.28,0,0,1-4.57-5.7,36.36,36.36,0,0,0,0-6.18v-.09a5.29,5.29,0,0,1,5.42-5.52h1.66A5.39,5.39,0,0,1,1808,284c0,1.32,0,2.45,0,3.41,0,1.14.07,2,.13,2.77A5.21,5.21,0,0,1,1804.82,295.41Z" transform="translate(-423.34)" style="fill:#fcc0bf"/><path d="M1808,287.41a10,10,0,0,1-2.64.61,12.05,12.05,0,0,1-9.93-3.79c-.21-3.05-.6-5.61-.6-5.61h13.41C1808,282.5,1807.92,285.34,1808,287.41Z" transform="translate(-423.34)" style="fill:#3d2c63;opacity:0.19"/><path d="M1792.3,266.48s-5.09,19.72,8.64,20c15.09.28,10.8-19.61,10.8-19.61S1803.06,254.42,1792.3,266.48Z" transform="translate(-423.34)" style="fill:#fcc0bf"/><path d="M1817.84,258.61c0,.19-.09.38-.13.56l-.09.35c-.48,1.92-.88,3.42-1.3,4.58,0,.12-.09.24-.14.35-1.68,4.25-3.91,3.58-12.78,3h0l-.61,0h0c-2.06-.13-4.46-.25-7.28-.31h-.45l-2.31,0c1,5.45-.72,12.06-.91,11.82a13,13,0,0,1-2.2-11.79,8.62,8.62,0,0,1-.21-1.83v-.36a8.7,8.7,0,0,1,1.08-4.07c.08-.15.17-.29.26-.44a10.14,10.14,0,0,1,6.21-4.05,21.3,21.3,0,0,1,3.15-.59l.61-.06a29.4,29.4,0,0,1,4.69,0l.41,0A43.19,43.19,0,0,1,1817.84,258.61Z" transform="translate(-423.34)" style="fill:#29114d"/><path d="M1791.18,268.14a22.46,22.46,0,0,1,6.78.59s-4-1.94-5.55-1.61S1791.18,268.14,1791.18,268.14Z" transform="translate(-423.34)" style="fill:#29114d"/><ellipse cx="1367.65" cy="276.32" rx="3.7" ry="3.53" style="fill:#fcc0bf"/><path d="M1802.23,279l5.8-.24s-.23,4.3-3.1,3.82S1802.23,279,1802.23,279Z" transform="translate(-423.34)"/><circle cx="1377.64" cy="272.53" r="1.12"/><circle cx="1385.51" cy="272.58" r="1.12"/><polygon points="1742.65 819.56 1739.34 840.81 1722.94 840.81 1718.93 818.75 1742.65 819.56" style="fill:#fcc0bf"/><path d="M2144.63,831.73s14.95,2.29,20.57-6.18-21.51,1-21.51,1Z" transform="translate(-423.34)" style="fill:#3d2c63;opacity:0.19"/><path d="M2142.83,826.24s16.46,6.39,22.73-1.08c0,0,19.9-105.66,25-132.47.18-.91.6-1.78.84-2.74,3.16-12.68-.28-32.68-2.59-43.37l-41.64-4S2129.13,696.6,2142.83,826.24Z" transform="translate(-423.34)" style="fill:#2b1a82"/><polygon points="1818.67 816.17 1818.66 839.87 1802.39 841.75 1795.02 818.09 1818.67 816.17" style="fill:#fcc0bf"/><path d="M2242,824.54s-8.24,9.68-18.66,9.57l-2.64-7,4.86-.6" transform="translate(-423.34)" style="fill:#3d2c63;opacity:0.19"/><path d="M2135.35,573.46s-7.35,19.15-56.26,4.86l-2.18,7.17s16.52,18.55,50,16a38.8,38.8,0,0,0,24.58-11.57Z" transform="translate(-423.34)" style="fill:#fcc0bf"/><path d="M2242,823.34c.28,8.72-21.75,5.87-21.75,5.87-46.78-132.61-43.45-179.93-43.45-179.93l34.54-11.06C2217.06,639.32,2237.26,675.31,2242,823.34Z" transform="translate(-423.34)" style="fill:#2b1a82"/><path d="M2172.09,578.9c-2.23,5.56-18,14.17-24.91,17.73l-.24.12c-1.84,1-3,1.5-3,1.5a18,18,0,0,1-2.08-1.17c-8.85-5.77-15-19.73-15-19.73,1.35-.85,2.68-1.66,4-2.41,21.26-12.55,34.42-14.18,34.42-14.18S2175.67,570,2172.09,578.9Z" transform="translate(-423.34)" style="fill:#4f6bfd"/><path d="M2147.18,596.63l-.24.12c-1.84,1-3,1.5-3,1.5a18,18,0,0,1-2.08-1.17c-8.85-5.77-15-19.73-15-19.73,1.35-.85,2.68-1.66,4-2.41C2132.51,578.8,2137,587.6,2147.18,596.63Z" transform="translate(-423.34)" style="fill:#fff;opacity:0.32"/><path d="M2223.09,657.31c-1,11-73,13.83-82.41,8.31-2.1-81.91,23.22-104.86,23.22-104.86s2.35-.36,5.91-.69a98.6,98.6,0,0,1,18.59-.06c5,.56,9.75,1.76,12.81,4.07C2220.29,578.45,2224.16,645.49,2223.09,657.31Z" transform="translate(-423.34)" style="fill:#4f6bfd"/><path d="M2178,569.06c-7.92-.5-8.21-7.13-8.14-9a98.6,98.6,0,0,1,18.59-.06C2188.56,563.67,2186.5,569.61,2178,569.06Z" transform="translate(-423.34)" style="fill:#fff;opacity:0.32"/><path d="M2154,576.57s-3.49,11.66-7,20.18c-1.84,1-3,1.5-3,1.5a18,18,0,0,1-2.08-1.17Z" transform="translate(-423.34)" style="fill:#3d2c63;opacity:0.32"/><polygon points="1797.14 604.53 1776.27 591.32 1799.75 616.74 1797.14 604.53" style="fill:#3d2c63;opacity:0.32"/><path d="M2210.67,598.67s22.7,16.38-22.89,32.28c0,0-3.74,5.12,1.51,7,0,0,41.43-3.12,50.32-21.84,10.58-22.27-15.74-38.18-15.74-38.18Z" transform="translate(-423.34)" style="fill:#fcc0bf"/><path d="M2237.27,589.38s-11.75,12.57-22.69,14c0,0-1.55-1-3.85-2.76-6.91-5.14-20.64-16.35-19.73-23.53a30.91,30.91,0,0,1,6.21-15.29s19.78,5.61,37.11,24.23C2235.32,587.12,2236.29,588.23,2237.27,589.38Z" transform="translate(-423.34)" style="fill:#4f6bfd"/><path d="M2144.23,852l19.38,1,.22-4.23L2164,845c.17-3.36-2.07-6.21-5-6.36l-8.75-.44c-2.93-.15-5.45,2.45-5.62,5.81l-.17,3.36Z" transform="translate(-423.34)" style="fill:#4f6bfd"/><rect x="2150.11" y="839.47" width="8.58" height="1.63" rx="0.81" transform="translate(3840.11 1788.64) rotate(-177.1)" style="fill:#eaeaea"/><rect x="2149.98" y="842.02" width="8.58" height="1.63" rx="0.81" transform="translate(3839.72 1793.73) rotate(-177.1)" style="fill:#eaeaea"/><path d="M2144.23,852l19.38,1,.22-4.23a8.71,8.71,0,0,0-7-4.17l-5.31-.27a8.66,8.66,0,0,0-7.06,3.06Z" transform="translate(-423.34)" style="fill:#eaeaea"/><rect x="2152.3" y="841.05" width="3.41" height="19.41" transform="translate(771.87 2958.89) rotate(-87.1)" style="fill:url(#a)"/><path d="M2224.17,843.68l.2,4.58v.18l.14,3.23,19.39-.86-.15-3.41h0l-.07-1.69-.13-2.89c-.15-3.36-2.65-6-5.59-5.84l-8.74.38C2226.28,837.49,2224,840.32,2224.17,843.68Z" transform="translate(-423.34)" style="fill:#4f6bfd"/><rect x="2229.24" y="838.26" width="8.58" height="1.63" rx="0.81" transform="translate(4078.74 1578.24) rotate(177.46)" style="fill:#eaeaea"/><rect x="2229.35" y="840.81" width="8.58" height="1.63" rx="0.81" transform="translate(4079.08 1583.34) rotate(177.46)" style="fill:#eaeaea"/><path d="M2224.38,848.44l.14,3.23,19.39-.86-.15-3.41h0l-.07-1.69a8.62,8.62,0,0,0-6-2.45h-5.32a8.68,8.68,0,0,0-7.86,5A1.42,1.42,0,0,0,2224.38,848.44Z" transform="translate(-423.34)" style="fill:#eaeaea"/><polygon points="1801.03 848.26 1801.04 848.44 1801.18 851.67 1820.57 850.81 1820.42 847.4 1820.41 847.4 1801.12 848.26 1801.03 848.26" style="fill:url(#b)"/><path d="M2079,578.22l2.7,1.45c.25.11-4.11,6.17-4.11,6.17s-12.36-3.64-13.09-4.27,3.61-.51,3.61-.51-4.11-1-5.2-2c-.86-.82,5-.07,5-.07-2.26-.87-6-2-5.86-2.8.21-1,6.9,1.13,6.9,1.13s-4.31-1.73-4.38-2.69,9.11,1.55,9.11,1.55a5.48,5.48,0,0,1-.73-4.06h0a.74.74,0,0,1,1.4,0C2075.14,574.89,2079,578.22,2079,578.22Z" transform="translate(-423.34)" style="fill:#fcc0bf"/><path d="M2186.83,630.85l3.05-.31c.27,0,0,7.42,0,7.42s-12.28,3.86-13.25,3.75,2.72-2.44,2.72-2.44-3.95,1.5-5.42,1.25c-1.18-.2,4.08-2.83,4.08-2.83-2.36.54-6.13,1.67-6.42.94-.37-.91,6.35-2.91,6.35-2.91s-4.54,1-5.13.22,8.42-3.8,8.42-3.8a5.45,5.45,0,0,1-2.86-3v0a.74.74,0,0,1,1.19-.73C2181.8,630.2,2186.83,630.85,2186.83,630.85Z" transform="translate(-423.34)" style="fill:#fcc0bf"/><path d="M2186.49,716.34c-.22-.94-4.87-18.9-5.07-24.43,0,0-1.24,36.63.59,46Z" transform="translate(-423.34)" style="opacity:0.31"/><path d="M2237.27,589.38s-11.75,12.57-22.69,14c0,0-1.55-1-3.85-2.76,11.41-3.54,19.76-10.76,23.59-14.59C2235.32,587.12,2236.29,588.23,2237.27,589.38Z" transform="translate(-423.34)" style="fill:#fff;opacity:0.32"/><path d="M2168.21,537.87s-1.55,9,.36,10.74c0,0,3.87.27,2.3-8.67S2168.21,537.87,2168.21,537.87Z" transform="translate(-423.34)" style="fill:#29114d"/><ellipse cx="1744.82" cy="546.66" rx="3.88" ry="3.7" style="fill:#fcc0bf"/><path d="M2176,566.32a9.06,9.06,0,0,0,4.89.7,5.27,5.27,0,0,0,4.56-5.69,37.46,37.46,0,0,1,0-6.18v-.09a5.29,5.29,0,0,0-5.42-5.53h-1.66a5.39,5.39,0,0,0-5.52,5.38c0,1.32,0,2.45,0,3.41,0,1.14-.06,2-.13,2.77A5.2,5.2,0,0,0,2176,566.32Z" transform="translate(-423.34)" style="fill:#fcc0bf"/><path d="M2172.82,558.32a10,10,0,0,0,2.64.62,12.14,12.14,0,0,0,9.94-3.79c.2-3.06.59-5.62.59-5.62h-13.41C2172.8,553.42,2172.85,556.25,2172.82,558.32Z" transform="translate(-423.34)" style="fill:#3d2c63;opacity:0.19"/><path d="M2188.47,537.4s5.09,19.71-8.63,20c-15.1.27-10.81-19.61-10.81-19.61S2177.72,525.33,2188.47,537.4Z" transform="translate(-423.34)" style="fill:#fcc0bf"/><path d="M2162.93,529.53c.05.19.09.37.14.55s.06.24.08.35a46.7,46.7,0,0,0,1.31,4.59c0,.12.09.23.13.34,1.68,4.25,3.92,3.58,12.78,3h0l.61,0h0c2.06-.14,4.47-.26,7.28-.32h.46c.74,0,1.5,0,2.3,0-1,5.45.72,12.07.91,11.83a13,13,0,0,0,2.2-11.79,8.75,8.75,0,0,0,.21-1.83v-.37a8.71,8.71,0,0,0-1.07-4.07,5.08,5.08,0,0,0-.27-.43,10.14,10.14,0,0,0-6.21-4.06,22.41,22.41,0,0,0-3.15-.59l-.6-.06a29.39,29.39,0,0,0-4.69,0l-.42,0A43.4,43.4,0,0,0,2162.93,529.53Z" transform="translate(-423.34)" style="fill:#29114d"/><path d="M2189.6,539.06a22.74,22.74,0,0,0-6.79.58s4.05-1.94,5.55-1.61S2189.6,539.06,2189.6,539.06Z" transform="translate(-423.34)" style="fill:#29114d"/><ellipse cx="1766.44" cy="547.23" rx="3.7" ry="3.53" style="fill:#fcc0bf"/><path d="M2178.55,549.89l-5.81-.24s.24,4.3,3.1,3.82S2178.55,549.89,2178.55,549.89Z" transform="translate(-423.34)"/><circle cx="1756.46" cy="543.45" r="1.12"/><circle cx="1748.59" cy="543.5" r="1.12"/><path d="M2072.2,621.91a1.18,1.18,0,0,1-1.19-1.18l-1.13-98-31.1-9.07a3.22,3.22,0,0,1-2.31-3.08v-4.38a3.21,3.21,0,0,1,3.21-3.21h0l29.73.22a1.19,1.19,0,0,1,0,2.37h0l-29.73-.21h0a.85.85,0,0,0-.59.24.83.83,0,0,0-.25.59v4.38a.84.84,0,0,0,.6.8l32,9.31a1.19,1.19,0,0,1,.85,1.13l1.13,98.86a1.19,1.19,0,0,1-1.17,1.21Z" transform="translate(-423.34)" style="fill:#2b1a82"/><rect x="1621.06" y="498.36" width="50.96" height="11.66" rx="5.83" style="fill:#4f6bfd"/><path d="M1629,484.77,1657.39,497l12.24-28.43A31,31,0,0,0,1629,484.77Z" transform="translate(-423.34)" style="fill:#4f6bfd"/><path d="M1631.65,490.59a31,31,0,1,0,40.68-16.19l-12.24,28.44Z" transform="translate(-423.34)" style="fill:#4f6bfd"/><path d="M1928.54,637.54l24.82,10.69L1964,623.41A27,27,0,0,0,1928.54,637.54Z" transform="translate(-423.34)" style="fill:#4f6bfd"/><path d="M1930.89,642.62a27,27,0,1,0,35.51-14.13l-10.69,24.82Z" transform="translate(-423.34)" style="fill:#4f6bfd"/><circle cx="1462.85" cy="748.4" r="12.57" style="fill:#fff"/><rect x="1000.04" y="849.51" width="900.93" height="6.23" rx="3.11" style="fill:#2b1a82"/><path d="M2137,280.12v67a4.16,4.16,0,0,1-4.16,4.16H1877.1a4.16,4.16,0,0,1-4.16-4.16v-67a4.16,4.16,0,0,1,4.16-4.16h255.75a4,4,0,0,1,1.1.15A4.15,4.15,0,0,1,2137,280.12Z" transform="translate(-423.34)" style="fill:#4f6bfd"/><path d="M1935.67,315.37a24.23,24.23,0,1,1-24.23-24.24A24.16,24.16,0,0,1,1935.67,315.37Z" transform="translate(-423.34)" style="fill:#fff"/><circle cx="1488.1" cy="311.12" r="8.57" style="fill:#fdbd28"/><path d="M1929.6,331.42a24.25,24.25,0,0,1-36.32,0,19.92,19.92,0,0,1,36.32,0Z" transform="translate(-423.34)" style="fill:#fdbd28"/><rect x="1523.89" y="305.29" width="170.65" height="5.32" rx="2.66" style="fill:#fff;opacity:0.48"/><rect x="1523.89" y="322.27" width="170.65" height="5.32" rx="2.66" style="fill:#fff;opacity:0.28"/><path d="M2134,276.11l-260.31,73.3a4.14,4.14,0,0,1-.7-2.31v-67a4.16,4.16,0,0,1,4.16-4.16h255.75A4,4,0,0,1,2134,276.11Z" transform="translate(-423.34)" style="fill:#fff;opacity:0.1"/><path d="M2304.61,474.07v48.8a4.37,4.37,0,0,1-4.37,4.37h-74.73a4.37,4.37,0,0,1-4.36-4.37v-48.8a4.36,4.36,0,0,1,4.36-4.36h74.73a4.37,4.37,0,0,1,4.37,4.36Z" transform="translate(-423.34)" style="fill:#fdbd28"/><path d="M2251.62,494.94l-11,3.91,11,3.91v5.06l-17.07-6.3v-5.34l17.07-6.3Z" transform="translate(-423.34)" style="fill:#fff"/><path d="M2263.78,481.81h5.85l-11.43,32.62h-5.85Z" transform="translate(-423.34)" style="fill:#fff"/><path d="M2287.08,496.18v5.34l-17.07,6.3v-5.06l11-3.91-11-3.91v-5.06Z" transform="translate(-423.34)" style="fill:#fff"/><path d="M2303.78,471.52l-81.39,54.4a4.34,4.34,0,0,1-1.24-3v-48.8a4.36,4.36,0,0,1,4.36-4.36h74.73A4.34,4.34,0,0,1,2303.78,471.52Z" transform="translate(-423.34)" style="fill:#fff;opacity:0.12"/><path d="M2340.28,580v45.22a4.05,4.05,0,0,1-4.05,4H2267a4.06,4.06,0,0,1-4.05-4V580a4,4,0,0,1,4.05-4h69.25a4,4,0,0,1,4.05,4Z" transform="translate(-423.34)" style="fill:#f04b53"/><path d="M2340.28,610.51v14.75a4.05,4.05,0,0,1-4.05,4H2267a4.06,4.06,0,0,1-4.05-4V621.2c8.52-7.53,24.4-20.91,30-21.15,7.82-.34,10.87,12.91,16.31,12.68s9.74-6.57,16.76-7.47C2331.06,604.61,2336,606.6,2340.28,610.51Z" transform="translate(-423.34)" style="fill:#fff;opacity:0.73"/><circle cx="1887.5" cy="601.29" r="4.76" style="fill:#fff;opacity:0.73"/><path d="M2339.51,577.67l-75.43,50.42a4.05,4.05,0,0,1-1.15-2.83V580a4,4,0,0,1,4.05-4h69.25A4,4,0,0,1,2339.51,577.67Z" transform="translate(-423.34)" style="fill:#fff;opacity:0.12"/><path d="M1553,415.51v45.22a4,4,0,0,1-4,4h-69.25a4,4,0,0,1-4-4V415.51a4,4,0,0,1,4-4.05H1549a4,4,0,0,1,3.28,1.68A4,4,0,0,1,1553,415.51Z" transform="translate(-423.34)" style="fill:#f04b53"/><path d="M1553,446v14.75a4,4,0,0,1-4,4h-69.25a4,4,0,0,1-4-4v-4.07c8.51-7.52,24.4-20.9,30-21.15,7.81-.34,10.87,12.91,16.3,12.69s9.74-6.57,16.76-7.48C1543.83,440.07,1548.77,442.06,1553,446Z" transform="translate(-423.34)" style="fill:#fff;opacity:0.73"/><circle cx="1100.26" cy="436.76" r="4.76" style="fill:#fff;opacity:0.73"/><path d="M1552.27,413.14l-75.42,50.41a4,4,0,0,1-1.15-2.82V415.51a4,4,0,0,1,4-4.05H1549A4,4,0,0,1,1552.27,413.14Z" transform="translate(-423.34)" style="fill:#fff;opacity:0.12"/><path d="M1510.69,512.92v48.79a4.37,4.37,0,0,1-4.37,4.37H1431.6a4.37,4.37,0,0,1-4.37-4.37V512.92a4.36,4.36,0,0,1,4.37-4.37h74.72a4.37,4.37,0,0,1,4.37,4.37Z" transform="translate(-423.34)" style="fill:#4f6bfd"/><path d="M1457.7,533.78l-11,3.91,11,3.91v5.06l-17.07-6.3V535l17.07-6.3Z" transform="translate(-423.34)" style="fill:#fff"/><path d="M1469.86,520.65h5.85l-11.43,32.62h-5.85Z" transform="translate(-423.34)" style="fill:#fff"/><path d="M1493.17,535v5.34l-17.08,6.3V541.6l11.05-3.91-11.05-3.91v-5.06Z" transform="translate(-423.34)" style="fill:#fff"/><path d="M1509.86,510.36l-81.39,54.4a4.33,4.33,0,0,1-1.24-3V512.92a4.36,4.36,0,0,1,4.37-4.37h74.72A4.34,4.34,0,0,1,1509.86,510.36Z" transform="translate(-423.34)" style="fill:#fff;opacity:0.12"/><path d="M2210.62,487.72a18.13,18.13,0,0,1-31.7,12c-.4-.46-.79-1-1.15-1.45a18.3,18.3,0,0,1-1.7-2.91,18.12,18.12,0,0,1,30.62-18.9,17.8,17.8,0,0,1,1.85,2.82A18,18,0,0,1,2210.62,487.72Z" transform="translate(-423.34)" style="fill:#4f6bfd"/><path d="M2192.43,495.6s-11.76-8.33-5.79-12.27c3-2,5.79,1.59,5.79,1.59s2.34-3.37,5.8-1.26C2204.08,487.22,2192.43,495.6,2192.43,495.6Z" transform="translate(-423.34)" style="fill:#fff"/><path d="M2208.54,479.28l-30.77,19a18.3,18.3,0,0,1-1.7-2.91,18.12,18.12,0,0,1,30.62-18.9A17.8,17.8,0,0,1,2208.54,479.28Z" transform="translate(-423.34)" style="fill:#fff;opacity:0.18"/><path d="M2279.07,691.72a16.14,16.14,0,0,1-28.23,10.68c-.36-.41-.7-.84-1-1.28a16,16,0,0,1-1.52-2.59,16.14,16.14,0,1,1,30.77-6.81Z" transform="translate(-423.34)" style="fill:#f04b53"/><path d="M2262.87,698.74s-10.47-7.42-5.16-10.93c2.67-1.76,5.16,1.41,5.16,1.41s2.08-3,5.17-1.12C2273.25,691.27,2262.87,698.74,2262.87,698.74Z" transform="translate(-423.34)" style="fill:#fff"/><path d="M2277.22,684.2l-27.4,16.92a16,16,0,0,1-1.52-2.59,16.14,16.14,0,0,1,28.92-14.33Z" transform="translate(-423.34)" style="fill:#fff;opacity:0.18"/><path d="M1491.83,638.27A16.14,16.14,0,0,1,1463.61,649c-.37-.42-.71-.85-1-1.29a16.74,16.74,0,0,1-1.52-2.59,16.14,16.14,0,1,1,30.77-6.81Z" transform="translate(-423.34)" style="fill:#f04b53"/><path d="M1475.64,645.29s-10.48-7.42-5.16-10.93c2.66-1.76,5.16,1.42,5.16,1.42s2.08-3,5.16-1.13C1486,637.82,1475.64,645.29,1475.64,645.29Z" transform="translate(-423.34)" style="fill:#fff"/><path d="M1490,630.75l-27.4,16.92a16.74,16.74,0,0,1-1.52-2.59A16.14,16.14,0,0,1,1490,630.75Z" transform="translate(-423.34)" style="fill:#fff;opacity:0.18"/><path d="M2041.72,391.86a16.13,16.13,0,0,1-28.22,10.69,14.2,14.2,0,0,1-1-1.29,16.74,16.74,0,0,1-1.52-2.59,16.14,16.14,0,1,1,30.77-6.81Z" transform="translate(-423.34)" style="fill:#f04b53"/><path d="M2025.53,398.88s-10.48-7.41-5.17-10.93c2.67-1.76,5.17,1.42,5.17,1.42s2.08-3,5.16-1.12C2035.9,391.42,2025.53,398.88,2025.53,398.88Z" transform="translate(-423.34)" style="fill:#fff"/><path d="M2039.87,384.34l-27.4,16.92a16.74,16.74,0,0,1-1.52-2.59,16.14,16.14,0,0,1,28.92-14.33Z" transform="translate(-423.34)" style="fill:#fff;opacity:0.18"/><path d="M1578.91,495.59a16.13,16.13,0,0,1-28.22,10.68,15.59,15.59,0,0,1-1-1.28,16.74,16.74,0,0,1-1.52-2.59,16.14,16.14,0,1,1,30.77-6.81Z" transform="translate(-423.34)" style="fill:#4f6bfd"/><path d="M1562.72,502.61s-10.48-7.42-5.16-10.93c2.66-1.76,5.16,1.41,5.16,1.41s2.08-3,5.16-1.12C1573.09,495.14,1562.72,502.61,1562.72,502.61Z" transform="translate(-423.34)" style="fill:#fff"/><path d="M1577.06,488.07,1549.66,505a16.74,16.74,0,0,1-1.52-2.59,16.14,16.14,0,0,1,28.92-14.33Z" transform="translate(-423.34)" style="fill:#fff;opacity:0.18"/><path d="M1565.88,544.65a10.37,10.37,0,0,1,5.18-4,17.31,17.31,0,0,1,7.73-.77,35.63,35.63,0,0,1,4.6.78c.22,0,.32-.29.1-.34a28.23,28.23,0,0,0-8.38-.86,13.58,13.58,0,0,0-6.88,2.27,9.94,9.94,0,0,0-2.65,2.72c-.12.19.18.36.3.17Z" transform="translate(-423.34)" style="fill:#fff;opacity:0.2"/><path d="M1584.73,540.9c1.11.28,2.24.51,3.37.69.22,0,.32-.31.1-.34-1.14-.18-2.26-.4-3.38-.69a.18.18,0,0,0-.09.34Z" transform="translate(-423.34)" style="fill:#fff;opacity:0.2"/><path d="M1568.76,545.19c.94-.31,1.89-.63,2.86-.85a19,19,0,0,1,2.91-.4,49.08,49.08,0,0,1,5.94.12c1.12.07,2.23.13,3.35.15a.18.18,0,0,0,0-.35c-2,0-4-.22-6-.29a25.52,25.52,0,0,0-5.92.35,30.84,30.84,0,0,0-3.25.93c-.21.07-.12.41.1.34Z" transform="translate(-423.34)" style="fill:#fff;opacity:0.2"/><path d="M1564.74,548.87c-.17,0-.23.12-.26.25a4.28,4.28,0,0,0-.09.61,7.71,7.71,0,0,0,.06,1.92c0,.22.38.13.34-.09a7,7,0,0,1-.06-1.65,5.14,5.14,0,0,1,.06-.55l0-.18a.14.14,0,0,0,0-.06s0,0,0,0,0,.11-.18.06a.17.17,0,0,0,.09-.33Z" transform="translate(-423.34)" style="fill:#fff;opacity:0.2"/><path d="M1792,262.66a10.45,10.45,0,0,1,5.18-4,17.45,17.45,0,0,1,7.73-.77,37.44,37.44,0,0,1,4.6.78c.22.06.32-.28.1-.33a28.2,28.2,0,0,0-8.38-.87,13.53,13.53,0,0,0-6.88,2.28,9.77,9.77,0,0,0-2.65,2.71c-.12.19.18.37.3.18Z" transform="translate(-423.34)" style="fill:#fff;opacity:0.2"/><path d="M1810.86,258.91c1.12.28,2.24.51,3.38.68.22,0,.31-.3.09-.34-1.14-.17-2.26-.4-3.37-.68a.18.18,0,0,0-.1.34Z" transform="translate(-423.34)" style="fill:#fff;opacity:0.2"/><path d="M1794.89,263.19c.94-.31,1.89-.62,2.86-.84a17.87,17.87,0,0,1,2.91-.4,49,49,0,0,1,5.94.11c1.12.07,2.23.13,3.35.15.23,0,.23-.34,0-.35-2,0-4-.21-6-.28a25,25,0,0,0-5.92.35,26.54,26.54,0,0,0-3.24.93.17.17,0,1,0,.09.33Z" transform="translate(-423.34)" style="fill:#fff;opacity:0.2"/><path d="M1790.87,266.87c-.17,0-.23.12-.26.26a4.08,4.08,0,0,0-.09.61,7.63,7.63,0,0,0,.07,1.91c0,.23.37.13.33-.09a6.92,6.92,0,0,1-.06-1.64,5.32,5.32,0,0,1,.06-.56l0-.17a.19.19,0,0,0,0-.07s0,0,0,0,0,.12-.18.07c.22.05.31-.29.09-.34Z" transform="translate(-423.34)" style="fill:#fff;opacity:0.2"/><path d="M2189.06,533.59a11.19,11.19,0,0,0-5.52-4.27,18.2,18.2,0,0,0-8.19-.84,38.38,38.38,0,0,0-4.89.82.18.18,0,0,0,.09.34,29.36,29.36,0,0,1,8.5-.89,13.8,13.8,0,0,1,7,2.28,9.75,9.75,0,0,1,2.69,2.74c.12.19.43,0,.3-.18Z" transform="translate(-423.34)" style="fill:#fff;opacity:0.2"/><path d="M2169.07,529.52a35.22,35.22,0,0,1-3.51.72c-.22,0-.13.37.1.33a35.57,35.57,0,0,0,3.5-.71c.22-.05.13-.39-.09-.34Z" transform="translate(-423.34)" style="fill:#fff;opacity:0.2"/><path d="M2185.86,534a31.23,31.23,0,0,0-3-.88,18.64,18.64,0,0,0-3.05-.42,49.2,49.2,0,0,0-6.19.11c-1.17.07-2.34.14-3.51.16a.18.18,0,0,0,0,.35c2.06,0,4.12-.22,6.18-.3a26.14,26.14,0,0,1,6.12.36,28.52,28.52,0,0,1,3.36,1c.21.07.31-.27.09-.34Z" transform="translate(-423.34)" style="fill:#fff;opacity:0.2"/><path d="M2190,538.49l-.16,0,0,0h0s0,0,0,.06a.85.85,0,0,1,0,.17q0,.3.06.6a7.54,7.54,0,0,1-.06,1.71c0,.22.3.31.33.09a7.81,7.81,0,0,0,.07-2,4.55,4.55,0,0,0-.09-.63c0-.13-.09-.31-.26-.27a.18.18,0,0,0,.09.34Z" transform="translate(-423.34)" style="fill:#fff;opacity:0.2"/></svg>